<svg width="77" height="28" viewBox="0 0 77 28" fill="none" xmlns="http://www.w3.org/2000/svg">
<rect x="0.5" width="76" height="28" rx="4" fill="#B45309"/>
<circle cx="16.5" cy="14" r="8" fill="#FED843"/>
<circle cx="16.5" cy="14" r="8" fill="url(#paint0_linear_225_5897)"/>
<g filter="url(#filter0_i_225_5897)">
<circle cx="16.6535" cy="13.8463" r="6.92308" fill="url(#paint1_linear_225_5897)"/>
</g>
<circle cx="16.6535" cy="13.8463" r="6.25641" stroke="#FABE2C" stroke-width="1.33333"/>
<rect x="13.1152" y="13.1724" width="1.09822" height="6.77809" rx="0.549111" fill="url(#paint2_linear_225_5897)"/>
<mask id="mask0_225_5897" style="mask-type:alpha" maskUnits="userSpaceOnUse" x="14" y="10" width="3" height="2">
<rect x="16.7402" y="10.6147" width="1.09822" height="2.19644" transform="rotate(90 16.7402 10.6147)" fill="#CD6767"/>
</mask>
<g mask="url(#mask0_225_5897)">
<path d="M14.5438 11.713C14.5438 11.5687 14.5722 11.4259 14.6274 11.2927C14.6826 11.1595 14.7635 11.0384 14.8655 10.9364C14.9674 10.8344 15.0885 10.7535 15.2217 10.6983C15.355 10.6432 15.4978 10.6147 15.642 10.6147L15.642 11.713L14.5438 11.713Z" fill="url(#paint3_linear_225_5897)"/>
</g>
<mask id="mask1_225_5897" style="mask-type:alpha" maskUnits="userSpaceOnUse" x="16" y="10" width="3" height="2">
<rect x="18.6934" y="10.6147" width="1.09822" height="2.19644" rx="0.549111" transform="rotate(90 18.6934 10.6147)" fill="#CD6767"/>
</mask>
<g mask="url(#mask1_225_5897)">
<path d="M17.1447 11.713C16.787 11.713 16.4835 11.3994 16.6825 11.102C16.7221 11.043 16.7676 10.9874 16.8186 10.9364C17.0245 10.7305 17.3039 10.6147 17.5951 10.6147C17.8864 10.6147 18.1657 10.7305 18.3717 10.9364C18.4227 10.9874 18.4682 11.043 18.5078 11.102C18.7068 11.3994 18.4033 11.713 18.0455 11.713L17.5951 11.713L17.1447 11.713Z" fill="url(#paint4_linear_225_5897)"/>
</g>
<path d="M16.736 14.6821C17.0393 14.6821 17.2852 14.928 17.2852 15.2312C17.2852 15.5345 17.0393 15.7804 16.736 15.7804L14.2136 15.7804L14.2136 14.6821L16.736 14.6821Z" fill="url(#paint5_linear_225_5897)"/>
<path d="M18.6963 16.1064L17.5981 16.1064L17.5981 14.013C17.5981 13.7097 17.8439 13.4638 18.1472 13.4638C18.4504 13.4638 18.6963 13.7097 18.6963 14.013L18.6963 16.1064Z" fill="url(#paint6_linear_225_5897)"/>
<path d="M14.5391 11.7134L15.6373 11.7134L15.6373 13.8069C15.6373 14.1101 15.3914 14.356 15.0882 14.356C14.7849 14.356 14.5391 14.1101 14.5391 13.8069L14.5391 11.7134Z" fill="url(#paint7_linear_225_5897)"/>
<path d="M19.0195 12.0396L19.0195 13.1378L16.5142 13.1378C16.2109 13.1378 15.9651 12.8919 15.9651 12.5887C15.9651 12.2854 16.2109 12.0396 16.5142 12.0396L19.0195 12.0396Z" fill="url(#paint8_linear_225_5897)"/>
<rect x="17.5811" y="10.6152" width="1.09822" height="1.93905" transform="rotate(90 17.5811 10.6152)" fill="url(#paint9_linear_225_5897)"/>
<mask id="mask2_225_5897" style="mask-type:alpha" maskUnits="userSpaceOnUse" x="19" y="12" width="2" height="3">
<rect x="20.1172" y="14.2357" width="1.09822" height="2.19644" transform="rotate(-180 20.1172 14.2357)" fill="#CD6767"/>
</mask>
<g mask="url(#mask2_225_5897)">
<path d="M19.019 12.0392C19.3103 12.0392 19.5896 12.1549 19.7956 12.3609C20.0015 12.5669 20.1172 12.8462 20.1172 13.1375L19.019 13.1375L19.019 12.0392Z" fill="url(#paint10_linear_225_5897)"/>
</g>
<mask id="mask3_225_5897" style="mask-type:alpha" maskUnits="userSpaceOnUse" x="19" y="13" width="2" height="4">
<rect x="20.1199" y="16.1916" width="1.09822" height="2.19644" rx="0.549111" transform="rotate(-180 20.1199 16.1916)" fill="#CD6767"/>
</mask>
<g mask="url(#mask3_225_5897)">
<path d="M19.0217 14.643C19.0217 14.2852 19.3353 13.9817 19.6326 14.1807C19.6917 14.2203 19.7472 14.2658 19.7983 14.3168C20.0042 14.5228 20.1199 14.8021 20.1199 15.0934C20.1199 15.3846 20.0042 15.664 19.7983 15.8699C19.7472 15.9209 19.6917 15.9664 19.6326 16.006C19.3353 16.205 19.0217 15.9015 19.0217 15.5438L19.0217 15.0934L19.0217 14.643Z" fill="url(#paint11_linear_225_5897)"/>
</g>
<rect x="20.1199" y="15.0931" width="1.09822" height="1.95621" transform="rotate(-180 20.1199 15.0931)" fill="url(#paint12_linear_225_5897)"/>
<path d="M14.543 16.897H15.6412V19.8484C15.6412 20.1517 15.3953 20.3976 15.0921 20.3976C14.7888 20.3976 14.543 20.1517 14.543 19.8484V16.897Z" fill="url(#paint13_linear_225_5897)"/>
<mask id="mask4_225_5897" style="mask-type:alpha" maskUnits="userSpaceOnUse" x="13" y="12" width="2" height="3">
<rect x="13.1143" y="12.0742" width="1.09822" height="2.19644" rx="0.549111" fill="#CD6767"/>
</mask>
<g mask="url(#mask4_225_5897)">
<circle cx="14.2125" cy="13.1724" r="1.09822" fill="url(#paint14_linear_225_5897)"/>
</g>
<mask id="mask5_225_5897" style="mask-type:alpha" maskUnits="userSpaceOnUse" x="17" y="16" width="2" height="2">
<rect x="17.5977" y="17.2046" width="1.09822" height="1.09822" transform="rotate(-90 17.5977 17.2046)" fill="#CD6767"/>
</mask>
<g mask="url(#mask5_225_5897)">
<path d="M18.6926 16.1065C18.6926 16.2507 18.6642 16.3935 18.609 16.5268C18.5538 16.66 18.4729 16.7811 18.371 16.8831C18.269 16.9851 18.1479 17.066 18.0147 17.1211C17.8814 17.1763 17.7386 17.2047 17.5944 17.2047L17.5944 16.1065L18.6926 16.1065Z" fill="url(#paint15_linear_225_5897)"/>
</g>
<path d="M17.5977 16.1068L17.5977 17.205L14.5432 17.205L14.5432 16.7546C14.5432 16.3968 14.8333 16.1068 15.1911 16.1068L17.5977 16.1068Z" fill="url(#paint16_linear_225_5897)"/>
<path d="M35.542 12.246V13.94H33.232V16.25H31.538V13.94H29.242V12.246H31.538V9.95H33.232V12.246H35.542ZM39.2756 8.2H40.9556V18H39.0236V10.244L37.1756 10.762L36.6996 9.11L39.2756 8.2ZM46.1597 11.77C47.1024 11.77 47.8957 12.0547 48.5397 12.624C49.1837 13.184 49.5057 13.968 49.5057 14.976C49.5057 15.984 49.165 16.7727 48.4837 17.342C47.8117 17.9113 46.9857 18.196 46.0057 18.196C45.2124 18.196 44.5124 18.0187 43.9057 17.664C43.299 17.3093 42.8604 16.7867 42.5897 16.096L44.2417 15.13C44.4844 15.914 45.0724 16.306 46.0057 16.306C46.5004 16.306 46.883 16.1893 47.1537 15.956C47.4337 15.7133 47.5737 15.3867 47.5737 14.976C47.5737 14.5747 47.4384 14.2527 47.1677 14.01C46.897 13.7673 46.5284 13.646 46.0617 13.646H43.0937L43.4857 8.2H49.0437V10.006H45.2777L45.1517 11.77H46.1597ZM54.4355 18.196C53.2129 18.196 52.2515 17.734 51.5515 16.81C50.8609 15.8767 50.5155 14.64 50.5155 13.1C50.5155 11.56 50.8609 10.328 51.5515 9.404C52.2515 8.47067 53.2129 8.004 54.4355 8.004C55.6675 8.004 56.6289 8.47067 57.3195 9.404C58.0102 10.328 58.3555 11.56 58.3555 13.1C58.3555 14.64 58.0102 15.8767 57.3195 16.81C56.6289 17.734 55.6675 18.196 54.4355 18.196ZM52.9515 15.494C53.2875 16.0353 53.7822 16.306 54.4355 16.306C55.0889 16.306 55.5835 16.0307 55.9195 15.48C56.2649 14.9293 56.4375 14.136 56.4375 13.1C56.4375 12.0547 56.2649 11.2567 55.9195 10.706C55.5835 10.1553 55.0889 9.88 54.4355 9.88C53.7822 9.88 53.2875 10.1553 52.9515 10.706C52.6155 11.2567 52.4475 12.0547 52.4475 13.1C52.4475 14.1453 52.6155 14.9433 52.9515 15.494ZM63.5339 18.196C62.3112 18.196 61.3499 17.734 60.6499 16.81C59.9592 15.8767 59.6139 14.64 59.6139 13.1C59.6139 11.56 59.9592 10.328 60.6499 9.404C61.3499 8.47067 62.3112 8.004 63.5339 8.004C64.7659 8.004 65.7272 8.47067 66.4179 9.404C67.1086 10.328 67.4539 11.56 67.4539 13.1C67.4539 14.64 67.1086 15.8767 66.4179 16.81C65.7272 17.734 64.7659 18.196 63.5339 18.196ZM62.0499 15.494C62.3859 16.0353 62.8806 16.306 63.5339 16.306C64.1872 16.306 64.6819 16.0307 65.0179 15.48C65.3632 14.9293 65.5359 14.136 65.5359 13.1C65.5359 12.0547 65.3632 11.2567 65.0179 10.706C64.6819 10.1553 64.1872 9.88 63.5339 9.88C62.8806 9.88 62.3859 10.1553 62.0499 10.706C61.7139 11.2567 61.5459 12.0547 61.5459 13.1C61.5459 14.1453 61.7139 14.9433 62.0499 15.494Z" fill="#F8FAFC"/>
<defs>
<filter id="filter0_i_225_5897" x="9.73047" y="6.92319" width="13.8462" height="14.5128" filterUnits="userSpaceOnUse" color-interpolation-filters="sRGB">
<feFlood flood-opacity="0" result="BackgroundImageFix"/>
<feBlend mode="normal" in="SourceGraphic" in2="BackgroundImageFix" result="shape"/>
<feColorMatrix in="SourceAlpha" type="matrix" values="0 0 0 0 0 0 0 0 0 0 0 0 0 0 0 0 0 0 127 0" result="hardAlpha"/>
<feOffset dy="0.666667"/>
<feGaussianBlur stdDeviation="2.66667"/>
<feComposite in2="hardAlpha" operator="arithmetic" k2="-1" k3="1"/>
<feColorMatrix type="matrix" values="0 0 0 0 0 0 0 0 0 0 0 0 0 0 0 0 0 0 0.25 0"/>
<feBlend mode="normal" in2="shape" result="effect1_innerShadow_225_5897"/>
</filter>
<linearGradient id="paint0_linear_225_5897" x1="16.5" y1="6" x2="16.5" y2="22" gradientUnits="userSpaceOnUse">
<stop stop-color="#FED843"/>
<stop offset="1" stop-color="#FF9100"/>
</linearGradient>
<linearGradient id="paint1_linear_225_5897" x1="16.6535" y1="6.92319" x2="16.6535" y2="20.7693" gradientUnits="userSpaceOnUse">
<stop stop-color="#FED843"/>
<stop offset="0.0001" stop-color="#FFA10F" stop-opacity="0.35"/>
<stop offset="1" stop-color="#FF9100"/>
</linearGradient>
<linearGradient id="paint2_linear_225_5897" x1="13.6643" y1="13.1724" x2="13.6643" y2="19.9505" gradientUnits="userSpaceOnUse">
<stop stop-color="#FEEB40"/>
<stop offset="0.9998" stop-color="#FEB926"/>
<stop offset="0.9999" stop-color="#FEB724"/>
<stop offset="1" stop-color="#FF9303"/>
</linearGradient>
<linearGradient id="paint3_linear_225_5897" x1="16.7402" y1="11.713" x2="14.5438" y2="11.713" gradientUnits="userSpaceOnUse">
<stop stop-color="#FEEB40"/>
<stop offset="0.9998" stop-color="#FEB926"/>
<stop offset="0.9999" stop-color="#FEB724"/>
<stop offset="1" stop-color="#FF9303"/>
</linearGradient>
<linearGradient id="paint4_linear_225_5897" x1="18.6934" y1="11.713" x2="16.4969" y2="11.713" gradientUnits="userSpaceOnUse">
<stop stop-color="#FEEB40"/>
<stop offset="0.9998" stop-color="#FEB926"/>
<stop offset="0.9999" stop-color="#FEB724"/>
<stop offset="1" stop-color="#FF9303"/>
</linearGradient>
<linearGradient id="paint5_linear_225_5897" x1="17.2852" y1="15.2312" x2="14.2136" y2="15.2312" gradientUnits="userSpaceOnUse">
<stop stop-color="#FEEB40"/>
<stop offset="0.9998" stop-color="#FEB926"/>
<stop offset="0.9999" stop-color="#FEB724"/>
<stop offset="1" stop-color="#FF9303"/>
</linearGradient>
<linearGradient id="paint6_linear_225_5897" x1="18.1472" y1="16.1064" x2="18.1472" y2="13.4638" gradientUnits="userSpaceOnUse">
<stop stop-color="#FEEB40"/>
<stop offset="0.9998" stop-color="#FEB926"/>
<stop offset="0.9999" stop-color="#FEB724"/>
<stop offset="1" stop-color="#FF9303"/>
</linearGradient>
<linearGradient id="paint7_linear_225_5897" x1="15.0882" y1="11.7134" x2="15.0882" y2="14.356" gradientUnits="userSpaceOnUse">
<stop stop-color="#FEEB40"/>
<stop offset="0.9998" stop-color="#FEB926"/>
<stop offset="0.9999" stop-color="#FEB724"/>
<stop offset="1" stop-color="#FF9303"/>
</linearGradient>
<linearGradient id="paint8_linear_225_5897" x1="19.0195" y1="12.5887" x2="15.9651" y2="12.5887" gradientUnits="userSpaceOnUse">
<stop stop-color="#FEEB40"/>
<stop offset="0.9998" stop-color="#FEB926"/>
<stop offset="0.9999" stop-color="#FEB724"/>
<stop offset="1" stop-color="#FF9303"/>
</linearGradient>
<linearGradient id="paint9_linear_225_5897" x1="18.1302" y1="10.6152" x2="18.1302" y2="12.5543" gradientUnits="userSpaceOnUse">
<stop stop-color="#FEEB40"/>
<stop offset="0.9998" stop-color="#FEB926"/>
<stop offset="0.9999" stop-color="#FEB724"/>
<stop offset="1" stop-color="#FF9303"/>
</linearGradient>
<linearGradient id="paint10_linear_225_5897" x1="19.019" y1="14.2357" x2="19.019" y2="12.0392" gradientUnits="userSpaceOnUse">
<stop stop-color="#FEEB40"/>
<stop offset="0.9998" stop-color="#FEB926"/>
<stop offset="0.9999" stop-color="#FEB724"/>
<stop offset="1" stop-color="#FF9303"/>
</linearGradient>
<linearGradient id="paint11_linear_225_5897" x1="19.0217" y1="16.1916" x2="19.0217" y2="13.9951" gradientUnits="userSpaceOnUse">
<stop stop-color="#FEEB40"/>
<stop offset="0.9998" stop-color="#FEB926"/>
<stop offset="0.9999" stop-color="#FEB724"/>
<stop offset="1" stop-color="#FF9303"/>
</linearGradient>
<linearGradient id="paint12_linear_225_5897" x1="20.669" y1="15.0931" x2="20.669" y2="17.0493" gradientUnits="userSpaceOnUse">
<stop stop-color="#FEEB40"/>
<stop offset="0.9998" stop-color="#FEB926"/>
<stop offset="0.9999" stop-color="#FEB724"/>
<stop offset="1" stop-color="#FF9303"/>
</linearGradient>
<linearGradient id="paint13_linear_225_5897" x1="15.0921" y1="16.897" x2="15.0921" y2="20.3976" gradientUnits="userSpaceOnUse">
<stop stop-color="#FEEB40"/>
<stop offset="0.9998" stop-color="#FEB926"/>
<stop offset="0.9999" stop-color="#FEB724"/>
<stop offset="1" stop-color="#FF9303"/>
</linearGradient>
<linearGradient id="paint14_linear_225_5897" x1="14.2125" y1="12.0742" x2="14.2125" y2="14.2707" gradientUnits="userSpaceOnUse">
<stop stop-color="#FEEB40"/>
<stop offset="0.9998" stop-color="#FEB926"/>
<stop offset="0.9999" stop-color="#FEB724"/>
<stop offset="1" stop-color="#FF9303"/>
</linearGradient>
<linearGradient id="paint15_linear_225_5897" x1="16.4962" y1="16.1065" x2="18.6926" y2="16.1065" gradientUnits="userSpaceOnUse">
<stop stop-color="#FEEB40"/>
<stop offset="0.9998" stop-color="#FEB926"/>
<stop offset="0.9999" stop-color="#FEB724"/>
<stop offset="1" stop-color="#FF9303"/>
</linearGradient>
<linearGradient id="paint16_linear_225_5897" x1="17.5977" y1="16.6559" x2="14.5432" y2="16.6559" gradientUnits="userSpaceOnUse">
<stop stop-color="#FEEB40"/>
<stop offset="0.9998" stop-color="#FEB926"/>
<stop offset="0.9999" stop-color="#FEB724"/>
<stop offset="1" stop-color="#FF9303"/>
</linearGradient>
</defs>
</svg>
