<svg width="44" height="32" viewBox="0 0 44 32" fill="none" xmlns="http://www.w3.org/2000/svg">
<g clip-path="url(#clip0_164_566)">
<path d="M22.7477 6.6512C20.0353 6.01696 18.0606 6.63328 15.8052 7.40704C14.6936 7.79104 13.5679 8.19168 12.3938 8.34528C11.5191 8.45984 10.6354 8.49056 9.75483 8.57696C8.84048 8.65656 7.93187 8.79164 7.03409 8.98144C5.52536 9.31872 2.89666 9.94144 3.05822 11.96C3.12259 12.769 3.67806 13.5043 3.62207 14.3133C3.54998 15.3514 2.57677 16.1546 1.9389 16.888C1.05838 17.8998 0.265395 19.0224 0.412148 20.4291C0.529294 21.5638 1.27014 22.561 2.18414 23.2509C3.09813 23.9408 4.17947 24.3683 5.24473 24.7907C6.86803 25.4339 8.24031 26.1878 9.51668 27.3846C10.2562 28.0778 11.0441 28.7645 12.0025 29.1005C13.2898 29.5523 14.9324 29.1594 15.457 27.8032C15.7428 27.064 15.8232 26.2032 16.2667 25.5312C16.7295 24.8394 17.695 24.2557 18.542 24.369C19.9259 24.5514 20.4659 25.5722 21.1257 26.6461C21.4475 27.1709 21.8298 27.6534 22.3712 27.9683C23.2993 28.5085 24.2262 28.2979 25.2032 28.0784C26.26 27.8389 27.3283 27.6535 28.4042 27.5229C30.2302 27.3059 32.0672 27.4032 33.8862 27.631C35.6138 27.848 38.1221 28.975 39.5465 27.4448C40.1708 26.7728 40.2951 25.8538 40.0679 24.9962C39.7422 23.7667 39.038 22.4022 39.0792 21.1254C39.1346 19.2413 39.9893 17.9894 41.0334 16.5136C41.5335 15.8096 41.9184 15.025 41.9004 14.1456C41.8592 12.1155 40.5796 10.5571 39.2453 9.15808C37.911 7.75904 36.5838 6.17056 35.2366 4.93408" stroke="#ED725A" stroke-width="0.163474" stroke-miterlimit="10"/>
<path d="M42.1413 8.7237C42.1414 8.82945 42.11 8.93286 42.051 9.02084C41.992 9.10882 41.9081 9.17741 41.8098 9.21794C41.7116 9.25847 41.6035 9.2691 41.4992 9.2485C41.3948 9.2279 41.299 9.17699 41.2238 9.10222C41.1486 9.02744 41.0974 8.93216 41.0767 8.82844C41.056 8.72472 41.0667 8.61721 41.1074 8.51954C41.1482 8.42186 41.2172 8.33841 41.3057 8.27974C41.3941 8.22107 41.4982 8.18982 41.6045 8.18994C41.675 8.18986 41.7449 8.20361 41.81 8.2304C41.8752 8.25719 41.9344 8.29651 41.9843 8.34609C42.0341 8.39567 42.0737 8.45454 42.1006 8.51934C42.1276 8.58414 42.1414 8.65358 42.1413 8.7237Z" stroke="#ED725A" stroke-width="0.163474" stroke-miterlimit="10"/>
<path d="M24.1635 26.8028C24.1635 26.9084 24.132 27.0116 24.073 27.0993C24.014 27.1871 23.9302 27.2555 23.8321 27.2959C23.734 27.3363 23.6261 27.3469 23.5219 27.3263C23.4178 27.3057 23.3221 27.2549 23.2471 27.1802C23.172 27.1056 23.1209 27.0105 23.1002 26.9069C23.0794 26.8034 23.0901 26.6961 23.1307 26.5985C23.1713 26.501 23.2401 26.4176 23.3284 26.359C23.4167 26.3003 23.5205 26.269 23.6267 26.269C23.6972 26.269 23.767 26.2827 23.8322 26.3095C23.8973 26.3363 23.9566 26.3756 24.0064 26.4252C24.0563 26.4748 24.0958 26.5336 24.1228 26.5984C24.1497 26.6632 24.1636 26.7327 24.1635 26.8028Z" stroke="#ED725A" stroke-width="0.163474" stroke-miterlimit="10"/>
<path d="M22.2874 3.55358C22.3405 3.55349 22.393 3.56381 22.442 3.58394C22.4911 3.60407 22.5357 3.63361 22.5732 3.67088C22.6107 3.70816 22.6405 3.75242 22.6608 3.80115C22.6812 3.84987 22.6916 3.90211 22.6916 3.95486V11.8909C22.6915 11.9973 22.6488 12.0994 22.573 12.1746C22.4972 12.2499 22.3945 12.2921 22.2874 12.2921H6.79909C6.69205 12.2921 6.5894 12.2499 6.51372 12.1746C6.43803 12.0994 6.39551 11.9973 6.39551 11.8909V3.95486C6.39551 3.84843 6.43803 3.74637 6.51372 3.67111C6.5894 3.59586 6.69205 3.55358 6.79909 3.55358H22.2874ZM22.2874 3.45758H6.79909C6.66645 3.45758 6.53924 3.50997 6.44545 3.60323C6.35166 3.69649 6.29897 3.82297 6.29897 3.95486V11.8909C6.29897 12.0227 6.35166 12.1492 6.44545 12.2425C6.53924 12.3357 6.66645 12.3881 6.79909 12.3881H22.2874C22.4201 12.3881 22.5474 12.3358 22.6413 12.2425C22.7352 12.1493 22.788 12.0228 22.7882 11.8909V3.95486C22.7883 3.88942 22.7754 3.8246 22.7502 3.76412C22.7251 3.70363 22.6882 3.64867 22.6417 3.60236C22.5952 3.55606 22.54 3.51932 22.4792 3.49426C22.4184 3.4692 22.3532 3.4563 22.2874 3.4563V3.45758Z" fill="white"/>
<path d="M6.39453 4.62354H22.6906V11.8895C22.6906 11.9959 22.6481 12.0979 22.5724 12.1732C22.4968 12.2485 22.3941 12.2907 22.2871 12.2907H6.7981C6.69107 12.2907 6.58842 12.2485 6.51274 12.1732C6.43705 12.0979 6.39453 11.9959 6.39453 11.8895V4.62354Z" fill="#AFB9E8"/>
<path d="M7.34301 4.1199C7.34301 4.16534 7.32945 4.20976 7.30406 4.24754C7.27867 4.28533 7.24258 4.31478 7.20036 4.33217C7.15814 4.34956 7.11168 4.35411 7.06685 4.34524C7.02203 4.33638 6.98086 4.31449 6.94854 4.28236C6.91622 4.25023 6.89422 4.20929 6.8853 4.16472C6.87638 4.12015 6.88096 4.07395 6.89845 4.03197C6.91594 3.98999 6.94556 3.9541 6.98356 3.92886C7.02156 3.90361 7.06623 3.89014 7.11193 3.89014C7.17322 3.89014 7.23199 3.91434 7.27533 3.95743C7.31866 4.00052 7.34301 4.05896 7.34301 4.1199Z" stroke="white" stroke-width="0.163474" stroke-miterlimit="10"/>
<path d="M8.23949 4.1199C8.23949 4.16534 8.22594 4.20976 8.20055 4.24754C8.17516 4.28533 8.13907 4.31478 8.09684 4.33217C8.05462 4.34956 8.00816 4.35411 7.96334 4.34524C7.91851 4.33638 7.87734 4.31449 7.84502 4.28236C7.81271 4.25023 7.7907 4.20929 7.78178 4.16472C7.77287 4.12015 7.77744 4.07395 7.79493 4.03197C7.81242 3.98999 7.84204 3.9541 7.88004 3.92886C7.91804 3.90361 7.96272 3.89014 8.00842 3.89014C8.0697 3.89014 8.12848 3.91434 8.17181 3.95743C8.21514 4.00052 8.23949 4.05896 8.23949 4.1199Z" stroke="white" stroke-width="0.163474" stroke-miterlimit="10"/>
<path d="M6.39453 4.62354H22.6906" stroke="white" stroke-width="0.163474" stroke-miterlimit="10"/>
<path d="M21.3819 11.1778C21.2184 10.9622 20.9384 10.7631 20.7202 10.9122C20.5368 11.037 20.5271 11.3186 20.5445 11.5522C20.0318 10.8275 19.4158 10.1807 18.7159 9.63223C18.3419 9.34039 17.9113 9.07031 17.4518 9.10551C16.9922 9.14071 16.7534 9.78263 16.8725 10.2652C15.6167 8.61207 14.2167 7.43959 12.7582 6.42519C12.2626 6.08023 11.7103 5.74679 11.1195 5.54967C10.4919 5.33975 9.62424 5.09335 9.05975 5.58103C8.81709 5.78967 8.69029 6.10839 8.65553 6.42647C8.61305 6.81943 8.67999 7.23479 8.78426 7.61367C9.04173 8.51927 9.4556 9.37367 9.93512 10.1788C10.4146 10.9839 11.4696 12.3062 11.4696 12.3062H21.8801C21.8021 11.8974 21.6318 11.5116 21.3819 11.1778Z" fill="#909DF4"/>
<path d="M15.9065 10.6881C15.9065 10.6881 13.9073 8.96456 13.0499 8.67208C12.1926 8.3796 10.4309 8.84936 10.4109 8.84936C10.391 8.84936 8.83398 12.2932 8.83398 12.2932H15.2107L15.9065 10.6881Z" fill="#EF9748"/>
<path d="M19.7029 15.3663C19.8488 15.5174 20.0003 15.6629 20.1573 15.8028C20.3086 15.9379 20.474 16.0588 20.6214 16.1964C20.6581 16.231 20.6916 16.2681 20.7244 16.3052C20.8499 16.4366 20.9606 16.5813 21.0546 16.7366C21.0648 16.7584 21.0785 16.7785 21.0951 16.7961C21.1033 16.8046 21.1134 16.811 21.1247 16.8146C21.1359 16.8181 21.1479 16.8188 21.1595 16.8166C21.1712 16.8118 21.1817 16.8045 21.1903 16.7952C21.1989 16.7859 21.2053 16.7749 21.2091 16.7628C21.2453 16.6644 21.2476 16.5568 21.2155 16.4569C21.1988 16.3929 21.1756 16.3289 21.1576 16.2649C21.1366 16.2122 21.1267 16.1558 21.1286 16.0991C21.5566 16.2771 21.9048 16.599 22.2955 16.8486C22.3754 16.8998 22.553 16.9183 22.5813 16.8486C22.6206 16.7551 22.051 16.3366 21.7903 16.0582C21.9933 16.1542 22.1881 16.2666 22.3728 16.3942C22.4945 16.4879 22.6311 16.5608 22.777 16.6099C22.8594 16.6355 23.0486 16.6739 23.01 16.5247C22.995 16.4815 22.9683 16.4431 22.9328 16.414C22.6753 16.1676 22.3696 15.9935 22.1018 15.7619C22.403 15.8803 22.6811 16.0921 23.0029 16.103C23.0346 16.107 23.0667 16.1 23.0937 16.0831C23.1028 16.0776 23.1107 16.0703 23.117 16.0616C23.1232 16.053 23.1277 16.0432 23.1301 16.0328C23.1325 16.0225 23.1328 16.0117 23.1309 16.0012C23.1291 15.9908 23.1252 15.9807 23.1194 15.9718C23.0914 15.9328 23.0543 15.9012 23.0113 15.8796C22.7107 15.6966 22.3972 15.4956 22.0967 15.3113C22.2557 15.3635 22.4114 15.4254 22.5627 15.4969C22.7148 15.5689 22.8831 15.6007 23.0512 15.5891C23.1046 15.5827 23.1709 15.5481 23.1587 15.4963C23.1496 15.4718 23.1317 15.4515 23.1085 15.4393L22.0143 14.6937C21.9119 14.6239 21.8089 14.5542 21.704 14.4883C21.5753 14.4089 21.4311 14.3507 21.3133 14.2611C21.2219 14.1919 21.1106 14.1401 21.0121 14.0799C20.7688 13.9315 20.5332 13.7708 20.3041 13.6006" fill="#FFCAA3"/>
<path d="M21.1392 16.0969C21.0246 16.047 20.9075 16.0002 20.7891 15.958" stroke="black" stroke-width="0.108983" stroke-miterlimit="10"/>
<path d="M21.8082 16.0574C21.6523 15.951 21.4907 15.8529 21.3242 15.7637" stroke="black" stroke-width="0.108983" stroke-miterlimit="10"/>
<path d="M22.1049 15.7553L21.7188 15.5127" stroke="black" stroke-width="0.108983" stroke-miterlimit="10"/>
<path d="M22.2456 15.3902C22.1502 15.3377 22.0584 15.2789 21.9708 15.2142" stroke="black" stroke-width="0.108983" stroke-miterlimit="10"/>
<path d="M13.5118 8.72424C14.3016 8.97128 14.6981 8.99368 15.4042 9.42824C16.1508 9.89224 18.0097 11.8404 18.0097 11.8404C18.0097 11.8404 20.5155 13.5972 21.4546 14.2615L19.7675 15.8615C17.9009 14.7524 15.9867 13.4295 14.5719 11.7866" fill="#EF9748"/>
<path d="M10.6447 11.9569C10.6447 11.9569 11.428 11.539 11.7737 11.4558C12.2513 11.3361 12.8177 11.3022 12.9689 11.3483C13.0404 11.37 13.3075 11.4795 13.4478 11.642C13.5965 11.706 13.657 11.7387 13.7452 11.7758C13.8334 11.8129 13.8739 11.9159 13.9672 11.9947C14.0606 12.0734 14.1603 12.2929 14.1603 12.2929C14.1603 12.2929 13.4555 12.2929 13.2592 12.3019C13.0629 12.3108 12.8479 12.6859 12.4051 12.8139" fill="#FFCAA3"/>
<path d="M12.2589 8.41432C11.7157 8.40984 11.1866 8.26904 10.6446 8.26904C9.65983 8.26904 9.0947 8.78104 8.61582 9.494C8.2437 10.0625 7.92195 10.6621 7.6542 11.286C7.35426 11.9772 7.01827 12.7465 6.93073 13.501C6.88556 13.8466 6.94494 14.1978 7.1013 14.5097C7.39802 15.0767 8.05777 15.1759 8.44268 15.2188C8.82759 15.2617 9.50149 15.1318 9.83233 14.9282C10.8574 14.3002 11.8238 13.582 12.7198 12.7823L10.85 11.8294L9.9527 12.1782L11.0855 10.0956" fill="#EF9748"/>
<path d="M10.9939 10.2671L9.95312 12.1807" stroke="black" stroke-width="0.108983" stroke-miterlimit="10"/>
<path d="M10.8501 11.832L9.24094 12.4528C8.8747 12.5936 8.51619 12.8733 8.22461 13.1332" stroke="black" stroke-width="0.108983" stroke-miterlimit="10"/>
<path d="M10.2072 12.0913L12.1446 13.2766" stroke="black" stroke-width="0.108983" stroke-miterlimit="10"/>
<path d="M15.4144 11.1642C15.1569 11.5853 14.8029 12.2906 14.8029 12.2906" stroke="black" stroke-width="0.108983" stroke-miterlimit="10"/>
<path d="M20.7702 13.7764L18.8908 15.3328" stroke="black" stroke-width="0.108983" stroke-miterlimit="10"/>
<path d="M13.373 11.8398C13.5094 11.8755 13.6478 11.9027 13.7876 11.9211C13.8313 11.9233 13.8739 11.9351 13.9124 11.9557" stroke="black" stroke-width="0.108983" stroke-miterlimit="10"/>
<path d="M13.4942 11.676C13.4698 11.6642 13.4447 11.6539 13.4189 11.6453C13.2872 11.5876 13.1457 11.5552 13.0018 11.5499" stroke="black" stroke-width="0.108983" stroke-miterlimit="10"/>
<path d="M13.0568 12.3779C13.132 12.328 13.219 12.2987 13.3091 12.2928C13.4945 12.2736 13.6953 12.3133 13.8711 12.2441" stroke="black" stroke-width="0.108983" stroke-miterlimit="10"/>
<path d="M6.08969 13.6371C6.10988 14.0026 6.22872 14.356 6.43372 14.66C6.63873 14.9641 6.92232 15.2077 7.25471 15.3651" stroke="black" stroke-width="0.108983" stroke-miterlimit="10"/>
<path d="M5.57031 13.605C5.58512 14.0811 5.78272 14.5426 6.0891 14.8171" stroke="black" stroke-width="0.108983" stroke-miterlimit="10"/>
<path d="M16.119 8.98926C16.6912 9.47093 17.2217 9.99951 17.7049 10.5694" stroke="black" stroke-width="0.108983" stroke-miterlimit="10"/>
<path d="M16.1309 8.41797C16.5304 8.71277 16.8953 9.05133 17.2186 9.42725" stroke="black" stroke-width="0.108983" stroke-miterlimit="10"/>
<path d="M11.5165 9.38486C11.2174 9.26808 10.9299 9.12366 10.6579 8.9535C10.5376 8.88948 10.4265 8.80962 10.3277 8.71606C10.2281 8.6213 10.1701 8.49141 10.1661 8.35446C10.1759 8.22895 10.2262 8.10995 10.3096 8.01526C10.5529 7.71062 10.9469 7.5519 11.3395 7.5167C11.7321 7.4815 12.1209 7.55638 12.5019 7.6447C13.0754 7.7791 13.6605 7.9583 14.1021 8.34486C14.2302 8.45017 14.3348 8.58097 14.4091 8.72886C14.4988 8.94001 14.5213 9.17342 14.4735 9.39766C14.4222 9.62135 14.348 9.83923 14.252 10.0479" fill="#EF9748"/>
<path d="M13.0617 7.1333L12.2893 7.35666L12.3061 7.74066L11.916 8.40242C11.916 8.40242 12.8384 8.75762 13.1853 9.48146C13.2884 9.5 13.3948 9.48604 13.4896 9.44151C13.5843 9.39699 13.6627 9.32414 13.7138 9.23314L14.0916 8.34994" fill="#FFCAA3"/>
<path d="M14.8767 7.90262C14.9411 7.52246 15.0235 7.11158 15.0171 6.8095C15.0119 6.5535 14.972 6.1663 14.8059 5.96598C14.5916 5.70998 14.2022 5.70358 13.8746 5.6671C13.3371 5.60758 12.9664 6.09142 12.8067 6.5439C12.6892 6.88226 12.6892 7.25002 12.8067 7.58838C12.9548 8.05622 13.4794 8.6847 14.1616 8.60726C14.5253 8.5663 14.8066 8.30454 14.8767 7.90262Z" fill="#FFCAA3"/>
<path d="M14.2202 7.07224C14.2131 7.12856 14.1726 7.17016 14.1295 7.16568C14.1065 7.15881 14.087 7.14345 14.075 7.12274C14.063 7.10202 14.0595 7.07754 14.0651 7.05432C14.0715 6.99736 14.1121 6.95576 14.1559 6.96088C14.1788 6.96787 14.1982 6.98326 14.2101 7.00393C14.2221 7.02461 14.2257 7.04902 14.2202 7.07224Z" fill="black"/>
<path d="M14.9606 7.14309C14.9542 7.19941 14.9136 7.24101 14.8698 7.23589C14.8467 7.22917 14.8271 7.21382 14.8151 7.19307C14.8032 7.17232 14.7997 7.14776 14.8055 7.12453C14.8119 7.06821 14.8525 7.02661 14.8962 7.03109C14.9193 7.03809 14.9388 7.05358 14.9508 7.0744C14.9627 7.09521 14.9662 7.11978 14.9606 7.14309Z" fill="black"/>
<path d="M14.631 7.01758C14.6227 7.14907 14.6227 7.28096 14.631 7.41246C14.631 7.49374 14.631 7.6371 14.5281 7.65566C14.4532 7.65698 14.3785 7.64705 14.3066 7.62622" stroke="black" stroke-width="0.108983" stroke-miterlimit="10"/>
<path d="M14.3631 7.85845L14.0844 7.62549C14.0844 7.62549 13.8798 7.89109 13.9853 7.98773C14.1546 8.14325 14.3631 7.85845 14.3631 7.85845Z" fill="white"/>
<path d="M14.8148 6.04714C14.9377 6.23914 15.0079 6.3921 15.0111 6.96554C15.0706 6.95375 15.1282 6.93394 15.1823 6.90666C15.2094 6.89301 15.2334 6.87416 15.2531 6.8512C15.2728 6.82824 15.2876 6.80162 15.2969 6.77289C15.3258 6.66473 15.2447 6.55786 15.2402 6.4465C15.2426 6.36528 15.2698 6.2867 15.3181 6.22121C15.3573 6.17263 15.3852 6.11603 15.3999 6.05546C15.4012 6.01162 15.392 5.9681 15.3731 5.92848C15.3542 5.88887 15.3261 5.85429 15.2911 5.82762C15.1456 5.69962 14.9512 5.64394 14.7839 5.54794C14.7028 5.50121 14.6597 5.42825 14.5844 5.37321C14.4997 5.31104 14.4092 5.25723 14.314 5.21258C14.0939 5.10916 13.8551 5.05103 13.6118 5.04169C13.3798 5.03144 13.1482 5.06889 12.9315 5.15171C12.7147 5.23452 12.5175 5.36091 12.3521 5.52298C11.919 5.95434 11.7452 6.77674 12.0168 7.25098C12.17 7.51914 12.3103 7.73994 12.3103 7.73994C12.3283 7.76746 12.7023 7.43338 12.7255 7.38794C12.7455 7.34021 12.7611 7.29071 12.7718 7.2401C12.8201 7.07114 12.9894 7.04298 13.1342 6.9905C13.3453 6.91306 13.4509 6.72618 13.4921 6.51498C13.5125 6.39293 13.5226 6.26941 13.5223 6.14569C13.5223 6.17321 13.6929 6.23338 13.7154 6.24106C13.9724 6.32131 14.2466 6.32906 14.5078 6.26346C14.5861 6.24758 14.6598 6.21432 14.7234 6.16617C14.7414 6.15465 14.8418 6.07466 14.8148 6.04714Z" fill="#1E1611"/>
<path d="M13.2422 8.26855C13.4583 8.4712 13.7382 8.5933 14.0345 8.61415" stroke="black" stroke-width="0.108983" stroke-miterlimit="10"/>
<path d="M13.7693 6.67078C13.7924 6.62643 13.826 6.58832 13.8672 6.55973C13.9084 6.53113 13.9559 6.51291 14.0057 6.50661C14.0555 6.50032 14.1062 6.50614 14.1532 6.52359C14.2003 6.54104 14.2424 6.56958 14.2759 6.60678" stroke="black" stroke-width="0.108983" stroke-miterlimit="10"/>
<path d="M14.7129 6.68261C14.725 6.6485 14.7478 6.61914 14.7779 6.59887C14.808 6.57859 14.8439 6.56846 14.8802 6.56997C14.9144 6.5803 14.9441 6.60163 14.9647 6.63059C14.9854 6.65955 14.9957 6.69452 14.9942 6.72997" stroke="black" stroke-width="0.108983" stroke-miterlimit="10"/>
<path d="M14.4862 7.21842C14.4715 7.26378 14.4479 7.30576 14.4166 7.3419C14.3854 7.37805 14.3473 7.40763 14.3044 7.42891C14.2615 7.45019 14.2148 7.46275 14.167 7.46584C14.1192 7.46893 14.0712 7.46249 14.026 7.4469C13.934 7.41336 13.8591 7.34526 13.8172 7.25728C13.7753 7.16929 13.7698 7.06845 13.802 6.9765C13.8167 6.9312 13.8404 6.88928 13.8716 6.85318C13.9029 6.81708 13.941 6.78753 13.9839 6.76626C14.0267 6.74499 14.0734 6.73242 14.1212 6.72929C14.169 6.72616 14.2169 6.73253 14.2622 6.74802C14.3541 6.78156 14.4291 6.84966 14.471 6.93765C14.5129 7.02564 14.5183 7.12647 14.4862 7.21842Z" stroke="#572A2F" stroke-width="0.108983" stroke-miterlimit="10"/>
<path d="M15.1795 7.30853C15.1441 7.50885 15.014 7.65285 14.8892 7.62853C14.7643 7.60421 14.6903 7.42437 14.7257 7.22405C14.7611 7.02373 14.8905 6.87973 15.016 6.90405C15.1415 6.92837 15.2142 7.10821 15.1795 7.30853Z" stroke="#572A2F" stroke-width="0.108983" stroke-miterlimit="10"/>
<path d="M14.7581 7.11963L14.5039 7.07227" stroke="#572A2F" stroke-width="0.108983" stroke-miterlimit="10"/>
<path d="M13.8154 6.94189L13.0488 6.99949" stroke="#572A2F" stroke-width="0.108983" stroke-miterlimit="10"/>
<path d="M13.2699 7.13755C13.266 6.95259 13.0124 6.80795 12.8502 6.86683C12.4537 7.00827 12.5876 7.71483 12.9558 7.78203C13.0601 7.80123 13.2094 7.76091 13.2467 7.64315" fill="#FFCAA3"/>
<path d="M12.8204 7.1814L13.1615 7.4886" stroke="black" stroke-width="0.108983" stroke-miterlimit="10"/>
<path d="M13.094 6.91211C13.1793 6.96266 13.2467 7.03823 13.2871 7.12843" stroke="black" stroke-width="0.108983" stroke-miterlimit="10"/>
<path d="M12.6229 7.44922C12.6737 7.60026 12.778 7.76026 12.9447 7.78714C13.0033 7.79906 13.0642 7.79078 13.1175 7.76368C13.1707 7.73657 13.2131 7.69225 13.2376 7.63802" stroke="black" stroke-width="0.108983" stroke-miterlimit="10"/>
<path d="M11.748 6.4095C11.7499 6.16041 11.7891 5.91298 11.8645 5.67542C11.9412 5.437 12.0873 5.22654 12.2842 5.07063C12.3973 4.99162 12.5199 4.92711 12.6492 4.87863C12.7565 4.83333 12.8677 4.79735 12.9813 4.77111C13.408 4.68087 13.8509 4.81526 14.2506 4.9887" fill="#FFC36C"/>
<path d="M14.442 5.02118C14.265 4.86517 14.0348 4.78229 13.7983 4.7895C13.7531 4.79206 13.7082 4.79783 13.6638 4.80678C13.3542 4.87078 13.0749 5.02886 12.8071 5.19078C12.4486 5.41094 12.0907 5.64838 11.8281 5.97606C11.7253 6.08878 11.6599 6.23022 11.6408 6.38118C11.6389 6.46521 11.6531 6.54883 11.6826 6.62758C11.742 6.78366 11.8253 6.92962 11.9298 7.06022C12.7176 6.32742 13.6033 5.74758 14.6248 5.40326C14.6148 5.25745 14.5495 5.12087 14.442 5.02118Z" fill="#FFC36C"/>
<path d="M11.799 6.01591C12.2815 5.41254 12.9481 4.98132 13.6984 4.78711" stroke="black" stroke-width="0.108983" stroke-miterlimit="10"/>
<path d="M12.1447 6.12207C12.2332 6.29454 12.3485 6.45201 12.4865 6.58863" stroke="black" stroke-width="0.108983" stroke-miterlimit="10"/>
<path d="M12.9219 5.42871C13.0233 5.64075 13.1483 5.84083 13.2946 6.02519" stroke="black" stroke-width="0.108983" stroke-miterlimit="10"/>
<path d="M13.7461 4.98779C13.9163 5.16262 14.0612 5.36014 14.1767 5.57467" stroke="black" stroke-width="0.108983" stroke-miterlimit="10"/>
<path d="M14.0312 4.8877C14.1787 5.0715 14.3028 5.2727 14.4007 5.48674" stroke="black" stroke-width="0.108983" stroke-miterlimit="10"/>
<path d="M11.7578 6.2251C11.8089 6.48308 11.9517 6.71415 12.1601 6.87598" stroke="black" stroke-width="0.108983" stroke-miterlimit="10"/>
<path d="M11.3026 8.15845C11.6791 8.29861 12.0595 8.44005 12.3968 8.66085C12.734 8.88165 13.0713 9.19205 13.191 9.57349" stroke="black" stroke-width="0.108983" stroke-miterlimit="10"/>
<path d="M13.4472 9.4574C13.6213 9.37461 13.7587 9.23112 13.8334 9.0542" stroke="black" stroke-width="0.108983" stroke-miterlimit="10"/>
<path d="M10.1641 8.31396C10.3385 9.30852 11.658 9.11844 12.2727 9.42692" stroke="black" stroke-width="0.108983" stroke-miterlimit="10"/>
<path d="M14.4874 9.03711C14.4686 9.17535 14.4124 9.30588 14.3246 9.41471C14.1881 9.57279 13.9751 9.63807 13.7736 9.69567" stroke="black" stroke-width="0.108983" stroke-miterlimit="10"/>
<path d="M13.9551 9.45703C14.0465 10.0823 14.1392 10.7831 14.1102 11.4148" stroke="black" stroke-width="0.108983" stroke-miterlimit="10"/>
<path d="M12.5586 9.31348C12.6539 9.57332 12.6088 10.278 12.5985 10.9135" stroke="black" stroke-width="0.108983" stroke-miterlimit="10"/>
<path d="M4.21094 17.4766H19.3485V27.1246C19.3485 27.231 19.3059 27.3331 19.2303 27.4083C19.1546 27.4836 19.0519 27.5258 18.9449 27.5258H4.61451C4.50748 27.5258 4.40483 27.4836 4.32914 27.4083C4.25346 27.3331 4.21094 27.231 4.21094 27.1246V17.4766Z" fill="#D4BCDD"/>
<path d="M18.9445 16.1759C19.0515 16.1759 19.1543 16.2182 19.23 16.2934C19.3058 16.3686 19.3485 16.4707 19.3487 16.5772V27.1244C19.3485 27.2309 19.3058 27.3329 19.23 27.4082C19.1543 27.4834 19.0515 27.5257 18.9445 27.5257H4.61471C4.50768 27.5257 4.40503 27.4834 4.32934 27.4081C4.25366 27.3329 4.21114 27.2308 4.21114 27.1244V16.5759C4.21114 16.4695 4.25366 16.3674 4.32934 16.2921C4.40503 16.2169 4.50768 16.1746 4.61471 16.1746H18.9445M18.9445 16.0786H4.61471C4.48224 16.079 4.35529 16.1315 4.26168 16.2247C4.16806 16.3179 4.1154 16.4442 4.11523 16.5759V27.1231C4.11523 27.255 4.16793 27.3815 4.26172 27.4747C4.35551 27.568 4.48272 27.6204 4.61536 27.6204H18.9445C19.0772 27.6204 19.2044 27.568 19.2983 27.4748C19.3922 27.3815 19.445 27.255 19.4452 27.1231V16.5759C19.4449 16.444 19.392 16.3176 19.2981 16.2244C19.2043 16.1312 19.0771 16.0788 18.9445 16.0786Z" fill="white"/>
<path d="M5.36138 16.8645C5.36151 16.9198 5.34512 16.974 5.31429 17.02C5.28346 17.0661 5.23958 17.1021 5.18819 17.1233C5.13681 17.1446 5.08023 17.1502 5.02563 17.1395C4.97102 17.1288 4.92084 17.1022 4.88144 17.0631C4.84204 17.024 4.81519 16.9742 4.80428 16.9199C4.79337 16.8657 4.79891 16.8094 4.82018 16.7582C4.84145 16.7071 4.8775 16.6634 4.92377 16.6326C4.97004 16.6019 5.02445 16.5854 5.08011 16.5854C5.15459 16.5854 5.22604 16.6148 5.27877 16.6671C5.3315 16.7195 5.36121 16.7904 5.36138 16.8645Z" stroke="white" stroke-width="0.163474" stroke-miterlimit="10"/>
<path d="M6.16931 17.1435C6.3243 17.1435 6.44994 17.0186 6.44994 16.8645C6.44994 16.7104 6.3243 16.5854 6.16931 16.5854C6.01432 16.5854 5.88867 16.7104 5.88867 16.8645C5.88867 17.0186 6.01432 17.1435 6.16931 17.1435Z" stroke="white" stroke-width="0.163474" stroke-miterlimit="10"/>
<path d="M4.21094 17.4766H19.3485" stroke="white" stroke-width="0.163474" stroke-miterlimit="10"/>
<path d="M17.8939 27.5258C17.691 27.0284 17.4151 26.5636 17.0751 26.1466C16.8679 25.8906 16.6246 25.6506 16.3214 25.5386C16.0183 25.4266 15.6366 25.4746 15.43 25.7306C15.2716 25.9226 15.2414 26.1946 15.2175 26.4468C14.7155 25.9117 14.2077 25.3703 13.5955 24.9748C12.9834 24.5793 12.2439 24.2951 11.532 24.45C10.7448 24.6189 10.7448 25.6071 10.7448 25.6071C10.7448 25.6071 10.2627 24.9351 10.2196 24.8724C9.89551 24.409 9.53616 23.971 9.14464 23.5623C8.7636 23.1578 8.40122 22.7303 7.97254 22.3783C7.54387 22.0263 6.85065 21.577 6.27586 21.7901C5.97656 21.9009 5.89417 22.1588 5.96047 22.4564C6.02484 22.7348 6.05509 23.0138 6.14198 23.2884C5.6586 22.7527 5.10891 22.2593 4.46847 21.9258C4.00826 21.6852 3.04792 21.2769 2.57033 21.6698C2.50413 21.7317 2.4517 21.8066 2.41645 21.8898C2.38119 21.9731 2.36388 22.0627 2.36565 22.153C2.34441 23.2621 3.14962 24.4538 3.79328 25.273C4.45753 26.1133 5.25824 26.8577 6.08792 27.5258H17.8939Z" fill="#FFDD99"/>
<path d="M14.9852 22.5176C14.8996 22.9893 14.9247 23.4776 14.9273 23.9576C14.9299 24.4376 14.9685 24.7544 14.7934 25.1915C14.6351 25.5857 14.3049 25.7201 14.1324 26.1067C14.0442 26.3032 13.7114 27.5256 13.7114 27.5256H9.23992C9.23992 27.5256 9.11119 25.6056 9.80377 23.9653C10.4963 22.3249 11.3556 22.0318 11.3556 22.0318L13.8987 21.3765L14.9852 22.5176Z" fill="#735D9D"/>
<path d="M20.8438 19.6509C20.9764 19.4922 21.1618 19.3949 21.3208 19.2624C21.4669 19.1434 21.5782 18.9764 21.698 18.8317C21.8388 18.6493 21.9699 18.4596 22.0906 18.2634C22.2354 18.0666 22.4 17.885 22.5817 17.7213C22.6081 17.699 22.63 17.6718 22.6461 17.6413C22.6523 17.6273 22.6554 17.612 22.6552 17.5967C22.6551 17.5813 22.6516 17.5662 22.6451 17.5522C22.6386 17.5383 22.6291 17.5259 22.6174 17.5159C22.6057 17.5059 22.592 17.4985 22.5772 17.4941C22.447 17.4685 22.312 17.484 22.191 17.5383C22.1176 17.5652 21.8692 17.6522 21.855 17.514C21.8376 17.3572 21.9696 17.13 22.0204 16.9828C22.0848 16.794 22.1537 16.6045 22.2071 16.4112C22.2605 16.218 22.2464 15.8743 22.1479 15.8685C22.0494 15.8628 22.1234 15.9216 22.0977 15.9325C22.1389 15.8788 22.0674 15.7546 22.0082 15.7181C21.949 15.6816 21.8724 15.8007 21.855 15.8653C21.875 15.8013 21.819 15.6976 21.772 15.6938C21.7031 15.6874 21.6497 15.752 21.6085 15.8052C21.5729 15.8618 21.527 15.9115 21.4733 15.9517C21.4737 15.9064 21.467 15.8612 21.4534 15.818C21.4083 15.7924 21.3568 15.834 21.3246 15.8724C20.6655 16.6461 20.2195 17.6055 19.4883 18.3504" fill="#E27769"/>
<path d="M21.8703 17.4077C21.8703 17.5997 21.8703 17.7885 21.8555 17.9786" stroke="black" stroke-width="0.108983" stroke-miterlimit="10"/>
<path d="M22.0762 15.8899C22.019 16.0697 21.9076 16.2221 21.8239 16.3891C21.6913 16.6553 21.5723 16.928 21.4493 17.1987" stroke="black" stroke-width="0.108983" stroke-miterlimit="10"/>
<path d="M21.8487 15.855C21.8083 15.9393 21.7623 16.0207 21.7109 16.0988C21.6562 16.182 21.5957 16.2614 21.5365 16.3427C21.3695 16.5743 21.219 16.8172 21.0859 17.0697" stroke="black" stroke-width="0.108983" stroke-miterlimit="10"/>
<path d="M21.4506 15.9834C21.4005 16.075 21.3381 16.1594 21.2652 16.2343C21.0506 16.481 20.8665 16.7523 20.7168 17.0426" stroke="black" stroke-width="0.108983" stroke-miterlimit="10"/>
<path d="M12.6151 21.6321C13.4151 21.2993 13.9397 20.9498 14.7314 20.5953C15.4459 20.2753 16.448 20.0129 17.1522 19.6718C18.126 19.1994 19.0394 18.6785 19.8395 17.9642L21.2941 19.4862C21.2941 19.4862 19.2402 21.5719 18.5212 21.9783C16.7924 22.9575 16.1629 23.1412 14.3652 24.0756" fill="#735D9D"/>
<path d="M14.9062 23.8135C14.9168 23.453 14.9988 23.098 15.1476 22.769" stroke="black" stroke-width="0.108983" stroke-miterlimit="10"/>
<path d="M19.3535 18.3657L20.796 19.9753" stroke="black" stroke-width="0.108983" stroke-miterlimit="10"/>
<path d="M12.3832 26.0479C12.9933 26.0594 13.6003 26.1547 14.1294 26.4747C14.248 26.5434 14.3508 26.6362 14.431 26.7471C14.5112 26.8579 14.567 26.9842 14.5948 27.1179C14.6535 27.3614 14.6724 27.6128 14.6508 27.8623C14.6498 27.8737 14.6455 27.8845 14.6382 27.8934C14.631 27.9023 14.6212 27.9089 14.6102 27.9122C14.5802 27.9121 14.5506 27.9049 14.524 27.8911C14.524 27.8911 14.5761 28.1355 14.524 28.1861C14.4853 28.2219 14.4133 28.1733 14.3856 28.1439C14.3566 28.1057 14.3316 28.0648 14.3109 28.0216C14.3109 28.0216 14.347 28.1624 14.3161 28.1867C14.271 28.2226 14.1391 28.1317 14.1082 28.0395C14.0888 28.092 14.0573 28.14 14.009 28.1272C13.8565 28.0869 13.7374 27.8712 13.6119 27.7663C13.4452 27.6248 13.2212 27.6152 13.0133 27.6184C12.9176 27.6219 12.8217 27.62 12.7262 27.6127C12.6314 27.5962 12.5375 27.5748 12.4449 27.5487C12.2658 27.5145 12.0845 27.4931 11.9023 27.4847" fill="#E27769"/>
<path d="M13.5118 27.3099C13.6792 27.3791 13.8568 27.4565 13.9508 27.5986C13.9775 27.6416 13.9991 27.6876 14.0152 27.7355C14.0512 27.8347 14.0795 27.9365 14.1072 28.0383" stroke="black" stroke-width="0.108983" stroke-miterlimit="10"/>
<path d="M13.75 27.0078C13.8466 27.0658 13.9368 27.1338 14.019 27.2107C14.1019 27.2877 14.1656 27.3828 14.2051 27.4885C14.2239 27.5496 14.2379 27.6121 14.2469 27.6753C14.2684 27.8059 14.2898 27.936 14.3113 28.0657" stroke="black" stroke-width="0.108983" stroke-miterlimit="10"/>
<path d="M14.0761 26.8027C14.2353 26.9214 14.3578 27.0822 14.4295 27.2667C14.4857 27.4324 14.5207 27.6044 14.5338 27.7787L14.5531 27.9432" stroke="black" stroke-width="0.108983" stroke-miterlimit="10"/>
<path d="M11.7096 21.7499C11.7096 21.7499 10.4474 21.9355 9.96335 22.2126C9.20576 22.6452 8.87299 23.3051 8.39025 24.4251C7.90751 25.5451 7.71184 26.036 7.70733 26.4091C7.70025 26.9556 7.94741 27.5278 8.95796 27.5278H12.1762L12.8263 26.018L10.3193 25.6283L11.0112 24.0174" fill="#735D9D"/>
<path d="M12.8313 26.0158L10.3242 25.626L11.0162 24.0151" stroke="black" stroke-width="0.108983" stroke-miterlimit="10"/>
<path d="M9.43361 25.8561C9.45292 25.8561 9.83396 25.6193 10.3238 25.6257" stroke="black" stroke-width="0.108983" stroke-miterlimit="10"/>
<path d="M12.1386 25.9077L11.4512 27.525" stroke="black" stroke-width="0.108983" stroke-miterlimit="10"/>
<path d="M13.668 22.1345C13.7001 21.9579 13.7016 21.7772 13.6725 21.6001" stroke="black" stroke-width="0.108983" stroke-miterlimit="10"/>
<path d="M10.9961 22.0913C11.1482 22.4401 11.428 22.7183 11.7788 22.8695C12.2017 23.0539 12.7758 23.0878 13.18 22.8414C13.3542 22.7382 13.4936 22.5858 13.5804 22.4036" stroke="black" stroke-width="0.108983" stroke-miterlimit="10"/>
<path d="M18.1172 22.7392C18.8724 22.3559 19.5584 21.8507 20.1473 21.2441" stroke="black" stroke-width="0.108983" stroke-miterlimit="10"/>
<path d="M19.5215 22.3772C19.8871 22.0957 20.2293 21.7853 20.5449 21.4492" stroke="black" stroke-width="0.108983" stroke-miterlimit="10"/>
<path d="M7.43572 25.4648C7.27668 25.9836 7.22007 26.528 7.26901 27.068" stroke="black" stroke-width="0.108983" stroke-miterlimit="10"/>
<path d="M6.93175 25.5421C6.83096 25.8328 6.7737 26.1366 6.76183 26.4439" stroke="black" stroke-width="0.108983" stroke-miterlimit="10"/>
<path d="M12.1332 20.207L11.4425 20.6666L11.5919 21.1574L11.3872 21.8973C11.3805 21.9204 11.3791 21.9448 11.383 21.9686C11.3869 21.9924 11.396 22.015 11.4097 22.0349C11.5382 22.2207 11.7117 22.3714 11.9142 22.4731C12.1167 22.5747 12.3416 22.6241 12.5683 22.6166C13.3014 22.6166 13.2911 22.1322 13.2911 22.1322L13.425 21.1024" fill="#E27769"/>
<path d="M13.5214 20.1449C13.3315 19.7929 13.2233 19.5753 13.0238 19.3334C12.8552 19.128 12.5732 18.8374 12.31 18.7798C11.9695 18.7056 11.649 18.9494 11.3593 19.128C10.883 19.4204 10.8914 20.0508 11.0523 20.52C11.1759 20.8809 11.4314 21.0185 11.7532 21.2387C12.1742 21.526 13.0901 21.656 13.4827 21.3411C13.7769 21.1056 13.7222 20.5174 13.5214 20.1449Z" fill="#E27769"/>
<path d="M12.5045 20.1141C12.5072 20.1298 12.5053 20.1459 12.4992 20.1605C12.493 20.1752 12.4829 20.1878 12.4698 20.197C12.4568 20.2062 12.4414 20.2115 12.4254 20.2124C12.4095 20.2133 12.3936 20.2097 12.3796 20.202C12.3656 20.1943 12.3541 20.1829 12.3464 20.169C12.3386 20.1551 12.335 20.1393 12.3359 20.1235C12.3368 20.1076 12.3421 20.0923 12.3513 20.0793C12.3606 20.0664 12.3733 20.0562 12.388 20.0501C12.412 20.044 12.4374 20.0473 12.459 20.0592C12.4807 20.0711 12.4969 20.0907 12.5045 20.1141Z" fill="black"/>
<path d="M13.181 19.7438C13.1829 19.7594 13.1804 19.7753 13.1738 19.7896C13.1672 19.8039 13.1566 19.816 13.1434 19.8247C13.1301 19.8334 13.1147 19.8382 13.0989 19.8386C13.0831 19.839 13.0674 19.835 13.0537 19.827C13.0401 19.8191 13.0289 19.8075 13.0215 19.7935C13.0141 19.7796 13.0108 19.7639 13.0119 19.7482C13.013 19.7324 13.0186 19.7174 13.0279 19.7046C13.0371 19.6918 13.0498 19.6819 13.0645 19.6759C13.089 19.6702 13.1147 19.674 13.1364 19.6867C13.1581 19.6993 13.1741 19.7198 13.181 19.7438Z" fill="black"/>
<path d="M12.8183 19.9806C12.8959 20.0444 12.9827 20.0963 13.0757 20.1348C13.1324 20.1604 13.3209 20.211 13.2791 20.3019C13.2412 20.3589 13.1947 20.4098 13.1414 20.4529" stroke="black" stroke-width="0.108983" stroke-miterlimit="10"/>
<path d="M11.4367 21.7088C11.4367 21.7088 11.5229 21.4899 11.5435 21.4112C11.5789 21.2787 11.4669 21.2723 11.4283 21.1552C11.415 21.0903 11.4185 21.0231 11.4386 20.96C11.4676 20.832 11.5345 20.686 11.4746 20.5555C11.4367 20.4736 11.3549 20.4211 11.2899 20.3577C11.2249 20.2944 11.1715 20.1977 11.2107 20.1152C11.2564 20.0185 11.3935 20.0115 11.4772 19.9436C11.5609 19.8758 11.5802 19.7561 11.5744 19.6492C11.5584 19.5433 11.5545 19.436 11.5628 19.3292C11.5648 19.31 11.5724 19.2918 11.5847 19.2768C11.6259 19.2345 11.6941 19.2768 11.7456 19.3036C11.7919 19.3271 11.8429 19.3398 11.8949 19.341C11.9468 19.3421 11.9983 19.3315 12.0456 19.31C12.0704 19.301 12.093 19.2871 12.1122 19.269C12.1313 19.251 12.1466 19.2292 12.1569 19.2051C12.1652 19.1736 12.1706 19.1415 12.173 19.1091C12.1745 19.0929 12.1794 19.0771 12.1874 19.0629C12.1954 19.0487 12.2063 19.0363 12.2194 19.0265C12.2404 19.0159 12.2641 19.0114 12.2876 19.0137C12.3627 19.0172 12.4351 19.0428 12.4955 19.0873C12.5135 19.1069 12.5354 19.1227 12.5597 19.1337C12.584 19.1447 12.6104 19.1507 12.6371 19.1513C12.6963 19.1402 12.757 19.1387 12.8167 19.1468C12.8874 19.1768 12.9457 19.2299 12.9821 19.2972C13.1005 19.4679 13.2192 19.6386 13.338 19.8092C13.4021 19.7272 13.4523 19.6353 13.4867 19.5372C13.5036 19.4882 13.5084 19.4358 13.5009 19.3846C13.4934 19.3333 13.4738 19.2845 13.4436 19.2422C13.3792 19.1641 13.2724 19.1296 13.2183 19.0451C13.1642 18.9606 13.1681 18.8172 13.1617 18.7116C13.1555 18.5945 13.1179 18.4812 13.0529 18.3833C13.023 18.3346 12.9811 18.2944 12.931 18.2666C12.8809 18.2388 12.8245 18.2243 12.7671 18.2246C12.7034 18.2395 12.6389 18.251 12.574 18.2592C12.5333 18.2561 12.4936 18.2454 12.4569 18.2278C12.2824 18.1536 12.1318 18.0358 11.9587 17.9577C11.7855 17.8796 11.5686 17.8592 11.4186 17.9744C11.342 18.0332 11.2899 18.1235 11.2082 18.1721C10.9674 18.3142 10.6224 18.0441 10.3933 18.206C10.2453 18.3091 10.2407 18.5318 10.1159 18.6617C9.9569 18.8275 9.66532 18.784 9.48638 18.9267C9.30745 19.0694 9.30358 19.3574 9.41301 19.5616C9.46707 19.6627 9.5456 19.767 9.52243 19.8816C9.49996 19.9494 9.46208 20.0111 9.41172 20.062C9.34484 20.1407 9.30038 20.2357 9.28299 20.3372C9.27514 20.3877 9.27984 20.4392 9.29668 20.4874C9.31351 20.5356 9.34196 20.579 9.37954 20.6137C9.42845 20.6547 9.50247 20.6739 9.53981 20.727C9.57659 20.8006 9.59743 20.8811 9.60095 20.9632C9.60373 21.0251 9.61278 21.0867 9.62799 21.1468C9.67884 21.3088 9.85842 21.4028 10.0283 21.4028C10.1069 21.4028 10.1938 21.3881 10.2581 21.4329C10.3055 21.4774 10.3422 21.5319 10.3656 21.5923C10.4216 21.6818 10.5086 21.748 10.6101 21.7782C10.7117 21.8085 10.8209 21.8009 10.9172 21.7568C10.9887 21.7209 11.0543 21.664 11.1335 21.6627C11.2127 21.6614 11.362 21.7216 11.4367 21.7088Z" fill="#2C221D"/>
<path d="M12.5469 21.5074C12.7593 21.5599 13.1629 21.5714 13.4686 21.3794" stroke="black" stroke-width="0.108983" stroke-miterlimit="10"/>
<path d="M11.9727 20.0966C11.9727 19.8842 12.113 19.6806 12.3428 19.721" stroke="black" stroke-width="0.108983" stroke-miterlimit="10"/>
<path d="M12.7656 19.5696C12.7656 19.5346 12.7757 19.5002 12.7947 19.4707C12.8138 19.4412 12.841 19.4178 12.8731 19.4032C12.9044 19.3861 12.9399 19.3779 12.9755 19.3796C13.0112 19.3813 13.0457 19.3928 13.0752 19.4128" stroke="black" stroke-width="0.108983" stroke-miterlimit="10"/>
<path d="M11.8098 20.7112C11.6882 20.5634 11.3908 20.6044 11.2949 20.7573C11.0625 21.124 11.6251 21.6149 11.9688 21.4357C12.066 21.3852 12.1619 21.2572 12.1162 21.1381" fill="#E27769"/>
<path d="M11.4727 21.0322L11.9477 21.0661" stroke="black" stroke-width="0.108983" stroke-miterlimit="10"/>
<path d="M11.5215 20.637C11.6227 20.625 11.7251 20.6442 11.815 20.6921" stroke="black" stroke-width="0.108983" stroke-miterlimit="10"/>
<path d="M11.4843 21.3761C11.6227 21.467 11.8107 21.531 11.9626 21.4478C12.0179 21.4203 12.0621 21.3749 12.0881 21.3191C12.114 21.2633 12.1202 21.2004 12.1055 21.1406" stroke="black" stroke-width="0.108983" stroke-miterlimit="10"/>
<path d="M12.8929 20.4883C12.8621 20.6022 12.9 20.7513 13.0313 20.775C13.0807 20.7829 13.1312 20.7735 13.1743 20.7484C13.2174 20.7233 13.2504 20.6841 13.2676 20.6374" stroke="black" stroke-width="0.108983" stroke-miterlimit="10"/>
<path d="M24.3965 6.56201H39.5507V13.6142C39.5507 13.7206 39.5082 13.8227 39.4325 13.8979C39.3569 13.9732 39.2542 14.0155 39.1472 14.0155H24.8001C24.693 14.0155 24.5904 13.9732 24.5147 13.8979C24.439 13.8227 24.3965 13.7206 24.3965 13.6142V6.56201Z" fill="#D5D8BC"/>
<path d="M39.148 5.49163C39.255 5.49163 39.3577 5.53391 39.4334 5.60916C39.509 5.68442 39.5516 5.78648 39.5516 5.89291V13.6139C39.5516 13.7203 39.509 13.8224 39.4334 13.8976C39.3577 13.9729 39.255 14.0152 39.148 14.0152H24.8009C24.6938 14.0152 24.5912 13.9729 24.5155 13.8976C24.4398 13.8224 24.3973 13.7203 24.3973 13.6139V5.89291C24.3973 5.78648 24.4398 5.68442 24.5155 5.60916C24.5912 5.53391 24.6938 5.49163 24.8009 5.49163H39.148ZM39.148 5.39563H24.8009C24.6683 5.3958 24.5412 5.44825 24.4474 5.54147C24.3537 5.63469 24.3009 5.76108 24.3008 5.89291V13.6139C24.3009 13.7457 24.3537 13.8721 24.4474 13.9653C24.5412 14.0585 24.6683 14.111 24.8009 14.1111H39.148C39.2806 14.111 39.4077 14.0585 39.5014 13.9653C39.5952 13.8721 39.6479 13.7457 39.6481 13.6139V5.89291C39.6479 5.76108 39.5952 5.63469 39.5014 5.54147C39.4077 5.44825 39.2806 5.3958 39.148 5.39563Z" fill="white"/>
<path d="M25.1128 5.82891C25.1585 5.82878 25.2032 5.84215 25.2413 5.86732C25.2794 5.89249 25.3091 5.92833 25.3267 5.9703C25.3443 6.01227 25.349 6.05849 25.3401 6.1031C25.3313 6.14771 25.3093 6.18871 25.277 6.22091C25.2448 6.2531 25.2036 6.27505 25.1587 6.28397C25.1139 6.29288 25.0674 6.28837 25.0251 6.271C24.9829 6.25363 24.9468 6.22418 24.9213 6.18638C24.8959 6.14859 24.8823 6.10414 24.8823 6.05867C24.8823 5.99784 24.9066 5.9395 24.9498 5.89643C24.993 5.85336 25.0516 5.82908 25.1128 5.82891ZM25.1128 5.73291C25.048 5.73291 24.9846 5.75202 24.9308 5.78781C24.8769 5.82361 24.8349 5.87448 24.8101 5.93401C24.7853 5.99353 24.7788 6.05903 24.7915 6.12222C24.8041 6.18541 24.8353 6.24346 24.8811 6.28902C24.9269 6.33458 24.9853 6.3656 25.0489 6.37817C25.1124 6.39074 25.1783 6.38429 25.2382 6.35963C25.298 6.33498 25.3492 6.29322 25.3852 6.23965C25.4212 6.18608 25.4404 6.1231 25.4404 6.05867C25.4402 5.97233 25.4057 5.88956 25.3443 5.82851C25.2828 5.76745 25.1996 5.73308 25.1128 5.73291Z" fill="white"/>
<path d="M26.0099 5.82891C26.0556 5.82891 26.1003 5.84239 26.1383 5.86763C26.1763 5.89288 26.2059 5.92876 26.2234 5.97075C26.2409 6.01273 26.2455 6.05893 26.2365 6.10349C26.2276 6.14806 26.2056 6.189 26.1733 6.22114C26.141 6.25327 26.0998 6.27515 26.055 6.28402C26.0102 6.29288 25.9637 6.28833 25.9215 6.27094C25.8793 6.25355 25.8432 6.2241 25.8178 6.18632C25.7924 6.14853 25.7788 6.10411 25.7788 6.05867C25.7787 6.02847 25.7847 5.99856 25.7962 5.97065C25.8078 5.94273 25.8248 5.91737 25.8463 5.89602C25.8678 5.87467 25.8933 5.85774 25.9214 5.84623C25.9495 5.83471 25.9795 5.82883 26.0099 5.82891ZM26.0099 5.73291C25.9451 5.73278 25.8817 5.75178 25.8277 5.7875C25.7738 5.82322 25.7317 5.87405 25.7068 5.93356C25.6819 5.99308 25.6753 6.0586 25.6879 6.12183C25.7004 6.18506 25.7316 6.24317 25.7774 6.28879C25.8232 6.33441 25.8815 6.3655 25.9451 6.37812C26.0087 6.39075 26.0746 6.38433 26.1345 6.35969C26.1944 6.33506 26.2456 6.2933 26.2816 6.23972C26.3177 6.18614 26.3369 6.12313 26.3369 6.05867C26.3367 5.97244 26.3022 5.88977 26.241 5.82874C26.1797 5.7677 26.0966 5.73325 26.0099 5.73291Z" fill="white"/>
<path d="M24.3965 6.56201H39.5507" stroke="white" stroke-width="0.163474" stroke-miterlimit="10"/>
<path d="M37.4826 12.6832C37.1988 12.2122 36.8982 11.7232 36.4322 11.4352C35.9662 11.1472 35.2839 11.137 34.9357 11.5632C34.6274 11.9402 34.6846 12.4893 34.7587 12.9712C34.4156 12.5355 34.0148 12.148 33.5673 11.8192C33.2229 11.567 32.8431 11.3482 32.4254 11.2688C31.9916 11.1869 31.496 11.2771 31.1381 11.544C30.6521 11.9088 30.6592 12.4822 30.7068 13.0352C30.1173 11.9235 29.4614 10.8202 28.5532 9.93183C28.3182 9.70143 28.0421 9.50239 27.7241 9.41407C27.542 9.36351 27.3379 9.35391 27.1732 9.44863C26.9247 9.59263 26.8591 9.91775 26.8513 10.2038C26.8427 10.549 26.8826 10.8936 26.9698 11.2278C26.8114 11.0557 26.6027 10.9375 26.3731 10.8899C26.2467 10.8674 26.1169 10.8716 25.9922 10.9023C25.8675 10.9329 25.7507 10.9893 25.6494 11.0678C25.5481 11.1463 25.4645 11.245 25.4041 11.3577C25.3437 11.4704 25.3078 11.5945 25.2988 11.7219C25.2679 12.28 25.6091 12.8099 25.8704 13.2816C25.9695 13.4602 26.0719 13.6387 26.1845 13.8096C26.2064 13.8429 26.2901 14.0086 26.3409 14.0086H38.2344C37.984 13.5939 37.733 13.0992 37.4826 12.6832Z" fill="#B5AE6B"/>
<mask id="mask0_164_566" style="mask-type:luminance" maskUnits="userSpaceOnUse" x="24" y="5" width="16" height="10">
<path d="M39.1491 5.49194H24.802C24.5791 5.49194 24.3984 5.6716 24.3984 5.89322V13.6142C24.3984 13.8358 24.5791 14.0155 24.802 14.0155H39.1491C39.372 14.0155 39.5526 13.8358 39.5526 13.6142V5.89322C39.5526 5.6716 39.372 5.49194 39.1491 5.49194Z" fill="white"/>
</mask>
<g mask="url(#mask0_164_566)">
<path d="M38.5241 13.4868L34.5469 5.90796L33.4167 5.84204L32.5291 6.56204L30.246 8.2126L32.8123 15.6923L38.5241 13.4868Z" fill="white"/>
<path d="M31.0507 8.10425C31.1627 8.19563 31.2939 8.2608 31.4346 8.29493C31.5753 8.32905 31.722 8.33125 31.8637 8.30137" stroke="black" stroke-width="0.108983" stroke-miterlimit="10"/>
<path d="M32.1427 8.21272C32.423 8.11927 32.6659 7.93897 32.8357 7.69825C33.0056 7.45754 33.0934 7.16907 33.0863 6.87512" stroke="black" stroke-width="0.108983" stroke-miterlimit="10"/>
<path d="M37.439 10.6693C36.7503 9.36501 34.6855 5.25237 34.1409 5.45525C33.516 5.68757 32.8124 6.28725 32.8124 6.28725C32.8124 6.28725 33.1497 7.35925 33.1755 7.46037C33.2686 7.83157 33.3649 8.20149 33.4645 8.57013C33.711 9.48917 33.9311 10.4223 34.2368 11.3221C34.5464 12.238 34.8895 13.1442 35.259 14.0383C35.4077 14.3967 35.5267 14.8165 35.8087 15.0968C35.9683 15.2588 36.1949 15.372 36.4195 15.3528C36.5757 15.3282 36.7257 15.2736 36.861 15.1922C37.4751 14.8722 39.1879 14.1087 39.1879 14.1087C39.1879 14.1087 38.3067 12.3154 37.439 10.6693Z" fill="#4C4139"/>
<path d="M33.93 15.6842C33.7626 15.0788 33.4762 14.5214 33.2645 13.9326C32.987 13.1646 32.7405 12.3818 32.4541 11.6145C32.0177 10.4439 31.3985 8.82601 30.9248 7.67017C30.9248 7.67017 30.0558 8.16553 29.8807 8.28585C29.7057 8.40617 29.7437 8.69225 29.7437 8.69225C30.4356 11.2561 32.5294 17.0794 32.5294 17.0794C32.7778 16.9514 33.3925 16.6058 33.6404 16.4753C33.9673 16.3038 34.024 16.0247 33.93 15.6842Z" fill="#4C4139"/>
<path d="M30.0545 8.17871C30.8577 9.40559 31.4827 10.404 32.3201 11.6085" stroke="black" stroke-width="0.108983" stroke-miterlimit="10"/>
<path d="M33.9023 5.76514C34.0688 7.39287 34.1703 9.02508 34.2068 10.6618" stroke="black" stroke-width="0.108983" stroke-miterlimit="10"/>
</g>
<path d="M25.5647 14.452C25.3965 14.58 25.2249 14.7008 25.0498 14.8143C24.8799 14.9243 24.6971 15.0178 24.5304 15.1343C24.4885 15.1624 24.4506 15.1944 24.4119 15.2258C24.2674 15.3363 24.1355 15.4623 24.0187 15.6015C24.0049 15.6215 23.9882 15.6394 23.9691 15.6546C23.9594 15.6618 23.948 15.6665 23.9359 15.6682C23.9239 15.6699 23.9116 15.6685 23.9002 15.6642C23.8892 15.6571 23.8798 15.6477 23.8728 15.6366C23.8658 15.6256 23.8613 15.6131 23.8597 15.6002C23.8395 15.4972 23.8542 15.3905 23.9015 15.2968C23.9279 15.2328 23.9601 15.1765 23.9884 15.1157C24.0173 15.0666 24.0357 15.0121 24.0425 14.9557C23.5919 15.0658 23.198 15.3307 22.7732 15.5176C22.6863 15.5554 22.5093 15.5477 22.4906 15.4735C22.4668 15.3755 23.0944 15.0485 23.3956 14.8143C23.1799 14.8779 22.9698 14.959 22.7674 15.0568C22.6324 15.1306 22.486 15.1814 22.3342 15.2072C22.2493 15.2207 22.0562 15.2296 22.1173 15.0875C22.1393 15.0473 22.1718 15.0137 22.2113 14.9903C22.5016 14.7861 22.8331 14.6619 23.1336 14.4731C22.817 14.5442 22.5106 14.7112 22.1888 14.6722C22.157 14.6715 22.1264 14.6597 22.1025 14.6389C22.0944 14.632 22.0878 14.6235 22.083 14.614C22.0782 14.6046 22.0753 14.5942 22.0745 14.5837C22.0738 14.5731 22.0751 14.5624 22.0785 14.5524C22.0818 14.5423 22.0871 14.533 22.0941 14.525C22.1277 14.4905 22.1693 14.4648 22.2151 14.4501C22.5408 14.3151 22.882 14.1634 23.2077 14.029C23.0415 14.0571 22.8772 14.0956 22.7159 14.1442C22.5544 14.1919 22.3833 14.1974 22.219 14.1602C22.1669 14.1455 22.107 14.1013 22.127 14.052C22.1397 14.0291 22.1606 14.0118 22.1855 14.0034L23.3847 13.4351C23.4973 13.3819 23.6093 13.3288 23.7232 13.2795C23.971 13.1739 24.2105 13.0523 24.4589 12.9467C24.7194 12.8354 24.9816 12.7276 25.2455 12.6235" fill="#D16159"/>
<path d="M24.0332 14.9538C24.1549 14.9218 24.2778 14.8936 24.4014 14.8706" stroke="black" stroke-width="0.108983" stroke-miterlimit="10"/>
<path d="M23.3768 14.8113C23.5476 14.7304 23.7225 14.6584 23.9008 14.5956" stroke="black" stroke-width="0.108983" stroke-miterlimit="10"/>
<path d="M23.1309 14.4681L23.5486 14.2876" stroke="black" stroke-width="0.108983" stroke-miterlimit="10"/>
<path d="M23.049 14.0854C23.1516 14.0485 23.2516 14.0047 23.3483 13.9542" stroke="black" stroke-width="0.108983" stroke-miterlimit="10"/>
<path d="M29.8802 8.28564C29.5978 8.46369 29.336 8.67209 29.0994 8.90708C28.7969 9.23476 27.0159 11.3807 27.0159 11.3807C27.0159 11.3807 25.1918 12.4744 24.1465 13.0786L25.2909 14.9301C25.2909 14.9301 27.4098 14.1724 28.4912 13.4178C29.4734 12.7311 31.3542 10.4828 31.3542 10.4828" fill="#4C4139"/>
<path d="M30.6254 11.3814L30.0526 9.60986" stroke="black" stroke-width="0.108983" stroke-miterlimit="10"/>
<path d="M25.1074 12.5156L26.3754 14.4747" stroke="black" stroke-width="0.108983" stroke-miterlimit="10"/>
<path d="M24.9531 14.3849L26.0049 13.9004" stroke="black" stroke-width="0.108983" stroke-miterlimit="10"/>
<path d="M25.6574 13.876C25.6599 13.899 25.6532 13.9221 25.6387 13.9401C25.6241 13.9582 25.603 13.9698 25.5798 13.9723C25.5567 13.9749 25.5335 13.9682 25.5153 13.9537C25.4972 13.9392 25.4855 13.9182 25.483 13.8952C25.4817 13.8838 25.4827 13.8723 25.4859 13.8613C25.4891 13.8503 25.4945 13.84 25.5017 13.8311C25.5089 13.8221 25.5178 13.8147 25.5279 13.8091C25.538 13.8036 25.5491 13.8001 25.5605 13.7989C25.572 13.7976 25.5836 13.7986 25.5946 13.8018C25.6057 13.805 25.616 13.8103 25.625 13.8175C25.634 13.8246 25.6415 13.8335 25.6471 13.8435C25.6526 13.8536 25.6561 13.8646 25.6574 13.876Z" stroke="black" stroke-width="0.108983" stroke-miterlimit="10"/>
<path d="M25.1429 14.1075C25.1916 14.1075 25.231 14.0682 25.231 14.0198C25.231 13.9714 25.1916 13.9321 25.1429 13.9321C25.0942 13.9321 25.0547 13.9714 25.0547 14.0198C25.0547 14.0682 25.0942 14.1075 25.1429 14.1075Z" stroke="black" stroke-width="0.108983" stroke-miterlimit="10"/>
<path d="M27.0026 11.4071L26.998 11.3713C27.2413 11.2992 27.4724 11.1914 27.6835 11.0513" stroke="black" stroke-width="0.108983" stroke-miterlimit="10"/>
<path d="M27.8615 9.31965C28.2073 8.9056 28.6269 8.55847 29.0992 8.29565" stroke="black" stroke-width="0.108983" stroke-miterlimit="10"/>
<path d="M28.1387 8.37807C28.4655 8.13632 28.8214 7.93615 29.1981 7.78223" stroke="black" stroke-width="0.108983" stroke-miterlimit="10"/>
<path d="M31.6274 5.00781L31.8849 5.75789L32.7937 6.63149C32.7937 6.63149 32.8175 7.15181 32.3033 7.69709C31.789 8.24237 31.2406 7.87501 31.2406 7.87501L30.5783 6.91181" fill="#D16159"/>
<path d="M29.5001 6.96262C29.3958 6.62982 29.2639 5.9111 29.2742 5.63782C29.2758 5.40447 29.3576 5.17867 29.5059 4.99782C29.7035 4.76742 30.1676 4.84998 30.4643 4.82182C30.9516 4.77574 31.2554 5.34982 31.3931 5.7607C31.498 6.07686 31.5482 6.4007 31.4407 6.72454C31.2657 7.2487 30.7037 7.77798 30.109 7.63526C29.7859 7.55974 29.6031 7.28518 29.5001 6.96262Z" fill="#D16159"/>
<path d="M32.0878 4.91423C32.0093 4.83103 31.9025 4.76639 31.8677 4.65823C31.8484 4.59871 31.8181 4.41887 31.7988 4.35871C31.6901 4.02463 31.4081 3.91071 31.0908 3.96767C31.0561 3.64767 30.7156 3.61759 30.4356 3.61439C30.3184 3.61889 30.2019 3.59541 30.0957 3.54591C29.985 3.48703 29.8852 3.40447 29.7559 3.39167C29.6393 3.38433 29.5235 3.41586 29.427 3.48127C29.0948 3.69823 29.0002 4.11807 28.5902 4.24479C28.4615 4.28511 28.3276 4.29727 28.2169 4.38047C28.1751 4.41072 28.1397 4.44893 28.1129 4.49288C28.086 4.53682 28.0682 4.58563 28.0605 4.63647C28.0437 4.78303 28.1416 4.87199 28.242 4.96159C28.3004 5.00912 28.3467 5.0696 28.3774 5.13818C28.408 5.20676 28.422 5.28152 28.4183 5.35647C28.4075 5.45191 28.3918 5.54675 28.3714 5.64063C28.3452 5.76901 28.3567 5.90218 28.4047 6.0242C28.4526 6.14621 28.5349 6.25191 28.6417 6.32863C28.6893 6.36319 28.7543 6.39263 28.9301 6.43359C29.0536 6.46047 29.3742 6.41439 29.3742 6.41439C29.3363 6.20268 29.3105 5.989 29.2969 5.77439C29.2977 5.60805 29.3516 5.44625 29.4508 5.31231C29.5364 5.19647 29.723 5.15551 29.8621 5.16191C30.07 5.17087 30.2689 5.28479 30.4761 5.26111C30.5622 5.25011 30.6436 5.21554 30.7111 5.16127C30.9898 5.34047 31.2781 5.60415 31.3418 5.92543C31.3418 5.94143 31.3856 6.13151 31.3714 6.13471C31.6102 6.08479 31.9108 6.06559 32.0151 5.80639C32.0518 5.71679 32.0331 5.62335 32.0614 5.53247C32.0846 5.45759 32.1522 5.40447 32.1837 5.33023C32.2475 5.19391 32.1921 5.02495 32.0878 4.91423Z" fill="#2C221D"/>
<path d="M31.0957 5.88839C31.1079 5.68167 31.395 5.53063 31.5765 5.60359C32.0142 5.77895 31.834 6.56359 31.4188 6.62311C31.301 6.63975 31.1356 6.58791 31.097 6.45479" fill="#D16159"/>
<path d="M31.5938 5.95703L31.1992 6.28599" stroke="black" stroke-width="0.108983" stroke-miterlimit="10"/>
<path d="M31.301 5.64136C31.2044 5.69468 31.1267 5.77623 31.0783 5.87496" stroke="black" stroke-width="0.108983" stroke-miterlimit="10"/>
<path d="M31.8045 6.26489C31.7401 6.43193 31.6172 6.60601 31.4312 6.62905C31.365 6.64003 31.2971 6.62826 31.2386 6.59568C31.1801 6.5631 31.1345 6.51166 31.1093 6.44985" stroke="black" stroke-width="0.108983" stroke-miterlimit="10"/>
<path d="M30.9492 7.45239C31.1024 7.34219 31.2239 7.19417 31.3019 7.02295" stroke="black" stroke-width="0.108983" stroke-miterlimit="10"/>
<path d="M29.8555 6.16846C29.8754 6.35214 29.8954 6.53646 29.9166 6.72078C29.9169 6.74645 29.9255 6.77134 29.9411 6.79182C30.0106 6.86542 30.1709 6.83022 30.2455 6.78606" stroke="black" stroke-width="0.108983" stroke-miterlimit="10"/>
<path d="M30.4194 6.86133L30.0975 7.04757C30.0975 7.04757 30.2218 7.28373 30.346 7.23957C30.5784 7.15125 30.4194 6.86133 30.4194 6.86133Z" fill="white"/>
<path d="M30.0175 5.77048C30.0357 5.73775 30.0603 5.70895 30.0898 5.68577C30.1193 5.66258 30.1532 5.64547 30.1894 5.63544C30.2499 5.61637 30.314 5.61096 30.3769 5.61959C30.4398 5.62823 30.5 5.65069 30.5531 5.68536" stroke="black" stroke-width="0.108983" stroke-miterlimit="10"/>
<path d="M29.2697 6.03686C29.2747 6.00561 29.2861 5.97571 29.3032 5.94898C29.3202 5.92225 29.3425 5.89923 29.3688 5.88134C29.4092 5.85475 29.4565 5.84058 29.5049 5.84058C29.5534 5.84058 29.6007 5.85475 29.6411 5.88134" stroke="black" stroke-width="0.108983" stroke-miterlimit="10"/>
<path d="M30.4403 6.04523C30.4398 6.06426 30.434 6.08278 30.4235 6.09871C30.413 6.11464 30.3983 6.12734 30.3809 6.1354C30.3636 6.14345 30.3443 6.14653 30.3253 6.1443C30.3063 6.14207 30.2883 6.13461 30.2733 6.12276C30.2583 6.11092 30.2469 6.09515 30.2404 6.07723C30.234 6.05931 30.2326 6.03995 30.2366 6.02133C30.2406 6.00271 30.2497 5.98555 30.263 5.9718C30.2762 5.95805 30.293 5.94823 30.3116 5.94347C30.3421 5.94039 30.3727 5.9493 30.3968 5.96831C30.4208 5.98732 30.4364 6.01492 30.4403 6.04523Z" fill="black"/>
<path d="M29.702 6.26313C29.7015 6.28216 29.6957 6.30068 29.6852 6.31661C29.6747 6.33254 29.66 6.34524 29.6426 6.3533C29.6253 6.36135 29.606 6.36443 29.587 6.3622C29.568 6.35997 29.55 6.35251 29.535 6.34066C29.52 6.32882 29.5086 6.31305 29.5022 6.29513C29.4957 6.27721 29.4944 6.25785 29.4983 6.23923C29.5023 6.22061 29.5114 6.20345 29.5247 6.1897C29.5379 6.17595 29.5548 6.16614 29.5733 6.16137C29.6039 6.15795 29.6347 6.16674 29.6588 6.18581C29.6829 6.20488 29.6985 6.23268 29.702 6.26313Z" fill="black"/>
<path d="M29.5086 5.25354C29.3708 5.32714 29.311 5.48778 29.2177 5.61258C29.1412 5.71324 29.0402 5.79291 28.9242 5.84407C28.8082 5.89524 28.6811 5.91623 28.5547 5.90506" stroke="#635149" stroke-width="0.108983" stroke-miterlimit="10"/>
<path d="M30.7344 5.14508C30.8599 5.02958 30.9481 4.8797 30.988 4.71436" stroke="#635149" stroke-width="0.108983" stroke-miterlimit="10"/>
<path d="M31.2344 14.0635H42.8292V21.684C42.8292 21.7904 42.7867 21.8924 42.711 21.9677C42.6353 22.043 42.5327 22.0852 42.4256 22.0852H31.6379C31.5309 22.0852 31.4283 22.043 31.3526 21.9677C31.2769 21.8924 31.2344 21.7904 31.2344 21.684V14.0635Z" fill="#F9D4BB"/>
<path d="M42.4245 12.9917C42.5316 12.9917 42.6342 13.034 42.7099 13.1092C42.7856 13.1845 42.8281 13.2865 42.8281 13.393V21.6835C42.8281 21.79 42.7856 21.892 42.7099 21.9673C42.6342 22.0425 42.5316 22.0848 42.4245 22.0848H31.6368C31.5298 22.0848 31.4272 22.0425 31.3515 21.9673C31.2758 21.892 31.2333 21.79 31.2333 21.6835V13.3943C31.2333 13.3416 31.2437 13.2894 31.264 13.2407C31.2843 13.192 31.314 13.1478 31.3515 13.1105C31.3889 13.0732 31.4334 13.0437 31.4824 13.0235C31.5314 13.0034 31.5838 12.993 31.6368 12.993H42.4245M42.4245 12.897H31.6368C31.5042 12.8971 31.3771 12.9496 31.2834 13.0428C31.1896 13.136 31.1369 13.2624 31.1367 13.3943V21.6835C31.1369 21.8154 31.1896 21.9418 31.2834 22.035C31.3771 22.1282 31.5042 22.1806 31.6368 22.1808H42.4245C42.5571 22.1806 42.6842 22.1282 42.778 22.035C42.8717 21.9418 42.9245 21.8154 42.9247 21.6835V13.3943C42.9245 13.2624 42.8717 13.136 42.778 13.0428C42.6842 12.9496 42.5571 12.8971 42.4245 12.897Z" fill="white"/>
<path d="M32.1828 13.5598C32.1828 13.6053 32.1693 13.6497 32.1439 13.6875C32.1185 13.7253 32.0824 13.7547 32.0402 13.7721C31.998 13.7895 31.9515 13.794 31.9067 13.7852C31.8619 13.7763 31.8207 13.7544 31.7884 13.7223C31.7561 13.6902 31.7341 13.6492 31.7251 13.6047C31.7162 13.5601 31.7208 13.5139 31.7383 13.4719C31.7558 13.4299 31.7854 13.394 31.8234 13.3688C31.8614 13.3436 31.9061 13.3301 31.9518 13.3301C32.0131 13.3301 32.0718 13.3543 32.1152 13.3974C32.1585 13.4405 32.1828 13.4989 32.1828 13.5598Z" stroke="white" stroke-width="0.163474" stroke-miterlimit="10"/>
<path d="M33.0793 13.5598C33.0793 13.6053 33.0658 13.6497 33.0404 13.6875C33.015 13.7253 32.9789 13.7547 32.9367 13.7721C32.8945 13.7895 32.848 13.794 32.8032 13.7852C32.7584 13.7763 32.7172 13.7544 32.6849 13.7223C32.6525 13.6902 32.6305 13.6492 32.6216 13.6047C32.6127 13.5601 32.6173 13.5139 32.6348 13.4719C32.6523 13.4299 32.6819 13.394 32.7199 13.3688C32.7579 13.3436 32.8026 13.3301 32.8483 13.3301C32.9095 13.3301 32.9683 13.3543 33.0117 13.3974C33.055 13.4405 33.0793 13.4989 33.0793 13.5598Z" stroke="white" stroke-width="0.163474" stroke-miterlimit="10"/>
<path d="M31.2344 14.0635H42.8292" stroke="white" stroke-width="0.163474" stroke-miterlimit="10"/>
<path d="M39.8395 18.9967C39.5737 18.9507 39.499 19.6604 39.6264 19.8966C39.2763 19.3993 38.8341 18.6377 38.484 18.1411C38.092 17.583 37.6234 16.8886 36.916 16.7068C36.2788 16.5436 35.9467 17.0953 35.937 17.6585C35.9303 18.1996 35.9791 18.74 36.0825 19.2713C36.1919 19.8473 36.3341 20.5065 36.6502 21.0102C36.3142 20.4745 35.7761 20.2934 35.1756 20.3433C34.8956 20.3663 34.6046 20.4598 34.4283 20.6767C34.1451 21.0243 34.2513 21.6547 34.3716 22.0847H35.1601H42.0942C42.0942 22.0847 40.7007 19.1465 39.8395 18.9967Z" fill="#EF9748"/>
<path d="M31.8114 17.9964C30.6592 18.0136 29.5174 17.7717 28.4154 17.4376C27.3135 17.1036 25.3053 16.3701 25.3053 16.3701L24.7324 18.0911C24.7324 18.0911 27.7003 19.9605 31.6498 20.2799" fill="#E27769"/>
<path d="M34.2786 18.4639C33.5107 17.8162 31.8475 17.8623 31.3705 17.8809C30.8936 17.8994 30.044 17.7593 30.044 17.7593L29.7324 20.3519C29.7324 20.3519 31.498 20.6463 32.4808 20.718" fill="#2C221D"/>
<path d="M32.1133 19.0864C32.2336 19.4243 32.1776 19.9184 32.1776 20.28C32.1776 20.6 32.2922 20.7779 32.3398 21.0941C32.3965 21.4723 32.6121 21.7424 32.8399 22.0854H37.7317L37.4743 19.3891L36.8119 18.4323L35.4062 18.0592L32.2323 18.8912" fill="#2C221D"/>
<path d="M33.649 18.4321C33.592 18.6064 33.5733 18.7908 33.5942 18.9729C33.629 19.1803 33.7616 19.3115 33.9508 19.3889" stroke="#6D574E" stroke-width="0.108983" stroke-miterlimit="10"/>
<path d="M34.1934 19.4458C35.0604 19.6 35.9724 18.9843 36.06 18.1997" stroke="#6D574E" stroke-width="0.108983" stroke-miterlimit="10"/>
<path d="M40.7131 21.7739C40.6329 21.5737 40.5183 21.389 40.3745 21.2279C40.0009 20.7692 39.5838 20.3472 39.129 19.9678L37.4922 21.4487L38.5053 22.4254L37.3223 24.5572L38.8909 25.0052C38.8909 25.0052 40.0919 23.6862 40.5515 22.9515C40.7742 22.5867 40.8534 22.179 40.7131 21.7739Z" fill="#E27769"/>
<path d="M37.6331 24.0786C37.6331 24.0786 36.947 25.0604 36.8768 25.2377C36.8179 25.4089 36.7776 25.5859 36.7565 25.7657C36.6921 26.2335 36.9412 26.7141 37.1311 26.9413C37.1529 26.9667 37.1829 26.9837 37.216 26.9893C37.2862 27.0021 37.3145 26.9657 37.3132 26.8831L37.4284 27.0393C37.4424 27.0615 37.4614 27.0804 37.4838 27.0943C37.5075 27.1012 37.5328 27.1003 37.556 27.0918C37.5792 27.0832 37.599 27.0675 37.6125 27.0469C37.6432 27.0008 37.665 26.9493 37.6769 26.8953C37.7174 26.9541 37.7812 27.0156 37.8423 26.9797C37.8767 26.9503 37.9037 26.9133 37.921 26.8716C37.9383 26.8299 37.9456 26.7847 37.9421 26.7397C37.962 26.8037 38.0496 26.8069 38.0972 26.7589C38.1413 26.7036 38.1689 26.6371 38.177 26.5669C38.2025 26.3893 38.2553 26.2166 38.3334 26.0549C38.3961 25.957 38.4646 25.863 38.5387 25.7733C38.7621 25.4674 38.8728 25.077 38.9449 24.693" fill="#E27769"/>
<path d="M38.0827 25.5928L37.99 25.7969C37.9649 25.852 37.9398 25.907 37.9199 25.9646C37.8298 26.2233 37.8444 26.5067 37.9604 26.755" stroke="black" stroke-width="0.108983" stroke-miterlimit="10"/>
<path d="M37.5666 25.567C37.5022 25.8761 37.4784 26.248 37.5228 26.4803C37.5551 26.6308 37.6149 26.7742 37.6992 26.9033" stroke="black" stroke-width="0.108983" stroke-miterlimit="10"/>
<path d="M37.114 25.4507C37.114 25.4507 37.0741 25.6792 37.0645 25.8078C37.0342 26.2174 37.0889 26.6136 37.3136 26.9169" stroke="black" stroke-width="0.108983" stroke-miterlimit="10"/>
<path d="M25.1657 18.1204L24.795 18.0845C24.6841 18.0775 24.5743 18.0591 24.4673 18.0295C24.3974 18.0053 24.3292 17.9762 24.2633 17.9425C23.9891 17.8093 23.8488 17.7697 23.5862 17.6161C23.4362 17.5263 23.2808 17.4459 23.1208 17.3754C22.9637 17.3082 22.799 17.2717 22.6548 17.1802C22.6416 17.1731 22.6307 17.1624 22.6233 17.1495C22.6202 17.1384 22.6202 17.1267 22.6233 17.1156C22.6567 16.8801 23.1382 16.9338 23.3313 16.9876C23.3863 17.0088 23.4457 17.0167 23.5044 17.0106C23.5032 16.9352 23.4809 16.8617 23.4401 16.7981C23.3319 16.6061 23.1736 16.4513 23.0307 16.2861C22.8981 16.1306 22.7642 15.9757 22.6445 15.8119C22.5306 15.6589 22.4128 15.3255 22.5022 15.2845C22.5917 15.2436 22.5441 15.3249 22.573 15.3287C22.5151 15.2935 22.537 15.1521 22.5788 15.0964C22.6207 15.0407 22.7352 15.1252 22.7719 15.1789C22.7307 15.1271 22.7449 15.01 22.7874 14.9869C22.8518 14.9562 22.9226 14.9978 22.9805 15.0324C23.0344 15.0725 23.0953 15.1024 23.1601 15.1207C23.1432 15.0784 23.1332 15.0337 23.1305 14.9882C23.1626 14.9485 23.2257 14.969 23.2701 14.9927C24.1655 15.4778 24.9295 16.2125 25.8814 16.6452" fill="#E27769"/>
<path d="M23.3105 16.6162C23.4161 16.777 23.491 16.9558 23.5313 17.1436" stroke="black" stroke-width="0.108983" stroke-miterlimit="10"/>
<path d="M22.5665 15.2756C22.6849 15.4222 22.8439 15.524 22.9823 15.65C23.203 15.851 23.4129 16.0622 23.6259 16.2708" stroke="black" stroke-width="0.108983" stroke-miterlimit="10"/>
<path d="M22.7656 15.1611C22.8338 15.2253 22.9063 15.2847 22.9825 15.3391C23.0636 15.3973 23.1492 15.4491 23.2336 15.5035C23.474 15.6592 23.703 15.8316 23.9191 16.0194" stroke="black" stroke-width="0.108983" stroke-miterlimit="10"/>
<path d="M23.1855 15.1372C23.2652 15.205 23.354 15.2612 23.4494 15.3042C23.739 15.4575 24.0091 15.6446 24.254 15.8617" stroke="black" stroke-width="0.108983" stroke-miterlimit="10"/>
<path d="M25.2015 18.1764C25.2015 18.1764 24.6949 18.1086 24.4883 18.0542" stroke="black" stroke-width="0.108983" stroke-miterlimit="10"/>
<path d="M36.4004 18.3247C36.7486 18.358 37.0975 18.3887 37.4302 18.5167C37.8493 18.6741 38.2136 18.9698 38.5566 19.2719C38.9152 19.5881 39.2808 20.0175 39.6296 20.3471L37.8428 21.9004L36.5748 20.6716" fill="#2C221D"/>
<path d="M38.502 22.4239C38.6571 22.2283 38.8359 22.0525 39.0343 21.9004" stroke="black" stroke-width="0.108983" stroke-miterlimit="10"/>
<path d="M37.3184 21.3973L39.1824 19.8965" stroke="#6D574E" stroke-width="0.108983" stroke-miterlimit="10"/>
<path d="M30.4141 20.4598L30.685 17.8447" stroke="#6D574E" stroke-width="0.108983" stroke-miterlimit="10"/>
<path d="M32.1133 19.9678C32.1133 19.9678 32.2368 20.5259 32.2703 20.7652" stroke="#6D574E" stroke-width="0.108983" stroke-miterlimit="10"/>
<path d="M36.5117 20.6719C36.8979 20.9688 37.8402 21.9026 37.8402 21.9026" stroke="#6D574E" stroke-width="0.108983" stroke-miterlimit="10"/>
<path d="M34.5218 16.4692L35.3585 16.8052L35.3096 17.3576L35.7293 18.1646C35.7293 18.1646 35.5246 18.9256 34.6048 19.115C33.8286 19.275 33.8459 18.7764 33.8459 18.7764L33.4765 17.7153" fill="#E27769"/>
<path d="M32.7633 16.8959C32.8863 16.4818 32.9526 16.2277 33.1102 15.9269C33.2428 15.6709 33.4758 15.3042 33.743 15.1845C34.0867 15.0309 34.48 15.2197 34.8269 15.3445C35.3965 15.5519 35.5253 16.2181 35.4609 16.7506C35.41 17.1595 35.17 17.3611 34.8777 17.6645C34.4954 18.0613 33.555 18.3992 33.0691 18.1522C32.706 17.9672 32.6327 17.333 32.7633 16.8959Z" fill="#E27769"/>
<path d="M38.7136 19.3973C38.9376 19.3237 39.0476 19.0619 39.0354 18.8757C39.0154 18.5761 38.8745 18.4213 38.8513 18.2357C38.8365 18.1153 38.8726 17.9931 38.8623 17.8721C38.8487 17.7723 38.8101 17.6775 38.7501 17.5965C38.69 17.5154 38.6104 17.4506 38.5185 17.4081C38.3339 17.3247 38.1295 17.2939 37.9283 17.3192C37.7738 17.3333 37.6194 17.3659 37.4662 17.3441C37.3386 17.3216 37.2166 17.2747 37.107 17.2059C36.9069 17.0941 36.7347 16.9391 36.603 16.7521C36.3874 16.4321 36.3411 16.027 36.175 15.6776C36.0906 15.5015 35.9755 15.3416 35.8351 15.2053C35.4966 14.8737 35.1741 14.7509 34.6946 14.7349C34.3657 14.724 33.908 14.7675 33.6564 15.0728C33.6564 15.0728 33.1704 15.0849 32.938 15.3288C32.6626 15.6174 32.6806 16.0328 32.9232 16.3694C33.0475 16.1665 33.153 15.9521 33.3352 15.7966C33.3258 15.8138 33.3223 15.8335 33.3252 15.8528C33.3281 15.872 33.3372 15.8899 33.3513 15.9035C33.3799 15.9304 33.4174 15.9461 33.4568 15.9477C33.5618 15.9457 33.664 15.9135 33.751 15.8549C33.7202 15.9366 33.707 16.0238 33.7124 16.1109C33.7119 16.1294 33.7176 16.1476 33.7284 16.1627C33.7441 16.1773 33.7649 16.1851 33.7864 16.1845C33.8584 16.1897 33.9306 16.1765 33.9961 16.1462C34.0615 16.1158 34.1181 16.0693 34.1603 16.011C34.1211 16.1173 34.0863 16.2504 34.1655 16.331C34.1959 16.3572 34.2333 16.374 34.2732 16.3796C34.313 16.3852 34.3536 16.3792 34.3901 16.3624C34.4635 16.3276 34.5291 16.2787 34.5832 16.2184C34.5555 16.2453 34.5916 16.3982 34.5987 16.4334C34.614 16.5105 34.6355 16.5863 34.663 16.66C34.7423 16.8882 34.8467 17.1069 34.9746 17.3121C35.1091 17.5227 35.3009 17.6827 35.438 17.8881C35.5249 18.0161 35.5983 18.1601 35.7154 18.2645C35.8667 18.3958 36.0493 18.4863 36.2458 18.5275C36.4389 18.5659 36.632 18.5486 36.8251 18.5422C37.5363 18.5192 38.0757 18.8731 38.7161 19.3941" fill="#893D33"/>
<path d="M37.0524 14.818C37.0136 14.7183 36.9529 14.6284 36.8748 14.5549C36.598 14.2989 35.9936 14.3175 35.787 14.6625C35.673 14.8545 35.7284 15.0957 35.8147 15.2986L35.9846 15.6692C36.1039 15.7324 36.2365 15.7666 36.3716 15.7691C36.5068 15.7715 36.6406 15.7421 36.7621 15.6833C36.8624 15.638 36.9484 15.5664 37.0107 15.4762C37.0731 15.386 37.1096 15.2806 37.1161 15.1713C37.1201 15.0504 37.0984 14.93 37.0524 14.818Z" fill="#893D33"/>
<path d="M34.5871 16.967C34.645 16.7954 34.9211 16.7334 35.0576 16.8358C35.3859 17.0828 35.0544 17.7023 34.6907 17.6588C34.5884 17.646 34.4609 17.5647 34.4609 17.445" fill="#E27769"/>
<path d="M34.9914 17.1377L34.584 17.3252" stroke="black" stroke-width="0.108983" stroke-miterlimit="10"/>
<path d="M34.8168 16.8049C34.7234 16.8282 34.6394 16.8794 34.5761 16.9515" stroke="black" stroke-width="0.108983" stroke-miterlimit="10"/>
<path d="M35.0976 17.4448C35.0062 17.5728 34.862 17.6893 34.6998 17.6669C34.6418 17.6609 34.5875 17.6355 34.5458 17.5948C34.5042 17.5541 34.4777 17.5005 34.4707 17.4429" stroke="black" stroke-width="0.108983" stroke-miterlimit="10"/>
<path d="M33.6621 18.2589C33.9389 18.2316 34.2044 18.1359 34.4345 17.9805" stroke="black" stroke-width="0.108983" stroke-miterlimit="10"/>
<path d="M33.2614 16.6865C33.2084 16.7955 33.1335 16.8924 33.0412 16.9713C33.0178 16.987 32.9962 17.0052 32.9769 17.0257C32.9632 17.0414 32.9533 17.06 32.9479 17.0801C32.9426 17.1002 32.9419 17.1212 32.946 17.1416C32.9502 17.1619 32.959 17.1811 32.9717 17.1976C32.9844 17.2141 33.0007 17.2275 33.0194 17.2369" stroke="black" stroke-width="0.108983" stroke-miterlimit="10"/>
<path d="M33.0879 17.4815C33.1184 17.5078 33.1559 17.5247 33.1959 17.5303C33.2358 17.5358 33.2766 17.5298 33.3132 17.5128C33.4046 17.4642 33.4065 17.3477 33.4097 17.2568" stroke="black" stroke-width="0.108983" stroke-miterlimit="10"/>
<path d="M33.707 16.462C33.774 16.4469 33.8435 16.4469 33.9104 16.462C33.978 16.4763 34.0387 16.5128 34.0829 16.5656C34.1307 16.638 34.16 16.7208 34.1685 16.8069" stroke="black" stroke-width="0.108983" stroke-miterlimit="10"/>
<path d="M32.9629 16.2091C32.9954 16.1873 33.0331 16.1745 33.0722 16.1719C33.1114 16.1693 33.1505 16.177 33.1856 16.1944C33.2205 16.2122 33.2514 16.2371 33.2762 16.2674C33.301 16.2977 33.3192 16.3327 33.3298 16.3704" stroke="black" stroke-width="0.108983" stroke-miterlimit="10"/>
<path d="M33.8185 16.8435C33.7922 16.8979 33.7394 16.9267 33.7001 16.9075C33.6799 16.8926 33.6661 16.8706 33.6617 16.846C33.6573 16.8213 33.6625 16.796 33.6763 16.775C33.702 16.7206 33.7555 16.6918 33.7947 16.711C33.8151 16.7258 33.829 16.7478 33.8334 16.7725C33.8378 16.7972 33.8325 16.8226 33.8185 16.8435Z" fill="black"/>
<path d="M33.0965 16.6075C33.0701 16.6619 33.0173 16.6907 32.9774 16.6715C32.9572 16.6568 32.9435 16.6349 32.939 16.6103C32.9346 16.5858 32.9398 16.5605 32.9536 16.5397C32.98 16.4853 33.0334 16.4565 33.0727 16.4757C33.0926 16.4906 33.1061 16.5125 33.1106 16.537C33.115 16.5614 33.1099 16.5866 33.0965 16.6075Z" fill="black"/>
<path d="M40.5938 24.0293C40.9882 23.6301 41.2628 23.1294 41.3867 22.5835" stroke="black" stroke-width="0.108983" stroke-miterlimit="10"/>
<path d="M41.4941 23.8083C41.613 23.5749 41.6883 23.3221 41.7162 23.062" stroke="black" stroke-width="0.108983" stroke-miterlimit="10"/>
<path d="M33.816 11.3778C33.816 11.3778 33.146 11.6831 32.6961 11.886C32.4418 12.0005 32.0151 12.3141 31.8696 12.5528C31.6842 12.8568 31.636 13.2325 31.6572 13.5423C31.6864 13.7788 31.7708 14.0052 31.9037 14.2034C31.9951 14.3512 32.0923 14.5048 32.1766 14.485C32.2609 14.4652 32.2313 14.2584 32.2313 14.2584C32.2643 14.3373 32.3057 14.4124 32.3549 14.4824C32.3858 14.5029 32.4193 14.5215 32.454 14.5048C32.4952 14.4862 32.5284 14.4538 32.548 14.4133C32.563 14.3759 32.5707 14.3359 32.5705 14.2956C32.5734 14.2399 32.5734 14.1842 32.5705 14.1285C32.5892 14.1701 32.6072 14.2994 32.6426 14.2924C32.691 14.2803 32.7346 14.2542 32.7681 14.2175C32.8262 14.1387 32.8698 14.0503 32.8969 13.9564C32.8959 13.9781 32.899 13.9998 32.9059 14.0204C32.9098 14.0307 32.9164 14.0399 32.925 14.0469C32.9336 14.054 32.9438 14.0587 32.9548 14.0607C33.0148 14.0377 33.0691 14.0023 33.1144 13.957C33.1865 13.8591 33.2136 13.7292 33.2657 13.6197C33.3056 13.5356 33.3555 13.4565 33.4144 13.3842C33.4761 13.3041 33.5522 13.2362 33.639 13.1839C33.8089 13.0949 33.9139 13.0712 34.0896 12.9919C34.2405 12.929 34.3747 12.8322 34.4816 12.709" fill="#D16159"/>
<path d="M32.877 13.9948C32.8905 13.8488 32.9079 13.7036 32.931 13.5596C32.943 13.4627 32.967 13.3677 33.0025 13.2767C33.0753 13.1338 33.1742 13.0055 33.294 12.8984" stroke="black" stroke-width="0.108983" stroke-miterlimit="10"/>
<path d="M32.5844 14.1612C32.538 13.9157 32.5231 13.6654 32.54 13.4162C32.5395 13.3472 32.5462 13.2784 32.5599 13.2108C32.5961 13.0969 32.6533 12.9908 32.7286 12.8978" stroke="black" stroke-width="0.108983" stroke-miterlimit="10"/>
<path d="M32.2388 14.3064C32.151 14.0677 32.0908 13.82 32.0592 13.5678C32.055 13.5193 32.0537 13.4706 32.0554 13.4219C32.0649 13.2396 32.1183 13.0623 32.2111 12.9048" stroke="black" stroke-width="0.108983" stroke-miterlimit="10"/>
<path d="M34.3857 7.76593L35.5649 9.97777L32.9336 11.7698L34.6657 13.1259C34.6657 13.1259 37.6175 12.1704 38.4221 11.6962C39.0528 11.3237 39.3232 10.3573 38.108 8.78097C36.8927 7.20465 36.0521 6.26897 35.8024 6.00657C35.2675 5.44017 34.6271 5.20465 34.0317 5.50417" fill="#4C4139"/>
<path d="M34.385 7.76562L35.5642 9.97746L32.9336 11.7688" stroke="black" stroke-width="0.108983" stroke-miterlimit="10"/>
<path d="M34.4539 12.5155C34.454 12.5329 34.449 12.5499 34.4394 12.5644C34.4297 12.5789 34.416 12.5902 34.3999 12.597C34.3838 12.6037 34.3661 12.6055 34.3489 12.6022C34.3318 12.5989 34.316 12.5906 34.3036 12.5784C34.2912 12.5661 34.2827 12.5505 34.2793 12.5335C34.2758 12.5165 34.2775 12.4988 34.2842 12.4827C34.2908 12.4667 34.3022 12.453 34.3167 12.4433C34.3312 12.4336 34.3483 12.4285 34.3657 12.4285C34.389 12.4285 34.4113 12.4376 34.4278 12.4539C34.4444 12.4702 34.4537 12.4924 34.4539 12.5155Z" stroke="black" stroke-width="0.108983" stroke-miterlimit="10"/>
<path d="M34.9085 12.3311C34.9572 12.3311 34.9967 12.2919 34.9967 12.2434C34.9967 12.195 34.9572 12.1558 34.9085 12.1558C34.8598 12.1558 34.8203 12.195 34.8203 12.2434C34.8203 12.2919 34.8598 12.3311 34.9085 12.3311Z" stroke="black" stroke-width="0.108983" stroke-miterlimit="10"/>
<path d="M33.8613 12.4959C33.871 12.5036 34.9955 11.9404 34.9955 11.9404" stroke="black" stroke-width="0.108983" stroke-miterlimit="10"/>
<path d="M33.924 11.0943C33.9349 11.0866 35.9457 12.6943 35.9457 12.6943" stroke="black" stroke-width="0.108983" stroke-miterlimit="10"/>
<path d="M35.5 9.99961C35.7472 9.90425 35.995 9.80057 36.2589 9.76153C36.5418 9.72857 36.8273 9.72407 37.1111 9.74809" stroke="black" stroke-width="0.108983" stroke-miterlimit="10"/>
<path d="M34.666 13.1254L38.0735 11.894" stroke="black" stroke-width="0.108983" stroke-miterlimit="10"/>
<path d="M35.2602 4.95052C34.5792 4.31436 33.884 3.6814 33.0788 3.20972C31.5881 2.33676 29.5078 2.4718 28.4799 3.10732C27.6901 3.595 27.2743 4.20172 26.7677 4.95372C26.1331 5.89516 25.4676 6.90764 24.4216 7.3582C23.9125 7.57772 23.3518 7.64428 22.8067 7.74988C22.2615 7.85548 21.7041 8.01548 21.2864 8.37964C20.8686 8.7438 20.6311 9.36204 20.8564 9.86636C21.034 10.2632 21.4704 10.5128 21.9062 10.5249C22.3419 10.5371 22.7681 10.3329 23.0815 10.0347C23.8829 9.26668 24.2562 7.24364 22.7758 6.66124" stroke="#ED725A" stroke-width="0.163474" stroke-miterlimit="10"/>
<path d="M2.92578 18.6606C3.03402 19.1345 3.2587 19.5743 3.57974 19.9406C3.99876 20.4155 4.85353 20.7227 5.22042 20.0322C5.39163 19.7122 5.47788 19.1918 5.0698 18.9621C5.04092 18.9434 5.00764 18.9326 4.97325 18.9307C4.93754 18.9341 4.9037 18.9482 4.87614 18.971C4.84858 18.9938 4.82859 19.0244 4.81878 19.0587C4.71 19.3499 4.88314 19.6648 5.12194 19.8984C5.23188 20.0152 5.3673 20.1054 5.51779 20.1621C5.59694 20.1917 5.68152 20.2044 5.76594 20.1992C5.85036 20.194 5.93273 20.1711 6.00761 20.132C6.22259 20.004 6.27923 19.7147 6.26507 19.5093" stroke="#8F96DB" stroke-width="0.163474" stroke-miterlimit="10"/>
<path d="M2.02541 6.96708C2.40388 6.4922 2.9143 6.06276 3.48779 5.84324C3.82013 5.71961 4.17955 5.68604 4.52923 5.74596C4.69208 5.77796 4.88131 5.82916 4.97979 5.97444C5.07827 6.11972 4.96177 6.41284 5.17289 6.49988C5.22815 6.51799 5.28732 6.52087 5.3441 6.5082C5.52368 6.48132 5.69876 6.42756 5.87898 6.40132C6.05876 6.36595 6.24514 6.38674 6.41257 6.46084C6.57477 6.54276 6.69771 6.71684 6.6739 6.8986C6.66424 6.969 6.63335 7.03812 6.64686 7.10788C6.66875 7.22436 6.80134 7.28516 6.91977 7.29988C7.16565 7.32228 7.3993 7.3146 7.60849 7.47076C7.76168 7.58596 7.84986 7.79076 7.77133 7.95588" stroke="#FFDD99" stroke-width="0.163474" stroke-miterlimit="10"/>
<path d="M18.0818 6.51529C18.1777 6.30409 18.2846 6.09225 18.4513 5.93033C18.618 5.76841 18.8562 5.66281 19.0846 5.70697C19.2031 5.73001 19.3144 5.79081 19.4348 5.78825C19.6009 5.78825 19.7425 5.66025 19.8171 5.51113C19.8918 5.36201 19.913 5.19689 19.9459 5.03497C19.9941 4.77897 20.0746 4.51209 20.2503 4.31753C20.426 4.12297 20.7292 4.01801 20.9673 4.13385" stroke="#FFDD99" stroke-width="0.163474" stroke-miterlimit="10"/>
<path d="M6.86581 28.0658C6.93194 27.6733 6.66553 27.3018 6.27075 27.236C5.87598 27.1703 5.50234 27.4352 5.43621 27.8277C5.37008 28.2202 5.63649 28.5918 6.03127 28.6575C6.42604 28.7233 6.79967 28.4584 6.86581 28.0658Z" stroke="#909DF4" stroke-width="0.163474" stroke-miterlimit="10"/>
<path d="M18.4841 3.97333C18.8087 3.97333 19.0718 3.71172 19.0718 3.38901C19.0718 3.0663 18.8087 2.80469 18.4841 2.80469C18.1596 2.80469 17.8965 3.0663 17.8965 3.38901C17.8965 3.71172 18.1596 3.97333 18.4841 3.97333Z" stroke="#8F96DB" stroke-width="0.163474" stroke-miterlimit="10"/>
<path d="M39.3984 25.8076L39.7878 28.3593L41.3191 27.2374L39.3984 25.8076Z" fill="#FFDD99"/>
<path d="M0.850957 23.0079L1.8866 21.8406L0.117188 21.9033L0.850957 23.0079Z" stroke="#8F96DB" stroke-width="0.163474" stroke-miterlimit="10"/>
<path d="M2.5056 25.9C2.73738 25.9 2.92527 25.7132 2.92527 25.4827C2.92527 25.2523 2.73738 25.0654 2.5056 25.0654C2.27383 25.0654 2.08594 25.2523 2.08594 25.4827C2.08594 25.7132 2.27383 25.9 2.5056 25.9Z" fill="#FFDD99"/>
<path d="M3.4023 8.07996L2.39433 10.2668L5.47488 9.82268L3.4023 8.07996Z" fill="#ED725A"/>
<path d="M1.42498 13.5295C1.42497 13.5802 1.40979 13.6298 1.38135 13.672C1.35292 13.7142 1.31251 13.747 1.26528 13.7663C1.21805 13.7855 1.16612 13.7904 1.11609 13.7803C1.06606 13.7701 1.02019 13.7454 0.984317 13.7093C0.948442 13.6732 0.924178 13.6273 0.914611 13.5774C0.905043 13.5275 0.910603 13.476 0.930584 13.4293C0.950565 13.3825 0.984065 13.3428 1.02683 13.315C1.06959 13.2873 1.11968 13.2728 1.17073 13.2735C1.23845 13.2743 1.30312 13.3016 1.35071 13.3496C1.3983 13.3975 1.42498 13.4621 1.42498 13.5295Z" fill="#909DF4"/>
<path d="M35.9681 3.55288C35.9681 3.60351 35.953 3.653 35.9247 3.6951C35.8964 3.7372 35.8562 3.77001 35.8091 3.78939C35.7621 3.80876 35.7103 3.81383 35.6604 3.80396C35.6104 3.79408 35.5645 3.7697 35.5285 3.73389C35.4925 3.69809 35.468 3.65248 35.4581 3.60282C35.4481 3.55316 35.4532 3.50169 35.4727 3.45491C35.4922 3.40813 35.5252 3.36815 35.5675 3.34002C35.6099 3.31189 35.6597 3.29688 35.7106 3.29688C35.7789 3.29688 35.8444 3.32385 35.8926 3.37186C35.9409 3.41987 35.9681 3.48498 35.9681 3.55288Z" fill="#ED725A"/>
<path d="M40.6484 25.6491C40.7466 25.6098 40.8527 25.594 40.9581 25.603C41.0636 25.6121 41.1654 25.6456 41.2554 25.701C41.4073 25.8027 41.4865 25.9928 41.6693 26.0523C41.937 26.1394 42.1739 25.8911 42.4327 25.8738C42.656 25.8591 42.8362 26.0101 42.9238 26.204C42.9892 26.3746 43.0238 26.5553 43.0261 26.7378" stroke="#8F96DB" stroke-width="0.163474" stroke-miterlimit="10"/>
<path d="M38.6777 8.29523C38.7265 8.18071 38.8082 8.08311 38.9127 8.01476C39.0172 7.94642 39.1397 7.91039 39.2647 7.91123C39.3935 7.91123 39.5222 7.95667 39.6432 7.92467C40.0256 7.82611 39.9934 7.16499 40.3712 7.05043C40.6325 6.97107 40.917 7.22323 41.1732 7.12723C41.3933 7.04531 41.4474 6.76947 41.5175 6.54611C41.6164 6.24439 41.7973 5.97573 42.0402 5.76983C42.283 5.56392 42.5784 5.4288 42.8937 5.37939" stroke="#8F96DB" stroke-width="0.163474" stroke-miterlimit="10"/>
<path d="M35.7663 21.5759C35.8733 21.5759 35.976 21.6181 36.0516 21.6934C36.1273 21.7686 36.1698 21.8707 36.1698 21.9771V29.0811C36.1698 29.1876 36.1273 29.2896 36.0516 29.3649C35.976 29.4401 35.8733 29.4824 35.7663 29.4824H24.1895C24.1364 29.4825 24.0839 29.4722 24.0349 29.452C23.9859 29.4319 23.9414 29.4024 23.9039 29.3651C23.8664 29.3278 23.8367 29.2835 23.8164 29.2348C23.7962 29.1861 23.7858 29.1339 23.7859 29.0811V21.9771C23.7859 21.8707 23.8284 21.7686 23.9041 21.6934C23.9798 21.6181 24.0824 21.5759 24.1895 21.5759H35.7663ZM35.7663 21.4799H24.1895C24.0569 21.48 23.9298 21.5325 23.836 21.6257C23.7422 21.7189 23.6895 21.8453 23.6893 21.9771V29.0811C23.6893 29.213 23.742 29.3395 23.8358 29.4328C23.9296 29.526 24.0568 29.5784 24.1895 29.5784H35.7663C35.8989 29.5782 36.026 29.5258 36.1197 29.4326C36.2135 29.3394 36.2662 29.213 36.2664 29.0811V21.9771C36.2662 21.8453 36.2135 21.7189 36.1197 21.6257C36.026 21.5325 35.8989 21.48 35.7663 21.4799Z" fill="white"/>
<path d="M23.7852 22.6455H36.1678V29.0833C36.1678 29.1897 36.1253 29.2918 36.0496 29.367C35.9739 29.4423 35.8713 29.4845 35.7643 29.4845H24.1887C24.0817 29.4845 23.979 29.4423 23.9034 29.367C23.8277 29.2918 23.7852 29.1897 23.7852 29.0833V22.6455Z" fill="#C5B3DD"/>
<path d="M24.7336 22.1438C24.7336 22.1893 24.7201 22.2337 24.6947 22.2715C24.6693 22.3093 24.6332 22.3387 24.591 22.3561C24.5488 22.3735 24.5023 22.378 24.4575 22.3692C24.4127 22.3603 24.3715 22.3384 24.3392 22.3063C24.3068 22.2742 24.2848 22.2332 24.2759 22.1886C24.267 22.1441 24.2716 22.0979 24.2891 22.0559C24.3066 22.0139 24.3362 21.978 24.3742 21.9528C24.4122 21.9275 24.4569 21.9141 24.5026 21.9141C24.5638 21.9141 24.6226 21.9383 24.666 21.9814C24.7093 22.0244 24.7336 22.0829 24.7336 22.1438Z" stroke="white" stroke-width="0.163474" stroke-miterlimit="10"/>
<path d="M25.6282 22.1438C25.6282 22.1893 25.6146 22.2337 25.5892 22.2715C25.5638 22.3093 25.5276 22.3388 25.4854 22.3562C25.4431 22.3735 25.3966 22.378 25.3518 22.3691C25.3069 22.3602 25.2658 22.3383 25.2335 22.3061C25.2012 22.2739 25.1792 22.2329 25.1704 22.1883C25.1615 22.1436 25.1662 22.0974 25.1838 22.0555C25.2014 22.0135 25.2311 21.9776 25.2692 21.9525C25.3073 21.9273 25.352 21.9139 25.3977 21.9141C25.428 21.9141 25.4581 21.92 25.4861 21.9316C25.5141 21.9431 25.5395 21.9601 25.5609 21.9814C25.5823 22.0027 25.5993 22.0281 25.6108 22.0559C25.6223 22.0838 25.6282 22.1137 25.6282 22.1438Z" stroke="white" stroke-width="0.163474" stroke-miterlimit="10"/>
<path d="M23.7852 22.6455H36.1691" stroke="white" stroke-width="0.163474" stroke-miterlimit="10"/>
<path d="M34.4307 27.9485C33.8148 27.2694 33.0984 26.9341 32.7347 27.016C32.1992 27.1363 32.2964 28.495 32.3118 29.0409C32.0521 28.7426 31.7336 28.5003 31.3759 28.3293C31.1082 28.2013 30.8024 28.1129 30.5134 28.1833C30.2244 28.2537 29.9689 28.5238 30.003 28.8176C29.3238 27.8179 28.4031 27.0037 27.3254 26.4496C26.647 26.1021 24.8023 25.3782 24.4862 26.1296C24.14 26.9533 26.105 29.4889 26.105 29.4889H35.6312C35.6312 29.4889 34.9888 28.5609 34.4307 27.9485Z" fill="#A29DCE"/>
<path d="M22.5313 20.7022C22.1818 20.338 21.8458 19.634 21.7518 19.259C21.6688 18.9287 21.5948 18.5908 21.4377 18.2855C21.3953 18.203 21.2137 18.0129 21.28 17.9143C21.4126 17.7153 21.7351 17.9783 21.8188 18.0961C21.849 18.1383 21.9597 18.3169 22.0151 18.3278C22.0704 18.3386 22.0943 18.1242 22.1013 18.0321C22.1293 17.6678 22.1293 17.302 22.1013 16.9377C22.0704 16.5703 22.1232 16.2478 22.2391 16.2337C22.3549 16.2196 22.3504 16.2862 22.3717 16.3092C22.3903 16.1927 22.4972 16.0532 22.5648 16.0935C22.5843 16.1077 22.6002 16.1262 22.6114 16.1475C22.6225 16.1688 22.6286 16.1924 22.6291 16.2164C22.6375 16.2632 22.6488 16.3094 22.6633 16.3546C22.6633 16.3546 22.7276 16.1063 22.8518 16.2471C22.913 16.3175 23.007 16.6951 23.0668 16.8135C23.0513 16.7427 23.0513 16.6693 23.0668 16.5985C23.081 16.5479 23.1093 16.507 23.164 16.5345C23.1778 16.5433 23.1896 16.5548 23.1987 16.5683C23.2078 16.5819 23.214 16.5972 23.2168 16.6132C23.278 16.7815 23.4279 17.0529 23.4826 17.2238L23.6538 17.7588C23.7607 18.0935 23.865 18.4462 23.9416 18.7956C24.013 19.1188 24.2737 19.9156 24.2737 19.9156" fill="#A04B4B"/>
<path d="M22.3672 16.3257C22.3981 16.5177 22.4689 16.7615 22.5075 16.9791C22.5629 17.2902 22.588 17.5788 22.6362 17.8534" stroke="black" stroke-width="0.108983" stroke-miterlimit="10"/>
<path d="M22.6779 16.3571C22.7152 16.5209 22.7796 16.7487 22.8221 16.9331C22.8942 17.2447 22.947 17.5251 23.0094 17.799" stroke="black" stroke-width="0.108983" stroke-miterlimit="10"/>
<path d="M23.0643 16.8049C23.1557 17.1032 23.2883 17.4449 23.3932 17.8232" stroke="black" stroke-width="0.108983" stroke-miterlimit="10"/>
<path d="M22.051 18.3085C22.0272 18.4659 22.0156 18.6336 21.91 18.7712" stroke="black" stroke-width="0.108983" stroke-miterlimit="10"/>
<path d="M34.3672 29.4849C34.2436 29.156 34.1097 28.8104 33.925 28.5089C33.7427 28.1985 33.489 27.9353 33.1848 27.7409C33.0431 27.6588 32.896 27.5864 32.7445 27.524L31.5319 26.9915L29.5481 26.2235L29.1806 25.8837C28.9437 25.6648 28.7077 25.4444 28.4726 25.2225L28.4455 25.1969C26.6497 23.4926 25.3141 21.5886 24.1478 19.3672L22.0527 20.2805C22.0527 20.2805 22.959 23.3525 23.8202 24.6549C24.9576 26.3765 26.2732 27.9425 26.8673 28.4385C26.9733 28.7931 27.0951 29.1421 27.2329 29.4856L34.3672 29.4849Z" fill="#FCDDD2"/>
<path d="M22.3887 21.3368L24.6363 20.2622" stroke="black" stroke-width="0.108983" stroke-miterlimit="10"/>
<path d="M22.5 20.084L23.2582 21.7192" stroke="black" stroke-width="0.108983" stroke-miterlimit="10"/>
<path d="M23.2134 20.4276C23.2134 20.4569 23.2047 20.4854 23.1883 20.5098C23.172 20.5341 23.1488 20.553 23.1216 20.5642C23.0944 20.5754 23.0645 20.5783 23.0357 20.5726C23.0069 20.5669 22.9804 20.5528 22.9596 20.5322C22.9388 20.5115 22.9246 20.4851 22.9189 20.4565C22.9131 20.4278 22.9161 20.3981 22.9273 20.371C22.9386 20.344 22.9576 20.3209 22.9821 20.3047C23.0065 20.2885 23.0353 20.2798 23.0647 20.2798C23.1041 20.28 23.1418 20.2956 23.1696 20.3233C23.1975 20.351 23.2132 20.3885 23.2134 20.4276Z" stroke="#D8A798" stroke-width="0.108983" stroke-miterlimit="10"/>
<path d="M31.3125 29.4403L31.6221 29.039C31.7312 28.8927 31.8478 28.7521 31.9716 28.6179C32.3378 28.2249 32.8313 27.9723 33.3658 27.9043" stroke="#D8A798" stroke-width="0.108983" stroke-miterlimit="10"/>
<path d="M26.8047 28.246C26.8091 27.7085 26.9794 27.1853 27.2926 26.7471C27.682 26.1986 28.2542 25.805 28.9461 25.7871" stroke="#D8A798" stroke-width="0.108983" stroke-miterlimit="10"/>
<path d="M26.8577 28.4166C26.7586 28.1228 26.702 27.7939 26.5449 27.5244" stroke="black" stroke-width="0.108983" stroke-miterlimit="10"/>
<path d="M28.9139 26.0046L28.7852 27.643C28.7852 27.643 29.3387 28.2043 30.1008 27.8389C30.8629 27.4734 31.4184 26.7784 31.4184 26.7784L31.1693 25.7627" fill="#A04B4B"/>
<path d="M31.9436 23.962C31.8672 23.7213 31.7229 23.5074 31.5278 23.3457C31.0605 22.9655 30.5469 22.9758 30.0474 23.2689C29.6116 23.5249 29.013 23.9255 28.6803 24.3102C28.3372 24.7076 28.1074 25.2011 28.4582 25.6657C29.0221 26.4126 30.6042 26.1591 31.3585 25.5467C31.6662 25.2971 31.9558 24.8919 32.0022 24.4932C32.0202 24.314 32.0002 24.1331 31.9436 23.962Z" fill="#A04B4B"/>
<path d="M29.9474 23.4778C29.6957 23.6058 29.4209 23.6391 29.1454 23.6698C29.0128 23.6858 28.8377 23.7299 28.8615 23.9027C28.877 24.0141 28.9748 24.1101 29.0546 24.1779" fill="#A04B4B"/>
<path d="M28.8506 25.1797L28.9194 25.0261C28.9632 24.9269 28.8203 24.8604 28.7521 24.8265C28.7032 24.8021 28.6768 24.7797 28.6272 24.8124C28.615 24.8207 28.5429 24.8892 28.5275 24.8764L28.3949 24.7228C28.287 24.9186 28.2339 25.1396 28.241 25.3628C28.2523 25.5443 28.328 25.716 28.4547 25.8473C28.5134 25.9072 28.5781 25.961 28.6478 26.0079C29.1673 26.3189 29.8148 26.2953 30.3799 26.077C30.5573 26.0156 30.7184 25.9149 30.8511 25.7826C29.1235 25.7596 28.8506 25.1797 28.8506 25.1797Z" fill="#1E1611"/>
<path d="M30.9121 25.0645L30.8889 25.06C30.7737 25.0414 30.6598 25.06 30.5459 25.0209C30.4527 24.9928 30.3724 24.9333 30.3186 24.8526C30.2588 24.7553 30.3405 24.699 30.4197 24.6561C30.5387 24.5944 30.6487 24.5169 30.7467 24.4257C30.8271 24.3532 30.8858 24.2598 30.916 24.1561C30.9462 24.0524 30.9469 23.9423 30.9179 23.8382C30.8439 23.6059 30.6141 23.4689 30.4351 23.3217C30.2562 23.1745 30.0432 22.9589 30.1133 22.7125C30.1835 22.4661 30.4261 22.3758 30.663 22.4104C30.7917 22.4289 30.9205 22.4648 31.0453 22.4449C31.1097 22.4347 31.1741 22.411 31.2352 22.3969C31.3329 22.3727 31.4356 22.3768 31.531 22.4089C31.6264 22.441 31.7105 22.4997 31.7733 22.5781C31.8576 22.6945 31.8905 22.8603 32.0198 22.9243C32.0855 22.9472 32.1535 22.9626 32.2226 22.9704C32.2913 22.988 32.3549 23.0211 32.4086 23.0672C32.4623 23.1132 32.5046 23.171 32.5322 23.236C32.5865 23.3676 32.5879 23.5149 32.536 23.6475C32.4453 23.8837 32.3101 24.0021 32.4215 24.2625C32.6789 24.868 32.7877 25.611 32.1717 26.0462C32.0095 26.1601 31.8061 26.2197 31.6716 26.3662C31.5873 26.4565 31.5184 26.5857 31.3955 26.5985C31.3538 26.5991 31.3125 26.5901 31.2748 26.5723C31.2371 26.5546 31.204 26.5285 31.1779 26.4961C31.1292 26.4401 31.0861 26.3794 31.0492 26.315C30.9881 26.2315 30.9466 26.1355 30.9275 26.0341C30.9115 25.8881 30.9881 25.7499 31.0563 25.6206C31.1245 25.4913 31.2532 25.2449 31.0975 25.1438C31.0409 25.1067 30.9781 25.0798 30.9121 25.0645Z" fill="#1E1611"/>
<path d="M30.533 23.7445C30.4944 23.6274 30.4236 23.5109 30.3142 23.564C30.301 23.5715 30.2897 23.582 30.2815 23.5947C30.2732 23.6074 30.2681 23.6219 30.2666 23.637C30.2641 23.667 30.2665 23.6973 30.2736 23.7266C30.2906 23.8672 30.3343 24.0034 30.4024 24.1278C30.4155 24.1542 30.4358 24.1764 30.4609 24.1918C30.6334 24.2718 30.5549 23.8085 30.533 23.7445Z" fill="#1E1611"/>
<path d="M29.4497 24.5346L28.9657 24.4258C28.9657 24.4258 28.9181 24.8386 29.124 24.8795C29.33 24.9205 29.4497 24.5346 29.4497 24.5346Z" fill="white"/>
<path d="M28.9375 24.0499C28.9779 24.1021 29.0317 24.1424 29.0933 24.1664" stroke="black" stroke-width="0.108983" stroke-miterlimit="10"/>
<path d="M29.4746 23.6265C29.6558 23.5995 29.8304 23.5394 29.9895 23.4492" stroke="black" stroke-width="0.108983" stroke-miterlimit="10"/>
<path d="M30.8003 25.0814C30.9786 24.9476 31.303 25.0756 31.37 25.2734C31.5302 25.7521 30.7585 26.1515 30.4199 25.8552C30.324 25.7713 30.2519 25.5992 30.3363 25.4782" fill="#A04B4B"/>
<path d="M31.0921 25.5362L30.5469 25.4434" stroke="black" stroke-width="0.108983" stroke-miterlimit="10"/>
<path d="M31.1477 25.0766C31.0367 25.0353 30.9156 25.0288 30.8008 25.0581" stroke="black" stroke-width="0.108983" stroke-miterlimit="10"/>
<path d="M30.3475 25.4844C30.3198 25.5355 30.3072 25.5933 30.3113 25.6512C30.3154 25.7092 30.336 25.7647 30.3707 25.8114C30.4917 25.9868 30.7833 25.9874 30.9596 25.9125" stroke="black" stroke-width="0.108983" stroke-miterlimit="10"/>
<path d="M30.0262 24.1391C29.9573 24.189 29.8723 24.189 29.8363 24.1391C29.8002 24.0892 29.8273 24.0111 29.8968 23.9605C29.9663 23.91 30.0506 23.9106 30.086 23.9605C30.1214 24.0105 30.095 24.0892 30.0262 24.1391Z" fill="black"/>
<path d="M31.686 26.725C29.9482 26.9298 28.8829 27.7215 28.8829 27.7215L29.1854 29.0949C30.7405 27.6229 32.2537 27.2933 32.2685 27.2773L31.686 26.725Z" fill="#FCDDD2"/>
<path d="M28.8312 26.8442L28.1779 27.2641C28.1779 27.2641 28.0653 28.4321 28.2803 29.0561L28.8834 27.7262L28.8312 26.8442Z" fill="#FCDDD2"/>
<path d="M28.8829 27.722L29.1854 29.0954C30.7405 27.6234 32.2537 27.2938 32.2685 27.2778" stroke="black" stroke-width="0.108983" stroke-miterlimit="10"/>
<path d="M28.8312 26.8442L28.1779 27.2641C28.1779 27.2641 28.0653 28.4321 28.2803 29.0561L28.8834 27.7262" stroke="black" stroke-width="0.108983" stroke-miterlimit="10"/>
<path d="M22.3789 23.1299C22.5552 23.752 22.815 24.3477 23.1513 24.9008" stroke="black" stroke-width="0.108983" stroke-miterlimit="10"/>
<path d="M22.4375 24.1963C22.5477 24.5957 22.6799 24.9888 22.8333 25.3739" stroke="black" stroke-width="0.108983" stroke-miterlimit="10"/>
<path d="M33.1725 25.0337C33.1731 25.3211 33.077 25.6004 32.8996 25.8273C32.723 26.0522 32.5077 26.2442 32.2637 26.3943" stroke="black" stroke-width="0.108983" stroke-miterlimit="10"/>
<path d="M32.9785 26.3849C33.2191 26.2485 33.4214 26.0542 33.5668 25.8198" stroke="black" stroke-width="0.108983" stroke-miterlimit="10"/>
</g>
<defs>
<clipPath id="clip0_164_566">
<rect width="44" height="32" fill="white"/>
</clipPath>
</defs>
</svg>
