<svg width="40" height="40" viewBox="0 0 40 40" fill="none" xmlns="http://www.w3.org/2000/svg">
<rect width="40" height="40" rx="4" fill="#4659CA"/>
<g clip-path="url(#clip0_164_1271)">
<path d="M33.9313 20.5387H32.6967V21.8205H31.4618V20.5387H30.2274V19.2572H31.4618V17.9756H32.6967V19.2572H33.9313V20.5387ZM29.4263 20.5387H28.1919V21.8205H26.9573V20.5387H25.7227V19.2572H26.9573V17.9756H28.1919V19.2572H29.4263V20.5387Z" fill="#F8FAFC"/>
<path d="M23.252 22.642C22.3315 24.3365 20.5825 25.4816 18.5752 25.4816C16.5801 25.4816 14.841 24.3508 13.9159 22.6743C13.4512 21.833 13.2071 20.88 13.2081 19.9102C13.2081 16.8333 15.6111 14.3389 18.5752 14.3389C20.5574 14.3389 22.2873 15.4556 23.217 17.115L27.9082 14.3108C26.0436 10.9696 22.5624 8.72168 18.5752 8.72168C12.6224 8.72168 7.79688 13.731 7.79688 19.9102C7.79688 21.9374 8.31639 23.8384 9.22437 25.4782C11.0843 28.8371 14.5754 31.0988 18.5752 31.0988C22.5823 31.0988 26.0789 28.828 27.9361 25.4592L23.252 22.642Z" fill="#F8FAFC"/>
</g>
<defs>
<clipPath id="clip0_164_1271">
<rect width="27" height="24" fill="white" transform="translate(7 8)"/>
</clipPath>
</defs>
</svg>
