<svg width="375" height="352" viewBox="0 0 375 352" fill="none" xmlns="http://www.w3.org/2000/svg">
<rect width="375" height="352" fill="#14171F"/>
<path d="M27.8284 58.9999H40V60.9999H27.8284L33.1924 66.3638L31.7782 67.778L24 59.9999L31.7782 52.2217L33.1924 53.6359L27.8284 58.9999Z" fill="#F8FAFC"/>
<path d="M57.056 50.048V52.096H55.856V54H53.632V52.096H48.336V50.048L52.064 42.8H54.432L50.72 50.048H53.632V47.392H55.856V50.048H57.056ZM58.6412 50.16V48.176H64.6413V50.16H58.6412ZM82.3194 42.8V54H80.1274V46.736L76.9754 51.936H76.7194L73.5674 46.752V54H71.3594V42.8H73.6314L76.8474 48.096L80.0474 42.8H82.3194ZM90.7102 46H92.7742V54H90.7102V53.056C90.0916 53.8347 89.2222 54.224 88.1022 54.224C87.0356 54.224 86.1182 53.8187 85.3502 53.008C84.5929 52.1867 84.2142 51.184 84.2142 50C84.2142 48.816 84.5929 47.8187 85.3502 47.008C86.1182 46.1867 87.0356 45.776 88.1022 45.776C89.2222 45.776 90.0916 46.1653 90.7102 46.944V46ZM86.9022 51.632C87.3182 52.048 87.8462 52.256 88.4862 52.256C89.1262 52.256 89.6542 52.048 90.0702 51.632C90.4969 51.2053 90.7102 50.6613 90.7102 50C90.7102 49.3387 90.4969 48.8 90.0702 48.384C89.6542 47.9573 89.1262 47.744 88.4862 47.744C87.8462 47.744 87.3182 47.9573 86.9022 48.384C86.4862 48.8 86.2782 49.3387 86.2782 50C86.2782 50.6613 86.4862 51.2053 86.9022 51.632ZM97.0299 47.376C97.2219 46.864 97.5365 46.48 97.9739 46.224C98.4219 45.968 98.9179 45.84 99.4619 45.84V48.144C98.8325 48.0693 98.2672 48.1973 97.7659 48.528C97.2752 48.8587 97.0299 49.408 97.0299 50.176V54H94.9659V46H97.0299V47.376ZM106.253 46H108.525L105.485 54H103.133L100.093 46H102.365L104.301 51.6L106.253 46ZM116.344 53.008C115.522 53.8187 114.52 54.224 113.336 54.224C112.152 54.224 111.149 53.8187 110.328 53.008C109.517 52.1867 109.112 51.184 109.112 50C109.112 48.816 109.517 47.8187 110.328 47.008C111.149 46.1867 112.152 45.776 113.336 45.776C114.52 45.776 115.522 46.1867 116.344 47.008C117.165 47.8187 117.576 48.816 117.576 50C117.576 51.184 117.165 52.1867 116.344 53.008ZM111.784 51.584C112.2 52 112.717 52.208 113.336 52.208C113.954 52.208 114.472 52 114.888 51.584C115.304 51.168 115.512 50.64 115.512 50C115.512 49.36 115.304 48.832 114.888 48.416C114.472 48 113.954 47.792 113.336 47.792C112.717 47.792 112.2 48 111.784 48.416C111.378 48.832 111.176 49.36 111.176 50C111.176 50.64 111.378 51.168 111.784 51.584ZM119.348 54V42.32H121.412V54H119.348ZM130.437 53.008C129.616 53.8187 128.613 54.224 127.429 54.224C126.245 54.224 125.242 53.8187 124.421 53.008C123.61 52.1867 123.205 51.184 123.205 50C123.205 48.816 123.61 47.8187 124.421 47.008C125.242 46.1867 126.245 45.776 127.429 45.776C128.613 45.776 129.616 46.1867 130.437 47.008C131.258 47.8187 131.669 48.816 131.669 50C131.669 51.184 131.258 52.1867 130.437 53.008ZM125.877 51.584C126.293 52 126.81 52.208 127.429 52.208C128.048 52.208 128.565 52 128.981 51.584C129.397 51.168 129.605 50.64 129.605 50C129.605 49.36 129.397 48.832 128.981 48.416C128.565 48 128.048 47.792 127.429 47.792C126.81 47.792 126.293 48 125.877 48.416C125.472 48.832 125.269 49.36 125.269 50C125.269 50.64 125.472 51.168 125.877 51.584ZM148.849 47.984V48.848C148.849 50.448 148.337 51.744 147.313 52.736C146.289 53.728 144.966 54.224 143.345 54.224C141.617 54.224 140.182 53.664 139.041 52.544C137.91 51.4133 137.345 50.0373 137.345 48.416C137.345 46.784 137.905 45.4027 139.025 44.272C140.156 43.1413 141.553 42.576 143.217 42.576C144.262 42.576 145.217 42.816 146.081 43.296C146.945 43.7653 147.617 44.3947 148.097 45.184L146.209 46.272C145.942 45.8133 145.537 45.44 144.993 45.152C144.46 44.864 143.862 44.72 143.201 44.72C142.134 44.72 141.254 45.072 140.561 45.776C139.878 46.4693 139.537 47.3493 139.537 48.416C139.537 49.472 139.884 50.3467 140.577 51.04C141.281 51.7227 142.209 52.064 143.361 52.064C144.214 52.064 144.918 51.8773 145.473 51.504C146.038 51.12 146.422 50.5973 146.625 49.936H143.233V47.984H148.849ZM156.723 46H158.787V54H156.723V53.056C156.105 53.8347 155.235 54.224 154.115 54.224C153.049 54.224 152.131 53.8187 151.363 53.008C150.606 52.1867 150.227 51.184 150.227 50C150.227 48.816 150.606 47.8187 151.363 47.008C152.131 46.1867 153.049 45.776 154.115 45.776C155.235 45.776 156.105 46.1653 156.723 46.944V46ZM152.915 51.632C153.331 52.048 153.859 52.256 154.499 52.256C155.139 52.256 155.667 52.048 156.083 51.632C156.51 51.2053 156.723 50.6613 156.723 50C156.723 49.3387 156.51 48.8 156.083 48.384C155.667 47.9573 155.139 47.744 154.499 47.744C153.859 47.744 153.331 47.9573 152.915 48.384C152.499 48.8 152.291 49.3387 152.291 50C152.291 50.6613 152.499 51.2053 152.915 51.632ZM166.259 46H168.323V54H166.259V53.104C165.758 53.8507 164.963 54.224 163.875 54.224C163 54.224 162.275 53.9307 161.699 53.344C161.134 52.7573 160.851 51.9467 160.851 50.912V46H162.915V50.656C162.915 51.1893 163.059 51.6 163.347 51.888C163.635 52.1653 164.019 52.304 164.499 52.304C165.032 52.304 165.459 52.1387 165.779 51.808C166.099 51.4773 166.259 50.9813 166.259 50.32V46ZM174.981 45.776C175.856 45.776 176.576 46.0693 177.141 46.656C177.717 47.2427 178.005 48.0533 178.005 49.088V54H175.941V49.344C175.941 48.8107 175.797 48.4053 175.509 48.128C175.221 47.84 174.837 47.696 174.357 47.696C173.824 47.696 173.397 47.8613 173.077 48.192C172.757 48.5227 172.597 49.0187 172.597 49.68V54H170.533V46H172.597V46.896C173.099 46.1493 173.893 45.776 174.981 45.776ZM184.664 47.984H182.856V51.312C182.856 51.5893 182.925 51.792 183.064 51.92C183.202 52.048 183.405 52.1227 183.672 52.144C183.938 52.1547 184.269 52.1493 184.664 52.128V54C183.245 54.16 182.242 54.0267 181.656 53.6C181.08 53.1733 180.792 52.4107 180.792 51.312V47.984H179.4V46H180.792V44.384L182.856 43.76V46H184.664V47.984ZM186.752 46.48L186.48 42.8H188.432L188.16 46.48H186.752ZM191.647 48.272C191.647 48.4853 191.786 48.6613 192.063 48.8C192.351 48.928 192.698 49.0453 193.103 49.152C193.509 49.248 193.914 49.376 194.319 49.536C194.725 49.6853 195.066 49.9413 195.343 50.304C195.631 50.6667 195.775 51.12 195.775 51.664C195.775 52.4853 195.466 53.12 194.847 53.568C194.239 54.0053 193.477 54.224 192.559 54.224C190.917 54.224 189.797 53.5893 189.199 52.32L190.991 51.312C191.226 52.0053 191.749 52.352 192.559 52.352C193.295 52.352 193.663 52.1227 193.663 51.664C193.663 51.4507 193.519 51.28 193.231 51.152C192.954 51.0133 192.613 50.8907 192.207 50.784C191.802 50.6773 191.397 50.544 190.991 50.384C190.586 50.224 190.239 49.9733 189.951 49.632C189.674 49.28 189.535 48.8427 189.535 48.32C189.535 47.5307 189.823 46.912 190.399 46.464C190.986 46.0053 191.711 45.776 192.575 45.776C193.226 45.776 193.818 45.9253 194.351 46.224C194.885 46.512 195.306 46.928 195.615 47.472L193.855 48.432C193.599 47.888 193.173 47.616 192.575 47.616C192.309 47.616 192.085 47.6747 191.903 47.792C191.733 47.9093 191.647 48.0693 191.647 48.272ZM208.061 54L205.805 50.112H204.125V54H201.917V42.8H206.397C207.432 42.8 208.312 43.1627 209.037 43.888C209.762 44.6133 210.125 45.488 210.125 46.512C210.125 47.2053 209.928 47.8507 209.533 48.448C209.138 49.0347 208.616 49.4773 207.965 49.776L210.445 54H208.061ZM204.125 44.864V48.176H206.397C206.813 48.176 207.17 48.016 207.469 47.696C207.768 47.3653 207.917 46.9707 207.917 46.512C207.917 46.0533 207.768 45.664 207.469 45.344C207.17 45.024 206.813 44.864 206.397 44.864H204.125ZM212.993 45.04C212.652 45.04 212.353 44.9173 212.097 44.672C211.852 44.416 211.729 44.1173 211.729 43.776C211.729 43.4347 211.852 43.136 212.097 42.88C212.353 42.624 212.652 42.496 212.993 42.496C213.345 42.496 213.644 42.624 213.889 42.88C214.145 43.136 214.273 43.4347 214.273 43.776C214.273 44.1173 214.145 44.416 213.889 44.672C213.644 44.9173 213.345 45.04 212.993 45.04ZM211.969 54V46H214.033V54H211.969ZM220.69 45.776C221.565 45.776 222.285 46.0693 222.85 46.656C223.426 47.2427 223.714 48.0533 223.714 49.088V54H221.65V49.344C221.65 48.8107 221.506 48.4053 221.218 48.128C220.93 47.84 220.546 47.696 220.066 47.696C219.533 47.696 219.106 47.8613 218.786 48.192C218.466 48.5227 218.306 49.0187 218.306 49.68V54H216.242V46H218.306V46.896C218.807 46.1493 219.602 45.776 220.69 45.776ZM231.924 46H233.94V53.616C233.94 54.8533 233.53 55.7973 232.708 56.448C231.898 57.0987 230.916 57.424 229.764 57.424C228.9 57.424 228.138 57.2587 227.476 56.928C226.826 56.5973 226.324 56.112 225.972 55.472L227.732 54.464C228.138 55.2107 228.836 55.584 229.828 55.584C230.479 55.584 230.991 55.4133 231.364 55.072C231.738 54.7307 231.924 54.2453 231.924 53.616V52.752C231.316 53.5627 230.463 53.968 229.364 53.968C228.234 53.968 227.284 53.5733 226.516 52.784C225.759 51.984 225.38 51.0133 225.38 49.872C225.38 48.7413 225.764 47.776 226.532 46.976C227.3 46.176 228.244 45.776 229.364 45.776C230.463 45.776 231.316 46.1813 231.924 46.992V46ZM228.068 51.456C228.495 51.8613 229.034 52.064 229.684 52.064C230.335 52.064 230.868 51.8613 231.284 51.456C231.711 51.04 231.924 50.512 231.924 49.872C231.924 49.2427 231.711 48.7253 231.284 48.32C230.868 47.904 230.335 47.696 229.684 47.696C229.034 47.696 228.495 47.904 228.068 48.32C227.652 48.7253 227.444 49.2427 227.444 49.872C227.444 50.512 227.652 51.04 228.068 51.456ZM53.216 62.8C54.2933 62.8 55.2 63.1627 55.936 63.888C56.672 64.6133 57.04 65.504 57.04 66.56C57.04 67.616 56.672 68.5067 55.936 69.232C55.2 69.9573 54.2933 70.32 53.216 70.32H51.248V74H49.04V62.8H53.216ZM53.216 68.256C53.6853 68.256 54.0747 68.096 54.384 67.776C54.6933 67.4453 54.848 67.04 54.848 66.56C54.848 66.0693 54.6933 65.664 54.384 65.344C54.0747 65.024 53.6853 64.864 53.216 64.864H51.248V68.256H53.216ZM64.2502 66H66.3142V74H64.2502V73.056C63.6316 73.8347 62.7622 74.224 61.6423 74.224C60.5756 74.224 59.6582 73.8187 58.8902 73.008C58.1329 72.1867 57.7542 71.184 57.7542 70C57.7542 68.816 58.1329 67.8187 58.8902 67.008C59.6582 66.1867 60.5756 65.776 61.6423 65.776C62.7622 65.776 63.6316 66.1653 64.2502 66.944V66ZM60.4422 71.632C60.8582 72.048 61.3862 72.256 62.0262 72.256C62.6662 72.256 63.1942 72.048 63.6102 71.632C64.0369 71.2053 64.2502 70.6613 64.2502 70C64.2502 69.3387 64.0369 68.8 63.6102 68.384C63.1942 67.9573 62.6662 67.744 62.0262 67.744C61.3862 67.744 60.8582 67.9573 60.4422 68.384C60.0262 68.8 59.8182 69.3387 59.8182 70C59.8182 70.6613 60.0262 71.2053 60.4422 71.632ZM70.5699 67.376C70.7619 66.864 71.0765 66.48 71.5139 66.224C71.9619 65.968 72.4579 65.84 73.0019 65.84V68.144C72.3725 68.0693 71.8072 68.1973 71.3059 68.528C70.8152 68.8587 70.5699 69.408 70.5699 70.176V74H68.5059V66H70.5699V67.376ZM79.3237 67.984H77.5157V71.312C77.5157 71.5893 77.5851 71.792 77.7237 71.92C77.8624 72.048 78.0651 72.1227 78.3317 72.144C78.5984 72.1547 78.9291 72.1493 79.3237 72.128V74C77.9051 74.16 76.9024 74.0267 76.3157 73.6C75.7397 73.1733 75.4517 72.4107 75.4517 71.312V67.984H74.0597V66H75.4517V64.384L77.5157 63.76V66H79.3237V67.984ZM81.1481 70.16V68.176H87.1481V70.16H81.1481ZM91.6262 62.8H93.5462V74H91.3382V65.136L89.2262 65.728L88.6822 63.84L91.6262 62.8Z" fill="#F8FAFC"/>
<rect x="307" y="40" width="48" height="40" rx="10" fill="#FBBF24"/>
<path d="M332.172 60.0007L327.222 55.0509L328.636 53.6367L335 60.0007L328.636 66.3646L327.222 64.9504L332.172 60.0007Z" fill="#020617"/>
<rect x="20.5" y="92.5" width="334" height="239" rx="19.5" fill="#020617"/>
<rect x="20.5" y="92.5" width="334" height="239" rx="19.5" stroke="#94A3B8"/>
<path d="M188 228.667C178.795 228.667 171.333 221.205 171.333 212C171.333 202.795 178.795 195.333 188 195.333C197.205 195.333 204.667 202.795 204.667 212C204.667 221.205 197.205 228.667 188 228.667ZM188 225.333C195.364 225.333 201.333 219.364 201.333 212C201.333 204.636 195.364 198.667 188 198.667C180.636 198.667 174.667 204.636 174.667 212C174.667 219.364 180.636 225.333 188 225.333ZM185.703 206.024L193.835 211.445C194.141 211.649 194.224 212.063 194.02 212.37C193.971 212.443 193.908 212.506 193.835 212.555L185.703 217.976C185.397 218.18 184.983 218.097 184.779 217.791C184.706 217.681 184.667 217.553 184.667 217.421V206.579C184.667 206.211 184.965 205.912 185.333 205.912C185.465 205.912 185.594 205.951 185.703 206.024Z" fill="#F8FAFC"/>
<path d="M57 108H43V110H57V108ZM53 115H43V117H53V115ZM57 122H43V124H57V122ZM55.9896 112.814L57.4038 111.4L62 115.996L57.4038 120.592L55.9896 119.178L59.1716 115.996L55.9896 112.814Z" fill="#F1F5F9"/>
</svg>
