<svg width="28" height="32" viewBox="0 0 28 32" fill="none" xmlns="http://www.w3.org/2000/svg">
<path d="M5.90211 9.79496C5.73523 11.4163 5.61811 14.2855 6.66921 15.5068C6.66921 15.5068 6.1744 12.3549 10.6101 8.40032C12.3961 6.80835 12.8089 4.64306 12.1853 3.0191C11.831 2.09912 11.1839 1.33913 10.6218 0.808477C10.2939 0.496484 10.5457 -0.0181723 11.0229 0.000494007C13.9098 0.117825 18.5885 0.848476 20.5765 5.39238C21.449 7.38701 21.5134 9.4483 21.0976 11.5443C20.8341 12.8829 19.8972 15.8588 22.0345 16.2242C23.5599 16.4855 24.2978 15.3815 24.6286 14.5869C24.7662 14.2562 25.2435 14.1735 25.5011 14.4375C28.0776 17.1068 28.2972 20.2507 27.7643 22.9573C26.7337 28.1892 20.9161 31.9972 15.1365 31.9972C7.91647 31.9972 2.16911 28.2346 0.678835 21.424C0.0786271 18.6748 0.383124 13.2349 5.0384 9.39496C5.38388 9.10697 5.94896 9.36296 5.90211 9.79496Z" fill="url(#paint0_radial_688_11351)"/>
<path d="M17.7749 19.579C15.1135 16.4591 16.3051 12.8991 16.958 11.4805C17.0459 11.2938 16.8117 11.1178 16.6272 11.2325C15.4824 11.9418 13.1372 13.6111 12.0451 15.9604C10.5666 19.1363 10.672 20.691 11.5474 22.5896C12.0744 23.7336 11.4625 23.9762 11.1551 24.0189C10.8564 24.0616 10.5812 23.8802 10.3616 23.6909C9.7299 23.1385 9.27973 22.4367 9.06165 21.6643C9.01481 21.499 8.77765 21.4536 8.66932 21.5896C7.84953 22.6216 7.42499 24.2776 7.4045 25.4482C7.34008 29.0668 10.6222 32.0001 14.5923 32.0001C19.596 32.0001 23.2412 26.9602 20.366 22.7469C19.5316 21.5203 18.747 20.7176 17.7749 19.579Z" fill="url(#paint1_radial_688_11351)"/>
<defs>
<radialGradient id="paint0_radial_688_11351" cx="0" cy="0" r="1" gradientUnits="userSpaceOnUse" gradientTransform="translate(13.7065 32.0801) rotate(-179.774) scale(20.6669 30.8848)">
<stop offset="0.314" stop-color="#FF9800"/>
<stop offset="0.662" stop-color="#FF6D00"/>
<stop offset="0.972" stop-color="#F44336"/>
</radialGradient>
<radialGradient id="paint1_radial_688_11351" cx="0" cy="0" r="1" gradientUnits="userSpaceOnUse" gradientTransform="translate(14.8675 13.3494) rotate(90.6354) scale(19.6948 16.2735)">
<stop offset="0.214" stop-color="#FFF176"/>
<stop offset="0.328" stop-color="#FFF27D"/>
<stop offset="0.487" stop-color="#FFF48F"/>
<stop offset="0.672" stop-color="#FFF7AD"/>
<stop offset="0.793" stop-color="#FFF9C4"/>
<stop offset="0.822" stop-color="#FFF8BD" stop-opacity="0.804"/>
<stop offset="0.863" stop-color="#FFF6AB" stop-opacity="0.529"/>
<stop offset="0.91" stop-color="#FFF38D" stop-opacity="0.209"/>
<stop offset="0.941" stop-color="#FFF176" stop-opacity="0"/>
</radialGradient>
</defs>
</svg>
