<svg width="40" height="40" viewBox="0 0 40 40" fill="none" xmlns="http://www.w3.org/2000/svg">
<rect width="40" height="40" rx="4" fill="#4659CA"/>
<path d="M21.2122 10.1793C20.5122 9.81414 19.552 9.8083 18.8474 10.1723C15.8397 11.7263 13.1132 13.5066 10.7274 15.4783C10.4077 15.742 10.1977 16.1095 10.2012 16.5306C10.2047 16.9506 10.4205 17.3135 10.7379 17.5736C13.105 19.5103 15.8339 21.2918 18.7879 22.833C19.4879 23.1981 20.448 23.204 21.1527 22.84C24.1604 21.286 26.8869 19.5056 29.2727 17.534C29.5924 17.2703 29.8024 16.9028 29.7989 16.4816C29.7954 16.0616 29.5795 15.6988 29.2622 15.4386C26.895 13.502 24.1662 11.7205 21.2122 10.1793Z" fill="#F8FAFC"/>
<path d="M30.4507 22.0199C30.5514 21.9607 30.6393 21.8819 30.7091 21.7881C30.7789 21.6944 30.8291 21.5876 30.857 21.4741C30.8848 21.3606 30.8897 21.2427 30.8712 21.1273C30.8527 21.0119 30.8113 20.9014 30.7495 20.8023C30.6876 20.7032 30.6065 20.6174 30.5109 20.5502C30.4154 20.4829 30.3073 20.4354 30.1931 20.4106C30.0789 20.3858 29.9609 20.3841 29.8461 20.4056C29.7312 20.4271 29.6218 20.4714 29.5244 20.5359L22.3984 24.9844C21.7637 25.3811 20.9015 25.6016 19.9997 25.6016C19.0967 25.6016 18.2345 25.3799 17.5999 24.9844L10.5532 20.5861C10.3563 20.4632 10.1186 20.4237 9.89246 20.4761C9.66634 20.5285 9.47029 20.6685 9.34745 20.8655C9.22461 21.0624 9.18504 21.3001 9.23744 21.5262C9.28984 21.7524 9.42992 21.9484 9.62687 22.0712L16.6735 26.4696C17.6407 27.0727 18.84 27.3516 19.9985 27.3516C21.1594 27.3516 22.3587 27.0716 23.3259 26.4684L30.4507 22.0199Z" fill="#F8FAFC"/>
<path d="M30.4506 26.4008C30.5514 26.3415 30.6392 26.2627 30.709 26.169C30.7788 26.0753 30.8291 25.9685 30.8569 25.855C30.8848 25.7415 30.8896 25.6236 30.8711 25.5082C30.8527 25.3928 30.8113 25.2823 30.7494 25.1832C30.6875 25.084 30.6064 24.9983 30.5108 24.931C30.4153 24.8637 30.3072 24.8163 30.193 24.7915C30.0788 24.7666 29.9608 24.7649 29.846 24.7864C29.7311 24.808 29.6217 24.8523 29.5243 24.9168L23.3526 28.7703C22.4519 29.3326 21.2456 29.6371 19.9996 29.6371C18.7536 29.6371 17.5473 29.3338 16.6454 28.7703L10.5531 24.9669C10.4556 24.906 10.347 24.8649 10.2336 24.846C10.1202 24.827 10.0042 24.8306 9.8922 24.8565C9.78018 24.8824 9.67436 24.9301 9.58078 24.9969C9.48719 25.0637 9.40768 25.1482 9.34678 25.2458C9.28588 25.3433 9.24478 25.4518 9.22584 25.5652C9.20689 25.6786 9.21047 25.7947 9.23636 25.9067C9.26225 26.0187 9.30995 26.1245 9.37674 26.2181C9.44353 26.3117 9.5281 26.3912 9.62561 26.4521L15.7179 30.2554C16.9523 31.0254 18.4958 31.3871 19.9996 31.3871C21.5034 31.3871 23.0458 31.0254 24.2813 30.2543L30.4506 26.4008Z" fill="#F8FAFC"/>
</svg>
