<svg width="241" height="240" viewBox="0 0 241 240" fill="none" xmlns="http://www.w3.org/2000/svg">
<path d="M120.044 233.304C182.503 233.304 233.137 204.071 233.137 168.01C233.137 131.949 182.503 102.715 120.044 102.715C57.5845 102.715 6.95117 131.949 6.95117 168.01C6.95117 204.071 57.5845 233.304 120.044 233.304Z" fill="#E1E7F8"/>
<path d="M184.993 190.666C177.577 186.384 177.577 179.443 184.993 175.162C192.409 170.88 204.433 170.88 211.849 175.162C219.265 179.443 219.265 186.384 211.849 190.666C204.433 194.947 192.409 194.947 184.993 190.666Z" fill="#E0E0E0"/>
<path d="M34.1576 191.261L14.6504 180C13.5512 179.366 13.5512 178.334 14.6504 177.701L128.118 112.19C128.734 111.878 129.416 111.715 130.107 111.715C130.799 111.715 131.48 111.878 132.097 112.19L151.609 123.451C152.708 124.085 152.708 125.117 151.609 125.75L38.1416 191.261C37.5241 191.573 36.8417 191.736 36.1496 191.736C35.4575 191.736 34.7752 191.573 34.1576 191.261Z" fill="#E0E0E0"/>
<path d="M104.276 171.187L121.047 161.491C122.775 160.493 123.639 159.187 123.639 157.877C123.639 156.566 123.639 155.544 123.639 155.544L106.244 145.733C105.758 145.419 105.353 144.994 105.063 144.493C104.773 143.993 104.605 143.431 104.574 142.853V122.17L75.2936 139.094V159.768C75.3273 160.345 75.496 160.907 75.7861 161.407C76.0762 161.907 76.4797 162.332 76.964 162.648L91.7672 171.173C95.2136 173.184 100.82 173.184 104.276 171.187Z" fill="#4659CA"/>
<g opacity="0.6">
<path d="M104.276 171.187L121.047 161.491C122.775 160.493 123.639 159.187 123.639 157.877C123.639 156.566 123.639 155.544 123.639 155.544L106.244 145.733C105.758 145.419 105.353 144.994 105.063 144.493C104.773 143.993 104.605 143.431 104.574 142.853V122.17L75.2936 139.094V159.768C75.3273 160.345 75.496 160.907 75.7861 161.407C76.0762 161.907 76.4797 162.332 76.964 162.648L91.7672 171.173C95.2136 173.184 100.82 173.184 104.276 171.187Z" fill="black"/>
</g>
<path opacity="0.3" d="M82.3159 163.43V165.754L76.9495 162.658C76.4653 162.342 76.0622 161.917 75.7729 161.416C75.4835 160.916 75.316 160.355 75.2839 159.778V139.094L80.8615 135.874C80.9767 137.29 81.1015 138.754 81.2215 140.194L77.2999 142.45V158.602C77.331 159.179 77.4986 159.742 77.789 160.242C78.0793 160.743 78.4842 161.168 78.9703 161.482L82.3159 163.43Z" fill="black"/>
<path d="M77.2999 158.606C77.3329 159.184 77.5013 159.745 77.7915 160.246C78.0817 160.746 78.4855 161.171 78.9703 161.486L91.7479 168.85C95.2039 170.842 100.81 170.846 104.271 168.85L121.071 159.154C124.532 157.157 124.532 153.922 121.071 151.925L108.284 144.562C107.8 144.245 107.398 143.82 107.108 143.32C106.819 142.82 106.651 142.259 106.618 141.682V125.525L77.3383 142.45L77.2999 158.606Z" fill="#4659CA"/>
<path opacity="0.3" d="M77.2999 158.606C77.3329 159.184 77.5013 159.745 77.7915 160.246C78.0817 160.746 78.4855 161.171 78.9703 161.486L91.7479 168.85C95.2039 170.842 100.81 170.846 104.271 168.85L121.071 159.154C124.532 157.157 124.532 153.922 121.071 151.925L108.284 144.562C107.8 144.245 107.398 143.82 107.108 143.32C106.819 142.82 106.651 142.259 106.618 141.682V125.525L77.3383 142.45L77.2999 158.606Z" fill="black"/>
<path opacity="0.5" d="M111.668 146.534L108.265 144.571C107.781 144.255 107.378 143.83 107.089 143.33C106.8 142.829 106.632 142.268 106.599 141.691V125.525L77.3192 142.45V158.606C77.3522 159.184 77.5206 159.745 77.8108 160.246C78.1009 160.746 78.5048 161.171 78.9896 161.486L82.3496 163.406L111.668 146.534Z" fill="black"/>
<path d="M123.644 155.549V157.882C123.644 159.192 122.775 160.493 121.052 161.496L104.252 171.187C102.413 172.169 100.36 172.678 98.276 172.67V170.347C100.36 170.355 102.413 169.845 104.252 168.864L121.052 159.163C122.775 158.17 123.644 156.859 123.644 155.549Z" fill="#4659CA"/>
<path opacity="0.5" d="M123.644 155.549V157.882C123.644 159.192 122.775 160.493 121.052 161.496L104.252 171.187C102.413 172.169 100.36 172.678 98.276 172.67V170.347C100.36 170.355 102.413 169.845 104.252 168.864L121.052 159.163C122.775 158.17 123.644 156.859 123.644 155.549Z" fill="black"/>
<path d="M30.26 178.685C30.893 178.991 31.5889 179.143 32.2917 179.131C32.9946 179.118 33.6847 178.941 34.3064 178.613L147.586 113.213C148.194 112.817 148.699 112.283 149.062 111.655C149.425 111.027 149.635 110.323 149.674 109.598V17.9568C149.653 17.2524 149.465 16.563 149.126 15.9449C148.788 15.3268 148.308 14.7974 147.726 14.4C147.093 14.0939 146.398 13.9414 145.696 13.9547C144.993 13.9681 144.304 14.1469 143.684 14.4768L30.404 79.896C29.7987 80.2947 29.2962 80.8308 28.9375 81.4606C28.5788 82.0904 28.3741 82.796 28.34 83.52V175.147C28.3614 175.846 28.5462 176.53 28.8796 177.144C29.2131 177.758 29.6858 178.286 30.26 178.685Z" fill="#4659CA"/>
<path d="M34.3208 178.608L147.601 113.208C148.209 112.813 148.715 112.279 149.078 111.651C149.441 111.023 149.65 110.318 149.689 109.594V17.9568C149.689 16.6272 148.753 16.0848 147.601 16.752L34.3208 82.152C33.7131 82.5479 33.2074 83.0815 32.8446 83.7095C32.4818 84.3375 32.2722 85.0422 32.2328 85.7664V177.403C32.2328 178.733 33.1688 179.275 34.3208 178.608Z" fill="#4659CA"/>
<path opacity="0.5" d="M34.3208 178.608L147.601 113.208C148.209 112.813 148.715 112.279 149.078 111.651C149.441 111.023 149.65 110.318 149.689 109.594V17.9568C149.689 16.6272 148.753 16.0848 147.601 16.752L34.3208 82.152C33.7131 82.5479 33.2074 83.0815 32.8446 83.7095C32.4818 84.3375 32.2722 85.0422 32.2328 85.7664V177.403C32.2328 178.733 33.1688 179.275 34.3208 178.608Z" fill="black"/>
<path d="M34.0136 180.989C33.4195 181.248 32.7764 181.376 32.1283 181.362C31.4803 181.349 30.8429 181.195 30.26 180.912C29.6845 180.512 29.211 179.983 28.8775 179.367C28.544 178.751 28.3599 178.065 28.34 177.365V169.022L32.252 171.288V179.63C32.228 180.845 33.0008 181.397 34.0136 180.989Z" fill="#4659CA"/>
<path opacity="0.5" d="M34.0136 180.989C33.4195 181.248 32.7764 181.376 32.1283 181.362C31.4803 181.349 30.8429 181.195 30.26 180.912C29.6845 180.512 29.211 179.983 28.8775 179.367C28.544 178.751 28.3599 178.065 28.34 177.365V169.022L32.252 171.288V179.63C32.228 180.845 33.0008 181.397 34.0136 180.989Z" fill="black"/>
<path d="M32.2279 171.288V179.63C32.2279 180.96 33.1879 181.498 34.3159 180.835L147.596 115.435C148.201 115.041 148.705 114.51 149.067 113.886C149.43 113.262 149.641 112.561 149.684 111.84V103.459L32.2279 171.288Z" fill="#4659CA"/>
<path opacity="0.3" d="M32.2328 171.269V179.63C32.2328 180.96 33.1928 181.498 34.3208 180.835L147.601 115.435C148.205 115.04 148.708 114.51 149.07 113.885C149.431 113.261 149.642 112.56 149.684 111.84V103.459L32.2328 171.269Z" fill="black"/>
<path d="M36.1448 160.8V87.0672C36.1671 86.6328 36.2918 86.2098 36.5087 85.8328C36.7256 85.4558 37.0285 85.1353 37.3928 84.8976L144.5 23.04C145.191 22.6416 145.753 22.9632 145.753 23.76V97.5312C145.729 97.9659 145.604 98.389 145.386 98.766C145.169 99.1431 144.865 99.4633 144.5 99.7008L37.3976 161.544C36.7064 161.942 36.1448 161.616 36.1448 160.8Z" fill="#4659CA"/>
<path d="M36.1448 160.8V87.0672C36.1671 86.6328 36.2918 86.2098 36.5087 85.8328C36.7256 85.4558 37.0285 85.1353 37.3928 84.8976L144.5 23.04C145.191 22.6416 145.753 22.9632 145.753 23.76V97.5312C145.729 97.9659 145.604 98.389 145.386 98.766C145.169 99.1431 144.865 99.4633 144.5 99.7008L37.3976 161.544C36.7064 161.942 36.1448 161.616 36.1448 160.8Z" fill="#263238"/>
<path d="M90.956 140.03C90.3858 140.401 89.9113 140.901 89.571 141.49C89.2306 142.079 89.0342 142.74 88.9976 143.419C88.9976 144.667 89.876 145.176 90.956 144.552C91.5267 144.181 92.0017 143.68 92.342 143.09C92.6824 142.5 92.8785 141.838 92.9144 141.158C92.9144 139.91 92.036 139.406 90.956 140.03Z" fill="#4659CA"/>
<path opacity="0.7" d="M32.8472 83.7024C32.4752 84.3277 32.2625 85.0348 32.228 85.7616V171.288L28.34 169.022V83.52C28.3652 82.7908 28.5767 82.0802 28.9544 81.456L32.8472 83.7024Z" fill="black"/>
<path opacity="0.3" d="M149.665 17.6112C149.516 16.536 148.647 16.1712 147.596 16.752L34.3159 82.152C33.7017 82.5362 33.1948 83.0695 32.8423 83.7024L28.9255 81.4416C29.2803 80.8089 29.7888 80.2757 30.4039 79.8912L143.684 14.496C144.305 14.1661 144.995 13.9872 145.698 13.9739C146.401 13.9605 147.097 14.1131 147.73 14.4192C148.262 14.7818 148.711 15.2544 149.044 15.8051C149.378 16.3558 149.59 16.9717 149.665 17.6112Z" fill="black"/>
<path d="M155.775 28.8912C155.607 28.8067 155.419 28.7697 155.231 28.7841C155.043 28.7985 154.863 28.8637 154.71 28.9728L47.8231 90.72C47.4014 90.999 47.0512 91.3733 46.8011 91.8128C46.5509 92.2523 46.4077 92.7445 46.3831 93.2496V166.531C46.3681 166.779 46.4173 167.026 46.5258 167.248C46.6342 167.471 46.7984 167.662 47.0023 167.803C47.2375 167.933 48.4951 168.662 48.8695 168.864C49.002 168.931 49.15 168.963 49.2984 168.954C49.4468 168.946 49.5904 168.898 49.7143 168.816L156.577 107.069C156.998 106.79 157.349 106.415 157.599 105.976C157.849 105.536 157.992 105.044 158.017 104.539V30.8784C158.038 30.6922 158.007 30.5038 157.928 30.3342C157.848 30.1646 157.723 30.0206 157.566 29.9184C157.326 29.76 156.044 29.0496 155.775 28.8912Z" fill="#4659CA"/>
<path d="M49.6904 91.7568L156.582 30.0336C157.388 29.5536 158.022 29.9472 158.022 30.8784V104.539C157.997 105.044 157.854 105.536 157.604 105.976C157.353 106.415 157.003 106.79 156.582 107.069L49.6904 168.816C48.884 169.296 48.2504 168.523 48.2504 167.592V94.2864C48.2757 93.7815 48.4192 93.2895 48.6693 92.8502C48.9194 92.4109 49.2691 92.0363 49.6904 91.7568Z" fill="#FAFAFA"/>
<path d="M157.234 30.312C157.518 30.312 157.561 30.6672 157.561 30.8784V104.539C157.535 104.962 157.411 105.373 157.198 105.74C156.986 106.106 156.691 106.418 156.337 106.651L49.46 168.398C49.3882 168.445 49.3054 168.471 49.22 168.475C48.9512 168.475 48.74 168.062 48.74 167.592V94.2864C48.7631 93.8636 48.8834 93.4518 49.0916 93.083C49.2997 92.7142 49.59 92.3984 49.94 92.16L156.822 30.4464C156.945 30.3666 157.087 30.3203 157.234 30.312ZM157.234 29.832C157.003 29.8418 156.778 29.9113 156.582 30.0336L49.6904 91.7568C49.2691 92.0363 48.9194 92.4108 48.6693 92.8502C48.4192 93.2895 48.2757 93.7815 48.2504 94.2864V167.592C48.2504 168.331 48.6632 168.955 49.2104 168.955C49.3798 168.952 49.5455 168.904 49.6904 168.816L156.577 107.069C156.999 106.79 157.349 106.415 157.599 105.976C157.849 105.536 157.992 105.044 158.017 104.539V30.8784C158.017 30.216 157.69 29.832 157.21 29.832H157.234Z" fill="#E0E0E0"/>
<path d="M46.9736 167.803C47.132 167.885 48.2695 168.533 48.7687 168.821C48.5895 168.672 48.4475 168.484 48.3542 168.27C48.2608 168.057 48.2187 167.825 48.2312 167.592V99.072L46.3592 97.9776V166.531C46.3437 166.778 46.392 167.025 46.4997 167.248C46.6073 167.471 46.7705 167.662 46.9736 167.803Z" fill="#F0F0F0"/>
<path d="M158.041 30.864C158.041 29.9424 157.383 29.568 156.601 30.0336L49.6904 91.7568C49.2691 92.0364 48.9194 92.4109 48.6693 92.8502C48.4192 93.2896 48.2757 93.7815 48.2504 94.2864V99.0864L158.041 35.664V30.864Z" fill="#4659CA"/>
<g opacity="0.4">
<path d="M156.582 30.0336L49.6903 91.752C49.2613 92.0225 48.9079 92.3974 48.6631 92.8416L46.8055 91.7616C47.0499 91.333 47.4003 90.9743 47.8231 90.72L154.71 28.9728C154.863 28.863 155.043 28.7969 155.23 28.7817C155.418 28.7664 155.606 28.8026 155.775 28.8864C156.034 29.0496 157.249 29.736 157.561 29.904C157.399 29.8441 157.226 29.8247 157.055 29.8472C156.884 29.8698 156.722 29.9338 156.582 30.0336Z" fill="white"/>
</g>
<path opacity="0.15" d="M46.3591 97.9824V93.2256C46.3788 92.7072 46.5327 92.2028 46.8055 91.7616L48.6679 92.8368C48.399 93.2704 48.2484 93.7669 48.2311 94.2768V99.0768L46.3591 97.9824Z" fill="black"/>
<path d="M135.5 86.1216L71.4824 123.082C71.1711 123.284 70.9119 123.556 70.7259 123.877C70.5399 124.199 70.4323 124.559 70.412 124.93V143.285C70.4323 143.655 70.5399 144.016 70.7259 144.337C70.9119 144.658 71.1711 144.931 71.4824 145.133L73.3496 146.208C73.6814 146.376 74.0481 146.463 74.42 146.463C74.7919 146.463 75.1585 146.376 75.4904 146.208L139.498 109.248C139.81 109.045 140.069 108.771 140.255 108.45C140.441 108.128 140.548 107.766 140.569 107.395V89.0352C140.548 88.6647 140.441 88.3041 140.255 87.983C140.069 87.6619 139.81 87.3892 139.498 87.1872L137.626 86.112C137.296 85.9469 136.931 85.8617 136.562 85.8634C136.193 85.865 135.829 85.9535 135.5 86.1216Z" fill="#4659CA"/>
<path opacity="0.5" d="M140.569 88.872C140.492 88.32 140.046 88.1184 139.508 88.4304L75.4904 125.39C75.1747 125.587 74.9151 125.861 74.7368 126.187L70.7288 123.874C70.9084 123.553 71.1659 123.282 71.4776 123.086L135.5 86.1264C135.831 85.9582 136.197 85.8705 136.568 85.8705C136.939 85.8705 137.305 85.9582 137.636 86.1264L139.508 87.2016C139.793 87.3886 140.036 87.6343 140.219 87.9223C140.401 88.2104 140.521 88.5341 140.569 88.872Z" fill="white"/>
<path d="M75.308 146.299C74.9945 146.423 74.6586 146.479 74.322 146.464C73.9854 146.449 73.6557 146.364 73.3544 146.213L71.4824 145.138C71.1716 144.935 70.9128 144.662 70.7269 144.341C70.5409 144.02 70.4331 143.66 70.412 143.29V124.934C70.4264 124.56 70.5354 124.195 70.7288 123.874L74.7368 126.187C74.542 126.504 74.4329 126.866 74.42 127.238V145.598C74.42 146.208 74.804 146.491 75.308 146.299Z" fill="#263238"/>
<path d="M75.4904 125.39L139.508 88.4304C140.098 88.0896 140.578 88.3632 140.578 89.0448V107.405C140.558 107.776 140.451 108.137 140.265 108.459C140.079 108.781 139.819 109.055 139.508 109.258L75.5 146.218C74.9096 146.558 74.4296 146.28 74.4296 145.598V127.243C74.4488 126.873 74.5549 126.512 74.7391 126.19C74.9234 125.869 75.1807 125.595 75.4904 125.39Z" fill="#4659CA"/>
<path d="M118.527 95.9232L71.4872 123.086C71.1755 123.282 70.918 123.553 70.7384 123.874L74.7464 126.187C74.9247 125.861 75.1843 125.587 75.5 125.39L122.54 98.232L118.527 95.9232Z" fill="#455A64"/>
<path d="M122.53 98.232L75.4903 125.39C75.1789 125.593 74.9197 125.867 74.7337 126.189C74.5478 126.511 74.4403 126.872 74.4199 127.243V145.594C74.4199 146.275 74.8999 146.554 75.4903 146.213L122.53 119.054V98.232Z" fill="#37474F"/>
<path d="M86.3384 123.154L110.612 109.142C111.615 108.562 112.431 108.974 112.431 110.064C112.386 110.676 112.198 111.269 111.881 111.794C111.564 112.32 111.128 112.763 110.607 113.088L86.3384 127.104C85.3352 127.685 84.5144 127.272 84.5144 126.182C84.5597 125.57 84.7484 124.977 85.0652 124.451C85.3821 123.924 85.8182 123.48 86.3384 123.154Z" fill="#4659CA"/>
<path d="M91.3112 127.795C91.3157 127.79 91.3212 127.786 91.3274 127.783C91.3336 127.78 91.3404 127.779 91.3472 127.779C91.354 127.779 91.3607 127.78 91.3669 127.783C91.3731 127.786 91.3787 127.79 91.3832 127.795C91.4046 127.828 91.4148 127.867 91.412 127.906V130.637C91.4123 130.901 91.3898 131.164 91.3448 131.424C91.3051 131.662 91.2374 131.894 91.1432 132.115C91.0571 132.318 90.9441 132.509 90.8072 132.682C90.6721 132.842 90.5096 132.977 90.3272 133.08C90.1843 133.173 90.0177 133.223 89.8472 133.224C89.782 133.219 89.7186 133.2 89.6608 133.17C89.6031 133.139 89.5521 133.097 89.5112 133.046C89.4058 132.905 89.3366 132.74 89.3096 132.566C89.2636 132.334 89.2427 132.098 89.2472 131.861V129.125C89.247 129.077 89.2568 129.029 89.276 128.986C89.2877 128.946 89.3133 128.912 89.348 128.89L89.6504 128.712C89.6601 128.703 89.673 128.698 89.6864 128.698C89.6997 128.698 89.7126 128.703 89.7224 128.712C89.7446 128.744 89.7547 128.783 89.7512 128.822V131.52C89.7475 131.668 89.762 131.817 89.7944 131.962C89.8076 132.054 89.8477 132.141 89.9096 132.211C89.9312 132.237 89.9585 132.257 89.9893 132.271C90.0201 132.284 90.0536 132.29 90.0872 132.288C90.1693 132.283 90.2486 132.256 90.3176 132.211C90.4029 132.16 90.4805 132.097 90.548 132.024C90.6229 131.938 90.6844 131.841 90.7304 131.736C90.7845 131.613 90.8248 131.484 90.8504 131.352C90.8784 131.194 90.8912 131.033 90.8888 130.872V128.17C90.8903 128.121 90.9017 128.074 90.9224 128.03C90.9341 127.991 90.9597 127.957 90.9944 127.934L91.3112 127.795Z" fill="#FAFAFA"/>
<path d="M93.1928 130.378C93.1953 130.342 93.1869 130.307 93.1688 130.277C93.1574 130.264 93.1431 130.255 93.1273 130.249C93.1114 130.243 93.0944 130.241 93.0776 130.243C93.0187 130.235 92.9589 130.235 92.9 130.243L92.6216 130.296C92.5317 130.318 92.4378 130.318 92.348 130.296C92.2775 130.273 92.2167 130.228 92.1752 130.166C92.1282 130.088 92.0972 130.002 92.084 129.912C92.0372 129.655 92.0372 129.392 92.084 129.134C92.12 128.987 92.1715 128.844 92.2376 128.707C92.3033 128.571 92.3838 128.442 92.4776 128.323C92.5684 128.21 92.679 128.114 92.804 128.04C92.9049 127.978 93.0178 127.939 93.1352 127.925C93.2203 127.916 93.3061 127.934 93.38 127.978C93.4504 128.021 93.5057 128.084 93.5384 128.16C93.5771 128.25 93.5983 128.346 93.6008 128.443C93.6058 128.491 93.5957 128.54 93.572 128.582C93.5602 128.622 93.5347 128.656 93.5 128.678L93.212 128.846C93.1988 128.854 93.1839 128.858 93.1688 128.858C93.1536 128.858 93.1387 128.854 93.1256 128.846L93.0632 128.798C93.0384 128.779 93.0083 128.767 92.9768 128.765C92.9151 128.772 92.8559 128.793 92.804 128.827C92.7286 128.873 92.662 128.931 92.6072 129C92.5491 129.076 92.5186 129.169 92.5208 129.264C92.514 129.3 92.514 129.338 92.5208 129.374C92.53 129.388 92.5421 129.399 92.5562 129.408C92.5703 129.416 92.5861 129.421 92.6024 129.422C92.6548 129.431 92.7083 129.431 92.7608 129.422L93.0296 129.374C93.2552 129.331 93.4088 129.374 93.5096 129.499C93.6155 129.677 93.6641 129.883 93.6488 130.09C93.6475 130.232 93.6282 130.374 93.5912 130.512C93.5532 130.662 93.4985 130.807 93.428 130.944C93.3575 131.086 93.2687 131.218 93.164 131.338C93.0645 131.454 92.9461 131.553 92.8136 131.63C92.7081 131.698 92.5879 131.739 92.4632 131.75C92.3729 131.754 92.284 131.728 92.2088 131.678C92.1347 131.628 92.0777 131.556 92.0456 131.472C92.0068 131.381 91.9872 131.283 91.988 131.184C91.9835 131.134 91.9935 131.084 92.0168 131.04C92.0285 131 92.0541 130.966 92.0888 130.944L92.3768 130.776C92.4152 130.776 92.444 130.752 92.4632 130.776L92.5256 130.843C92.5383 130.858 92.5538 130.869 92.5711 130.877C92.5884 130.886 92.6072 130.89 92.6264 130.891C92.6939 130.892 92.7597 130.87 92.8136 130.829C92.9002 130.78 92.9781 130.716 93.044 130.642C93.0766 130.602 93.1041 130.559 93.1256 130.512C93.1595 130.474 93.1827 130.428 93.1928 130.378Z" fill="#FAFAFA"/>
<path d="M94.1719 129.077C94.171 128.827 94.1919 128.578 94.2343 128.333C94.2744 128.102 94.3371 127.875 94.4215 127.656C94.4921 127.46 94.589 127.274 94.7095 127.104C94.8101 126.958 94.9411 126.835 95.0935 126.744C95.2048 126.669 95.3405 126.64 95.4727 126.662C95.59 126.69 95.6928 126.76 95.7607 126.859C95.851 126.989 95.9146 127.136 95.9479 127.291C95.9939 127.493 96.0165 127.699 96.0151 127.906V128.203C96.0166 128.253 96.005 128.303 95.9815 128.347C95.9697 128.387 95.9442 128.421 95.9095 128.443L94.6615 129.168C94.6585 129.252 94.6699 129.337 94.6951 129.418C94.7137 129.472 94.7469 129.52 94.7911 129.557C94.8305 129.588 94.8801 129.603 94.9303 129.6C94.9883 129.593 95.0441 129.573 95.0935 129.542C95.1661 129.503 95.2311 129.451 95.2855 129.389C95.3346 129.333 95.3765 129.272 95.4103 129.206C95.4308 129.168 95.4532 129.132 95.4775 129.096C95.4981 129.072 95.5224 129.051 95.5495 129.034L95.8471 128.861C95.8573 128.853 95.87 128.848 95.8831 128.848C95.8962 128.848 95.9089 128.853 95.9191 128.861C95.9317 128.876 95.9408 128.894 95.9458 128.913C95.9508 128.932 95.9515 128.952 95.9479 128.971C95.9427 129.065 95.9232 129.157 95.8903 129.245C95.8489 129.378 95.7942 129.507 95.7271 129.629C95.652 129.769 95.5619 129.901 95.4583 130.022C95.355 130.146 95.2317 130.252 95.0935 130.334C94.9801 130.409 94.8442 130.441 94.7095 130.426C94.5915 130.397 94.4886 130.325 94.4215 130.224C94.327 130.078 94.2633 129.915 94.2343 129.744C94.1907 129.524 94.1698 129.301 94.1719 129.077ZM95.0935 127.546C95.0197 127.585 94.9557 127.641 94.9063 127.709C94.853 127.776 94.8094 127.85 94.7767 127.93C94.7431 128.009 94.7158 128.091 94.6951 128.174C94.6782 128.25 94.667 128.327 94.6615 128.405L95.5063 127.925C95.5014 127.859 95.4918 127.793 95.4775 127.728C95.4701 127.67 95.4469 127.615 95.4103 127.57C95.3959 127.549 95.3774 127.531 95.356 127.518C95.3345 127.505 95.3105 127.496 95.2855 127.493C95.2173 127.487 95.1492 127.506 95.0935 127.546Z" fill="#FAFAFA"/>
<path d="M97.5223 126.206C97.3769 126.289 97.2623 126.417 97.1959 126.571C97.1212 126.774 97.087 126.989 97.0951 127.205V128.938C97.0958 128.987 97.086 129.036 97.0663 129.082C97.0546 129.121 97.029 129.155 96.9943 129.178L96.7111 129.341C96.7066 129.346 96.7011 129.35 96.6949 129.353C96.6887 129.356 96.6819 129.357 96.6751 129.357C96.6683 129.357 96.6616 129.356 96.6554 129.353C96.6492 129.35 96.6436 129.346 96.6391 129.341C96.6176 129.308 96.6075 129.269 96.6103 129.23V126.125C96.6106 126.075 96.6203 126.026 96.6391 125.981C96.6525 125.942 96.6777 125.909 96.7111 125.885L96.9943 125.722C97.0041 125.712 97.017 125.707 97.0303 125.707C97.0437 125.707 97.0565 125.712 97.0663 125.722C97.0886 125.752 97.0988 125.79 97.0951 125.827V125.981C97.1523 125.852 97.2231 125.73 97.3063 125.616C97.3822 125.511 97.4806 125.424 97.5943 125.362L97.7671 125.261C97.7761 125.252 97.7882 125.247 97.8007 125.247C97.8133 125.247 97.8254 125.252 97.8343 125.261C97.8575 125.293 97.8693 125.332 97.8679 125.371V125.808C97.8671 125.858 97.8556 125.907 97.8343 125.952C97.8222 125.99 97.7988 126.024 97.7671 126.048L97.5223 126.206Z" fill="#FAFAFA"/>
<path d="M101.103 125.976C101.108 125.971 101.113 125.967 101.119 125.964C101.126 125.961 101.132 125.96 101.139 125.96C101.146 125.96 101.153 125.961 101.159 125.964C101.165 125.967 101.171 125.971 101.175 125.976C101.197 126.009 101.207 126.047 101.204 126.086V126.566C101.204 126.616 101.194 126.665 101.175 126.71C101.159 126.746 101.134 126.777 101.103 126.802L99.4615 127.762C99.4517 127.771 99.4389 127.776 99.4255 127.776C99.4121 127.776 99.3993 127.771 99.3895 127.762C99.368 127.731 99.3579 127.693 99.3607 127.656V123.336C99.3609 123.287 99.3707 123.238 99.3895 123.192C99.4029 123.155 99.4282 123.123 99.4615 123.101L99.7639 122.923C99.7737 122.914 99.7865 122.909 99.7999 122.909C99.8133 122.909 99.8261 122.914 99.8359 122.923C99.8574 122.954 99.8675 122.991 99.8647 123.029V126.682L101.103 125.976Z" fill="#FAFAFA"/>
<path d="M102.577 122.424C102.685 122.349 102.815 122.314 102.946 122.323C103.059 122.332 103.164 122.384 103.239 122.467C103.329 122.57 103.394 122.691 103.431 122.822C103.482 122.992 103.512 123.168 103.518 123.346C103.518 123.384 103.518 123.437 103.518 123.499V123.869C103.518 123.926 103.518 123.979 103.518 124.022C103.508 124.231 103.479 124.438 103.431 124.642C103.387 124.84 103.322 125.033 103.239 125.218C103.163 125.39 103.065 125.551 102.946 125.698C102.845 125.83 102.72 125.943 102.577 126.029C102.466 126.101 102.335 126.136 102.202 126.13C102.092 126.12 101.989 126.069 101.914 125.986C101.822 125.886 101.756 125.766 101.722 125.635C101.671 125.465 101.642 125.289 101.636 125.112C101.636 125.074 101.636 125.026 101.636 124.963V124.594C101.636 124.531 101.636 124.478 101.636 124.44C101.642 124.23 101.669 124.021 101.718 123.816C101.764 123.616 101.83 123.422 101.914 123.235C101.991 123.064 102.087 122.903 102.202 122.755C102.304 122.621 102.431 122.509 102.577 122.424ZM103.028 123.662C103.028 123.556 103.01 123.451 102.975 123.35C102.957 123.289 102.92 123.235 102.87 123.197C102.829 123.169 102.779 123.157 102.73 123.163C102.676 123.174 102.623 123.195 102.577 123.226C102.52 123.256 102.469 123.295 102.423 123.341C102.368 123.398 102.321 123.463 102.284 123.533C102.236 123.62 102.2 123.714 102.178 123.811C102.147 123.934 102.128 124.059 102.121 124.186C102.121 124.224 102.121 124.267 102.121 124.32V124.661C102.121 124.714 102.121 124.757 102.121 124.786C102.125 124.892 102.145 124.997 102.178 125.098C102.196 125.159 102.233 125.213 102.284 125.251C102.304 125.265 102.327 125.275 102.351 125.28C102.375 125.285 102.399 125.285 102.423 125.28C102.478 125.271 102.53 125.251 102.577 125.222C102.632 125.19 102.684 125.152 102.73 125.107C102.784 125.049 102.831 124.984 102.87 124.915C102.916 124.827 102.951 124.733 102.975 124.637C103.007 124.514 103.024 124.389 103.028 124.262C103.031 124.218 103.031 124.173 103.028 124.128V123.792C103.031 123.749 103.031 123.706 103.028 123.662Z" fill="#FAFAFA"/>
<path d="M104.986 125.232C105.048 125.194 105.103 125.147 105.149 125.093C105.207 125.025 105.257 124.951 105.298 124.872C105.346 124.775 105.383 124.674 105.409 124.57C105.438 124.452 105.453 124.331 105.452 124.21V123.965C105.452 124.013 105.404 124.07 105.37 124.138C105.337 124.208 105.299 124.275 105.255 124.339C105.205 124.407 105.15 124.471 105.092 124.531C105.032 124.594 104.962 124.648 104.885 124.69C104.836 124.723 104.781 124.747 104.722 124.758C104.663 124.77 104.603 124.769 104.545 124.757C104.438 124.723 104.346 124.654 104.285 124.56C104.207 124.436 104.15 124.3 104.117 124.157C104.077 123.976 104.054 123.791 104.05 123.605C104.05 123.542 104.05 123.466 104.05 123.374C104.05 123.283 104.05 123.206 104.05 123.139C104.056 122.928 104.079 122.718 104.117 122.51C104.157 122.306 104.213 122.105 104.285 121.91C104.353 121.741 104.44 121.58 104.545 121.43C104.633 121.298 104.75 121.187 104.885 121.104C104.949 121.066 105.019 121.038 105.092 121.022C105.146 121.012 105.201 121.012 105.255 121.022C105.298 121.034 105.337 121.056 105.37 121.085C105.401 121.108 105.428 121.136 105.452 121.166V121.013C105.452 120.963 105.462 120.914 105.481 120.869C105.494 120.831 105.519 120.799 105.553 120.778L105.836 120.61C105.846 120.6 105.859 120.595 105.872 120.595C105.885 120.595 105.898 120.6 105.908 120.61C105.931 120.642 105.943 120.68 105.941 120.72V123.84C105.954 124.307 105.868 124.772 105.687 125.203C105.545 125.542 105.3 125.828 104.986 126.019C104.879 126.086 104.757 126.124 104.631 126.13C104.532 126.136 104.433 126.11 104.348 126.058C104.267 125.997 104.201 125.918 104.156 125.827C104.109 125.718 104.083 125.601 104.079 125.482C104.075 125.432 104.085 125.382 104.108 125.338C104.12 125.298 104.145 125.264 104.18 125.242L104.434 125.098C104.44 125.091 104.447 125.086 104.455 125.083C104.463 125.08 104.471 125.078 104.48 125.078C104.488 125.078 104.497 125.08 104.505 125.083C104.513 125.086 104.52 125.091 104.525 125.098C104.549 125.122 104.57 125.15 104.588 125.179C104.617 125.231 104.665 125.269 104.722 125.285C104.78 125.328 104.866 125.28 104.986 125.232ZM104.535 122.904C104.535 123.032 104.535 123.157 104.535 123.278C104.521 123.47 104.576 123.66 104.689 123.816C104.731 123.853 104.786 123.873 104.842 123.873C104.899 123.873 104.953 123.853 104.996 123.816C105.135 123.725 105.244 123.595 105.308 123.442C105.395 123.241 105.444 123.026 105.452 122.808C105.452 122.736 105.452 122.65 105.452 122.549C105.452 122.448 105.452 122.362 105.452 122.299C105.462 122.127 105.411 121.957 105.308 121.819C105.265 121.78 105.21 121.758 105.152 121.758C105.094 121.758 105.038 121.78 104.996 121.819C104.859 121.909 104.752 122.038 104.689 122.189C104.59 122.414 104.538 122.658 104.535 122.904Z" fill="#FAFAFA"/>
<path d="M107.06 118.642C107.069 118.634 107.081 118.63 107.094 118.63C107.106 118.63 107.118 118.634 107.127 118.642C107.152 118.673 107.164 118.712 107.161 118.752V119.275C107.161 119.325 107.15 119.375 107.127 119.419C107.114 119.455 107.09 119.487 107.06 119.51L106.738 119.698C106.734 119.703 106.728 119.707 106.722 119.71C106.716 119.712 106.709 119.714 106.702 119.714C106.696 119.714 106.689 119.712 106.683 119.71C106.676 119.707 106.671 119.703 106.666 119.698C106.654 119.683 106.644 119.666 106.639 119.648C106.633 119.63 106.631 119.611 106.633 119.592V119.069C106.632 119.019 106.644 118.969 106.666 118.925C106.68 118.887 106.705 118.855 106.738 118.834L107.06 118.642ZM107.142 123.149C107.142 123.197 107.132 123.244 107.113 123.288C107.097 123.326 107.073 123.359 107.041 123.384L106.753 123.547C106.749 123.552 106.744 123.556 106.738 123.559C106.732 123.562 106.726 123.563 106.719 123.563C106.713 123.563 106.706 123.562 106.701 123.559C106.695 123.556 106.69 123.552 106.686 123.547C106.66 123.516 106.648 123.477 106.652 123.437V120.331C106.652 120.281 106.663 120.232 106.686 120.187C106.699 120.15 106.722 120.117 106.753 120.091L107.041 119.928C107.051 119.919 107.063 119.914 107.077 119.914C107.09 119.914 107.103 119.919 107.113 119.928C107.134 119.959 107.144 119.996 107.142 120.034V123.149Z" fill="#FAFAFA"/>
<path d="M109.666 121.685C109.666 121.734 109.656 121.783 109.638 121.829C109.624 121.866 109.599 121.898 109.566 121.92L109.278 122.088C109.269 122.097 109.256 122.102 109.244 122.102C109.231 122.102 109.219 122.097 109.21 122.088C109.185 122.057 109.173 122.017 109.177 121.978V120.288C109.191 120.089 109.155 119.889 109.071 119.707C109.004 119.587 108.898 119.568 108.75 119.654C108.601 119.754 108.491 119.901 108.438 120.072C108.357 120.298 108.318 120.537 108.322 120.778V122.472C108.322 122.521 108.312 122.57 108.294 122.616C108.282 122.656 108.256 122.69 108.222 122.712L107.938 122.875C107.934 122.88 107.928 122.884 107.922 122.887C107.916 122.89 107.909 122.891 107.902 122.891C107.896 122.891 107.889 122.89 107.883 122.887C107.876 122.884 107.871 122.88 107.866 122.875C107.844 122.845 107.834 122.807 107.838 122.77V119.664C107.837 119.614 107.847 119.565 107.866 119.52C107.878 119.48 107.904 119.446 107.938 119.424L108.222 119.261C108.226 119.256 108.232 119.252 108.238 119.249C108.244 119.246 108.251 119.245 108.258 119.245C108.264 119.245 108.271 119.246 108.277 119.249C108.283 119.252 108.289 119.256 108.294 119.261C108.315 119.293 108.325 119.332 108.322 119.371V119.52C108.385 119.374 108.463 119.234 108.553 119.102C108.632 118.981 108.739 118.881 108.865 118.81C108.974 118.73 109.11 118.695 109.244 118.714C109.297 118.727 109.347 118.751 109.39 118.785C109.433 118.819 109.468 118.862 109.494 118.91C109.563 119.04 109.609 119.182 109.628 119.328C109.654 119.519 109.666 119.711 109.666 119.904V121.685Z" fill="#FAFAFA"/>
<path d="M133.878 107.712L129.217 110.4L129.942 103.862C129.38 103.565 129.025 102.84 129.025 101.798C129.025 99.9408 130.158 97.7856 131.55 96.9984C132.942 96.2112 134.07 97.0464 134.07 98.9184C134.041 100.02 133.726 101.095 133.158 102.038L133.878 107.712Z" fill="#455A64"/>
<path d="M133.882 107.712L129.778 105.346L129.217 110.405L133.882 107.712Z" fill="#37474F"/>
<path d="M131.54 96.984C130.525 97.6697 129.768 98.6749 129.39 99.84L133.148 102.01C133.717 101.066 134.031 99.991 134.06 98.8896C134.07 97.032 132.942 96.1824 131.54 96.984Z" fill="#37474F"/>
<path d="M108.884 75.216C107.286 74.2944 105.082 74.424 102.644 75.8304C97.7768 78.6432 93.8312 85.4736 93.8312 91.0944C93.8312 93.9168 94.8296 95.8944 96.4328 96.8064L99.5384 98.6112C101.132 99.5328 103.335 99.3984 105.778 97.992C110.646 95.184 114.591 88.3488 114.591 82.728C114.591 79.92 113.602 77.928 112.009 77.0304" fill="#4659CA"/>
<path d="M105.773 77.64C100.906 80.4528 96.9607 87.288 96.9607 92.904C96.9607 98.52 100.906 100.805 105.773 97.992C110.641 95.1792 114.591 88.3488 114.586 82.728C114.581 77.1072 110.636 74.832 105.773 77.64Z" fill="#4659CA"/>
<path d="M110.636 90.1104V90.7536C109.47 92.8349 107.798 94.5882 105.774 95.8512C103.878 96.9408 102.164 97.0608 100.906 96.3648V95.04C100.971 93.6616 101.364 92.3188 102.054 91.1238C102.744 89.9287 103.71 88.9163 104.871 88.1712L106.153 87.432C107.286 86.7792 108.39 86.6928 109.254 87.1968C110.118 87.7008 110.636 88.7616 110.636 90.1104Z" fill="#4659CA"/>
<path opacity="0.4" d="M108.884 75.216L112.004 77.0304C110.41 76.104 108.207 76.2336 105.764 77.64C102.577 79.4832 99.7832 83.0496 98.2376 86.8704L95.1128 85.0608C96.6632 81.2208 99.4328 77.6736 102.639 75.8304C105.087 74.4288 107.29 74.2944 108.884 75.216Z" fill="white"/>
<path opacity="0.2" d="M99.4279 98.5392L96.4375 96.8064C94.8343 95.8944 93.8359 93.9264 93.8359 91.0944L96.9607 92.9088C96.9799 95.6448 97.9015 97.5936 99.4279 98.5392Z" fill="black"/>
<path opacity="0.1" d="M95.1223 85.0608L98.2471 86.8704C97.4464 88.7832 97.0164 90.8307 96.9799 92.904L93.8551 91.0896C93.8936 89.0181 94.3236 86.9725 95.1223 85.0608Z" fill="black"/>
<path d="M104.66 87.1296C104.362 87.1328 104.069 87.0566 103.81 86.9088C103.499 86.7011 103.249 86.413 103.088 86.075C102.926 85.737 102.859 85.3618 102.894 84.9888C102.934 84.1143 103.184 83.2622 103.621 82.5039C104.059 81.7457 104.672 81.1032 105.409 80.6304C105.705 80.3941 106.065 80.2527 106.443 80.2245C106.82 80.1964 107.198 80.2828 107.526 80.4726C107.853 80.6624 108.116 80.9467 108.28 81.2883C108.443 81.6299 108.5 82.0129 108.442 82.3872C108.401 83.2616 108.151 84.1133 107.713 84.8715C107.276 85.6296 106.663 86.2722 105.927 86.7456C105.546 86.9834 105.109 87.1159 104.66 87.1296Z" fill="white"/>
<path d="M109.254 87.192C108.39 86.688 107.286 86.7744 106.153 87.4272L104.871 88.1664C103.709 88.912 102.743 89.9252 102.053 91.1211C101.363 92.317 100.97 93.6609 100.906 95.04V96.3696C102.164 97.0656 103.878 96.9456 105.774 95.856C107.798 94.5931 109.47 92.8397 110.636 90.7584V90.1152C110.636 88.7616 110.137 87.7008 109.254 87.192Z" fill="white"/>
<path d="M207.932 170.232C207.932 170.232 208.57 164.626 211.359 160.272C214.148 155.918 217.978 153.206 221.554 152.923C225.13 152.64 228.02 155.933 224.194 158.203C220.369 160.474 213.572 162.768 210.442 171.216L207.932 170.232Z" fill="#4659CA"/>
<path opacity="0.1" d="M207.932 170.232C207.932 170.232 208.57 164.626 211.359 160.272C214.148 155.918 217.978 153.206 221.554 152.923C225.13 152.64 228.02 155.933 224.194 158.203C220.369 160.474 213.572 162.768 210.442 171.216L207.932 170.232Z" fill="black"/>
<path d="M208.983 168.773H208.945C208.898 168.754 208.86 168.717 208.84 168.67C208.821 168.623 208.82 168.57 208.839 168.523C212.612 159.235 219.793 155.352 223.066 154.603C223.091 154.598 223.116 154.597 223.141 154.601C223.166 154.605 223.19 154.614 223.211 154.627C223.233 154.641 223.251 154.658 223.266 154.679C223.281 154.699 223.291 154.723 223.297 154.747C223.303 154.772 223.303 154.797 223.299 154.822C223.295 154.847 223.286 154.871 223.273 154.892C223.259 154.914 223.242 154.932 223.221 154.947C223.201 154.961 223.177 154.972 223.153 154.978C219.946 155.717 212.905 159.528 209.194 168.672C209.176 168.71 209.145 168.741 209.107 168.759C209.068 168.778 209.025 168.782 208.983 168.773Z" fill="white"/>
<path d="M228.078 168.883C227.756 169.613 226.959 169.997 226.22 170.294C225.481 170.592 224.674 170.914 224.271 171.605C223.465 172.997 224.79 174.965 223.926 176.314C223.722 176.585 223.466 176.813 223.172 176.983C222.879 177.153 222.554 177.261 222.217 177.302C221.665 177.403 221.103 177.403 220.546 177.451C220.28 177.448 220.014 177.427 219.75 177.389C218.974 177.216 218.163 177.302 217.441 177.634C216.332 178.258 216.001 179.654 215.319 180.734C214.903 181.37 214.354 181.909 213.71 182.313C213.067 182.717 212.343 182.978 211.59 183.077C211.11 183.139 210.15 183.23 209.67 182.947C209.632 182.929 209.597 182.906 209.564 182.88C209.492 182.803 209.406 182.702 209.367 182.65C209.365 182.639 209.365 182.627 209.367 182.616C209.17 181.891 209.492 181.142 209.506 180.394V180.259C209.473 179.39 209.449 178.526 209.43 177.662C209.388 176.062 209.372 174.462 209.382 172.862C209.382 171.826 209.266 170.693 209.708 169.718C210.188 168.643 211.398 168.619 211.854 167.568C212.036 167.146 212.132 166.699 212.31 166.272C212.584 165.651 213.024 165.117 213.581 164.729C214.137 164.34 214.79 164.112 215.468 164.069C217.575 163.963 219.462 165.667 221.569 165.509C222.111 165.466 222.644 165.298 223.182 165.202C224.886 164.88 226.858 165.365 227.818 166.81C228.029 167.107 228.163 167.452 228.208 167.814C228.253 168.176 228.209 168.543 228.078 168.883Z" fill="#4659CA"/>
<path d="M209.156 179.29C209.111 179.276 209.072 179.246 209.049 179.204C209.026 179.163 209.019 179.115 209.031 179.069C211.94 168.154 223.431 166.589 226.134 166.771C226.157 166.772 226.181 166.778 226.202 166.789C226.224 166.799 226.243 166.814 226.258 166.832C226.274 166.85 226.286 166.87 226.293 166.893C226.301 166.916 226.304 166.94 226.302 166.963C226.297 167.01 226.274 167.053 226.238 167.083C226.203 167.114 226.157 167.129 226.11 167.126C223.474 166.939 212.223 168.48 209.377 179.165C209.363 179.21 209.333 179.249 209.292 179.272C209.25 179.295 209.202 179.302 209.156 179.29Z" fill="white"/>
<path d="M221.938 173.76C221.902 173.755 221.868 173.738 221.842 173.712C220.78 172.791 219.528 172.116 218.174 171.736C216.821 171.355 215.4 171.277 214.014 171.509C213.967 171.513 213.92 171.5 213.883 171.471C213.846 171.443 213.82 171.401 213.812 171.355C213.805 171.308 213.817 171.26 213.845 171.222C213.872 171.183 213.914 171.157 213.961 171.149C215.407 170.908 216.889 170.99 218.299 171.389C219.71 171.789 221.015 172.495 222.121 173.458C222.138 173.474 222.151 173.494 222.161 173.516C222.17 173.538 222.174 173.561 222.174 173.585C222.174 173.609 222.17 173.632 222.161 173.654C222.151 173.676 222.138 173.695 222.121 173.712C222.099 173.738 222.07 173.756 222.037 173.765C222.005 173.774 221.97 173.772 221.938 173.76Z" fill="white"/>
<path d="M181.518 38.4L183.044 38.9856V35.6256C183.044 32.9568 185.17 32.3184 187.479 33.6528C189.793 34.9872 191.665 38.2272 191.665 40.896V41.376C191.987 41.2777 192.326 41.2534 192.659 41.3049C192.991 41.3565 193.308 41.4825 193.585 41.6736C194.462 42.2453 195.191 43.0157 195.714 43.9223C196.237 44.8289 196.539 45.8461 196.594 46.8912V47.112L198.726 48.3408C199.302 48.7172 199.782 49.224 200.126 49.8202C200.471 50.4164 200.67 51.0853 200.708 51.7728C200.708 53.04 199.82 53.5536 198.726 52.92L181.518 42.9792C180.941 42.6037 180.461 42.097 180.117 41.5006C179.773 40.9041 179.576 40.2347 179.54 39.5472C179.54 38.2848 180.418 37.7712 181.518 38.4Z" fill="#E6E6E6"/>
<path d="M201.961 35.7408L204.73 37.3392C204.715 37.2182 204.707 37.0964 204.706 36.9744V36.1728C204.706 34.7328 205.705 34.1664 206.943 34.8816C207.475 35.2074 207.931 35.6447 208.278 36.1632C208.479 34.368 209.89 33.7008 211.599 34.6848C212.576 35.3202 213.389 36.1767 213.973 37.185C214.556 38.1932 214.894 39.3248 214.959 40.488V41.688C214.972 42.1675 214.875 42.6435 214.676 43.08L216.98 44.4048C217.339 44.643 217.637 44.962 217.851 45.3363C218.064 45.7106 218.187 46.1297 218.209 46.56C218.209 47.352 217.652 47.6736 216.966 47.28L201.961 38.64C201.598 38.4036 201.296 38.0846 201.08 37.7092C200.864 37.3338 200.74 36.9126 200.718 36.48C200.718 35.6688 201.274 35.3472 201.961 35.7408Z" fill="#E6E6E6"/>
<path d="M191.238 108.59C189.222 111.998 187.282 114.96 185.919 116.381C183.332 117.581 177.255 119.434 174.879 119.741C174.462 119.794 174.039 119.695 173.689 119.462C172.753 118.848 172.028 118.747 171.044 118.406C170.271 118.142 169.945 117.773 169.801 117.926C169.652 118.101 169.577 118.326 169.592 118.555C169.608 118.784 169.712 118.997 169.882 119.15C170.252 119.501 170.661 119.807 171.102 120.062C170.048 120.324 168.948 120.344 167.886 120.12C165.826 119.578 164.857 120.566 166.249 122.803C166.729 123.6 168.706 124.882 172.681 124.536C174.099 124.46 175.511 124.299 176.91 124.056C180.721 123.24 184.959 122.453 187.566 121.656C188.535 121.275 189.403 120.673 190.1 119.899C194.482 114.902 195.937 111.341 197.857 108.106L197.694 102.826C194.583 102.72 192.922 105.739 191.238 108.59Z" fill="#FFA8A7"/>
<path d="M198.226 102.72C197.325 102.593 196.405 102.715 195.568 103.073C194.73 103.431 194.006 104.011 193.474 104.75C191.343 107.482 187.57 114.038 187.57 114.038C187.57 114.038 188.804 117.326 192.135 117.878L197.487 110.65C197.487 110.65 200.022 105.629 198.226 102.72Z" fill="#455A64"/>
<path d="M209.799 176.419H206.31V182.64H209.799V176.419Z" fill="#FFA8A7"/>
<path d="M197.703 176.088L194.218 176.213L194.041 169.627L197.703 169.502V176.088Z" fill="#FFA8A7"/>
<path d="M210.289 122.568C210.289 126.034 209.78 153.955 209.78 153.955C209.857 154.954 210.74 156.797 210.562 160.632C210.298 165.84 209.948 179.53 209.948 179.53C209.349 179.836 208.688 180.002 208.015 180.016C207.342 180.029 206.675 179.889 206.065 179.606C206.065 179.606 203.233 160.406 202.609 155.266C202.062 150.758 200.66 135.84 200.66 135.84L198.774 153.475C199.173 155.367 199.319 157.305 199.206 159.235C199.042 161.635 197.919 174.058 197.919 174.058C197.316 174.413 196.64 174.627 195.943 174.683C195.245 174.738 194.544 174.635 193.892 174.379C193.892 174.379 191.905 155.659 191.866 153.461C191.818 150.965 193.028 122.539 193.028 122.539L210.289 122.568Z" fill="#37474F"/>
<path d="M206.31 180.845V180.326C205.974 180.475 205.201 183.557 203.814 184.872C202.714 185.918 201.217 187.123 200.833 188.29C200.449 189.456 202.921 190.171 203.953 189.984C205.143 189.763 207.217 188.885 207.735 188.064C208.254 187.243 208.498 186.053 208.921 185.458C209.343 184.862 210.318 184.2 210.543 183.509C210.614 182.862 210.546 182.208 210.346 181.589C210.183 180.946 210.01 180.24 209.799 180.302V180.696C209.307 181.1 208.688 181.317 208.052 181.31C207.543 181.354 206.305 181.248 206.31 180.845Z" fill="#263238"/>
<path d="M194.18 175.09C193.998 175.09 193.849 175.363 193.45 175.814C192.858 176.438 192.165 176.957 191.401 177.35C190.095 178.032 187.561 179.078 186.404 179.621C185.684 179.957 185.718 180.859 186.462 181.373C187.206 181.886 188.996 182.256 191.146 181.757C192.318 181.483 193.844 180.355 194.814 180.418C195.783 180.48 197.583 180.461 198.298 179.938C199.014 179.414 198.726 178.33 198.524 177.394C198.303 176.366 198.044 174.768 197.703 174.84V175.2C197.286 175.862 195.121 176.131 194.199 175.646L194.18 175.09Z" fill="#263238"/>
<path d="M200.66 135.84C198.845 135.246 197.185 134.254 195.802 132.936C195.802 132.936 196.762 134.765 199.527 136.469L198.932 152.218L200.66 135.84Z" fill="#263238"/>
<path d="M208.34 103.229C208.34 103.229 211.22 103.891 211.014 109.094L210.414 117.374V129.806C207.85 132.715 196.494 132.504 192.582 129.576C192.582 129.576 193.023 114.864 193.287 109.2C193.474 105.178 194.401 103.152 198.356 102.71L203.218 102.922L208.34 103.229Z" fill="#4659CA"/>
<path d="M204.673 92.4192C204.689 93.1158 204.568 93.8088 204.315 94.4583C204.063 95.1077 203.684 95.7007 203.202 96.2031C202.719 96.7055 202.141 97.1074 201.502 97.3856C200.864 97.6638 200.176 97.8128 199.479 97.824C196.599 97.824 194.91 95.3376 194.286 92.4192C193.134 87.0768 196.609 87.0096 199.479 87.0096C200.885 87.0386 202.222 87.6248 203.196 88.6392C204.17 89.6536 204.701 91.0133 204.673 92.4192Z" fill="#263238"/>
<path d="M207.322 94.6032C207.322 94.6032 206.526 98.5008 206.204 99.144C206.002 99.5311 205.658 99.8252 205.244 99.9648L205.302 97.224L207.322 94.6032Z" fill="#263238"/>
<path d="M206.319 89.0209C206.319 89.0209 206.89 88.8768 207.5 89.8272C208.018 90.6384 208.138 92.4624 207.322 94.6272L205.82 94.8096L206.319 89.0209Z" fill="#263238"/>
<path d="M206.871 89.8128L208.714 89.8464C208.727 89.7273 208.715 89.6068 208.679 89.4926C208.643 89.3784 208.583 89.2729 208.504 89.1828C208.425 89.0926 208.329 89.0198 208.22 88.9688C208.112 88.9178 207.994 88.8897 207.874 88.8864C207.622 88.89 207.381 88.9866 207.195 89.1576C207.01 89.3286 206.895 89.5619 206.871 89.8128Z" fill="#263238"/>
<path d="M207.097 89.376L208.46 88.0656C208.381 87.973 208.285 87.8977 208.175 87.8444C208.066 87.7911 207.947 87.7611 207.826 87.7561C207.705 87.7511 207.584 87.7714 207.47 87.8156C207.357 87.8598 207.255 87.9269 207.169 88.0128C206.988 88.1896 206.88 88.4279 206.867 88.6804C206.854 88.9329 206.936 89.1812 207.097 89.376Z" fill="#263238"/>
<path d="M205.369 94.7856C205.671 94.9728 206.098 94.3728 206.473 93.9648C206.847 93.5568 208.009 93.1824 208.614 94.5072C209.218 95.832 208.186 97.1424 207.322 97.5744C205.772 98.3424 205.282 97.224 205.282 97.224L205.153 103.397C202.974 106.757 198.03 106.651 199.81 103.234V101.357C199.078 101.479 198.334 101.517 197.593 101.472C196.383 101.28 195.625 100.286 195.255 98.9232C194.67 96.7344 194.444 94.968 194.943 90.6624C195.49 85.9488 200.761 85.896 203.583 87.7824C206.406 89.6688 205.369 94.7856 205.369 94.7856Z" fill="#FFA8A7"/>
<path d="M198.802 89.928C200.06 89.8032 201.303 89.544 202.566 89.448C202.838 89.415 203.114 89.428 203.382 89.4864C204.342 89.7504 204.226 90.8736 204.38 91.656C204.644 93.0096 204.86 95.2992 205.369 95.3088C205.522 95.3088 206.098 94.3152 206.473 93.96C206.679 93.654 206.795 93.2966 206.809 92.928C206.905 92.3712 206.953 91.8 206.996 91.2336C207.034 90.7536 207.082 90.2736 207.082 89.7936C207.104 89.2512 207.061 88.708 206.953 88.176C206.832 87.7234 206.602 87.3077 206.281 86.9664L206.185 86.8608C205.552 86.1993 204.784 85.682 203.934 85.344C202.71 84.8855 201.426 84.6058 200.122 84.5136C198.821 84.4214 197.524 84.2612 196.239 84.0336C196.166 84.0122 196.087 84.0122 196.014 84.0336C195.961 84.0625 195.917 84.104 195.886 84.1543C195.854 84.2046 195.835 84.2622 195.831 84.3216C195.779 84.6199 195.811 84.927 195.926 85.2073C196.041 85.4877 196.233 85.7298 196.479 85.9056C195.61 85.9728 194.612 85.5216 193.777 85.2912C193.709 85.2626 193.637 85.2478 193.563 85.2478C193.49 85.2478 193.417 85.2626 193.35 85.2912C193.266 85.3498 193.206 85.4368 193.182 85.536C193.121 85.7615 193.113 85.998 193.158 86.2272C193.234 86.9219 193.492 87.5842 193.906 88.1472C194.553 88.9895 195.467 89.587 196.498 89.8416C197.257 89.988 198.035 90.0171 198.802 89.928Z" fill="#263238"/>
<path d="M199.815 101.357C199.815 101.357 202.513 100.79 203.454 100.267C204.014 99.9606 204.469 99.4923 204.759 98.9232C204.618 99.4949 204.365 100.033 204.015 100.507C203.329 101.429 199.815 102.101 199.815 102.101V101.357Z" fill="#F28F8F"/>
<path d="M200.463 94.08C200.458 94.2282 200.512 94.3724 200.612 94.4812C200.713 94.59 200.853 94.6546 201.001 94.6608C201.118 94.6705 201.236 94.6444 201.339 94.586C201.441 94.5276 201.524 94.4396 201.575 94.3335C201.627 94.2274 201.645 94.1082 201.628 93.9915C201.611 93.8748 201.559 93.766 201.479 93.6794C201.398 93.5928 201.294 93.5324 201.179 93.5062C201.064 93.48 200.944 93.4891 200.834 93.5324C200.724 93.5758 200.63 93.6512 200.564 93.7489C200.498 93.8466 200.463 93.962 200.463 94.08Z" fill="#263238"/>
<path d="M201.327 91.752L202.484 92.4192C202.568 92.2547 202.587 92.0646 202.537 91.8866C202.488 91.7087 202.372 91.5561 202.215 91.4592C202.138 91.4162 202.054 91.3896 201.966 91.3811C201.879 91.3726 201.79 91.3825 201.707 91.41C201.623 91.4376 201.546 91.4822 201.481 91.5411C201.416 91.6 201.363 91.6718 201.327 91.752Z" fill="#263238"/>
<path d="M200.055 97.9728L198.822 98.4528C198.846 98.5375 198.888 98.6161 198.945 98.6838C199.001 98.7515 199.071 98.8069 199.15 98.8465C199.229 98.8861 199.315 98.9091 199.403 98.914C199.491 98.919 199.579 98.9058 199.662 98.8752C199.83 98.8029 199.964 98.6694 200.037 98.5018C200.11 98.3342 200.116 98.1451 200.055 97.9728Z" fill="#F28F8F"/>
<path d="M195.5 92.2464L196.556 91.4016C196.509 91.3279 196.446 91.2649 196.373 91.2169C196.3 91.1688 196.217 91.1367 196.131 91.1227C196.044 91.1086 195.956 91.113 195.871 91.1354C195.786 91.1578 195.707 91.1978 195.639 91.2528C195.498 91.3725 195.406 91.5399 195.38 91.7231C195.355 91.9063 195.397 92.0926 195.5 92.2464Z" fill="#263238"/>
<path d="M195.966 93.9216C195.974 94.0266 196.013 94.1269 196.077 94.2103C196.142 94.2936 196.229 94.3564 196.329 94.3909C196.428 94.4254 196.536 94.4302 196.638 94.4046C196.74 94.379 196.833 94.3243 196.904 94.247C196.976 94.1697 197.023 94.0732 197.041 93.9693C197.059 93.8655 197.046 93.7587 197.004 93.6621C196.962 93.5654 196.892 93.4832 196.804 93.4253C196.716 93.3673 196.613 93.3363 196.508 93.336C196.434 93.3385 196.361 93.3556 196.293 93.3865C196.226 93.4173 196.165 93.4612 196.115 93.5157C196.064 93.5701 196.025 93.634 196 93.7037C195.974 93.7734 195.962 93.8474 195.966 93.9216Z" fill="#263238"/>
<path d="M198.86 93.4704L198.798 96.8832L196.858 96.4416L198.86 93.4704Z" fill="#F28F8F"/>
<path d="M152.809 122.054L155.818 120.317L157.009 118.872L154.004 120.61L152.809 122.054Z" fill="#4659CA"/>
<path opacity="0.4" d="M152.809 122.054L155.818 120.317L157.009 118.872L154.004 120.61L152.809 122.054Z" fill="black"/>
<path d="M160.993 126.778L164.002 125.04L166.513 122.818L163.508 124.55L160.993 126.778Z" fill="#4659CA"/>
<path opacity="0.4" d="M160.993 126.778L164.002 125.04L166.513 122.818L163.508 124.55L160.993 126.778Z" fill="black"/>
<path d="M186.558 132.773C187.269 133.727 187.7 134.861 187.801 136.046C187.092 135.091 186.662 133.958 186.558 132.773ZM193.551 132.864C192.538 125.976 188.838 119.165 184.431 116.616C182.314 115.392 180.356 115.349 178.786 116.266L175.954 117.898L175.796 117.994C175.67 118.063 175.548 118.14 175.431 118.224C175.199 118.384 174.98 118.564 174.778 118.762L174.682 118.853C174.596 118.939 174.505 119.04 174.423 119.136C174.342 119.232 174.217 119.381 174.121 119.51C173.917 119.779 173.733 120.061 173.569 120.355C173.482 120.504 173.401 120.662 173.324 120.835L148.59 106.56L145.585 108.293V110.213L145.839 110.357L146.079 110.496V110.88L145.599 111.163V112.277L149.233 119.957L152.823 122.035L154.018 120.595L157.186 122.491L159.006 125.606L161.012 126.763L163.522 124.536L166.604 126.317L167.641 130.594L172.82 133.589C173.076 134.677 173.397 135.75 173.78 136.8C173.814 136.906 173.857 137.016 173.9 137.136C175.618 141.648 178.35 145.512 181.431 147.293C181.801 147.512 182.187 147.7 182.588 147.854C182.8 147.939 183.016 148.011 183.236 148.07C183.428 148.122 183.62 148.165 183.812 148.2C184.418 148.311 185.039 148.311 185.646 148.2L185.895 148.138C186.015 148.114 186.132 148.08 186.246 148.037L186.514 147.931C186.61 147.897 186.701 147.853 186.788 147.802C186.877 147.763 186.963 147.72 187.047 147.672L187.172 147.595C187.195 147.588 187.216 147.576 187.234 147.562C187.921 147.168 189.61 146.189 190.071 145.93C192.356 144.605 193.834 141.254 193.834 136.517C193.831 135.294 193.736 134.073 193.551 132.864Z" fill="#4659CA"/>
<path d="M185.679 138.586C184.489 137.899 183.529 135.864 183.529 134.04C183.529 132.216 184.489 131.29 185.679 131.971C186.87 132.653 187.825 134.693 187.825 136.522C187.825 138.35 186.865 139.272 185.679 138.586ZM190.542 134.597C189.534 127.714 185.833 120.898 181.422 118.354C179.377 117.173 177.486 117.086 175.95 117.898L175.791 117.994C175.665 118.063 175.543 118.14 175.426 118.224C175.194 118.384 174.975 118.564 174.774 118.762L174.678 118.853C174.591 118.939 174.5 119.04 174.418 119.136C174.337 119.232 174.212 119.381 174.116 119.51C173.912 119.779 173.728 120.061 173.564 120.355C173.478 120.504 173.396 120.662 173.319 120.835C172.872 121.763 172.549 122.746 172.359 123.758L145.58 108.293V110.213L145.834 110.357L146.074 110.496V110.88L145.594 111.163V112.277L149.228 119.957L152.818 122.035L154.014 120.595L157.182 122.491L159.001 125.606L161.007 126.763L163.518 124.536L166.599 126.317L167.636 130.594L172.82 133.589C173.076 134.677 173.397 135.75 173.78 136.8C173.814 136.906 173.857 137.016 173.9 137.136C175.618 141.648 178.35 145.512 181.431 147.293C181.8 147.512 182.187 147.7 182.588 147.854C182.8 147.939 183.016 148.011 183.236 148.07C183.428 148.122 183.62 148.165 183.812 148.2C184.418 148.311 185.039 148.311 185.646 148.2L185.895 148.138C186.014 148.114 186.132 148.08 186.246 148.037L186.514 147.931C186.609 147.897 186.701 147.854 186.788 147.802C186.877 147.763 186.963 147.72 187.047 147.672L187.172 147.595C187.195 147.588 187.216 147.576 187.234 147.562C189.423 146.179 190.83 142.877 190.83 138.254C190.821 137.03 190.725 135.808 190.542 134.597Z" fill="#4659CA"/>
<path opacity="0.4" d="M187.825 136.517C187.825 138.346 186.865 139.272 185.679 138.586C184.494 137.899 183.529 135.869 183.529 134.04C183.529 132.211 184.489 131.285 185.679 131.971C186.022 132.18 186.32 132.454 186.558 132.778C186.661 133.963 187.091 135.096 187.801 136.051C187.818 136.206 187.826 136.361 187.825 136.517Z" fill="black"/>
<path opacity="0.4" d="M193.825 136.512C193.825 141.25 192.346 144.6 190.062 145.925C189.582 146.184 187.911 147.163 187.225 147.557C189.414 146.174 190.82 142.872 190.82 138.25C190.815 137.027 190.722 135.806 190.542 134.597C189.534 127.714 185.833 120.898 181.422 118.354C179.377 117.173 177.486 117.086 175.95 117.898L178.782 116.266C180.351 115.349 182.31 115.392 184.426 116.616C188.838 119.165 192.538 125.976 193.546 132.864C193.729 134.071 193.822 135.291 193.825 136.512Z" fill="white"/>
<path d="M190.82 138.24C190.82 142.862 189.414 146.165 187.225 147.547C187.911 147.154 189.601 146.174 190.062 145.915C192.346 144.59 193.825 141.24 193.825 136.502C193.825 136.33 193.825 136.152 193.825 135.974L190.82 137.712C190.815 137.899 190.82 138.072 190.82 138.24Z" fill="#4659CA"/>
<path opacity="0.1" d="M190.82 138.24C190.82 142.862 189.414 146.165 187.225 147.547C187.911 147.154 189.601 146.174 190.062 145.915C192.346 144.59 193.825 141.24 193.825 136.502C193.825 136.33 193.825 136.152 193.825 135.974L190.82 137.712C190.815 137.899 190.82 138.072 190.82 138.24Z" fill="black"/>
<path opacity="0.15" d="M172.474 125.722V126.696L145.585 111.173L146.079 110.885V110.482L172.474 125.722Z" fill="black"/>
<path opacity="0.15" d="M172.474 126.125V126.696L145.585 111.173L146.079 110.885V110.88L172.474 126.125Z" fill="black"/>
<path opacity="0.15" d="M184.167 145.92C183.148 145.894 182.154 145.597 181.287 145.061C176.905 142.531 173.338 135.005 173.338 128.285C173.338 124.363 174.524 121.435 176.593 120.24C178.033 119.405 179.737 119.51 181.527 120.542C185.905 123.072 189.471 130.622 189.471 137.342C189.471 141.259 188.286 144.192 186.217 145.382C185.593 145.739 184.886 145.924 184.167 145.92ZM178.671 120.168C178.032 120.164 177.402 120.33 176.847 120.648C174.961 121.738 173.833 124.594 173.833 128.28C173.833 134.846 177.289 142.2 181.542 144.638C183.169 145.598 184.71 145.685 185.991 144.946C187.878 143.856 189.006 141.005 189.006 137.318C189.006 130.747 185.55 123.398 181.302 120.955C180.508 120.472 179.6 120.207 178.671 120.187V120.168Z" fill="black"/>
<path opacity="0.4" d="M173.3 120.826C172.852 121.753 172.53 122.736 172.34 123.749L145.561 108.283L148.566 106.55L173.3 120.826Z" fill="white"/>
<path d="M208.105 122.328C209.506 119.674 211.11 113.712 211.906 110.702C213.039 106.43 211.206 103.742 209.122 103.632C207.822 103.834 203.535 119.419 203.535 119.419C203.055 119.798 196.542 123.106 194.449 123.936C194.075 124.078 193.662 124.078 193.287 123.936C192.284 123.571 191.598 123.638 190.614 123.542C189.841 123.466 189.452 123.192 189.351 123.355C189.26 123.558 189.248 123.787 189.318 123.998C189.388 124.209 189.536 124.386 189.73 124.493C190.154 124.74 190.605 124.936 191.074 125.078C190.233 125.334 189.356 125.452 188.478 125.429C186.462 125.386 185.737 126.259 187.302 128.309C188.262 129.586 189.85 129.989 193.398 128.765C194.415 128.41 195.798 127.723 197.089 127.258C199.748 126.298 200.449 126.182 202.474 125.496C205.426 124.498 207.481 123.509 208.105 122.328Z" fill="#FFA8A7"/>
<path d="M208.34 103.229C209.564 103.397 210.74 103.67 211.465 104.669C212.19 105.667 212.77 107.069 212.06 110.885C211.516 113.569 210.788 116.212 209.881 118.795C209.881 118.795 207.03 120.014 204.001 116.923L206.084 108.869C206.084 108.869 206.42 103.632 208.34 103.229Z" fill="#455A64"/>
</svg>
