<svg width="40" height="40" viewBox="0 0 40 40" fill="none" xmlns="http://www.w3.org/2000/svg">
<rect width="40" height="40" rx="4" fill="#4659CA"/>
<path d="M28.9169 8.00002C28.9169 7.03351 29.7004 6.25 30.6669 6.25H33.7502V13.75H30.6669C29.7004 13.75 28.9169 12.9665 28.9169 12V8.00002Z" fill="white" stroke="white" stroke-width="0.500006"/>
<path d="M28.917 18C28.917 17.0335 29.7005 16.25 30.667 16.25H33.7503V23.75H30.667C29.7005 23.75 28.917 22.9665 28.917 22V18Z" fill="white" stroke="white" stroke-width="0.500006"/>
<path d="M28.9169 28C28.9169 27.0335 29.7004 26.25 30.6669 26.25H33.7502V33.75H30.6669C29.7004 33.75 28.9169 32.9665 28.9169 32V28Z" fill="white" stroke="white" stroke-width="0.500006"/>
<path d="M22.3335 10C21.8335 10 19.8335 10 19.8335 10V20M19.8335 20V30H22.3335M19.8335 20H22.3335" stroke="white" stroke-width="0.7"/>
<circle cx="23.9984" cy="10" r="1.75" fill="white" stroke="white" stroke-width="0.500006"/>
<circle cx="23.9984" cy="20" r="1.75" fill="white" stroke="white" stroke-width="0.500006"/>
<circle cx="8" cy="20" r="1.75" fill="white" stroke="white" stroke-width="0.500006"/>
<circle cx="23.9984" cy="30" r="1.75" fill="white" stroke="white" stroke-width="0.500006"/>
<path d="M19.8335 20H17.0001" stroke="white" stroke-width="0.7"/>
<path d="M12.3333 20H9.5" stroke="white" stroke-width="0.7"/>
<path d="M12.2495 18C12.2495 17.0335 13.033 16.25 13.9995 16.25H17.0828V23.75H13.9995C13.033 23.75 12.2495 22.9665 12.2495 22V18Z" fill="white" stroke="white" stroke-width="0.500006"/>
</svg>
