<svg width="260" height="40" viewBox="0 0 260 40" fill="none" xmlns="http://www.w3.org/2000/svg">
<path d="M16.3409 0.853321C17.2356 0.326672 18.3455 0.326672 19.2403 0.853321L34.1696 9.64112C35.0421 10.1547 35.5777 11.0915 35.5777 12.1039V27.8958C35.5777 28.9082 35.0421 29.8451 34.1696 30.3587L19.2403 39.1465C18.3455 39.6731 17.2356 39.6731 16.3409 39.1465L1.41155 30.3587C0.539067 29.8451 0.00341797 28.9083 0.00341797 27.8958V12.1039C0.00341797 11.0915 0.539065 10.1547 1.41155 9.64112L16.3409 0.853321Z" fill="#3940A0"/>
<mask id="mask0_1310_3239" style="mask-type:alpha" maskUnits="userSpaceOnUse" x="0" y="0" width="36" height="40">
<path d="M16.3375 0.853321C17.2322 0.326672 18.3421 0.326672 19.2368 0.853321L34.1662 9.64112C35.0387 10.1547 35.5743 11.0915 35.5743 12.1039V27.8958C35.5743 28.9082 35.0387 29.8451 34.1662 30.3587L19.2368 39.1465C18.3421 39.6731 17.2322 39.6731 16.3375 39.1465L1.40813 30.3587C0.535649 29.8451 0 28.9083 0 27.8958V12.1039C0 11.0915 0.535647 10.1547 1.40813 9.64112L16.3375 0.853321Z" fill="#C4C4C4"/>
</mask>
<g mask="url(#mask0_1310_3239)">
<rect x="7.62109" y="19.0371" width="3.1905" height="18.5663" fill="white"/>
<mask id="mask1_1310_3239" style="mask-type:alpha" maskUnits="userSpaceOnUse" x="11" y="12" width="8" height="4">
<rect x="18.1489" y="12.0332" width="3.00821" height="6.381" transform="rotate(90 18.1489 12.0332)" fill="#CD6767"/>
</mask>
<g mask="url(#mask1_1310_3239)">
<path d="M11.7679 15.0414C11.7679 14.6464 11.8505 14.2552 12.0108 13.8902C12.1711 13.5252 12.4061 13.1936 12.7024 12.9143C12.9987 12.6349 13.3504 12.4134 13.7375 12.2622C14.1246 12.111 14.5394 12.0332 14.9584 12.0332L14.9584 15.0414L11.7679 15.0414Z" fill="white"/>
</g>
<mask id="mask2_1310_3239" style="mask-type:alpha" maskUnits="userSpaceOnUse" x="17" y="12" width="7" height="4">
<rect x="23.8198" y="12.0332" width="3.00821" height="6.381" rx="0.178613" transform="rotate(90 23.8198 12.0332)" fill="#CD6767"/>
</mask>
<g mask="url(#mask2_1310_3239)">
<path d="M17.6174 15.0414C17.5188 15.0414 17.4382 14.9613 17.4444 14.8629C17.4906 14.1302 17.8197 13.4362 18.3733 12.9143C18.9716 12.3501 19.7832 12.0332 20.6293 12.0332C21.4755 12.0332 22.287 12.3501 22.8853 12.9143C23.4389 13.4362 23.768 14.1302 23.8142 14.8629C23.8204 14.9613 23.7399 15.0414 23.6412 15.0414L20.6293 15.0414L17.6174 15.0414Z" fill="white"/>
</g>
<path d="M19.5558 23.1719C19.6544 23.1719 19.7344 23.2518 19.7344 23.3505L19.7344 26.0015C19.7344 26.1001 19.6544 26.1801 19.5558 26.1801L10.8109 26.1801L10.8109 23.1719L19.5558 23.1719Z" fill="white"/>
<path d="M23.8315 27.0742L20.641 27.0742L20.641 20.0143C20.641 19.9157 20.721 19.8357 20.8197 19.8357L23.6529 19.8357C23.7516 19.8357 23.8315 19.9157 23.8315 20.0143L23.8315 27.0742Z" fill="white"/>
<path d="M11.7607 15.0391L14.9512 15.0391L14.9512 22.099C14.9512 22.1976 14.8713 22.2776 14.7726 22.2776L11.9394 22.2776C11.8407 22.2776 11.7607 22.1976 11.7607 22.099L11.7607 15.0391Z" fill="white"/>
<path d="M24.7705 15.9336L24.7705 18.9418L16.0755 18.9418C15.9769 18.9418 15.8969 18.8618 15.8969 18.7632L15.8969 16.1122C15.8969 16.0136 15.9769 15.9336 16.0755 15.9336L24.7705 15.9336Z" fill="white"/>
<path d="M20.6411 27.0742L20.6411 30.0824L11.7675 30.0824L11.7675 27.2528C11.7675 27.1542 11.8475 27.0742 11.9462 27.0742L20.6411 27.0742Z" fill="white"/>
<rect x="20.5908" y="12.0332" width="3.00821" height="5.63322" transform="rotate(90 20.5908 12.0332)" fill="white"/>
<mask id="mask3_1310_3239" style="mask-type:alpha" maskUnits="userSpaceOnUse" x="24" y="15" width="4" height="7">
<rect x="27.9556" y="21.9492" width="3.1905" height="6.01642" transform="rotate(-180 27.9556 21.9492)" fill="#CD6767"/>
</mask>
<g mask="url(#mask3_1310_3239)">
<path d="M24.7651 15.9328C25.6112 15.9328 26.4228 16.2497 27.0211 16.8139C27.6194 17.378 27.9556 18.1432 27.9556 18.941L24.7651 18.941L24.7651 15.9328Z" fill="white"/>
</g>
<mask id="mask4_1310_3239" style="mask-type:alpha" maskUnits="userSpaceOnUse" x="24" y="21" width="4" height="7">
<rect x="27.9644" y="27.3086" width="3.1905" height="6.01642" rx="0.178613" transform="rotate(-180 27.9644 27.3086)" fill="#CD6767"/>
</mask>
<g mask="url(#mask4_1310_3239)">
<path d="M24.7739 21.4708C24.7739 21.3721 24.8539 21.2917 24.9524 21.2969C25.7335 21.3381 26.4738 21.6489 27.0299 22.1733C27.6282 22.7374 27.9644 23.5026 27.9644 24.3004C27.9644 25.0982 27.6282 25.8634 27.0299 26.4275C26.4738 26.9518 25.7335 27.2626 24.9524 27.3039C24.8539 27.3091 24.7739 27.2286 24.7739 27.13L24.7739 24.3004L24.7739 21.4708Z" fill="white"/>
</g>
<rect x="27.9644" y="24.3008" width="3.1905" height="5.35837" transform="rotate(-180 27.9644 24.3008)" fill="white"/>
<path d="M11.7686 30.082H14.9591L14.9591 39.4921C14.9591 39.5907 14.8791 39.6707 14.7804 39.6707H11.9472C11.8485 39.6707 11.7686 39.5907 11.7686 39.4921L11.7686 30.082Z" fill="white"/>
<mask id="mask5_1310_3239" style="mask-type:alpha" maskUnits="userSpaceOnUse" x="7" y="16" width="4" height="7">
<rect x="7.62109" y="16.0293" width="3.1905" height="6.01642" rx="0.178613" fill="#CD6767"/>
</mask>
<g mask="url(#mask5_1310_3239)">
<ellipse cx="10.8116" cy="19.0375" rx="3.1905" ry="3.00821" fill="white"/>
</g>
<mask id="mask6_1310_3239" style="mask-type:alpha" maskUnits="userSpaceOnUse" x="20" y="27" width="4" height="4">
<rect x="20.6411" y="30.082" width="3.00821" height="3.1905" transform="rotate(-90 20.6411 30.082)" fill="#CD6767"/>
</mask>
<g mask="url(#mask6_1310_3239)">
<path d="M23.8195 27.0738C23.8195 27.4689 23.7369 27.86 23.5766 28.225C23.4163 28.59 23.1813 28.9216 22.885 29.2009C22.5887 29.4803 22.237 29.7019 21.8499 29.853C21.4628 30.0042 21.048 30.082 20.629 30.082L20.629 27.0738L23.8195 27.0738Z" fill="white"/>
</g>
</g>
<path d="M54.7399 15.0985C56.0027 15.0985 57.0655 15.5236 57.9282 16.3738C58.7909 17.224 59.2222 18.268 59.2222 19.5058C59.2222 20.7436 58.7909 21.7875 57.9282 22.6377C57.0655 23.4879 56.0027 23.913 54.7399 23.913H52.4331V28.2266H49.845V15.0985H54.7399ZM54.7399 21.4937C55.29 21.4937 55.7464 21.3062 56.109 20.9311C56.4716 20.5435 56.6529 20.0684 56.6529 19.5058C56.6529 18.9306 56.4716 18.4555 56.109 18.0804C55.7464 17.7053 55.29 17.5178 54.7399 17.5178H52.4331V21.4937H54.7399ZM63.0125 20.4622C63.2376 19.8621 63.6064 19.412 64.119 19.1119C64.6441 18.8118 65.2255 18.6618 65.8632 18.6618V21.3624C65.1255 21.2749 64.4629 21.425 63.8752 21.8126C63.3001 22.2001 63.0125 22.844 63.0125 23.7443V28.2266H60.5932V18.8494H63.0125V20.4622ZM74.9195 27.0638C73.9568 28.014 72.7815 28.4891 71.3937 28.4891C70.0059 28.4891 68.8306 28.014 67.8679 27.0638C66.9176 26.1011 66.4425 24.9258 66.4425 23.538C66.4425 22.1501 66.9176 20.9811 67.8679 20.0309C68.8306 19.0682 70.0059 18.5868 71.3937 18.5868C72.7815 18.5868 73.9568 19.0682 74.9195 20.0309C75.8822 20.9811 76.3636 22.1501 76.3636 23.538C76.3636 24.9258 75.8822 26.1011 74.9195 27.0638ZM69.5745 25.3946C70.0621 25.8823 70.6685 26.1261 71.3937 26.1261C72.1188 26.1261 72.7252 25.8823 73.2129 25.3946C73.7005 24.907 73.9443 24.2881 73.9443 23.538C73.9443 22.7878 73.7005 22.1689 73.2129 21.6813C72.7252 21.1937 72.1188 20.9499 71.3937 20.9499C70.6685 20.9499 70.0621 21.1937 69.5745 21.6813C69.0994 22.1689 68.8618 22.7878 68.8618 23.538C68.8618 24.2881 69.0994 24.907 69.5745 25.3946ZM85.2485 18.8494H87.6116V27.7765C87.6116 29.2268 87.1302 30.3333 86.1675 31.096C85.2172 31.8587 84.067 32.24 82.7167 32.24C81.7039 32.24 80.81 32.0462 80.0348 31.6586C79.2721 31.271 78.6845 30.7021 78.2719 29.952L80.3348 28.7704C80.81 29.6456 81.6289 30.0832 82.7917 30.0832C83.5543 30.0832 84.1545 29.8832 84.5921 29.4831C85.0297 29.083 85.2485 28.5141 85.2485 27.7765V26.7637C84.5358 27.7139 83.5356 28.1891 82.2478 28.1891C80.9225 28.1891 79.8097 27.7264 78.9095 26.8012C78.0218 25.8635 77.5779 24.7257 77.5779 23.3879C77.5779 22.0626 78.0281 20.9311 78.9283 19.9934C79.8285 19.0557 80.935 18.5868 82.2478 18.5868C83.5356 18.5868 84.5358 19.0619 85.2485 20.0121V18.8494ZM80.7287 25.2446C81.2288 25.7197 81.8602 25.9573 82.6229 25.9573C83.3856 25.9573 84.0107 25.7197 84.4983 25.2446C84.9984 24.757 85.2485 24.1381 85.2485 23.3879C85.2485 22.6503 84.9984 22.0439 84.4983 21.5687C84.0107 21.0811 83.3856 20.8373 82.6229 20.8373C81.8602 20.8373 81.2288 21.0811 80.7287 21.5687C80.2411 22.0439 79.9973 22.6503 79.9973 23.3879C79.9973 24.1381 80.2411 24.757 80.7287 25.2446ZM92.2247 20.4622C92.4497 19.8621 92.8186 19.412 93.3312 19.1119C93.8563 18.8118 94.4377 18.6618 95.0754 18.6618V21.3624C94.3377 21.2749 93.675 21.425 93.0874 21.8126C92.5123 22.2001 92.2247 22.844 92.2247 23.7443V28.2266H89.8054V18.8494H92.2247V20.4622ZM103.269 18.8494H105.688V28.2266H103.269V27.1201C102.544 28.0328 101.525 28.4891 100.212 28.4891C98.9617 28.4891 97.8865 28.014 96.9863 27.0638C96.0986 26.1011 95.6547 24.9258 95.6547 23.538C95.6547 22.1501 96.0986 20.9811 96.9863 20.0309C97.8865 19.0682 98.9617 18.5868 100.212 18.5868C101.525 18.5868 102.544 19.0432 103.269 19.9559V18.8494ZM98.8054 25.4509C99.2931 25.9385 99.912 26.1823 100.662 26.1823C101.412 26.1823 102.031 25.9385 102.519 25.4509C103.019 24.9508 103.269 24.3131 103.269 23.538C103.269 22.7628 103.019 22.1314 102.519 21.6438C102.031 21.1436 101.412 20.8936 100.662 20.8936C99.912 20.8936 99.2931 21.1436 98.8054 21.6438C98.3178 22.1314 98.074 22.7628 98.074 23.538C98.074 24.3131 98.3178 24.9508 98.8054 25.4509ZM118.253 18.5868C119.329 18.5868 120.185 18.9369 120.823 19.637C121.473 20.3372 121.798 21.2749 121.798 22.4502V28.2266H119.379V22.619C119.379 22.0564 119.241 21.6188 118.966 21.3062C118.691 20.9936 118.303 20.8373 117.803 20.8373C117.253 20.8373 116.822 21.0186 116.509 21.3812C116.209 21.7438 116.059 22.2689 116.059 22.9566V28.2266H113.64V22.619C113.64 22.0564 113.502 21.6188 113.227 21.3062C112.952 20.9936 112.564 20.8373 112.064 20.8373C111.527 20.8373 111.095 21.0186 110.77 21.3812C110.458 21.7438 110.301 22.2689 110.301 22.9566V28.2266H107.882V18.8494H110.301V19.8433C110.864 19.0056 111.733 18.5868 112.908 18.5868C114.059 18.5868 114.909 19.0369 115.459 19.9371C116.084 19.0369 117.016 18.5868 118.253 18.5868ZM134.224 18.5868C135.299 18.5868 136.156 18.9369 136.793 19.637C137.443 20.3372 137.768 21.2749 137.768 22.4502V28.2266H135.349V22.619C135.349 22.0564 135.212 21.6188 134.937 21.3062C134.661 20.9936 134.274 20.8373 133.774 20.8373C133.224 20.8373 132.792 21.0186 132.48 21.3812C132.18 21.7438 132.03 22.2689 132.03 22.9566V28.2266H129.61V22.619C129.61 22.0564 129.473 21.6188 129.198 21.3062C128.923 20.9936 128.535 20.8373 128.035 20.8373C127.497 20.8373 127.066 21.0186 126.741 21.3812C126.428 21.7438 126.272 22.2689 126.272 22.9566V28.2266H123.853V18.8494H126.272V19.8433C126.835 19.0056 127.704 18.5868 128.879 18.5868C130.029 18.5868 130.879 19.0369 131.429 19.9371C132.055 19.0369 132.986 18.5868 134.224 18.5868ZM141.024 17.7241C140.623 17.7241 140.273 17.5803 139.973 17.2927C139.686 16.9927 139.542 16.6426 139.542 16.2425C139.542 15.8424 139.686 15.4923 139.973 15.1922C140.273 14.8922 140.623 14.7421 141.024 14.7421C141.436 14.7421 141.786 14.8922 142.074 15.1922C142.374 15.4923 142.524 15.8424 142.524 16.2425C142.524 16.6426 142.374 16.9927 142.074 17.2927C141.786 17.5803 141.436 17.7241 141.024 17.7241ZM139.823 28.2266V18.8494H142.243V28.2266H139.823ZM149.671 18.5868C150.696 18.5868 151.54 18.9306 152.202 19.6183C152.878 20.306 153.215 21.2562 153.215 22.469V28.2266H150.796V22.769C150.796 22.1439 150.627 21.6688 150.29 21.3437C149.952 21.0061 149.502 20.8373 148.939 20.8373C148.314 20.8373 147.814 21.0311 147.439 21.4187C147.064 21.8063 146.876 22.3877 146.876 23.1629V28.2266H144.457V18.8494H146.876V19.8996C147.464 19.0244 148.395 18.5868 149.671 18.5868ZM162.464 18.8494H164.827V27.7765C164.827 29.2268 164.346 30.3333 163.383 31.096C162.433 31.8587 161.282 32.24 159.932 32.24C158.919 32.24 158.025 32.0462 157.25 31.6586C156.487 31.271 155.9 30.7021 155.487 29.952L157.55 28.7704C158.025 29.6456 158.844 30.0832 160.007 30.0832C160.77 30.0832 161.37 29.8832 161.807 29.4831C162.245 29.083 162.464 28.5141 162.464 27.7765V26.7637C161.751 27.7139 160.751 28.1891 159.463 28.1891C158.138 28.1891 157.025 27.7264 156.125 26.8012C155.237 25.8635 154.793 24.7257 154.793 23.3879C154.793 22.0626 155.243 20.9311 156.144 19.9934C157.044 19.0557 158.15 18.5868 159.463 18.5868C160.751 18.5868 161.751 19.0619 162.464 20.0121V18.8494ZM157.944 25.2446C158.444 25.7197 159.076 25.9573 159.838 25.9573C160.601 25.9573 161.226 25.7197 161.714 25.2446C162.214 24.757 162.464 24.1381 162.464 23.3879C162.464 22.6503 162.214 22.0439 161.714 21.5687C161.226 21.0811 160.601 20.8373 159.838 20.8373C159.076 20.8373 158.444 21.0811 157.944 21.5687C157.456 22.0439 157.213 22.6503 157.213 23.3879C157.213 24.1381 157.456 24.757 157.944 25.2446ZM176.717 15.0985C177.98 15.0985 179.042 15.5236 179.905 16.3738C180.768 17.224 181.199 18.268 181.199 19.5058C181.199 20.7436 180.768 21.7875 179.905 22.6377C179.042 23.4879 177.98 23.913 176.717 23.913H174.41V28.2266H171.822V15.0985H176.717ZM176.717 21.4937C177.267 21.4937 177.723 21.3062 178.086 20.9311C178.448 20.5435 178.63 20.0684 178.63 19.5058C178.63 18.9306 178.448 18.4555 178.086 18.0804C177.723 17.7053 177.267 17.5178 176.717 17.5178H174.41V21.4937H176.717ZM189.276 18.8494H191.695V28.2266H189.276V27.1201C188.55 28.0328 187.531 28.4891 186.219 28.4891C184.968 28.4891 183.893 28.014 182.993 27.0638C182.105 26.1011 181.661 24.9258 181.661 23.538C181.661 22.1501 182.105 20.9811 182.993 20.0309C183.893 19.0682 184.968 18.5868 186.219 18.5868C187.531 18.5868 188.55 19.0432 189.276 19.9559V18.8494ZM184.812 25.4509C185.3 25.9385 185.918 26.1823 186.669 26.1823C187.419 26.1823 188.038 25.9385 188.525 25.4509C189.025 24.9508 189.276 24.3131 189.276 23.538C189.276 22.7628 189.025 22.1314 188.525 21.6438C188.038 21.1436 187.419 20.8936 186.669 20.8936C185.918 20.8936 185.3 21.1436 184.812 21.6438C184.324 22.1314 184.081 22.7628 184.081 23.538C184.081 24.3131 184.324 24.9508 184.812 25.4509ZM199.252 21.1749H197.133V25.0758C197.133 25.4009 197.214 25.6385 197.377 25.7885C197.54 25.9385 197.777 26.026 198.09 26.0511C198.402 26.0636 198.79 26.0573 199.252 26.0323V28.2266C197.59 28.4141 196.414 28.2578 195.727 27.7577C195.051 27.2576 194.714 26.3636 194.714 25.0758V21.1749H193.082V18.8494H194.714V16.9552L197.133 16.2237V18.8494H199.252V21.1749ZM206.172 18.5868C207.197 18.5868 208.041 18.9306 208.704 19.6183C209.379 20.306 209.717 21.2562 209.717 22.469V28.2266H207.297V22.769C207.297 22.1439 207.128 21.6688 206.791 21.3437C206.453 21.0061 206.003 20.8373 205.44 20.8373C204.815 20.8373 204.315 21.0311 203.94 21.4187C203.565 21.8063 203.378 22.3877 203.378 23.1629V28.2266H200.958V15.0985H203.378V19.8996C203.965 19.0244 204.897 18.5868 206.172 18.5868ZM214.014 21.5125C214.014 21.7625 214.177 21.9688 214.502 22.1314C214.839 22.2814 215.246 22.4189 215.721 22.544C216.196 22.6565 216.671 22.8065 217.146 22.9941C217.621 23.1691 218.021 23.4692 218.346 23.8943C218.684 24.3194 218.853 24.8508 218.853 25.4884C218.853 26.4511 218.49 27.1951 217.765 27.7202C217.052 28.2328 216.158 28.4891 215.083 28.4891C213.158 28.4891 211.845 27.7452 211.145 26.2573L213.245 25.0758C213.52 25.8885 214.133 26.2949 215.083 26.2949C215.946 26.2949 216.377 26.026 216.377 25.4884C216.377 25.2384 216.208 25.0383 215.871 24.8883C215.546 24.7257 215.146 24.582 214.67 24.4569C214.195 24.3319 213.72 24.1756 213.245 23.9881C212.77 23.8005 212.364 23.5067 212.026 23.1066C211.701 22.694 211.538 22.1814 211.538 21.5687C211.538 20.6435 211.876 19.9184 212.551 19.3932C213.239 18.8556 214.089 18.5868 215.102 18.5868C215.864 18.5868 216.558 18.7618 217.184 19.1119C217.809 19.4495 218.303 19.9371 218.665 20.5748L216.602 21.7C216.302 21.0624 215.802 20.7436 215.102 20.7436C214.789 20.7436 214.527 20.8123 214.314 20.9499C214.114 21.0874 214.014 21.2749 214.014 21.5125ZM225.622 18.5868C226.648 18.5868 227.491 18.9306 228.154 19.6183C228.829 20.306 229.167 21.2562 229.167 22.469V28.2266H226.748V22.769C226.748 22.1439 226.579 21.6688 226.241 21.3437C225.904 21.0061 225.454 20.8373 224.891 20.8373C224.266 20.8373 223.766 21.0311 223.391 21.4187C223.015 21.8063 222.828 22.3877 222.828 23.1629V28.2266H220.409V15.0985H222.828V19.8996C223.416 19.0244 224.347 18.5868 225.622 18.5868ZM238.359 18.8494H240.779V28.2266H238.359V27.1201C237.634 28.0328 236.615 28.4891 235.302 28.4891C234.052 28.4891 232.977 28.014 232.077 27.0638C231.189 26.1011 230.745 24.9258 230.745 23.538C230.745 22.1501 231.189 20.9811 232.077 20.0309C232.977 19.0682 234.052 18.5868 235.302 18.5868C236.615 18.5868 237.634 19.0432 238.359 19.9559V18.8494ZM233.896 25.4509C234.383 25.9385 235.002 26.1823 235.752 26.1823C236.503 26.1823 237.122 25.9385 237.609 25.4509C238.109 24.9508 238.359 24.3131 238.359 23.538C238.359 22.7628 238.109 22.1314 237.609 21.6438C237.122 21.1436 236.503 20.8936 235.752 20.8936C235.002 20.8936 234.383 21.1436 233.896 21.6438C233.408 22.1314 233.164 22.7628 233.164 23.538C233.164 24.3131 233.408 24.9508 233.896 25.4509ZM242.972 28.2266V14.5358H245.392V28.2266H242.972ZM254.733 18.8494H257.152V28.2266H254.733V27.1201C254.008 28.0328 252.989 28.4891 251.676 28.4891C250.426 28.4891 249.35 28.014 248.45 27.0638C247.562 26.1011 247.118 24.9258 247.118 23.538C247.118 22.1501 247.562 20.9811 248.45 20.0309C249.35 19.0682 250.426 18.5868 251.676 18.5868C252.989 18.5868 254.008 19.0432 254.733 19.9559V18.8494ZM250.269 25.4509C250.757 25.9385 251.376 26.1823 252.126 26.1823C252.876 26.1823 253.495 25.9385 253.983 25.4509C254.483 24.9508 254.733 24.3131 254.733 23.538C254.733 22.7628 254.483 22.1314 253.983 21.6438C253.495 21.1436 252.876 20.8936 252.126 20.8936C251.376 20.8936 250.757 21.1436 250.269 21.6438C249.782 22.1314 249.538 22.7628 249.538 23.538C249.538 24.3131 249.782 24.9508 250.269 25.4509Z" fill="#3940A0"/>
</svg>
