<svg width="40" height="40" viewBox="0 0 40 40" fill="none" xmlns="http://www.w3.org/2000/svg">
<rect width="40" height="40" rx="4" fill="#4659CA"/>
<g clip-path="url(#clip0_164_1277)">
<path d="M19.8976 8.00684C13.8202 8.00684 14.1996 10.653 14.1996 10.653L14.2064 13.3944H20.0059V14.2175H11.9029C11.9029 14.2175 8.01392 13.7746 8.01392 19.9314C8.01392 26.0882 11.4083 25.8699 11.4083 25.8699H13.434V23.0129C13.434 23.0129 13.3248 19.6049 16.7742 19.6049H22.5264C22.5264 19.6049 25.7581 19.6573 25.7581 16.469V11.1972C25.7581 11.1972 26.2489 8.00684 19.8976 8.00684ZM16.6997 9.85041C16.8367 9.85029 16.9725 9.8773 17.0991 9.9299C17.2257 9.9825 17.3408 10.0597 17.4377 10.157C17.5346 10.2542 17.6115 10.3698 17.6639 10.4969C17.7163 10.6241 17.7432 10.7603 17.743 10.8979C17.7432 11.0355 17.7163 11.1718 17.6639 11.299C17.6115 11.4261 17.5346 11.5416 17.4377 11.6389C17.3408 11.7362 17.2257 11.8134 17.0991 11.866C16.9725 11.9186 16.8367 11.9456 16.6997 11.9455C16.5626 11.9456 16.4269 11.9186 16.3003 11.866C16.1736 11.8134 16.0586 11.7362 15.9617 11.6389C15.8648 11.5416 15.7879 11.4261 15.7355 11.299C15.6831 11.1718 15.6562 11.0355 15.6564 10.8979C15.6562 10.7603 15.6831 10.6241 15.7355 10.4969C15.7879 10.3698 15.8648 10.2542 15.9617 10.157C16.0586 10.0597 16.1736 9.9825 16.3003 9.9299C16.4269 9.8773 16.5626 9.85029 16.6997 9.85041Z" fill="#F8FAFC"/>
<path d="M20.0715 31.9177C26.149 31.9177 25.7695 29.2716 25.7695 29.2716L25.7628 26.5302H19.9631V25.7072H28.0662C28.0662 25.7072 31.9551 26.15 31.9551 19.9931C31.9551 13.8363 28.5607 14.0547 28.5607 14.0547H26.535V16.9116C26.535 16.9116 26.6442 20.3196 23.1948 20.3196H17.4427C17.4427 20.3196 14.2109 20.2672 14.2109 23.4556V28.7274C14.2109 28.7274 13.7202 31.9177 20.0715 31.9177H20.0715ZM23.2694 30.0743C23.1324 30.0745 22.9967 30.0475 22.87 29.9949C22.7434 29.9423 22.6283 29.8651 22.5314 29.7678C22.4345 29.6705 22.3576 29.555 22.3053 29.4278C22.2529 29.3007 22.226 29.1644 22.2261 29.0268C22.226 28.8892 22.2528 28.7529 22.3052 28.6258C22.3576 28.4986 22.4345 28.3831 22.5314 28.2858C22.6283 28.1884 22.7433 28.1113 22.87 28.0587C22.9966 28.0061 23.1324 27.9791 23.2694 27.9792C23.4065 27.9791 23.5422 28.0061 23.6688 28.0587C23.7955 28.1113 23.9106 28.1884 24.0075 28.2857C24.1044 28.383 24.1812 28.4985 24.2336 28.6257C24.286 28.7528 24.3129 28.8891 24.3128 29.0267C24.3129 29.1643 24.286 29.3006 24.2336 29.4277C24.1812 29.5549 24.1044 29.6704 24.0075 29.7677C23.9106 29.865 23.7955 29.9422 23.6688 29.9948C23.5422 30.0474 23.4065 30.0745 23.2694 30.0743Z" fill="#F8FAFC"/>
</g>
<defs>
<clipPath id="clip0_164_1277">
<rect width="24" height="24" fill="white" transform="translate(8 8)"/>
</clipPath>
</defs>
</svg>
