<svg width="326" height="240" viewBox="0 0 326 240" fill="none" xmlns="http://www.w3.org/2000/svg">
<g clip-path="url(#clip0_225_4596)">
<path d="M280.195 114.611C278.592 110.465 277.252 106.2 276.057 101.884C264.421 59.8767 266.522 13.109 175.347 24.8801C172.263 25.2791 169.07 25.7452 165.769 26.2785C165.769 26.2785 108.763 18.1796 88.5474 53.2179C77.1058 73.0445 61.9512 87.1703 51.1907 103.025C50.3166 104.313 49.4733 105.614 48.6609 106.93C41.8059 118.03 37.3237 130.23 37.8386 145.925C39.1644 186.359 98.8275 221.159 171.408 220.165C194.028 219.855 215.597 214.669 233.889 206.271C274.298 187.727 298.725 153.519 283.212 121.58C282.107 119.305 281.107 116.977 280.195 114.611Z" fill="#FCFCD4"/>
<path d="M280.195 114.611C279.614 115.078 279.041 115.555 278.475 116.04C262.684 129.58 251.886 149.194 233.415 158.762C222.579 164.372 210.105 165.917 197.91 166.29C183.9 166.717 169.652 165.678 156.445 160.984C132.226 152.376 113.851 132.489 91.2879 120.18C78.1401 113.006 63.5539 108.521 48.6636 106.922C41.8059 118.03 37.3237 130.229 37.8386 145.925C39.1644 186.359 98.8275 221.159 171.408 220.165C194.028 219.855 215.597 214.669 233.889 206.271C274.298 187.727 298.725 153.518 283.212 121.58C282.107 119.305 281.107 116.977 280.195 114.611Z" fill="#E5E6A6"/>
<path d="M163.697 226.015C232.493 226.015 288.263 222.703 288.263 218.618C288.263 214.533 232.493 211.221 163.697 211.221C94.9016 211.221 39.1317 214.533 39.1317 218.618C39.1317 222.703 94.9016 226.015 163.697 226.015Z" fill="#9AA163"/>
<path d="M75.8854 89.9888C75.8854 89.9888 69.6897 101.449 66.0947 107.942C58.1619 122.266 55.2416 133.809 59.9916 146.96C59.9916 146.96 59.1889 153.721 59.208 154.025C59.227 154.329 65.3147 161.778 65.3147 161.778L76.4938 156.669L77.1821 145.319C77.1821 145.319 81.8895 128.61 79.5893 115.058C77.2892 101.505 75.7219 92.8492 75.8854 89.9888Z" fill="#8C8226"/>
<path d="M67.8318 164.254C67.8318 164.254 74.2545 128.357 74.2264 106.871C74.2264 106.871 69.6407 144.87 62.4606 161.78L67.8318 164.254Z" fill="#685E16"/>
<path d="M72.5165 163.451C72.5165 163.451 62.6913 136.736 38.8139 129.869C31.0799 127.644 21.8749 127.508 11.0527 131.029C11.0527 131.029 24.3557 127.335 31.7156 141.745C31.9849 142.267 32.2459 142.815 32.4983 143.39C39.6574 159.72 49.0513 168.826 55.0518 171.177C58.694 172.599 63.1934 176.262 66.17 178.926C68.0988 180.651 69.3864 181.959 69.3864 181.959L72.5891 181.43L72.5528 171.972L72.5165 163.451Z" fill="#9AA163"/>
<path d="M30.4025 131.258C30.8311 131.416 44.501 136.678 66.1655 178.922C68.0942 180.648 69.3818 181.955 69.3818 181.955L72.5891 181.43L72.5527 171.972C67.1298 162.089 51.1108 136.083 30.4025 131.258Z" fill="#848943"/>
<path d="M84.0307 128.915H84.0252C63.9108 141.305 61.7351 168.283 61.7351 168.283L63.879 176.093L66.2627 184.766L69.3355 184.43C69.3355 184.43 70.1818 182.907 71.5067 180.83C73.5535 177.633 76.7371 173.125 79.7101 170.891C84.6073 167.209 90.8847 156.468 93.2692 139.681C93.3546 139.09 93.4509 138.522 93.5662 137.974C96.6254 122.901 109.755 122.881 109.755 122.881C98.9374 122.422 90.5414 124.902 84.0307 128.915Z" fill="#9AA163"/>
<path d="M63.8717 176.097L66.2554 184.77L69.3283 184.434C69.3283 184.434 70.1746 182.911 71.4994 180.835C80.5491 136.607 91.7255 128.293 92.0779 128.039C74.3462 137.753 66.3162 165.658 63.8717 176.097Z" fill="#848943"/>
<path d="M26.9782 152.791C58.19 160.207 67.3169 178.713 67.3169 178.713C56.8025 156.98 26.9782 152.791 26.9782 152.791Z" fill="#364547"/>
<path d="M30.7503 148.456C30.7017 148.42 30.6435 148.399 30.583 148.396C30.5226 148.393 30.4626 148.409 30.411 148.44C30.3593 148.472 30.3183 148.518 30.2931 148.573C30.268 148.628 30.2599 148.69 30.2699 148.749C30.7303 151.473 31.9589 152.173 32.5319 152.35C32.5727 152.362 32.6157 152.366 32.6581 152.361C32.7004 152.355 32.7412 152.341 32.7776 152.319C32.8141 152.297 32.8454 152.267 32.8696 152.232C32.8938 152.196 32.9102 152.157 32.9178 152.115C33.0222 151.524 32.965 150.114 30.7503 148.456Z" fill="#364547"/>
<path d="M34.2137 149.357C34.1681 149.317 34.1116 149.291 34.0514 149.284C33.9913 149.276 33.9302 149.287 33.8762 149.314C33.8221 149.342 33.7775 149.385 33.7482 149.438C33.7188 149.491 33.706 149.552 33.7115 149.612C33.9576 152.367 35.1272 153.153 35.6838 153.379C35.7236 153.394 35.7662 153.401 35.8089 153.399C35.8516 153.397 35.8934 153.386 35.9315 153.367C35.9696 153.347 36.0032 153.32 36.03 153.287C36.0568 153.253 36.0762 153.215 36.087 153.173C36.2377 152.594 36.2922 151.183 34.2137 149.357Z" fill="#364547"/>
<path d="M37.6225 151.048C37.4299 153.51 38.3435 154.379 38.8029 154.657C38.8357 154.676 38.8721 154.689 38.9098 154.693C38.9475 154.697 38.9857 154.694 39.022 154.682C39.0582 154.671 39.0917 154.652 39.1203 154.627C39.1489 154.602 39.1719 154.572 39.188 154.537C39.4068 154.049 39.6638 152.812 38.1046 150.898C38.0703 150.856 38.0242 150.825 37.9722 150.81C37.9203 150.794 37.8649 150.794 37.8131 150.81C37.7613 150.826 37.7155 150.858 37.6815 150.9C37.6476 150.942 37.627 150.994 37.6225 151.048Z" fill="#364547"/>
<path d="M41.2148 152.198C40.5392 154.575 41.262 155.607 41.6561 155.97C41.6844 155.996 41.7177 156.015 41.7539 156.026C41.79 156.038 41.8282 156.042 41.866 156.038C41.9038 156.034 41.9404 156.023 41.9734 156.004C42.0063 155.985 42.035 155.959 42.0575 155.928C42.3689 155.493 42.8647 154.333 41.7151 152.146C41.6894 152.099 41.6503 152.06 41.6028 152.035C41.5552 152.01 41.5012 152 41.4477 152.005C41.3942 152.011 41.3435 152.032 41.302 152.067C41.2606 152.101 41.2302 152.147 41.2148 152.198Z" fill="#364547"/>
<path d="M44.6772 153.635C43.7056 155.747 44.2286 156.813 44.5419 157.205C44.5643 157.233 44.5924 157.256 44.6244 157.273C44.6564 157.289 44.6915 157.299 44.7274 157.3C44.7633 157.302 44.7991 157.296 44.8326 157.283C44.8661 157.27 44.8964 157.25 44.9215 157.224C45.2738 156.861 45.9022 155.862 45.1494 153.658C45.133 153.61 45.1025 153.568 45.0618 153.537C45.0212 153.506 44.9722 153.489 44.9213 153.486C44.8704 153.483 44.8199 153.496 44.7764 153.523C44.7329 153.549 44.6983 153.588 44.6772 153.635Z" fill="#364547"/>
<path d="M48.8969 154.634C46.9818 155.952 46.8865 157.134 46.9546 157.631C46.9594 157.667 46.9718 157.701 46.9908 157.731C47.0099 157.762 47.0352 157.788 47.0651 157.808C47.095 157.828 47.1287 157.841 47.1642 157.847C47.1996 157.853 47.2359 157.851 47.2706 157.842C47.7573 157.712 48.8143 157.17 49.291 154.894C49.3007 154.845 49.2954 154.793 49.2758 154.747C49.2562 154.7 49.2232 154.66 49.181 154.632C49.1388 154.604 49.0892 154.59 49.0386 154.59C48.988 154.591 48.9387 154.606 48.8969 154.634Z" fill="#364547"/>
<path d="M30.7957 155.062C30.2327 154.853 28.8334 154.654 26.8002 156.537C26.7558 156.578 26.7248 156.632 26.7112 156.691C26.6976 156.75 26.7019 156.812 26.7237 156.869C26.7455 156.925 26.7837 156.974 26.8334 157.009C26.8831 157.043 26.9421 157.063 27.0027 157.064C29.7714 157.101 30.6785 156.017 30.9555 155.484C30.9754 155.447 30.987 155.405 30.9896 155.362C30.9922 155.32 30.9858 155.277 30.9707 155.237C30.9555 155.197 30.9321 155.161 30.902 155.131C30.8718 155.101 30.8356 155.077 30.7957 155.062Z" fill="#364547"/>
<path d="M33.9249 156.172C33.3474 156.007 31.9371 155.919 30.0593 157.955C30.0181 158 29.9912 158.056 29.9821 158.116C29.973 158.176 29.9821 158.237 30.0082 158.292C30.0343 158.346 30.0762 158.392 30.1286 158.423C30.1809 158.453 30.2412 158.468 30.3017 158.464C33.0659 158.282 33.884 157.133 34.1156 156.58C34.1323 156.541 34.1407 156.499 34.14 156.457C34.1393 156.414 34.1296 156.372 34.1116 156.333C34.0936 156.295 34.0677 156.261 34.0355 156.233C34.0033 156.205 33.9656 156.184 33.9249 156.172Z" fill="#364547"/>
<path d="M37.1748 157.061C36.6417 157.002 35.3868 157.134 34.0347 159.205C34.0057 159.25 33.9908 159.304 33.992 159.358C33.9932 159.412 34.0104 159.464 34.0415 159.508C34.0725 159.552 34.116 159.586 34.1663 159.606C34.2167 159.625 34.2717 159.629 34.3244 159.617C36.7316 159.05 37.2819 157.914 37.4118 157.392C37.4203 157.355 37.4208 157.316 37.4132 157.278C37.4057 157.241 37.3902 157.205 37.3678 157.173C37.3454 157.142 37.3166 157.116 37.2833 157.097C37.2501 157.077 37.2131 157.065 37.1748 157.061Z" fill="#364547"/>
<path d="M40.2449 157.764C39.711 157.811 38.506 158.189 37.5906 160.488C37.5715 160.538 37.5676 160.593 37.5794 160.645C37.5912 160.697 37.6182 160.745 37.657 160.782C37.6958 160.819 37.7447 160.844 37.7975 160.853C37.8503 160.862 37.9047 160.856 37.9539 160.835C40.2013 159.802 40.5164 158.579 40.5364 158.044C40.5376 158.006 40.5308 157.968 40.5165 157.933C40.5021 157.897 40.4805 157.866 40.453 157.839C40.4256 157.813 40.3928 157.792 40.357 157.779C40.3211 157.766 40.2829 157.761 40.2449 157.764Z" fill="#364547"/>
<path d="M42.7975 159.126C42.3027 159.332 41.2684 160.056 41.0913 162.523C41.0877 162.577 41.1003 162.631 41.1275 162.678C41.1547 162.725 41.1953 162.762 41.244 162.786C41.2928 162.81 41.3475 162.818 41.4012 162.811C41.4548 162.803 41.505 162.78 41.5453 162.743C43.3751 161.079 43.3052 159.819 43.1617 159.302C43.151 159.265 43.1328 159.231 43.1082 159.202C43.0835 159.173 43.0531 159.149 43.0188 159.133C42.9845 159.116 42.947 159.107 42.9089 159.106C42.8708 159.105 42.8329 159.111 42.7975 159.126Z" fill="#364547"/>
<path d="M45.9121 160.369C45.439 160.62 44.4783 161.439 44.5346 163.91C44.5364 163.964 44.5541 164.016 44.5857 164.06C44.6172 164.104 44.661 164.138 44.7116 164.157C44.7623 164.176 44.8173 164.179 44.8699 164.166C44.9224 164.154 44.9701 164.126 45.0068 164.086C46.6703 162.257 46.4824 161.009 46.2908 160.508C46.2765 160.473 46.255 160.441 46.2277 160.414C46.2004 160.388 46.1679 160.368 46.1322 160.355C46.0965 160.341 46.0585 160.336 46.0206 160.338C45.9827 160.341 45.9458 160.351 45.9121 160.369Z" fill="#364547"/>
<path d="M70.319 179.809C70.319 179.809 72.9878 153.615 107.005 130.844C107.005 130.844 73.212 149.138 70.319 179.809Z" fill="#364547"/>
<path d="M100.564 127.342C98.6567 130.31 99.2152 132.022 99.6029 132.681C99.6306 132.728 99.668 132.769 99.7124 132.8C99.7569 132.831 99.8076 132.853 99.8611 132.863C99.9145 132.874 99.9696 132.873 100.023 132.86C100.076 132.848 100.125 132.824 100.169 132.791C100.774 132.323 101.934 130.945 101.269 127.478C101.255 127.402 101.218 127.332 101.163 127.277C101.108 127.223 101.039 127.185 100.963 127.171C100.887 127.156 100.808 127.165 100.737 127.195C100.666 127.226 100.605 127.277 100.564 127.342Z" fill="#364547"/>
<path d="M96.8243 129.962C95.1534 133.071 95.8463 134.733 96.2849 135.36C96.3162 135.405 96.3567 135.442 96.4036 135.47C96.4504 135.498 96.5027 135.515 96.5569 135.521C96.611 135.527 96.6659 135.522 96.7178 135.505C96.7697 135.488 96.8174 135.461 96.8579 135.424C97.4245 134.911 98.4724 133.447 97.538 130.042C97.5175 129.968 97.4752 129.901 97.4165 129.851C97.3578 129.801 97.2853 129.769 97.2085 129.76C97.1317 129.752 97.054 129.766 96.9855 129.802C96.917 129.838 96.8609 129.893 96.8243 129.962Z" fill="#364547"/>
<path d="M92.8606 133.536C91.8508 136.521 92.7071 137.884 93.1866 138.37C93.2208 138.405 93.2619 138.432 93.3073 138.449C93.3527 138.467 93.4013 138.475 93.4499 138.472C93.4985 138.469 93.546 138.456 93.5892 138.434C93.6325 138.412 93.6704 138.38 93.7006 138.342C94.1246 137.806 94.8293 136.361 93.5017 133.501C93.4725 133.439 93.4253 133.386 93.3661 133.351C93.3069 133.315 93.2384 133.298 93.1695 133.302C93.1006 133.306 93.0343 133.33 92.9793 133.371C92.9242 133.413 92.8829 133.47 92.8606 133.536Z" fill="#364547"/>
<path d="M89.0985 136.639C88.6981 139.765 89.8068 140.93 90.3698 141.313C90.4102 141.34 90.4559 141.359 90.5038 141.367C90.5518 141.375 90.601 141.373 90.6481 141.361C90.6952 141.349 90.7392 141.327 90.7771 141.296C90.8151 141.266 90.8462 141.228 90.8683 141.184C91.1771 140.575 91.5821 139.018 89.716 136.478C89.6749 136.423 89.6185 136.382 89.5539 136.36C89.4894 136.337 89.4196 136.334 89.3535 136.351C89.2873 136.369 89.2278 136.405 89.1824 136.456C89.137 136.507 89.1078 136.571 89.0985 136.639Z" fill="#364547"/>
<path d="M85.6652 139.977C85.7451 142.941 86.9446 143.865 87.5258 144.138C87.5673 144.158 87.6125 144.168 87.6583 144.169C87.7042 144.17 87.7497 144.161 87.7918 144.143C87.834 144.125 87.8718 144.098 87.9028 144.064C87.9338 144.03 87.9572 143.99 87.9716 143.947C88.1705 143.335 88.3221 141.829 86.2191 139.737C86.173 139.691 86.1142 139.66 86.0504 139.648C85.9866 139.636 85.9206 139.643 85.861 139.669C85.8014 139.695 85.7509 139.738 85.716 139.793C85.6811 139.848 85.6634 139.912 85.6652 139.977Z" fill="#364547"/>
<path d="M81.6188 142.813C81.5559 142.798 81.4896 142.801 81.4287 142.823C81.3677 142.845 81.3147 142.885 81.2766 142.938C81.2385 142.99 81.217 143.053 81.2149 143.118C81.2128 143.183 81.2301 143.247 81.2647 143.302C82.8502 145.809 84.3521 145.988 84.9932 145.926C85.0388 145.922 85.0829 145.908 85.1227 145.885C85.1624 145.862 85.1968 145.831 85.2237 145.794C85.2506 145.757 85.2693 145.715 85.2785 145.67C85.2878 145.625 85.2874 145.579 85.2774 145.534C85.1367 144.906 84.4956 143.535 81.6188 142.813Z" fill="#364547"/>
<path d="M108.884 135.245C105.615 133.899 104.032 134.76 103.453 135.26C103.412 135.296 103.379 135.34 103.356 135.39C103.333 135.439 103.321 135.493 103.32 135.548C103.32 135.602 103.331 135.656 103.353 135.706C103.375 135.756 103.407 135.801 103.448 135.838C104.016 136.351 105.583 137.243 108.877 135.965C108.949 135.937 109.011 135.888 109.056 135.824C109.1 135.76 109.124 135.685 109.124 135.607C109.125 135.53 109.103 135.454 109.06 135.389C109.017 135.324 108.956 135.274 108.884 135.245Z" fill="#364547"/>
<path d="M105.622 138.388C102.471 136.791 100.823 137.525 100.206 137.979C100.162 138.011 100.125 138.053 100.099 138.1C100.072 138.148 100.056 138.2 100.051 138.255C100.046 138.309 100.053 138.364 100.071 138.415C100.089 138.467 100.118 138.514 100.155 138.554C100.682 139.109 102.175 140.122 105.558 139.105C105.632 139.083 105.698 139.039 105.747 138.979C105.795 138.919 105.825 138.845 105.832 138.768C105.839 138.691 105.823 138.614 105.785 138.546C105.748 138.479 105.691 138.424 105.622 138.388Z" fill="#364547"/>
<path d="M101.421 141.657C98.8783 139.783 97.3228 140.185 96.7117 140.493C96.6682 140.515 96.6298 140.546 96.5992 140.584C96.5686 140.622 96.5464 140.666 96.5342 140.713C96.5219 140.76 96.5198 140.81 96.528 140.858C96.5362 140.906 96.5546 140.951 96.5818 140.992C96.9632 141.559 98.1255 142.673 101.259 142.279C101.328 142.271 101.392 142.242 101.444 142.196C101.496 142.15 101.533 142.09 101.551 142.023C101.568 141.956 101.565 141.886 101.542 141.82C101.519 141.755 101.477 141.698 101.421 141.657Z" fill="#364547"/>
<path d="M93.3582 142.7C93.3112 142.713 93.2675 142.735 93.2299 142.767C93.1924 142.798 93.1619 142.836 93.1405 142.88C93.1191 142.924 93.1073 142.972 93.1059 143.021C93.1044 143.069 93.1134 143.118 93.1321 143.163C93.3937 143.799 94.3126 145.116 97.4618 145.35C97.5306 145.355 97.5994 145.339 97.6593 145.305C97.7192 145.27 97.7675 145.219 97.7978 145.157C97.8282 145.095 97.8393 145.025 97.8298 144.957C97.8202 144.888 97.7904 144.824 97.7442 144.773C95.6257 142.433 94.0193 142.518 93.3582 142.7Z" fill="#364547"/>
<path d="M90.9128 145.465C90.8641 145.463 90.8155 145.472 90.7703 145.49C90.7251 145.508 90.6844 145.536 90.6507 145.571C90.6171 145.607 90.5913 145.649 90.5751 145.695C90.5589 145.741 90.5527 145.789 90.5569 145.838C90.6159 146.519 91.0935 148.057 94.0229 149.232C94.0871 149.258 94.1575 149.264 94.225 149.249C94.2925 149.234 94.3541 149.2 94.4017 149.15C94.4494 149.1 94.481 149.037 94.4925 148.968C94.504 148.9 94.4947 148.83 94.4661 148.767C93.1548 145.896 91.5957 145.491 90.9128 145.465Z" fill="#364547"/>
<path d="M87.7428 148.339C87.6945 148.332 87.6453 148.336 87.5985 148.35C87.5517 148.364 87.5085 148.388 87.4716 148.42C87.4347 148.452 87.4051 148.491 87.3847 148.535C87.3643 148.58 87.3536 148.628 87.3532 148.677C87.3469 149.36 87.6774 150.937 90.4824 152.383C90.544 152.415 90.6135 152.427 90.682 152.419C90.7506 152.41 90.8151 152.382 90.8673 152.336C90.9195 152.291 90.957 152.231 90.975 152.165C90.9929 152.098 90.9906 152.027 90.9682 151.962C89.933 148.98 88.4202 148.43 87.7428 148.339Z" fill="#364547"/>
<path d="M63.8073 171.794C58.9037 166.89 50.7675 161.549 40.7916 165.619C27.4304 171.068 24.5827 187.171 23.978 193.251C23.9607 193.415 23.996 193.581 24.0788 193.724C24.1617 193.868 24.2877 193.981 24.4389 194.048C24.5902 194.116 24.7588 194.133 24.9207 194.099C25.0826 194.064 25.2294 193.979 25.3401 193.856C30.4025 188.274 47.3859 171.661 64.8751 178.39C65.5283 178.639 66.1815 178.923 66.8347 179.241C67.0644 179.356 67.313 179.428 67.5684 179.454C67.9553 179.486 68.4574 179.42 68.7226 178.939C68.8204 178.747 68.8652 178.533 68.8525 178.318C68.8397 178.103 68.7698 177.895 68.6499 177.716C67.2392 175.584 65.6167 173.6 63.8073 171.794Z" fill="#C7C365"/>
<path d="M31.1816 179.887C31.1671 179.905 31.1544 179.923 31.1435 179.938L31.1816 179.887Z" fill="#ADA43A"/>
<path d="M31.1816 179.887C32.4448 178.171 46.4915 160.951 64.8706 178.397C65.5238 178.645 66.177 178.929 66.8302 179.247C67.0599 179.362 67.3085 179.434 67.5639 179.46C67.9508 179.493 68.4529 179.426 68.7181 178.945C68.8159 178.753 68.8607 178.539 68.848 178.324C68.8352 178.109 68.7653 177.902 68.6454 177.723C68.6454 177.723 48.6581 155.592 31.1816 179.887Z" fill="#ADA43A"/>
<path d="M31.108 179.977C31.1171 179.966 31.1271 179.95 31.1407 179.933C31.1289 179.948 31.1189 179.962 31.108 179.977Z" fill="#3C7219"/>
<path d="M86.3162 156.18C75.0054 158.986 71.3042 168.837 70.1528 176.248C69.7256 178.98 69.5753 181.749 69.7042 184.511C69.7135 184.744 69.7848 184.97 69.9108 185.166C70.0367 185.362 70.2128 185.521 70.4206 185.626C70.9591 185.877 71.4404 185.614 71.7573 185.34C71.9636 185.154 72.1344 184.932 72.2613 184.686C72.6294 183.991 73.0192 183.327 73.4309 182.693C84.4184 165.661 109.844 169.344 117.829 170.989C118.63 171.154 119.172 170.2 118.63 169.594C114.22 164.668 101.465 152.42 86.3162 156.18Z" fill="#C7C365"/>
<path d="M70.1492 176.254C69.722 178.987 69.5717 181.755 69.7006 184.518C69.7099 184.75 69.7812 184.976 69.9072 185.172C70.0331 185.368 70.2092 185.527 70.417 185.632C70.9555 185.883 71.4368 185.62 71.7537 185.346C71.96 185.16 72.1308 184.939 72.2577 184.692C72.6257 183.998 73.0156 183.333 73.4273 182.699C78.4125 155.443 102.108 162.003 103.874 162.534C81.9022 155.201 73.3991 167.179 70.1492 176.254Z" fill="#ADA43A"/>
<path d="M66.7003 197.38C80.3376 151.16 41.9012 104.945 41.9012 104.945C78.0556 157.791 66.7003 197.38 66.7003 197.38Z" fill="#364547"/>
<path d="M52.1877 103.392C49.2084 108.039 50.0892 110.716 50.6967 111.746C50.7402 111.819 50.7987 111.883 50.8685 111.932C50.9383 111.981 51.0178 112.015 51.1016 112.031C51.1854 112.047 51.2716 112.045 51.3546 112.025C51.4376 112.005 51.5155 111.968 51.583 111.916C52.5292 111.189 54.3389 109.024 53.292 103.603C53.2689 103.485 53.2107 103.376 53.1251 103.29C53.0394 103.205 52.9302 103.147 52.8114 103.124C52.6926 103.101 52.5697 103.115 52.4586 103.162C52.3474 103.21 52.2531 103.29 52.1877 103.392Z" fill="#364547"/>
<path d="M56.1151 109.285C52.7798 113.685 53.4481 116.421 53.9739 117.497C54.0114 117.573 54.0648 117.641 54.1306 117.695C54.1963 117.75 54.2728 117.789 54.355 117.812C54.4373 117.835 54.5234 117.84 54.6077 117.826C54.6919 117.813 54.7724 117.782 54.8438 117.735C55.8427 117.081 57.8177 115.068 57.1993 109.583C57.1857 109.463 57.1363 109.349 57.0576 109.257C56.979 109.166 56.8746 109.099 56.7579 109.067C56.6413 109.035 56.5177 109.039 56.4031 109.078C56.2886 109.116 56.1882 109.189 56.1151 109.285Z" fill="#364547"/>
<path d="M59.9671 116.654C56.3766 120.035 56.5591 122.545 56.8624 123.569C56.8842 123.641 56.921 123.708 56.9705 123.766C57.02 123.823 57.081 123.869 57.1496 123.901C57.2182 123.933 57.2928 123.951 57.3685 123.952C57.4442 123.953 57.5193 123.938 57.5889 123.908C58.5678 123.48 60.6036 122.002 60.8724 117.077C60.8753 116.971 60.8471 116.866 60.7914 116.776C60.7356 116.686 60.6546 116.614 60.5585 116.569C60.4623 116.524 60.3551 116.508 60.25 116.523C60.145 116.538 60.0466 116.584 59.9671 116.654Z" fill="#364547"/>
<path d="M63.7273 123.176C59.5403 125.78 59.2225 128.276 59.3178 129.34C59.3247 129.416 59.3476 129.49 59.3851 129.556C59.4225 129.623 59.4736 129.68 59.535 129.725C59.5963 129.77 59.6666 129.802 59.7411 129.818C59.8155 129.834 59.8926 129.834 59.9671 129.818C61.0113 129.591 63.2996 128.547 64.5364 123.77C64.5614 123.666 64.5551 123.557 64.5182 123.456C64.4814 123.356 64.4157 123.268 64.3293 123.204C64.2429 123.141 64.1397 123.104 64.0327 123.099C63.9256 123.094 63.8194 123.121 63.7273 123.176Z" fill="#364547"/>
<path d="M66.9155 129.943C62.6477 131.76 61.9893 134.03 61.9212 135.037C61.9167 135.108 61.9275 135.18 61.9527 135.247C61.978 135.314 62.0172 135.375 62.0677 135.426C62.1182 135.477 62.179 135.517 62.2459 135.542C62.3128 135.568 62.3845 135.579 62.4561 135.575C63.4549 135.515 65.7387 134.872 67.5793 130.614C67.6195 130.52 67.6308 130.417 67.612 130.318C67.5932 130.218 67.545 130.127 67.4736 130.054C67.4023 129.982 67.311 129.933 67.2116 129.914C67.1121 129.894 67.009 129.904 66.9155 129.943Z" fill="#364547"/>
<path d="M71.8073 137.087C67.2098 136.462 65.4817 138.081 64.9124 138.91C64.8718 138.969 64.8442 139.036 64.8314 139.106C64.8185 139.177 64.8208 139.249 64.8379 139.319C64.8551 139.388 64.8868 139.453 64.9309 139.51C64.975 139.566 65.0306 139.613 65.094 139.646C65.9866 140.107 68.2722 140.721 72.0343 138.003C72.1167 137.944 72.1794 137.861 72.2144 137.766C72.2494 137.671 72.255 137.567 72.2306 137.468C72.2062 137.37 72.1528 137.281 72.0774 137.213C72.0019 137.145 71.9078 137.101 71.8073 137.087Z" fill="#364547"/>
<path d="M36.6136 110.239C36.4924 110.24 36.3743 110.277 36.2746 110.346C36.1749 110.415 36.0981 110.512 36.0542 110.625C36.0103 110.738 36.0013 110.861 36.0283 110.979C36.0554 111.097 36.1172 111.205 36.2059 111.287C40.2458 115.059 43.0399 114.674 44.1641 114.261C44.2442 114.232 44.3172 114.186 44.3782 114.126C44.4391 114.066 44.4867 113.994 44.5177 113.914C44.5486 113.835 44.5624 113.749 44.5579 113.664C44.5535 113.579 44.531 113.495 44.4919 113.419C43.9416 112.359 42.1409 110.188 36.6136 110.239Z" fill="#364547"/>
<path d="M39.5212 116.708C39.4007 116.719 39.2862 116.766 39.1924 116.843C39.0986 116.919 39.0299 117.022 38.995 117.138C38.9601 117.254 38.9608 117.377 38.9968 117.493C39.0328 117.609 39.1025 117.711 39.1971 117.786C43.5203 121.23 46.2799 120.627 47.3641 120.127C47.4417 120.091 47.5108 120.04 47.5668 119.975C47.6228 119.911 47.6645 119.835 47.6891 119.753C47.7138 119.671 47.7207 119.585 47.7097 119.501C47.6986 119.416 47.6696 119.335 47.6248 119.262C46.9927 118.245 45.0277 116.221 39.5212 116.708Z" fill="#364547"/>
<path d="M43.7219 123.895C43.618 123.923 43.5249 123.982 43.4544 124.064C43.3838 124.145 43.339 124.245 43.3256 124.352C43.3122 124.459 43.3308 124.568 43.379 124.664C43.4273 124.761 43.503 124.84 43.5966 124.894C47.9153 127.286 50.2527 126.347 51.1335 125.744C51.1964 125.701 51.2495 125.645 51.2893 125.58C51.329 125.515 51.3545 125.442 51.364 125.366C51.3735 125.291 51.3669 125.214 51.3445 125.141C51.3222 125.068 51.2846 125.001 51.2343 124.944C50.5306 124.14 48.4992 122.65 43.7219 123.895Z" fill="#364547"/>
<path d="M54.8257 130.096C53.9739 129.449 51.6874 128.39 47.2506 130.555C47.156 130.605 47.0779 130.68 47.0259 130.774C46.974 130.867 46.9506 130.973 46.9585 131.079C46.9664 131.186 47.0054 131.287 47.0705 131.372C47.1357 131.456 47.2242 131.52 47.3251 131.554C52.0316 133.045 54.1355 131.662 54.8847 130.897C54.9373 130.842 54.9779 130.777 55.0037 130.706C55.0295 130.635 55.04 130.559 55.0344 130.483C55.0288 130.408 55.0073 130.334 54.9714 130.267C54.9354 130.201 54.8857 130.142 54.8257 130.096Z" fill="#364547"/>
<path d="M56.7689 135.533C55.7609 135.17 53.2619 134.856 49.686 138.263C49.6096 138.338 49.5572 138.435 49.5353 138.54C49.5134 138.645 49.5231 138.754 49.563 138.854C49.603 138.953 49.6715 139.039 49.7599 139.1C49.8484 139.161 49.9528 139.194 50.0601 139.196C54.9972 139.196 56.5854 137.238 57.0667 136.283C57.1011 136.215 57.1206 136.14 57.124 136.064C57.1274 135.988 57.1145 135.912 57.0864 135.841C57.0582 135.77 57.0154 135.706 56.9606 135.653C56.9059 135.6 56.8405 135.559 56.7689 135.533Z" fill="#364547"/>
<path d="M59.701 141.55C58.664 141.289 56.146 141.208 52.9105 144.937C52.8415 145.02 52.7982 145.12 52.7863 145.227C52.7743 145.334 52.7942 145.442 52.8434 145.537C52.8926 145.633 52.9689 145.712 53.0628 145.764C53.1566 145.816 53.2638 145.839 53.3709 145.831C58.2853 145.36 59.6819 143.264 60.0706 142.268C60.0983 142.197 60.1105 142.12 60.1065 142.044C60.1026 141.968 60.0824 141.893 60.0475 141.826C60.0125 141.758 59.9636 141.698 59.9038 141.651C59.8441 141.603 59.775 141.569 59.701 141.55Z" fill="#364547"/>
<path d="M79.3996 176.307H56.2159C55.9345 176.307 55.6559 176.362 55.3959 176.47C55.1359 176.578 54.8996 176.735 54.7006 176.934C54.5016 177.133 54.3437 177.369 54.236 177.629C54.1283 177.889 54.0729 178.168 54.0729 178.449V214.521C54.0726 214.802 54.1279 215.081 54.2355 215.341C54.3431 215.602 54.5009 215.838 54.7 216.037C54.899 216.236 55.1353 216.394 55.3954 216.502C55.6556 216.61 55.9344 216.665 56.2159 216.665H79.3996C79.6811 216.665 79.9598 216.609 80.2199 216.502C80.4799 216.394 80.7162 216.236 80.9152 216.037C81.1142 215.838 81.2721 215.601 81.3797 215.341C81.4873 215.081 81.5427 214.802 81.5426 214.521V178.449C81.5423 177.881 81.3164 177.336 80.9146 176.934C80.5127 176.533 79.9678 176.307 79.3996 176.307Z" fill="#FEFE6E"/>
<path d="M79.3996 176.307H76.8842C76.6663 184.55 74.2282 207.561 54.0729 213.197V214.521C54.0726 214.802 54.1279 215.081 54.2355 215.341C54.3431 215.602 54.5009 215.838 54.7 216.037C54.899 216.236 55.1353 216.394 55.3954 216.502C55.6556 216.61 55.9344 216.665 56.2159 216.665H79.3996C79.6811 216.665 79.9598 216.609 80.2199 216.502C80.4799 216.394 80.7162 216.236 80.9152 216.037C81.1142 215.838 81.2721 215.601 81.3797 215.341C81.4873 215.081 81.5427 214.802 81.5426 214.521V178.449C81.5423 177.881 81.3164 177.336 80.9146 176.934C80.5127 176.533 79.9678 176.307 79.3996 176.307Z" fill="#FFBE40"/>
<path d="M97.9022 60.723H71.296C69.9922 60.723 68.7417 61.2409 67.8197 62.1629C66.8978 63.0849 66.3798 64.3353 66.3798 65.6392V82.3202C66.3798 83.6241 66.8978 84.8746 67.8197 85.7965C68.7417 86.7185 69.9922 87.2365 71.296 87.2365H77.025C77.2458 87.2368 77.4642 87.2819 77.6671 87.369C77.87 87.4561 78.0531 87.5834 78.2054 87.7432L83.4104 93.1915C83.5631 93.3521 83.7469 93.48 83.9505 93.5673C84.1541 93.6547 84.3734 93.6998 84.595 93.6998C84.8166 93.6998 85.0359 93.6547 85.2395 93.5673C85.4431 93.48 85.6269 93.3521 85.7796 93.1915L90.9846 87.7432C91.1369 87.5834 91.32 87.4561 91.5229 87.369C91.7258 87.2819 91.9442 87.2368 92.165 87.2365H97.894C99.1979 87.2365 100.448 86.7185 101.37 85.7965C102.292 84.8746 102.81 83.6241 102.81 82.3202V65.6392C102.81 64.3367 102.293 63.0875 101.373 62.1658C100.453 61.244 99.2046 60.7251 97.9022 60.723Z" fill="#DD4F00"/>
<path d="M96.5528 58.9042H69.9467C68.6428 58.9042 67.3923 59.4221 66.4704 60.3441C65.5484 61.2661 65.0304 62.5165 65.0304 63.8204V80.5015C65.0304 81.1471 65.1576 81.7864 65.4046 82.3828C65.6517 82.9793 66.0138 83.5212 66.4704 83.9777C66.9269 84.4343 67.4688 84.7964 68.0653 85.0435C68.6618 85.2905 69.3011 85.4177 69.9467 85.4177H75.6765C75.8972 85.4184 76.1156 85.4636 76.3184 85.5507C76.5212 85.6378 76.7044 85.7649 76.857 85.9244L82.0611 91.3727C82.2138 91.5333 82.3975 91.6612 82.6011 91.7486C82.8048 91.8359 83.024 91.881 83.2456 91.881C83.4672 91.881 83.6865 91.8359 83.8901 91.7486C84.0938 91.6612 84.2775 91.5333 84.4302 91.3727L89.6352 85.9244C89.7875 85.7646 89.9707 85.6373 90.1736 85.5502C90.3765 85.4631 90.5949 85.418 90.8157 85.4177H96.5455C97.1911 85.4177 97.8304 85.2905 98.4269 85.0435C99.0233 84.7964 99.5653 84.4343 100.022 83.9777C100.478 83.5212 100.84 82.9793 101.088 82.3828C101.335 81.7864 101.462 81.1471 101.462 80.5015V63.8204C101.462 62.5178 100.945 61.2684 100.024 60.3467C99.104 59.4249 97.8554 58.9061 96.5528 58.9042Z" fill="#FF6703"/>
<path d="M87.0708 63.9076C85.6409 63.905 84.2677 64.4669 83.2497 65.4713C82.2236 64.4628 80.8403 63.901 79.4016 63.9087C77.9629 63.9163 76.5856 64.4928 75.5703 65.5121C73.4817 67.6007 73.5226 71.183 75.6611 73.326L82.4052 80.0701C82.6281 80.293 82.9304 80.4182 83.2456 80.4182C83.5608 80.4182 83.8631 80.293 84.086 80.0701L90.8302 73.3269C92.9732 71.1839 93.0177 67.6061 90.9264 65.513C90.4219 65.0038 89.8213 64.5996 89.1595 64.324C88.4977 64.0485 87.7877 63.9069 87.0708 63.9076Z" fill="white"/>
<path d="M129.314 106.35C134.906 97.7618 142.521 65.6901 142.521 65.6901C142.521 65.6901 135.228 48.7421 128.792 59.6833C122.355 70.6245 110.342 92.2926 90.605 117.392C70.8683 142.492 85.4563 170.382 79.4495 183.898L67.3814 215.108C67.3363 215.224 67.3182 215.349 67.3284 215.473C67.3387 215.597 67.377 215.717 67.4404 215.825C67.5039 215.932 67.5909 216.023 67.6949 216.092C67.7988 216.161 67.9171 216.205 68.0406 216.222C74.1546 217.039 106.571 220.885 144.18 216.166C144.374 216.142 144.553 216.05 144.685 215.905C144.817 215.761 144.894 215.575 144.901 215.38C144.941 214.355 145.059 212.283 145.405 209.725C146.313 202.988 148.808 192.882 155.608 189.69C155.936 189.537 156.305 189.362 156.713 189.17L156.723 189.165L157.734 188.685L157.751 188.677C171.891 181.929 219.603 157.845 231.553 127.261L167.128 82.7071C149.897 96.7348 125.529 112.157 129.314 106.35Z" fill="#F5AE97"/>
<path d="M164.189 120.494L117.793 145.108C117.793 145.108 95.4477 164.613 122.906 174.271C150.365 183.929 191.272 159.693 191.272 159.693L181.236 132.234L164.189 120.494Z" fill="#ED856E"/>
<path d="M133.083 193.775C133.479 193.834 145.855 195.782 145.413 208.317C145.395 208.817 145.393 209.285 145.405 209.725C146.313 202.988 148.808 192.882 155.608 189.69C155.936 189.537 156.305 189.362 156.713 189.17C153.45 190.655 143.032 194.916 133.083 193.775Z" fill="#ED856E"/>
<path d="M217.332 4.0874H136.438C133.791 4.0874 131.645 6.23359 131.645 8.88104V165.174C131.645 167.822 133.791 169.968 136.438 169.968H217.332C219.979 169.968 222.126 167.822 222.126 165.174V8.88104C222.126 6.23359 219.979 4.0874 217.332 4.0874Z" fill="#416863"/>
<path d="M215.3 8.62671H138.47C137.864 8.62671 137.283 8.86742 136.854 9.29588C136.426 9.72434 136.185 10.3055 136.185 10.9114V163.142C136.185 163.748 136.426 164.329 136.854 164.758C137.283 165.186 137.864 165.427 138.47 165.428H215.3C215.6 165.428 215.897 165.368 216.174 165.254C216.451 165.139 216.703 164.97 216.915 164.758C217.128 164.546 217.296 164.294 217.411 164.017C217.525 163.739 217.584 163.442 217.584 163.142V10.9123C217.585 10.6122 217.526 10.3149 217.411 10.0376C217.296 9.76022 217.128 9.5082 216.916 9.29593C216.704 9.08366 216.452 8.91529 216.174 8.80046C215.897 8.68563 215.6 8.62659 215.3 8.62671Z" fill="#468C94"/>
<path d="M215.3 8.62671H138.47C137.864 8.62671 137.283 8.86742 136.854 9.29588C136.426 9.72434 136.185 10.3055 136.185 10.9114V96.4505L217.584 45.2451V10.9123C217.585 10.6122 217.526 10.3149 217.411 10.0376C217.296 9.76022 217.128 9.5082 216.916 9.29593C216.704 9.08366 216.452 8.91529 216.174 8.80046C215.897 8.68563 215.6 8.62659 215.3 8.62671Z" fill="#509CA0"/>
<path d="M182.857 11.6687H170.912C170.617 11.6683 170.326 11.7262 170.054 11.8391C169.781 11.9519 169.534 12.1174 169.326 12.3261C169.257 12.3952 169.192 12.4689 169.133 12.5468C168.878 12.8789 168.721 13.2758 168.679 13.6925C168.638 14.1093 168.714 14.5293 168.9 14.9049C169.085 15.2806 169.371 15.5969 169.727 15.8181C170.083 16.0392 170.493 16.1564 170.912 16.1563H182.857C183.453 16.1563 184.023 15.9199 184.444 15.4991C184.865 15.0783 185.101 14.5076 185.101 13.9125C185.101 13.3174 184.865 12.7467 184.444 12.3259C184.023 11.9051 183.453 11.6687 182.857 11.6687Z" fill="black"/>
<path d="M182.041 12.3307H170.096C169.763 12.33 169.434 12.4039 169.133 12.5468C168.878 12.8789 168.721 13.2758 168.679 13.6925C168.638 14.1093 168.714 14.5293 168.9 14.9049C169.085 15.2806 169.371 15.5969 169.727 15.8181C170.083 16.0392 170.493 16.1564 170.912 16.1563H182.857C183.191 16.1568 183.52 16.0826 183.821 15.9393C184.076 15.6072 184.233 15.2103 184.274 14.7936C184.315 14.3769 184.238 13.957 184.053 13.5815C183.868 13.206 183.581 12.8898 183.226 12.6687C182.87 12.4477 182.46 12.3306 182.041 12.3307Z" fill="#364547"/>
<path d="M215.301 165.972H138.471C137.72 165.972 137.001 165.673 136.47 165.143C135.94 164.612 135.642 163.892 135.641 163.142V10.9123C135.642 10.162 135.94 9.44245 136.47 8.91177C137.001 8.38109 137.72 8.08263 138.471 8.08191H215.301C216.051 8.08287 216.77 8.38129 217.3 8.91172C217.831 9.44214 218.129 10.1613 218.13 10.9114V163.142C218.129 163.892 217.831 164.612 217.301 165.142C216.77 165.673 216.051 165.972 215.301 165.972ZM138.471 9.17158C138.009 9.17206 137.567 9.35552 137.241 9.6817C136.915 10.0079 136.731 10.4501 136.731 10.9114V163.142C136.731 163.604 136.914 164.046 137.241 164.372C137.567 164.699 138.009 164.882 138.471 164.883H215.301C215.762 164.882 216.204 164.698 216.53 164.372C216.856 164.046 217.04 163.603 217.04 163.142V10.9123C217.04 10.451 216.856 10.0086 216.53 9.68229C216.204 9.35596 215.762 9.1723 215.301 9.17158H138.471Z" fill="white"/>
<path d="M153.63 31.9484H103.116C101.701 31.9484 100.555 33.0952 100.555 34.51V51.4871C100.555 52.9018 101.701 54.0487 103.116 54.0487H153.63C155.044 54.0487 156.191 52.9018 156.191 51.4871V34.51C156.191 33.0952 155.044 31.9484 153.63 31.9484Z" fill="#1CBBBB"/>
<path d="M150.34 36.041H105.461C105.124 36.0587 104.806 36.2052 104.574 36.4501C104.341 36.6951 104.212 37.02 104.212 37.3577C104.212 37.6954 104.341 38.0202 104.574 38.2652C104.806 38.5102 105.124 38.6567 105.461 38.6744H150.343C150.522 38.6838 150.701 38.6567 150.869 38.5947C151.037 38.5328 151.19 38.4373 151.32 38.3142C151.45 38.191 151.553 38.0426 151.624 37.8782C151.695 37.7138 151.731 37.5367 151.731 37.3577C151.731 37.1787 151.695 37.0016 151.624 36.8372C151.553 36.6727 151.45 36.5244 151.32 36.4012C151.19 36.278 151.037 36.1826 150.869 36.1206C150.701 36.0587 150.522 36.0316 150.343 36.041H150.34Z" fill="white"/>
<path d="M132.644 41.4549H105.461C105.124 41.4727 104.806 41.6191 104.574 41.8641C104.341 42.1091 104.212 42.4339 104.212 42.7716C104.212 43.1093 104.341 43.4342 104.574 43.6792C104.806 43.9241 105.124 44.0706 105.461 44.0883H132.648C132.827 44.0977 133.006 44.0706 133.174 44.0087C133.341 43.9468 133.495 43.8513 133.625 43.7281C133.755 43.6049 133.858 43.4566 133.929 43.2921C133.999 43.1277 134.036 42.9506 134.036 42.7716C134.036 42.5927 133.999 42.4156 133.929 42.2511C133.858 42.0867 133.755 41.9383 133.625 41.8152C133.495 41.692 133.341 41.5965 133.174 41.5346C133.006 41.4726 132.827 41.4456 132.648 41.4549H132.644Z" fill="white"/>
<path d="M139.578 47.3201H105.461C105.111 47.3203 104.776 47.4593 104.529 47.7066C104.282 47.9538 104.143 48.289 104.143 48.6386C104.143 48.9881 104.282 49.3233 104.529 49.5706C104.776 49.8178 105.111 49.9568 105.461 49.9571H139.582C139.932 49.9571 140.267 49.8182 140.514 49.5709C140.762 49.3236 140.901 48.9883 140.901 48.6386C140.901 48.4651 140.866 48.2934 140.8 48.1332C140.733 47.973 140.636 47.8274 140.513 47.705C140.39 47.5825 140.245 47.4854 140.084 47.4194C139.924 47.3534 139.752 47.3196 139.578 47.3201Z" fill="white"/>
<path d="M284.628 60.4242H234.115C232.7 60.4242 231.553 61.5711 231.553 62.9858V79.9629C231.553 81.3776 232.7 82.5245 234.115 82.5245H284.628C286.043 82.5245 287.19 81.3776 287.19 79.9629V62.9858C287.19 61.5711 286.043 60.4242 284.628 60.4242Z" fill="#848943"/>
<path d="M283.247 58.9042H232.733C231.319 58.9042 230.172 60.0511 230.172 61.4658V78.4429C230.172 79.8576 231.319 81.0045 232.733 81.0045H283.247C284.662 81.0045 285.809 79.8576 285.809 78.4429V61.4658C285.809 60.0511 284.662 58.9042 283.247 58.9042Z" fill="#8E9C69"/>
<path d="M279.957 62.9968H235.075C234.346 62.9968 233.756 63.5871 233.756 64.3153C233.756 65.0435 234.346 65.6338 235.075 65.6338H279.957C280.685 65.6338 281.276 65.0435 281.276 64.3153C281.276 63.5871 280.685 62.9968 279.957 62.9968Z" fill="white"/>
<path d="M262.261 68.4106H235.075C234.346 68.4106 233.756 69.001 233.756 69.7291C233.756 70.4573 234.346 71.0477 235.075 71.0477H262.261C262.989 71.0477 263.579 70.4573 263.579 69.7291C263.579 69.001 262.989 68.4106 262.261 68.4106Z" fill="white"/>
<path d="M269.196 74.2792H235.074C234.896 74.2698 234.717 74.2969 234.549 74.3588C234.381 74.4207 234.228 74.5162 234.098 74.6394C233.968 74.7626 233.865 74.9109 233.794 75.0753C233.723 75.2398 233.687 75.4169 233.687 75.5958C233.687 75.7748 233.723 75.9519 233.794 76.1164C233.865 76.2808 233.968 76.4291 234.098 76.5523C234.228 76.6755 234.381 76.771 234.549 76.8329C234.717 76.8948 234.896 76.9219 235.074 76.9125H269.196C269.533 76.8948 269.851 76.7484 270.083 76.5034C270.315 76.2584 270.445 75.9336 270.445 75.5958C270.445 75.2581 270.315 74.9333 270.083 74.6883C269.851 74.4433 269.533 74.2969 269.196 74.2792Z" fill="white"/>
<path d="M248.135 16.0229C247.961 15.9302 247.779 15.8545 247.59 15.7968L243.927 15.1511L243.547 15.893L153.478 23.0422C152.695 23.1043 151.963 23.4594 151.43 24.0366C150.897 24.6139 150.601 25.3709 150.6 26.1568V78.3112L149.07 80.1918L152.423 81.5321C152.518 81.576 152.615 81.6148 152.714 81.6483H152.723C152.967 81.7309 153.221 81.783 153.478 81.8036L246.415 89.1797C246.845 89.2138 247.277 89.1586 247.685 89.0175C248.092 88.8765 248.466 88.6526 248.782 88.3601C249.099 88.0675 249.352 87.7126 249.525 87.3176C249.698 86.9227 249.787 86.4962 249.787 86.0651V18.7779C249.787 18.2121 249.634 17.6568 249.343 17.1716C249.052 16.6863 248.634 16.2892 248.135 16.0229Z" fill="#DB891D"/>
<path d="M243.128 15.1121L150.192 22.4883C149.409 22.5508 148.678 22.906 148.144 23.4832C147.611 24.0604 147.315 24.8172 147.314 25.603V78.1378C147.314 78.9239 147.61 79.6811 148.144 80.2586C148.677 80.836 149.408 81.1912 150.192 81.2533L243.128 88.6268C243.88 88.6883 244.628 88.4743 245.233 88.0247C245.627 87.7351 245.948 87.3568 246.169 86.9203C246.39 86.4837 246.504 86.0013 246.504 85.5121V18.225C246.504 17.7935 246.415 17.3668 246.241 16.9717C246.068 16.5765 245.815 16.2215 245.498 15.9291C245.181 15.6367 244.806 15.4131 244.399 15.2725C243.991 15.1319 243.558 15.0773 243.128 15.1121Z" fill="#FFB037"/>
<path d="M243.128 15.1121L150.192 22.4883C149.474 22.5446 148.798 22.8478 148.279 23.3464L245.233 88.0275C245.627 87.7379 245.948 87.3595 246.169 86.923C246.39 86.4865 246.504 86.0041 246.504 85.5149V18.2277C246.505 17.796 246.415 17.369 246.242 16.9735C246.069 16.5781 245.816 16.2228 245.499 15.93C245.182 15.6373 244.807 15.4135 244.399 15.2727C243.991 15.1319 243.558 15.0773 243.128 15.1121Z" fill="#FFCB57"/>
<path d="M222.397 60.5677C215.616 56.4569 212.378 52.6894 212.629 49.1071C212.811 46.0033 215.774 43.3736 218.823 41.4358C219.326 41.1162 219.035 40.3371 218.444 40.4215C207.462 41.9915 203.742 37.7809 203.523 29.3141C203.52 29.1979 203.48 29.0855 203.41 28.9929C203.34 28.9003 203.242 28.8322 203.131 28.7982C203.02 28.7642 202.9 28.766 202.79 28.8033C202.68 28.8406 202.585 28.9116 202.517 29.0063C195.852 38.3366 192.175 38.4955 184.719 29.6483C184.639 29.5543 184.53 29.4895 184.41 29.4642C184.289 29.439 184.163 29.4547 184.052 29.5088C183.942 29.563 183.852 29.6525 183.798 29.7633C183.743 29.8741 183.728 29.9997 183.753 30.1205C185.605 38.8878 179.912 42.3647 171.04 41.7899C170.915 41.7822 170.79 41.8171 170.688 41.8891C170.585 41.9611 170.509 42.0659 170.474 42.1862C170.438 42.3066 170.444 42.4356 170.491 42.5519C170.538 42.6683 170.624 42.7653 170.733 42.827C179.124 47.5489 176.262 52.881 166.291 60.0801C166.266 60.1046 165.95 60.4433 166.399 60.5041C168.925 59.3336 171.658 58.4501 174.433 58.2894C174.997 58.2605 175.562 58.2727 176.124 58.3257C181.287 58.8324 184.029 63.1629 180.6 73.0363C180.398 73.6156 181.145 74.0433 181.546 73.5756C189.831 63.814 196.638 62.6036 201.324 74.2167C201.546 74.7688 202.366 74.6308 202.393 74.0351C202.964 60.8229 210.565 59.1575 221.991 61.5874C222.606 61.7118 222.932 60.8891 222.397 60.5677Z" fill="#DB891D"/>
<path d="M220.641 59.7577C213.859 55.6469 210.622 51.8794 210.873 48.2971C211.055 45.1933 214.018 42.5636 217.067 40.6258C217.571 40.3062 217.279 39.527 216.688 39.6115C205.711 41.1806 201.988 36.9699 201.769 28.5032C201.766 28.3869 201.727 28.2744 201.656 28.1817C201.586 28.089 201.488 28.0207 201.377 27.9867C201.266 27.9526 201.147 27.9544 201.037 27.9919C200.926 28.0294 200.831 28.1005 200.763 28.1954C194.097 37.5257 190.421 37.6846 182.966 28.8374C182.886 28.7433 182.777 28.6786 182.656 28.6533C182.535 28.6281 182.41 28.6437 182.299 28.6979C182.188 28.7521 182.098 28.8416 182.044 28.9524C181.99 29.0631 181.974 29.1888 181.999 29.3096C183.852 38.0769 178.158 41.5538 169.286 40.979C169.161 40.9706 169.036 41.0052 168.933 41.0771C168.829 41.1491 168.754 41.2541 168.718 41.3749C168.682 41.4957 168.689 41.625 168.737 41.7416C168.784 41.8581 168.87 41.9549 168.98 42.016C177.37 46.7379 174.509 52.0701 164.537 59.2692C164.513 59.2937 164.197 59.6324 164.646 59.6932C167.172 58.5227 169.905 57.6392 172.68 57.4785C173.244 57.4496 173.809 57.4618 174.371 57.5148C179.534 58.0215 182.271 62.352 178.847 72.2253C178.645 72.8047 179.391 73.2324 179.793 72.7647C188.079 63.0031 194.885 61.7926 199.571 73.4058C199.794 73.9579 200.613 73.8199 200.639 73.2242C201.211 60.0119 208.812 58.3466 220.238 60.7765C220.85 60.9046 221.176 60.0819 220.641 59.7577Z" fill="#FF6703"/>
<path d="M239.672 80.2108L237.326 80.0465L230.945 79.5997L221.511 78.9396L210.039 78.1368L197.477 77.2578L184.754 76.3679L172.891 75.538L162.871 74.837L155.691 74.3348C154.557 74.2549 153.421 74.145 152.285 74.096C152.235 74.096 152.186 74.0896 152.137 74.086C151.696 74.0551 151.32 74.4837 151.32 74.9032C151.32 75.3709 151.695 75.6896 152.137 75.7205L154.482 75.8839L160.864 76.3307L170.302 76.9909L181.773 77.7936L194.335 78.6726L207.058 79.5634L218.921 80.3934L228.941 81.0944L236.121 81.5965C237.256 81.6755 238.392 81.7863 239.528 81.8344L239.676 81.8453C240.116 81.8762 240.493 81.4476 240.493 81.0281C240.489 80.5595 240.114 80.2417 239.672 80.2108Z" fill="#3A3A3A"/>
<path d="M203.912 50.3275L188.911 42.9577C188.637 42.8229 188.332 42.7603 188.027 42.7757C187.721 42.7912 187.425 42.8842 187.165 43.046C186.905 43.2078 186.691 43.4331 186.543 43.7006C186.394 43.9681 186.316 44.269 186.316 44.5749V59.3136C186.316 59.6197 186.394 59.9207 186.542 60.1883C186.691 60.456 186.905 60.6814 187.165 60.8432C187.424 61.0051 187.721 61.0981 188.027 61.1134C188.332 61.1287 188.637 61.0659 188.911 60.9309L203.914 53.562C204.217 53.4133 204.471 53.1829 204.649 52.8969C204.827 52.6109 204.921 52.2807 204.921 51.9439C204.92 51.6071 204.826 51.2771 204.647 50.9913C204.469 50.7056 204.214 50.4756 203.912 50.3275Z" fill="#DD4F00"/>
<path d="M162.837 79.8413C164.348 79.8413 165.573 77.8484 165.573 75.39C165.573 72.9316 164.348 70.9387 162.837 70.9387C161.327 70.9387 160.102 72.9316 160.102 75.39C160.102 77.8484 161.327 79.8413 162.837 79.8413Z" fill="white"/>
<path d="M162.837 73.0635C162.048 73.0635 161.408 74.1051 161.408 75.39C161.408 76.6749 162.048 77.7164 162.837 77.7164C163.627 77.7164 164.267 76.6749 164.267 75.39C164.267 74.1051 163.627 73.0635 162.837 73.0635Z" fill="#416863"/>
<path d="M202.668 48.8302L187.665 41.4613C187.39 41.3263 187.086 41.2634 186.78 41.2787C186.475 41.294 186.178 41.3869 185.918 41.5487C185.658 41.7104 185.444 41.9357 185.296 42.2032C185.147 42.4707 185.069 42.7717 185.069 43.0776V57.8163C185.069 58.1223 185.147 58.4232 185.296 58.6907C185.444 58.9581 185.659 59.1834 185.918 59.3452C186.178 59.507 186.474 59.6 186.78 59.6155C187.086 59.631 187.39 59.5683 187.665 59.4336L202.668 52.0638C202.97 51.9153 203.224 51.6851 203.402 51.3993C203.58 51.1135 203.674 50.7836 203.674 50.447C203.674 50.1103 203.58 49.7804 203.402 49.4946C203.224 49.2089 202.97 48.9787 202.668 48.8302Z" fill="white"/>
<path d="M153.052 25.5557C152.283 25.5557 151.658 26.4428 151.658 27.538C151.658 28.6331 152.283 29.5203 153.052 29.5203C153.821 29.5203 154.447 28.6322 154.447 27.538C154.447 26.4437 153.822 25.5557 153.052 25.5557Z" fill="#FCFCD4"/>
<path d="M157.694 29.5729C158.524 29.5729 159.197 28.6163 159.197 27.4362C159.197 26.2562 158.524 25.2996 157.694 25.2996C156.864 25.2996 156.191 26.2562 156.191 27.4362C156.191 28.6163 156.864 29.5729 157.694 29.5729Z" fill="#FCFCD4"/>
<path d="M162.53 24.9618C161.649 24.9618 160.934 25.977 160.934 27.2319C160.934 28.4869 161.649 29.5021 162.53 29.5021C163.41 29.5021 164.125 28.4869 164.125 27.2319C164.125 25.977 163.41 24.9618 162.53 24.9618Z" fill="#FCFCD4"/>
<path d="M231.008 80.2344C229.893 79.4907 228.447 79.0303 226.573 79.1275C225.809 79.1666 224.684 79.3182 223.948 79.5316C219.02 80.9609 189.568 90.2258 185.932 100.438C184.858 103.454 184.829 105.837 185.613 107.611C187.636 112.208 195.085 112.77 203.955 109.812C216.263 105.709 236.191 100.731 234.724 87.2483C234.728 87.2519 234.355 82.4646 231.008 80.2344Z" fill="#ED856E"/>
<path d="M231.008 80.2344C229.893 79.4907 228.447 79.0303 226.573 79.1275C225.809 79.1666 224.684 79.3182 223.948 79.5316C219.02 80.9609 189.568 90.2258 185.932 100.438C184.858 103.454 184.829 105.837 185.613 107.611C188.957 109.647 194.875 109.428 201.607 107.185C213.914 103.082 233.843 98.1041 232.376 84.6213C232.376 84.6249 232.2 82.3702 231.008 80.2344Z" fill="#F5AE97"/>
<path d="M235.158 101.782C234.154 100.329 232.511 99.1094 229.836 99.2483C229.089 99.2885 228.348 99.4038 227.624 99.5925C223.469 100.81 198.643 108.7 195.578 117.398C194.897 119.33 194.715 120.956 194.943 122.288C195.816 127.305 202.57 128.145 210.769 125.383C221.144 121.89 237.94 117.647 236.705 106.168C236.71 106.168 236.525 103.76 235.158 101.782Z" fill="#ED856E"/>
<path d="M235.158 101.782C234.154 100.329 232.511 99.1094 229.836 99.2483C229.089 99.2885 228.348 99.4038 227.624 99.5925C223.469 100.81 198.643 108.7 195.578 117.398C194.897 119.33 194.715 120.956 194.943 122.288C197.361 125.022 203.025 125.129 209.61 122.91C219.984 119.416 236.781 115.174 235.546 103.694C235.48 103.046 235.35 102.405 235.158 101.782Z" fill="#F5AE97"/>
<path d="M235.551 119.82C234.705 118.458 233.257 117.25 230.795 117.379C230.151 117.413 229.512 117.512 228.888 117.675C225.307 118.724 203.916 125.524 201.27 133.021C200.686 134.678 200.527 136.075 200.725 137.219C201.465 141.557 207.294 142.286 214.368 139.903C223.309 136.892 237.785 133.236 236.721 123.343C236.719 123.342 236.575 121.468 235.551 119.82Z" fill="#ED856E"/>
<path d="M235.551 119.82C234.705 118.458 233.257 117.25 230.795 117.379C230.151 117.413 229.512 117.512 228.888 117.675C225.307 118.724 203.916 125.524 201.27 133.021C200.686 134.678 200.527 136.075 200.725 137.219C202.723 139.736 207.696 139.878 213.506 137.921C222.447 134.91 236.923 131.253 235.859 121.36C235.804 120.838 235.701 120.323 235.551 119.82Z" fill="#F5AE97"/>
<path d="M174.179 94.1659L110.169 87.9911L110.33 87.5134L107.849 87.8095C107.179 87.8691 106.556 88.1774 106.102 88.6735C105.649 89.1696 105.397 89.8177 105.397 90.49V148.449C105.397 148.82 105.474 149.188 105.623 149.528C105.772 149.868 105.99 150.174 106.263 150.426C106.536 150.678 106.858 150.871 107.209 150.992C107.56 151.114 107.933 151.161 108.303 151.131L174.185 144.775C174.859 144.721 175.489 144.415 175.948 143.918C176.408 143.421 176.663 142.769 176.663 142.092V96.8474C176.662 96.1699 176.406 95.5175 175.946 95.0204C175.485 94.5234 174.855 94.2182 174.179 94.1659Z" fill="#DD4F00"/>
<path d="M176.635 93.8681L110.753 87.5117C110.383 87.4821 110.01 87.5295 109.659 87.6509C109.308 87.7724 108.986 87.9652 108.713 88.2172C108.44 88.4693 108.222 88.7752 108.073 89.1155C107.924 89.4559 107.847 89.8234 107.847 90.195V148.153C107.847 148.524 107.924 148.892 108.073 149.232C108.222 149.573 108.439 149.879 108.712 150.131C108.985 150.383 109.308 150.576 109.659 150.697C110.01 150.818 110.383 150.866 110.753 150.836L176.635 144.48C177.309 144.426 177.939 144.12 178.398 143.623C178.858 143.125 179.113 142.473 179.113 141.796V96.5514C179.113 95.8745 178.858 95.2223 178.398 94.725C177.939 94.2277 177.309 93.9217 176.635 93.8681Z" fill="#FCFCD4"/>
<path d="M176.491 95.6787L110.598 89.3223H110.536C110.304 89.323 110.083 89.4156 109.919 89.5798C109.756 89.7439 109.665 89.9662 109.665 90.1977V148.155C109.665 148.308 109.705 148.458 109.781 148.591C109.857 148.723 109.966 148.834 110.097 148.911C110.23 148.989 110.382 149.031 110.536 149.031H110.598L176.491 142.674C176.71 142.656 176.914 142.556 177.063 142.394C177.212 142.233 177.295 142.022 177.296 141.802V96.5514C177.295 96.3316 177.212 96.1202 177.063 95.9587C176.914 95.7972 176.71 95.6973 176.491 95.6787Z" fill="#FF6703"/>
<path d="M110.536 89.3223C110.304 89.323 110.083 89.4156 109.919 89.5798C109.756 89.7439 109.665 89.9662 109.665 90.1977V148.155C109.665 148.308 109.705 148.458 109.781 148.591C109.857 148.723 109.966 148.834 110.097 148.911L176.491 95.6787L110.598 89.3223H110.536Z" fill="#FF891B"/>
<path d="M143.872 109.823L138.933 109.568C138.473 109.545 138.1 109.871 138.1 110.295V128.36C138.1 128.786 138.473 129.111 138.933 129.086L143.872 128.832C144.077 128.823 144.271 128.738 144.416 128.593C144.561 128.448 144.646 128.253 144.655 128.048V110.605C144.646 110.4 144.561 110.206 144.416 110.061C144.271 109.916 144.076 109.831 143.872 109.823Z" fill="#DD4F00"/>
<path d="M152.349 110.259L147.859 110.029C147.763 110.021 147.666 110.034 147.575 110.065C147.484 110.097 147.401 110.146 147.33 110.212C147.259 110.277 147.202 110.356 147.163 110.444C147.125 110.532 147.104 110.627 147.104 110.723V127.935C147.104 128.031 147.125 128.126 147.163 128.214C147.202 128.302 147.259 128.381 147.33 128.447C147.401 128.512 147.484 128.562 147.575 128.593C147.666 128.625 147.763 128.637 147.859 128.629L152.349 128.398C152.541 128.387 152.721 128.304 152.853 128.165C152.985 128.027 153.06 127.843 153.062 127.651V111.006C153.06 110.814 152.985 110.631 152.853 110.492C152.721 110.354 152.541 110.27 152.349 110.259Z" fill="#DD4F00"/>
<path d="M145.045 108.772L140.106 108.518C139.647 108.494 139.273 108.82 139.273 109.244V127.315C139.273 127.74 139.647 128.066 140.106 128.041L145.045 127.787C145.25 127.778 145.445 127.693 145.59 127.547C145.735 127.402 145.82 127.207 145.828 127.002V109.557C145.82 109.351 145.735 109.157 145.59 109.011C145.445 108.866 145.25 108.781 145.045 108.772Z" fill="white"/>
<path d="M153.525 109.209L149.035 108.977C148.939 108.97 148.842 108.982 148.751 109.014C148.66 109.045 148.577 109.095 148.506 109.16C148.435 109.226 148.378 109.305 148.339 109.393C148.3 109.481 148.28 109.576 148.279 109.673V126.883C148.28 126.98 148.3 127.075 148.339 127.163C148.378 127.251 148.435 127.33 148.506 127.396C148.577 127.461 148.66 127.511 148.751 127.542C148.842 127.574 148.939 127.586 149.035 127.579L153.525 127.347C153.717 127.336 153.897 127.253 154.029 127.115C154.161 126.976 154.236 126.792 154.238 126.601V109.955C154.236 109.764 154.161 109.58 154.029 109.441C153.897 109.303 153.717 109.22 153.525 109.209Z" fill="white"/>
<path d="M175.109 136.673L173.416 136.81L168.811 137.182L162 137.735L153.69 138.406L144.587 139.144L135.401 139.888L126.866 140.579L119.627 141.164L114.437 141.585C113.613 141.651 112.79 141.713 111.966 141.784L111.859 141.794C111.42 141.829 111.042 142.143 111.042 142.611C111.042 143.025 111.417 143.463 111.859 143.428L113.552 143.291L118.157 142.918L124.968 142.367L133.278 141.694L142.381 140.957L151.567 140.214L160.102 139.523L167.341 138.936L172.531 138.516C173.355 138.449 174.179 138.387 175.003 138.316L175.109 138.308C175.549 138.272 175.926 137.957 175.926 137.49C175.926 137.075 175.548 136.637 175.109 136.673Z" fill="#3A3A3A"/>
<path d="M123.288 145.823C124.798 145.823 126.023 143.83 126.023 141.371C126.023 138.913 124.798 136.92 123.288 136.92C121.777 136.92 120.553 138.913 120.553 141.371C120.553 143.83 121.777 145.823 123.288 145.823Z" fill="white"/>
<path d="M123.288 143.698C124.077 143.698 124.717 142.656 124.717 141.371C124.717 140.087 124.077 139.045 123.288 139.045C122.498 139.045 121.859 140.087 121.859 141.371C121.859 142.656 122.498 143.698 123.288 143.698Z" fill="#FF6703"/>
<path d="M187.036 216.039C187.1 211.98 187.681 207.704 187.681 207.704C187.681 207.704 176.427 201.252 173.407 204.119C172.002 205.453 170.559 207.687 169.254 210.081C166.61 214.93 164.543 220.432 164.543 220.432H187.265C187.066 219.18 187.011 217.626 187.036 216.037V216.039Z" fill="#FFBE40"/>
<path d="M187.266 220.436H164.543V223.165H187.266V220.436Z" fill="#FF6703"/>
<path d="M175.904 212.895C169.63 212.895 166.712 215.188 164.543 220.436H187.266C185.422 215.316 182.179 212.895 175.904 212.895Z" fill="#FEFE6E"/>
<path d="M173.407 204.119C172.002 205.453 170.559 207.687 169.254 210.081C169.254 210.081 182.017 207.946 187.036 216.039C187.1 211.98 187.681 207.704 187.681 207.704C187.681 207.704 176.427 201.252 173.407 204.119Z" fill="#DB891D"/>
<path d="M287.738 86.1613C286.91 86.2387 286.124 86.5604 285.479 87.0858C284.834 87.6111 284.359 88.3162 284.116 89.1116C282.863 92.709 282.573 96.5719 283.275 100.316C283.401 100.989 283.531 101.582 283.656 102.007C284.248 104.023 287.849 104.168 287.849 104.168L287.743 99.5052L286.733 96.2026L287.798 94.5145C288.036 94.5327 288.276 94.5309 288.514 94.5091L297.665 93.7954L296.891 85.4485L287.738 86.1613Z" fill="#FF6703"/>
<path d="M306.295 81.118C306.295 81.118 302.538 84.3552 297.487 85.4058C297.086 85.4903 296.67 85.5657 296.236 85.6347C296.148 85.6327 296.061 85.6406 295.975 85.6583C294.603 86.0533 293.837 87.7114 294.047 89.9779C294.258 92.2444 295.461 93.9825 296.736 93.8644H296.769C297.223 93.8217 297.697 93.7927 298.169 93.7736C298.174 93.7736 298.174 93.7736 298.174 93.7736C301.509 93.6474 304.39 95.4244 307.142 96.6948C307.141 96.6903 313.043 87.537 306.295 81.118Z" fill="#1CBBBB"/>
<path d="M296.239 85.6347C296.151 85.6327 296.064 85.6407 295.978 85.6583C294.606 86.0533 293.84 87.7114 294.05 89.9779C294.261 92.2445 295.464 93.9825 296.739 93.8644C294.639 91.6461 295.014 89.3241 295.535 87.9621C295.667 87.6175 295.889 87.3149 296.179 87.086C296.468 86.857 296.814 86.7102 297.179 86.6608C304.469 85.6874 306.295 81.1216 306.295 81.1216C306.295 81.1216 302.538 84.3589 297.487 85.4095C297.089 85.4903 296.674 85.5657 296.239 85.6347Z" fill="#119390"/>
<path d="M311.132 98.851C314.243 98.5624 316.355 93.912 315.85 88.4639C315.344 83.0159 312.413 78.8333 309.302 79.1219C306.191 79.4105 304.078 84.061 304.584 89.509C305.089 94.9571 308.021 99.1396 311.132 98.851Z" fill="#364547"/>
<path d="M314.296 89.2115C314.284 89.0145 314.267 88.8147 314.249 88.6149C313.827 84.0637 311.995 80.5141 310.156 80.6849C309.43 80.7521 308.808 81.3941 308.35 82.4274C308.326 82.4846 308.3 82.5437 308.277 82.6027C308.069 83.1263 307.909 83.668 307.801 84.2208C307.509 85.6374 307.42 87.3736 307.592 89.2315C307.758 91.0231 308.143 92.6603 308.663 93.9761C308.885 94.5583 309.165 95.1168 309.498 95.6433C310.158 96.6622 310.921 97.2333 311.685 97.1625C313.442 96.999 314.568 93.4976 314.295 89.217L314.296 89.2115Z" fill="#1CBBBB"/>
<path d="M310.156 80.6839C309.43 80.7511 308.808 81.3931 308.35 82.4265C308.35 82.4265 312.709 81.1098 314.295 89.2124C314.283 89.0154 314.266 88.8156 314.248 88.6158C313.827 84.0628 311.995 80.5132 310.156 80.6839Z" fill="#119390"/>
<path d="M296.739 93.8644C295.468 93.9825 294.26 92.2445 294.05 89.9779C293.84 87.7114 294.606 86.0533 295.978 85.6583C296.064 85.6407 296.151 85.6327 296.239 85.6347C296.674 85.5657 297.089 85.4903 297.49 85.4059C296.97 85.0172 296.388 84.8229 295.793 84.8774C294.033 85.0408 292.81 87.3291 293.056 89.9907C293.302 92.6522 294.927 94.6808 296.688 94.5173C297.257 94.454 297.784 94.1885 298.173 93.7691C297.701 93.79 297.229 93.819 296.773 93.8599L296.739 93.8644Z" fill="#364547"/>
<path d="M309.678 85.6301C309.021 85.6873 308.623 87.2419 308.787 89.1007C308.951 90.9595 309.616 92.4206 310.273 92.3625C310.929 92.3044 311.328 90.7498 311.163 88.891C310.999 87.0322 310.334 85.5684 309.678 85.6301Z" fill="#FF6703"/>
<path d="M308.787 89.098C308.623 87.2383 309.021 85.6837 309.678 85.6265L307.801 84.2199C307.509 85.6365 307.42 87.3727 307.592 89.2306C307.758 91.0231 308.143 92.6594 308.663 93.9743L310.272 92.3588C309.616 92.417 308.951 90.9559 308.787 89.098Z" fill="#FCFCD4"/>
<path d="M292.641 87.3854C292.652 87.3489 292.654 87.3102 292.647 87.2728C292.639 87.2353 292.623 87.2002 292.599 87.1705C292.575 87.1407 292.545 87.1172 292.51 87.102C292.475 87.0867 292.436 87.0802 292.398 87.083L287.354 87.478C287.053 87.5011 286.763 87.6064 286.518 87.7825C286.272 87.9586 286.08 88.1988 285.961 88.4769C285.187 90.3057 286.019 91.7831 286.688 92.584C286.858 92.7887 287.075 92.9491 287.32 93.0517C287.566 93.1544 287.833 93.1961 288.098 93.1734L292.936 92.762C292.975 92.7585 293.013 92.7452 293.046 92.7232C293.079 92.7012 293.105 92.6713 293.123 92.6362C293.141 92.6012 293.15 92.5621 293.149 92.5227C293.148 92.4832 293.137 92.4447 293.118 92.4106C291.915 90.3629 292.392 88.1945 292.641 87.3854Z" fill="#C9C89F"/>
<path d="M292.214 87.1148L286.813 87.538C286.512 87.5611 286.222 87.6664 285.977 87.8426C285.731 88.0187 285.539 88.2588 285.42 88.5368C284.646 90.3648 285.478 91.8431 286.146 92.644C286.317 92.8487 286.534 93.0092 286.78 93.1118C287.025 93.2144 287.292 93.2561 287.558 93.2333L292.78 92.7884C290.964 90.1205 292.214 87.1148 292.214 87.1148Z" fill="#FCFCD4"/>
<path d="M289.652 88.0882C289.662 88.0573 289.664 88.0246 289.657 87.9928C289.651 87.9611 289.638 87.9313 289.617 87.9061C289.597 87.8809 289.571 87.861 289.541 87.8481C289.512 87.8352 289.479 87.8297 289.447 87.8322C289.399 87.8406 289.354 87.8619 289.316 87.8939C289.279 87.9258 289.251 87.9673 289.236 88.0138C289.042 88.5849 288.485 90.6372 289.681 92.5296C289.704 92.566 289.736 92.5954 289.775 92.6146C289.813 92.6338 289.856 92.6421 289.899 92.6385C289.933 92.6359 289.965 92.6248 289.993 92.6063C290.021 92.5878 290.044 92.5626 290.059 92.5329C290.075 92.5033 290.082 92.4702 290.082 92.4367C290.081 92.4032 290.072 92.3705 290.055 92.3416C289.039 90.6072 289.442 88.7738 289.652 88.0882Z" fill="#FF6703"/>
<path d="M288.056 88.2835C288.065 88.2526 288.067 88.2198 288.061 88.1881C288.055 88.1563 288.041 88.1266 288.021 88.1014C288.001 88.0761 287.975 88.0562 287.945 88.0433C287.915 88.0305 287.883 88.025 287.851 88.0274C287.803 88.0358 287.757 88.0571 287.72 88.0891C287.683 88.1211 287.655 88.1625 287.639 88.209C287.446 88.7802 286.888 90.8324 288.084 92.7248C288.107 92.7612 288.14 92.7906 288.178 92.8098C288.217 92.829 288.26 92.8373 288.303 92.8338C288.336 92.8311 288.369 92.82 288.397 92.8015C288.424 92.7831 288.447 92.7578 288.463 92.7282C288.478 92.6985 288.486 92.6654 288.485 92.6319C288.484 92.5985 288.475 92.5658 288.458 92.5368C287.442 90.8061 287.845 88.9691 288.056 88.2835Z" fill="#FF6703"/>
<path d="M290.86 88.0665H290.722V88.1164C290.604 88.2072 290.521 88.4079 290.521 88.6431C290.52 88.8783 290.604 89.0926 290.727 89.1797V89.2233H290.854C291.035 89.2233 291.191 88.9664 291.192 88.6467C291.194 88.3271 291.046 88.0674 290.86 88.0665Z" fill="#DB891D"/>
<path d="M290.734 88.0656C290.548 88.0656 290.396 88.3225 290.394 88.6422C290.393 88.9618 290.542 89.2206 290.728 89.2224C290.913 89.2242 291.064 88.9645 291.066 88.6458C291.068 88.3271 290.919 88.0665 290.734 88.0656Z" fill="#FFB037"/>
<path d="M290.866 90.1251L290.73 90.1505L290.74 90.1995C290.641 90.3103 290.599 90.5237 290.642 90.7552C290.686 90.9868 290.81 91.1802 290.946 91.2429L290.955 91.2847L291.079 91.262C291.261 91.2274 291.361 90.945 291.302 90.6263C291.243 90.3076 291.048 90.0906 290.866 90.1251Z" fill="#685E16"/>
<path d="M290.741 90.1486C290.56 90.1822 290.459 90.4646 290.518 90.7788C290.577 91.093 290.772 91.3236 290.955 91.2846C291.137 91.2456 291.237 90.9686 291.178 90.6544C291.119 90.3402 290.924 90.1141 290.741 90.1486Z" fill="#8E9C69"/>
<path d="M289.648 100.516C289.574 100.485 289.498 100.459 289.421 100.439C289.202 100.382 289.058 100.087 288.938 99.6923C288.719 98.9922 288.552 97.9724 288.084 97.3867C288.015 97.2985 287.935 97.2189 287.846 97.1497C287.719 97.0533 287.616 96.9291 287.545 96.7865C287.108 95.9211 287.797 94.5164 287.797 94.5164C287.797 94.5164 285.719 94.4319 285.584 96.1309C285.45 97.8299 285.307 97.8117 286.492 99.2183C287.677 100.625 285.375 104.955 289.283 104.129C289.283 104.129 291.866 103.733 290.669 101.34C290.403 100.984 290.052 100.701 289.648 100.516Z" fill="#7F7DE0"/>
<path d="M287.298 94.9995L287.71 96.5605L287.935 96.5314C288.024 96.5198 288.105 96.4748 288.161 96.4056C288.217 96.3363 288.245 96.2481 288.239 96.1591C288.205 95.725 288.276 94.9332 289.051 94.264L288.276 94.471L287.298 94.9995Z" fill="#B795C6"/>
<path d="M286.587 94.7462C286.25 95.4381 286.254 95.9484 286.334 96.2781C286.365 96.4061 286.442 96.5179 286.551 96.5914C286.661 96.665 286.793 96.6951 286.924 96.6758L287.71 96.5605C287.422 95.094 288.276 94.4719 288.276 94.4719L287.466 93.9008L286.587 94.7462Z" fill="#EADDFF"/>
<path d="M288.938 99.6923C287.699 100.078 287.538 101.182 287.538 101.182C288.496 100.404 289.648 100.516 289.648 100.516C289.574 100.485 289.498 100.459 289.421 100.439C289.202 100.382 289.061 100.087 288.938 99.6923Z" fill="#5D5DC1"/>
<path d="M287.846 97.1498C287.719 97.0534 287.616 96.9291 287.545 96.7866C287.051 96.9557 286.638 97.3028 286.386 97.76C287.449 96.9809 288.068 97.3768 288.084 97.3868C288.015 97.2985 287.935 97.2189 287.846 97.1498Z" fill="#5D5DC1"/>
<path d="M291.13 93.9453L289.462 94.0751C288.333 93.1825 286.628 93.3941 286.628 93.3941C286.628 93.3941 286.265 93.2125 283.404 94.0769C280.498 94.9568 281.425 100.289 281.425 100.289L275.148 116.528L274.36 116.843L267.561 119.56L266.711 120.694L268.346 126.649L270.644 126.94L279.18 123.013L281.411 119.176L290.146 104.155C290.986 103.358 291.61 102.332 292.023 101.222L292.034 101.194C294.088 95.9702 291.13 93.9453 291.13 93.9453Z" fill="#F5AE97"/>
<path d="M288.687 103.216C284.238 100.9 286.669 96.5278 286.669 96.5278C287.633 96.4624 288.813 96.2272 289.493 95.5289C290.785 94.2004 288.494 93.5893 288.494 93.5893C291.235 96.0238 285.102 96.5123 285.102 96.5123C284.073 100.8 286.426 102.429 287.864 103.013C287.844 103.005 287.822 103 287.798 102.992C287.864 103.021 289.203 103.628 288.448 105.388L280.232 119.177L278.446 122.419L268.347 126.651L270.645 126.941L279.181 123.015L281.412 119.177L290.147 104.156C290.988 103.36 291.612 102.334 292.026 101.223C291.779 101.818 290.872 103.529 288.687 103.216Z" fill="#ED856E"/>
<path d="M274.36 116.844C274.159 119.12 275.148 119.854 275.148 119.854C274.898 117.936 275.148 116.529 275.148 116.529L274.36 116.844Z" fill="#ED856E"/>
<path d="M271.636 223.14C270.998 222.199 270.305 221.296 269.563 220.436C266.997 217.476 263.842 215.147 260.028 214.071L256.251 213.005L245.493 210.606C244.914 210.477 244.316 210.471 243.735 210.587C243.154 210.703 242.604 210.94 242.12 211.281C241.636 211.623 241.228 212.062 240.924 212.57C240.62 213.079 240.425 213.645 240.353 214.233L239.59 220.436L239.254 223.16H271.667C271.661 223.159 271.655 223.157 271.649 223.154C271.644 223.15 271.639 223.146 271.636 223.14Z" fill="#FFBE40"/>
<path d="M271.636 223.14C270.998 222.199 270.306 221.296 269.563 220.436C266.997 217.476 263.842 215.147 260.028 214.071C260.028 214.071 253.737 216.246 257.213 223.165H271.671C271.664 223.164 271.657 223.161 271.65 223.157C271.644 223.153 271.639 223.147 271.636 223.14Z" fill="#FEFE6E"/>
<path d="M271.636 223.14C270.998 222.199 270.306 221.296 269.563 220.436H239.597L239.261 223.16H271.674C271.666 223.16 271.659 223.158 271.652 223.155C271.646 223.151 271.64 223.146 271.636 223.14Z" fill="#FF6703"/>
<path d="M265.806 170.84L254.645 163.03L231.907 164.211C231.907 164.211 177.731 197.517 168.861 207.289C168.8 207.357 168.761 207.442 168.75 207.533C168.739 207.624 168.756 207.716 168.8 207.797C168.843 207.878 168.91 207.943 168.992 207.985C169.073 208.026 169.166 208.041 169.257 208.027C172.303 207.573 180.614 206.959 185.313 212.568C186.009 213.404 186.593 214.328 187.052 215.315L226.317 186.48C230.155 184.461 233.241 181.577 238.281 180.492C247.054 178.331 247.669 180.987 254.768 184.585L239.255 214.07C239.255 214.07 246.775 218.882 260.11 213.456C260.11 213.45 267.043 195.916 270.348 187.786C271.755 184.154 271.577 185.153 272.378 182.474C273.592 175.789 269.365 173.246 265.806 170.84Z" fill="#1CBBBB"/>
<path d="M267.561 119.561L259.763 121.11L258.814 121.298L251.765 122.577C251.765 122.577 251.418 122.7 250.805 122.959C248.666 123.861 243.273 126.418 237.923 131.193C237.923 131.193 242.441 132.23 241.918 139.559C241.852 139.72 233.248 160.375 230.964 164.062C230.964 164.062 232.246 164.811 234.573 165.52C238.866 166.829 246.712 167.999 256.595 164.062C256.595 164.062 259.137 148.736 261.688 138.174C262.596 134.424 263.504 131.273 264.299 129.625L270.644 126.94C270.644 126.94 266.672 126.454 267.561 119.561Z" fill="#364547"/>
<path d="M241.92 139.56C241.854 139.721 233.25 160.376 230.966 164.063C230.966 164.063 232.248 164.812 234.575 165.521L246.682 134.92L241.921 139.558L241.92 139.56Z" fill="black"/>
<path d="M260.915 137.968L261.69 138.175C262.598 134.425 263.506 131.274 264.3 129.626L270.646 126.94L263.163 129.281L260.915 137.968Z" fill="black"/>
<path d="M258.814 121.298L251.765 122.577C251.765 122.577 251.418 122.7 250.805 122.959C250.805 122.959 254.346 126.58 257.637 125.734C259.924 125.145 259.956 122.605 259.763 121.11L258.814 121.298Z" fill="black"/>
<path d="M264.513 131.773C263.63 131.892 262.74 131.955 261.849 131.964C259.439 132.007 258.232 131.84 256.812 134.325L241.92 139.555C242.052 138.74 242.093 137.912 242.043 137.088C241.921 134.951 241.135 132.068 237.922 131.186C237.922 131.186 232.184 135.793 231.916 143.933C231.648 152.073 236.358 150.782 243.096 148.98C249.835 147.178 259.199 144.017 259.199 144.017C259.199 144.017 265.234 144.114 267.657 142.644C268.071 142.394 268.378 142.099 268.534 141.748C269.602 139.353 268.85 131.173 264.513 131.773Z" fill="#F5AE97"/>
<path d="M238.362 140.763L241.921 139.559C242.053 138.744 242.094 137.916 242.044 137.092L238.362 140.763Z" fill="#ED856E"/>
<path d="M264.513 131.773C263.63 131.892 262.74 131.955 261.849 131.964C261.849 131.964 259.443 132.81 260.143 132.997C260.843 133.184 263.552 132.204 264.977 132.297C266.402 132.391 269.733 137.735 267.657 142.649C268.072 142.399 268.379 142.104 268.535 141.754C269.602 139.353 268.85 131.173 264.513 131.773Z" fill="#ED856E"/>
<path d="M229.44 181.007L185.308 212.569C186.004 213.406 186.589 214.329 187.047 215.316L226.313 186.482C230.151 184.462 233.237 181.578 238.276 180.494C247.05 178.333 247.665 180.989 254.764 184.587L255.976 182.471L250.8 179.097C239.565 173.005 229.44 181.007 229.44 181.007Z" fill="#119390"/>
<path d="M261.404 102.673L254.353 101.362L249.849 110.534C249.849 110.534 246.465 108.99 246.139 112.622C245.987 114.332 247.146 115.353 248.308 115.939C248.312 115.939 248.312 115.939 248.317 115.939C248.498 116.03 248.68 116.115 248.852 116.182C249.276 116.355 249.715 116.493 250.162 116.594C250.263 116.616 250.357 116.666 250.432 116.738C250.507 116.81 250.561 116.901 250.587 117.002C250.851 117.948 251.573 120.657 251.767 122.575C253.869 124.242 255.366 124.869 256.426 124.973C257.766 125.103 258.906 123.998 258.863 122.653L258.772 119.895C264.173 119.503 263.071 109.411 263.071 109.411L261.404 102.673Z" fill="#F5AE97"/>
<path d="M254.373 117.803C254.373 117.803 254.473 120.641 258.818 121.319L258.773 119.901C258.168 119.955 256.116 119.955 254.373 117.803Z" fill="#ED856E"/>
<path d="M249.237 112.496C249.237 112.49 249.237 112.482 249.241 112.476C249.357 111.995 248.787 111.625 248.39 111.927C248.064 112.177 247.825 112.665 248.22 113.614C248.988 115.455 249.924 114.493 249.775 113.923C249.626 113.352 249.068 113.167 249.237 112.496Z" fill="#ED856E"/>
<path d="M256.526 109.043C256.214 109.107 255.928 109.258 255.697 109.477C255.473 109.691 255.272 109.972 255.272 110.294C255.272 110.447 255.346 110.59 255.513 110.613C255.65 110.631 255.831 110.522 255.832 110.37C255.832 110 256.258 109.674 256.601 109.602C256.778 109.559 256.964 109.579 257.129 109.658C257.27 109.724 257.383 109.84 257.445 109.983C257.588 110.318 258.108 110.097 257.965 109.761C257.731 109.214 257.1 108.924 256.526 109.043Z" fill="#072C35"/>
<path d="M261.18 108.19C260.601 108.237 260.171 108.765 260 109.28C259.976 109.348 259.978 109.423 260.008 109.489C260.037 109.555 260.091 109.608 260.158 109.636C260.225 109.664 260.3 109.665 260.367 109.639C260.435 109.613 260.49 109.563 260.522 109.498C260.634 109.159 260.877 108.789 261.223 108.748C261.521 108.713 261.964 108.902 262.086 109.183C262.116 109.252 262.171 109.307 262.241 109.335C262.311 109.363 262.388 109.362 262.457 109.333C262.526 109.303 262.581 109.248 262.609 109.178C262.637 109.109 262.636 109.031 262.607 108.962C262.381 108.447 261.728 108.145 261.18 108.19Z" fill="#072C35"/>
<path d="M261.437 110.211C261.165 110.249 260.983 110.634 261.046 111.075C261.109 111.515 261.376 111.84 261.652 111.801C261.928 111.762 262.106 111.377 262.044 110.938C261.981 110.498 261.713 110.174 261.437 110.211Z" fill="#072C35"/>
<path d="M256.857 110.783C256.566 110.822 256.381 111.23 256.444 111.691C256.506 112.153 256.793 112.5 257.079 112.46C257.366 112.42 257.555 112.013 257.493 111.552C257.43 111.09 257.148 110.746 256.857 110.783Z" fill="#072C35"/>
<path d="M260.888 115.068L257.555 115.081C257.508 115.081 257.46 115.092 257.417 115.113C257.374 115.133 257.337 115.164 257.307 115.201C257.277 115.238 257.256 115.282 257.246 115.328C257.235 115.375 257.235 115.423 257.246 115.47C257.418 116.196 257.945 117.686 259.344 117.587C260.743 117.488 261.108 116.101 261.205 115.428C261.211 115.383 261.207 115.337 261.194 115.293C261.181 115.25 261.159 115.209 261.129 115.175C261.099 115.141 261.062 115.114 261.02 115.095C260.979 115.077 260.933 115.067 260.888 115.068Z" fill="#CB6655"/>
<path d="M248.852 116.184C249.276 116.357 249.715 116.495 250.162 116.596C250.162 116.596 251.373 116.537 251.413 115.386C251.347 115.5 250.62 116.671 248.852 116.184Z" fill="#ED856E"/>
<path d="M258.053 100.191L251.811 100.683L249.35 103.417L247.107 107.381L250.042 110.799C250.042 110.799 252.723 112.706 255.423 108.438C255.423 108.438 256.822 106.206 257.116 104.782C257.347 103.652 258.231 104.969 258.22 105.464C258.22 105.464 258.785 102.662 260.21 104.884C260.21 104.884 260.6 105.37 261.754 108.334L261.642 102.511L258.053 100.191Z" fill="#ED856E"/>
<path d="M243.836 99.0967C242.95 98.8769 243.014 100.394 244.812 101.598C244.832 101.61 244.854 101.617 244.876 101.617C244.899 101.617 244.921 101.61 244.94 101.598C244.959 101.586 244.975 101.568 244.984 101.548C244.994 101.527 244.997 101.505 244.994 101.482C244.895 100.855 244.575 99.2792 243.836 99.0967Z" fill="#0E4959"/>
<path d="M244.518 101.94C244.09 101.758 242.986 101.342 242.587 101.727C242.105 102.19 243.07 102.743 244.518 102.099C244.532 102.091 244.544 102.079 244.553 102.065C244.561 102.051 244.565 102.035 244.565 102.019C244.565 102.003 244.561 101.987 244.553 101.973C244.544 101.959 244.532 101.948 244.518 101.94Z" fill="#0E4959"/>
<path d="M264.924 106.105C264.379 103.445 265.543 101.595 263.141 100.435C263.141 100.435 260.651 95.409 257.247 98.2558C257.247 98.2558 253.637 95.7495 249.521 97.3731C245.405 98.9967 245.302 102.367 245.302 102.367C245.302 102.367 241.216 104.896 245.891 110.649C246.083 110.888 246.294 111.133 246.52 111.381C246.52 111.381 247.293 109.337 249.895 110.729C252.339 112.033 256.342 107.513 256.496 104.421C256.521 103.865 257.067 103.44 257.581 103.662C257.818 103.763 258.057 103.987 258.251 104.407C258.251 104.407 258.62 102.5 260.142 104.152C261.665 105.804 261.19 109.272 263.178 110.209C264.763 110.958 265.277 109.592 265.148 107.657C265.104 107.136 265.03 106.617 264.924 106.105Z" fill="#0E4959"/>
<path d="M265.142 107.654C265.142 107.654 264.665 110.197 263.223 109.059C261.781 107.921 260.83 99.6151 258.21 103.393C258.21 103.393 256.419 101.284 255.849 104.268C255.279 107.252 252.044 110.09 250.303 109.362C248.561 108.635 246.231 109.355 245.952 110.469C245.936 110.531 245.917 110.591 245.895 110.651C246.086 110.89 246.298 111.135 246.523 111.383C246.523 111.383 247.297 109.339 249.899 110.731C252.343 112.035 256.346 107.514 256.499 104.422C256.525 103.867 257.07 103.442 257.584 103.664C257.821 103.765 258.061 103.988 258.254 104.409C258.254 104.409 258.623 102.502 260.146 104.154C261.669 105.805 261.194 109.274 263.182 110.21C264.766 110.959 265.28 109.594 265.151 107.659L265.142 107.654Z" fill="#06252C"/>
<path d="M248.547 108.155C253.777 107.567 254.218 102.532 254.218 102.532C252.156 106.459 248.547 108.155 248.547 108.155Z" fill="#06252C"/>
<path d="M245.361 103.497C245.361 103.497 243.454 105.166 245.824 108.795C245.824 108.795 244.585 105.923 245.361 103.497Z" fill="#06252C"/>
<path d="M257.632 99.0249C260.872 98.2077 262.45 100.76 262.45 100.76C260.269 96.7085 257.632 99.0249 257.632 99.0249Z" fill="#06252C"/>
<path d="M246.249 102.012C249.317 98.1214 255.227 98.7126 255.227 98.7126C248.436 96.9128 246.249 102.012 246.249 102.012Z" fill="#06252C"/>
</g>
<defs>
<clipPath id="clip0_225_4596">
<rect width="325" height="240" fill="white" transform="translate(0.5)"/>
</clipPath>
</defs>
</svg>
