<svg width="196" height="138" viewBox="0 0 196 138" fill="none" xmlns="http://www.w3.org/2000/svg">
<rect x="0.452576" width="195.095" height="138" rx="9.98399" fill="#F1F5F9"/>
<g clip-path="url(#clip0_1_7789)">
<path d="M158.854 71.5093C147.291 67.5285 170.383 66.6074 163.046 40.6697C162.676 39.3625 161.068 35.4927 160.712 34.8138C151.546 17.3378 112.131 14.4456 107.371 28.7758C104.847 36.3714 108.99 28.5956 74.5723 27.6222C59.5567 27.1973 49.894 32.7644 45.655 42.6725C45.3263 43.4386 45.0258 44.2195 44.7534 45.0153C42.0908 52.7543 42.0361 61.7058 45.2302 68.7973C52.9953 86.0389 35.1582 70.4938 30.987 82.2602C23.3513 103.797 43.5222 116.129 43.5222 116.129L156.288 116.307C174.048 107.853 175.369 77.1949 158.854 71.5093Z" fill="#D6E6FE"/>
<path d="M159.806 84.2365C159.059 90.0973 159.249 96.8367 159.249 96.8367C169.886 88.7145 167.942 81.8958 166.763 80.1409C165.104 77.6736 160.554 78.3758 159.806 84.2365Z" fill="#9DB8FD"/>
<path d="M159.114 97.1198L159.106 96.8408C159.106 96.7734 158.924 90.0229 159.664 84.2182C159.865 82.6491 160.34 81.3587 161.076 80.3856C161.722 79.5306 162.544 78.9649 163.451 78.7516C164.787 78.4354 166.133 78.9497 166.883 80.0625C167.61 81.145 168.231 83.3848 167.577 86.1353C167.185 87.7897 166.383 89.4711 165.193 91.1328C163.782 93.1043 161.811 95.0618 159.336 96.9515L159.114 97.1198ZM159.806 84.2365L159.948 84.2545C159.294 89.3644 159.361 95.2137 159.385 96.5504C161.733 94.7313 163.607 92.853 164.96 90.9641C166.128 89.333 166.915 87.6855 167.298 86.0674C167.602 84.7815 167.651 83.5384 167.441 82.3722C167.228 81.1826 166.812 80.471 166.644 80.2202C165.963 79.2071 164.736 78.7394 163.517 79.0278C162.675 79.2271 161.91 79.7561 161.304 80.5576C160.598 81.4914 160.142 82.7349 159.948 84.2537L159.806 84.2365Z" fill="black"/>
<path d="M159.664 100.032C167.525 101.807 173.251 97.5168 170.903 93.7586C168.554 90.0004 159.664 100.032 159.664 100.032Z" fill="#6178E3"/>
<path d="M163.259 100.589C162.039 100.584 160.822 100.444 159.633 100.171L159.397 100.118L159.557 99.9369C160.725 98.6474 161.961 97.4219 163.26 96.2657C166.017 93.8343 168.138 92.6619 169.564 92.7812C170.191 92.8335 170.682 93.1366 171.024 93.6828C171.81 94.941 171.759 96.3143 170.884 97.5492C170.042 98.7339 168.526 99.6665 166.615 100.171C165.519 100.454 164.391 100.595 163.259 100.589ZM159.936 99.9447C162.272 100.438 164.553 100.422 166.543 99.8952C168.39 99.4071 169.849 98.5149 170.652 97.3834C171.455 96.2518 171.503 94.9883 170.782 93.8343C170.487 93.3625 170.081 93.1113 169.541 93.0659C166.596 92.82 160.972 98.8144 159.936 99.9447Z" fill="black"/>
<path d="M156.912 106.391C164.396 109.38 172.055 106.661 170.327 102.581C168.6 98.5 156.912 106.391 156.912 106.391Z" fill="#9DB8FD"/>
<path d="M163.347 107.8C161.212 107.8 158.95 107.359 156.86 106.523L156.609 106.423L156.832 106.272C158.387 105.247 159.994 104.303 161.647 103.446C165.155 101.645 167.685 100.954 169.167 101.393C169.784 101.576 170.218 101.957 170.459 102.525C170.958 103.704 170.737 104.822 169.82 105.759C168.764 106.837 166.846 107.563 164.557 107.751C164.16 107.784 163.756 107.8 163.347 107.8ZM157.222 106.358C159.603 107.266 162.189 107.659 164.534 107.467C166.755 107.284 168.607 106.588 169.616 105.559C170.446 104.711 170.647 103.701 170.196 102.637C169.987 102.144 169.624 101.828 169.086 101.668C166.015 100.757 158.619 105.445 157.222 106.358Z" fill="black"/>
<path d="M154.473 86.1616C148.687 86.3772 152.769 96.9917 156.136 100.45C156.136 100.45 160.258 85.9463 154.473 86.1616Z" fill="#6178E3"/>
<path d="M156.206 100.727L156.034 100.55C154.727 99.2049 153.344 96.8524 152.431 94.4104C151.029 90.6599 151.396 88.6616 151.739 87.8041C152.193 86.6701 153.111 86.0692 154.468 86.0186C155.394 85.9842 156.134 86.3119 156.668 86.9924C157.722 88.3352 157.975 91.0194 157.418 94.9708C157.148 96.8316 156.766 98.6745 156.274 100.489L156.206 100.727ZM154.473 86.1615L154.478 86.3045C153.245 86.3503 152.412 86.8907 152.004 87.9103C151.446 89.3041 151.7 91.6367 152.699 94.3103C153.557 96.6093 154.834 98.8234 156.064 100.167C156.481 98.5999 158.64 89.9683 156.443 87.1693C155.961 86.5566 155.318 86.273 154.478 86.3045L154.473 86.1615Z" fill="black"/>
<path d="M150.161 94.9165C145.137 93.8985 148.772 103.524 152.456 105.261C152.456 105.261 155.184 95.9345 150.161 94.9165Z" fill="#9DB8FD"/>
<path d="M152.546 105.462L152.395 105.39C151.099 104.778 149.717 103.177 148.699 101.104C147.702 99.0713 147.322 97.086 147.708 95.9221C147.941 95.2175 148.562 94.4466 150.189 94.7763C151.201 94.9805 151.982 95.5296 152.511 96.4054C153.264 97.653 153.506 99.5316 153.23 101.989C153.103 103.108 152.89 104.215 152.593 105.301L152.546 105.462ZM149.469 94.9838C148.706 94.9838 148.206 95.3282 147.979 96.012C147.616 97.1072 147.99 99.01 148.956 100.978C149.891 102.882 151.183 104.423 152.364 105.055C152.621 104.086 153.824 99.1317 152.266 96.5529C151.78 95.7485 151.063 95.2457 150.132 95.0565C149.914 95.0105 149.692 94.9861 149.469 94.9838Z" fill="black"/>
<path d="M163.541 84.9042C163.487 85.077 163.431 85.2494 163.375 85.4214C163.218 85.9051 163.056 86.3876 162.892 86.8691C162.637 87.614 162.377 88.3562 162.111 89.0959C161.761 90.0673 161.403 91.035 161.036 91.9991C160.603 93.1361 160.157 94.2683 159.699 95.3957C159.187 96.6556 158.658 97.9083 158.114 99.1539C157.527 100.496 156.919 101.829 156.289 103.152C155.638 104.518 154.961 105.872 154.258 107.212C153.544 108.568 152.798 109.907 152.02 111.227C151.256 112.517 150.456 113.786 149.61 115.023C149.408 115.318 149.202 115.612 148.994 115.903C148.896 116.041 149.096 116.217 149.196 116.078C150.06 114.864 150.877 113.616 151.655 112.346C152.454 111.043 153.217 109.718 153.943 108.371C154.673 107.023 155.373 105.658 156.043 104.279C156.693 102.946 157.319 101.602 157.922 100.247C158.49 98.9746 159.041 97.6936 159.573 96.4043C160.055 95.2393 160.523 94.0683 160.977 92.8912C161.368 91.8836 161.748 90.8711 162.118 89.8536C162.412 89.0459 162.699 88.2362 162.98 87.4247C163.173 86.8667 163.362 86.3074 163.547 85.747C163.629 85.4953 163.725 85.2437 163.792 84.988C163.795 84.9774 163.799 84.9667 163.803 84.9561C163.853 84.7939 163.592 84.7425 163.541 84.9042Z" fill="black"/>
<path d="M169.338 95.6735C169.167 95.8111 168.988 95.9386 168.809 96.0648C168.325 96.4047 167.825 96.7209 167.315 97.0191C165.61 98.0138 163.792 98.7998 161.899 99.3602C160.693 99.7179 159.457 99.9711 158.207 100.117C158.045 100.136 157.884 100.153 157.722 100.167C157.552 100.183 157.567 100.449 157.738 100.433C159.025 100.313 160.299 100.081 161.545 99.7389C162.628 99.4416 163.689 99.0692 164.721 98.6245C165.568 98.26 166.394 97.8495 167.197 97.3949C167.751 97.0804 168.294 96.7454 168.819 96.3839C169.042 96.2299 169.268 96.0742 169.479 95.9018L169.488 95.8953C169.516 95.8749 169.536 95.8444 169.542 95.81C169.549 95.7756 169.542 95.7401 169.523 95.7107C169.503 95.6813 169.473 95.661 169.438 95.654C169.404 95.647 169.368 95.654 169.338 95.6735Z" fill="black"/>
<path d="M167.821 103.854C167.619 103.932 167.415 104.001 167.21 104.071C166.644 104.262 166.072 104.439 165.497 104.602C164.615 104.854 163.726 105.081 162.829 105.282C161.687 105.54 160.537 105.758 159.378 105.936C158.022 106.145 156.658 106.3 155.287 106.399C155.103 106.412 154.919 106.424 154.736 106.435C154.564 106.446 154.58 106.711 154.751 106.701C156.151 106.617 157.545 106.473 158.934 106.27C160.132 106.096 161.325 105.88 162.511 105.622C163.446 105.419 164.375 105.19 165.298 104.933C165.917 104.76 166.532 104.575 167.142 104.373C167.394 104.291 167.65 104.209 167.897 104.108L167.906 104.105C168.066 104.045 167.981 103.793 167.821 103.854Z" fill="black"/>
<path d="M155.84 98.7848C155.566 97.6377 155.338 96.4796 155.145 95.3158C154.982 94.315 154.843 93.3102 154.729 92.3015C154.649 91.588 154.582 90.8732 154.528 90.1573C154.505 89.8468 154.495 89.5351 154.47 89.2255C154.47 89.2214 154.47 89.2169 154.47 89.2128C154.463 89.0413 154.197 89.0572 154.204 89.2284C154.215 89.482 154.231 89.7353 154.249 89.9882C154.297 90.6671 154.357 91.3448 154.431 92.0213C154.537 93.0017 154.666 93.98 154.82 94.9563C155.003 96.1226 155.223 97.2848 155.486 98.4355C155.764 99.6557 156.092 100.866 156.49 102.053C156.539 102.2 156.59 102.347 156.641 102.494C156.698 102.655 156.95 102.57 156.893 102.408C156.48 101.219 156.128 100.01 155.84 98.7848Z" fill="black"/>
<path d="M153.765 108.167L153.763 108.163C153.761 108.158 153.782 108.199 153.765 108.167Z" fill="black"/>
<path d="M153.818 108.272C153.806 108.248 153.794 108.224 153.782 108.2L153.765 108.167C153.781 108.199 153.761 108.157 153.763 108.162L153.765 108.166L153.753 108.141C153.717 108.068 153.682 107.995 153.646 107.922C153.415 107.436 153.2 106.941 152.993 106.444C152.671 105.662 152.374 104.871 152.101 104.069C151.738 103.01 151.412 101.939 151.123 100.856C150.769 99.5407 150.466 98.2137 150.214 96.8746C150.179 96.6932 150.146 96.5116 150.113 96.3296C150.11 96.2948 150.094 96.2625 150.068 96.2393C150.042 96.2161 150.008 96.2037 149.973 96.2046C149.908 96.2083 149.835 96.2741 149.848 96.3452C150.096 97.73 150.395 99.1042 150.746 100.468C151.037 101.59 151.365 102.701 151.731 103.802C152.011 104.642 152.316 105.472 152.646 106.294C152.863 106.829 153.09 107.361 153.336 107.884C153.409 108.041 153.485 108.196 153.562 108.351C153.594 108.413 153.622 108.48 153.659 108.54C153.661 108.542 153.662 108.545 153.663 108.547C153.697 108.611 153.793 108.62 153.848 108.583C153.877 108.562 153.896 108.532 153.903 108.497C153.91 108.463 153.903 108.427 153.884 108.398C153.864 108.358 153.84 108.315 153.818 108.272Z" fill="black"/>
<path d="M35.6471 59.7596C33.5127 61.843 28.864 70.7001 41.2146 84.9808C41.2146 84.9808 43.4205 75.7283 44.0741 67.4194C44.7277 59.1105 38.6492 56.8294 35.6471 59.7596Z" fill="#9DB8FD"/>
<path d="M41.2889 85.2853L41.1063 85.0741C38.237 81.7559 36.0818 78.4895 34.7035 75.3657C33.5421 72.7354 32.9204 70.1896 32.8563 67.7999C32.8044 65.8885 33.1042 64.1116 33.7472 62.5172C34.4094 60.875 35.2268 59.9698 35.5475 59.6577C36.1983 59.0167 37.0333 58.5954 37.9356 58.4526C38.8419 58.3145 39.7688 58.4518 40.5961 58.8468C41.775 59.3991 42.7367 60.4069 43.3772 61.7619C44.1088 63.3097 44.3915 65.217 44.2166 67.431C43.5675 75.6562 41.3755 84.9218 41.3535 85.0145L41.2889 85.2853ZM38.6214 58.6863C37.5457 58.685 36.5129 59.108 35.7472 59.8636C33.7198 61.8424 33.0764 65.3726 33.1418 67.7942C33.2055 70.1467 33.8187 72.6553 34.9649 75.2522C36.3032 78.2832 38.38 81.4528 41.139 84.6759C41.5067 83.0807 43.347 74.8196 43.9315 67.4098C44.1023 65.2448 43.829 63.3877 43.1186 61.8852C42.5058 60.5915 41.5929 59.6307 40.4748 59.1074C39.8954 58.8326 39.2627 58.6888 38.6214 58.6863Z" fill="black"/>
<path d="M26.0061 77.3718C21.6805 81.8853 28.3525 89.4601 39.719 89.273C39.719 89.273 30.3334 72.8582 26.0061 77.3718Z" fill="#6178E3"/>
<path d="M39.3073 89.4195C35.9098 89.4195 32.7362 88.7279 30.1055 87.4109C27.6242 86.169 25.8084 84.4562 24.9935 82.5906C24.1491 80.6555 24.4722 78.7678 25.9032 77.2748C26.518 76.6334 27.2672 76.3618 28.1287 76.4676C29.2317 76.6032 30.5336 77.3634 32.0029 78.7274C33.1668 79.8075 34.4409 81.2699 35.7901 83.073C38.0843 86.1368 39.8257 89.1736 39.8433 89.2038L39.9634 89.4137L39.7215 89.4178C39.5829 89.4189 39.4449 89.4195 39.3073 89.4195ZM26.1095 77.4708C24.7615 78.8753 24.4604 80.6522 25.2553 82.4742C26.0442 84.2809 27.8117 85.9431 30.2333 87.1552C32.8669 88.4738 36.0585 89.1568 39.4719 89.1331C39.0373 88.3937 37.496 85.8279 35.5597 83.2405C33.4646 80.4406 30.4686 77.0419 28.094 76.7498C27.3154 76.6543 26.6663 76.89 26.1095 77.4708Z" fill="black"/>
<path d="M24.2602 89.7211C20.6981 94.8588 30.4927 100.82 41.6897 98.8474C41.6897 98.8474 27.8224 84.5854 24.2602 89.7211Z" fill="#9DB8FD"/>
<path d="M37.2918 99.3728C35.0197 99.3728 32.7876 99.0681 30.7558 98.4667C27.663 97.5513 25.2353 96.0051 24.0952 94.2241C23.6209 93.4835 23.3778 92.722 23.3738 91.9614C23.3689 91.1632 23.6278 90.3817 24.1426 89.6387C24.6279 88.9389 25.3231 88.5471 26.2092 88.474C27.404 88.3752 28.9698 88.8588 30.8636 89.9115C32.3657 90.7465 34.0809 91.941 35.9613 93.4618C39.159 96.0476 41.7648 98.7204 41.791 98.747L41.9793 98.9406L41.7134 98.9876C40.2534 99.2439 38.774 99.3728 37.2918 99.3728ZM26.5233 88.7477C26.4244 88.7477 26.3275 88.7515 26.2324 88.7591C25.4359 88.8249 24.8117 89.1758 24.3778 89.802C23.4342 91.1632 23.4195 92.6391 24.337 94.0705C25.4399 95.7943 27.8092 97.2976 30.8383 98.1931C32.8436 98.7866 35.0483 99.0873 37.2926 99.0873C38.6671 99.0872 40.0393 98.9752 41.3955 98.7523C40.7374 98.0917 38.4691 95.8564 35.7811 93.6828C32.9625 91.407 29.1193 88.7477 26.5233 88.7477Z" fill="black"/>
<path d="M50.8854 71.6143C42.9577 69.6498 44.472 90.8673 44.472 90.8673C50.1174 87.0609 58.8128 73.5784 50.8854 71.6143Z" fill="#6178E3"/>
<path d="M44.347 91.1241L44.3294 90.879C44.327 90.8414 44.0655 87.0881 44.3388 82.9365C44.4993 80.4949 44.8106 78.394 45.2645 76.6922C45.8364 74.5471 46.6395 73.0275 47.6517 72.1758C48.5705 71.4025 49.6701 71.1672 50.9197 71.4768C52.7539 71.9311 53.834 73.0095 54.1297 74.6819C54.334 75.8364 54.1551 77.2489 53.5987 78.8805C53.1048 80.3258 52.3029 81.9442 51.2804 83.5639C49.3196 86.6685 46.7428 89.5113 44.5537 90.9872L44.347 91.1241ZM49.8952 71.63C49.1289 71.63 48.4393 71.8849 47.836 72.3927C46.8695 73.206 46.0974 74.6762 45.541 76.7637C45.0917 78.4471 44.7837 80.5292 44.6243 82.9516C44.3923 86.4696 44.5463 89.7008 44.599 90.6069C46.7118 89.1155 49.1583 86.3846 51.037 83.4108C52.048 81.8107 52.8397 80.2122 53.3246 78.7874C53.8667 77.2024 54.0423 75.8376 53.8462 74.7314C53.5717 73.1791 52.5631 72.1786 50.8487 71.7538C50.537 71.6741 50.2169 71.6326 49.8952 71.63Z" fill="black"/>
<path d="M54.3181 84.9469C47.0876 84.906 48.1685 98.5716 48.1685 98.5716C53.7552 97.2337 61.5489 84.9881 54.3181 84.9469Z" fill="#9DB8FD"/>
<path d="M48.0394 98.7495L48.0259 98.5828C47.9292 97.0009 47.9541 95.4138 48.1003 93.8356C48.242 92.3262 48.4953 90.9721 48.8527 89.8111C49.3021 88.3507 49.9193 87.1918 50.6865 86.3658C51.6501 85.329 52.8609 84.8037 54.2854 84.8037H54.3185C56.6183 84.8168 57.2409 86.0321 57.3581 87.0505C57.5542 88.7543 56.4619 91.3703 54.5072 93.8781C52.5125 96.437 50.1554 98.2442 48.202 98.7123L48.0394 98.7495ZM54.2858 85.0897C52.9434 85.0897 51.8033 85.5844 50.8952 86.5603C49.2183 88.3642 48.604 91.5244 48.3842 93.8577C48.246 95.3651 48.2175 96.8805 48.2988 98.392C49.2151 98.138 50.2457 97.573 51.2915 96.7491C52.3372 95.9251 53.3658 94.8761 54.2805 93.7029C56.1906 91.2519 57.2625 88.7155 57.0726 87.0852C56.9214 85.7731 55.9941 85.1031 54.316 85.0933L54.2858 85.0897Z" fill="black"/>
<path d="M30.8138 103.398C26.8599 108.558 38.1292 109.984 43.4981 106.688C43.4981 106.688 35.1419 97.7485 30.8138 103.398Z" fill="#9DB8FD"/>
<path d="M36.3343 108.601H36.3049C33.6108 108.596 31.4151 107.943 30.4323 106.853C29.8289 106.184 29.3857 105.026 30.7003 103.311C31.6247 102.104 32.8032 101.458 34.2036 101.391C36.0104 101.303 38.1415 102.153 40.541 103.918C41.6328 104.724 42.6567 105.618 43.6023 106.592L43.722 106.72L43.5729 106.811C41.7449 107.932 39.0406 108.601 36.3343 108.601ZM30.9274 103.485C29.9678 104.737 29.8731 105.805 30.6443 106.661C31.5745 107.692 33.6905 108.311 36.3053 108.315H36.3343C38.9152 108.315 41.4887 107.699 43.2702 106.658C42.3686 105.747 41.3983 104.906 40.3678 104.144C37.4479 101.997 35.4115 101.616 34.2175 101.675C32.9049 101.739 31.7979 102.348 30.9274 103.485Z" fill="black"/>
<path d="M45.5243 102.293C44.316 98.2441 43.2898 94.142 42.3911 90.0137C41.5927 86.347 40.8911 82.6608 40.2866 78.9552C39.8451 76.2714 39.4502 73.58 39.1019 70.8812C38.9499 69.6912 38.8531 68.4902 38.6844 67.3031C38.682 67.2876 38.6812 67.2717 38.6795 67.2562C38.6615 67.0715 38.3723 67.0862 38.3903 67.2725C38.4851 68.2451 38.6027 69.2162 38.7232 70.1859C39.0402 72.7445 39.4035 75.2968 39.8131 77.8428C40.3877 81.442 41.0475 85.0266 41.7923 88.5966C42.6571 92.718 43.6444 96.8152 44.8037 100.864C45.9827 104.981 47.3364 109.056 48.9843 113.01C49.1788 113.476 49.3774 113.94 49.5803 114.403C49.6547 114.572 49.9308 114.484 49.8557 114.313C48.1441 110.41 46.7429 106.375 45.5243 102.293Z" fill="black"/>
<path d="M27.625 80.5465L27.6206 80.5416C27.6038 80.5216 27.6504 80.5771 27.625 80.5465Z" fill="black"/>
<path d="M42.3433 90.0589C40.6229 89.5277 38.9523 88.8468 37.3506 88.0241C35.9507 87.3059 34.6024 86.4912 33.3155 85.5858C32.2648 84.8482 31.2556 84.0531 30.2926 83.2042C29.6243 82.6152 28.9772 82.0008 28.3616 81.3562C28.179 81.1646 27.9989 80.9702 27.8232 80.772C27.7715 80.7135 27.72 80.6547 27.6688 80.5956L27.6255 80.5445C27.6508 80.5751 27.6043 80.5196 27.6198 80.538L27.6243 80.5429C27.6206 80.5384 27.6165 80.5339 27.6128 80.529L27.6034 80.5179C27.5819 80.4865 27.5492 80.4645 27.512 80.4565C27.4747 80.4484 27.4359 80.4549 27.4033 80.4746C27.3432 80.513 27.3101 80.6135 27.36 80.6748C27.5642 80.9232 27.7811 81.1601 28.0005 81.3942C28.5773 82.0102 29.1851 82.598 29.8114 83.163C30.7392 83.9983 31.7109 84.7836 32.7223 85.5155C33.9885 86.4349 35.3155 87.2674 36.6942 88.0074C38.275 88.8542 39.925 89.5649 41.6264 90.1316C41.8443 90.204 42.0635 90.274 42.2841 90.3415C42.4618 90.3971 42.5223 90.114 42.3433 90.0589Z" fill="black"/>
<path d="M44.6632 99.5769C42.7626 99.0595 40.885 98.4621 39.0304 97.7848C37.4362 97.2023 35.8633 96.5648 34.3118 95.8722C33.0844 95.324 31.8725 94.7414 30.6762 94.1243C29.8731 93.708 29.0777 93.2758 28.2958 92.8207C28.0728 92.6911 27.8511 92.5593 27.6308 92.4253C27.5328 92.3657 27.4376 92.2979 27.3371 92.2427L27.3252 92.2349C27.1684 92.134 27.0352 92.3914 27.1909 92.4915C27.4482 92.6577 27.7125 92.8142 27.9764 92.9694C28.708 93.4 29.4519 93.8093 30.2031 94.2043C31.3526 94.8084 32.5191 95.3788 33.7023 95.9155C35.2141 96.6034 36.7484 97.2393 38.3053 97.8232C40.1324 98.5087 41.9852 99.1197 43.8638 99.6562C44.1089 99.7256 44.354 99.7937 44.5991 99.8604C44.7821 99.9098 44.8429 99.6267 44.6632 99.5769Z" fill="black"/>
<path d="M50.0497 75.8465C49.9626 76.1917 49.8667 76.5353 49.7698 76.8776C49.51 77.7972 49.2325 78.7113 48.9373 79.6198C48.5119 80.936 48.0547 82.2412 47.5656 83.5353C46.9795 85.0833 46.3429 86.611 45.6558 88.1187C44.9205 89.7245 44.117 91.3021 43.2249 92.8275C43.1159 93.0126 43.006 93.1972 42.8952 93.381C42.7984 93.5411 43.0557 93.6743 43.1517 93.5154C44.0689 91.9878 44.9059 90.4135 45.6591 88.7988C46.3723 87.2825 47.0251 85.7375 47.6293 84.1742C48.1467 82.8376 48.6288 81.4882 49.0754 80.126C49.394 79.1578 49.6947 78.1838 49.9774 77.204C50.0615 76.9107 50.1432 76.6168 50.2225 76.3224C50.258 76.1905 50.3001 76.0581 50.3278 75.9241C50.3288 75.9186 50.3301 75.9131 50.3319 75.9078C50.3781 75.7268 50.095 75.666 50.0497 75.8465Z" fill="black"/>
<path d="M54.2225 86.8318C54.1583 86.7983 54.0562 86.8199 54.0272 86.8926C53.2886 88.7268 52.4816 90.5313 51.606 92.3061C50.8857 93.7628 50.1172 95.1942 49.3005 96.6002C48.6714 97.6789 48.0107 98.7386 47.3184 99.7792C46.8613 100.462 46.4246 101.086 45.9295 101.746C45.7326 102.008 45.5271 102.263 45.3241 102.522L45.3159 102.532C45.1963 102.675 45.4095 102.871 45.5296 102.728C45.7008 102.524 45.8629 102.312 46.0239 102.101C46.4892 101.49 46.9332 100.864 47.3646 100.229C48.0372 99.2381 48.6784 98.2267 49.2882 97.1946C50.0995 95.8283 50.862 94.4351 51.5758 93.0148C52.4445 91.2948 53.2479 89.5433 53.9859 87.7603C54.0864 87.5171 54.186 87.2732 54.2846 87.0287C54.3017 86.9942 54.3048 86.9544 54.2933 86.9177C54.2817 86.881 54.2563 86.8502 54.2225 86.8318Z" fill="black"/>
<path d="M46.945 106.971C46.6387 106.942 46.3323 106.909 46.0271 106.876C45.2276 106.789 44.4291 106.696 43.6317 106.596C42.5181 106.457 41.4061 106.305 40.2955 106.14C39.0459 105.953 37.7983 105.749 36.5565 105.516C35.3477 105.289 34.1427 105.038 32.9507 104.733C32.8145 104.698 32.6783 104.662 32.5422 104.626C32.362 104.577 32.3011 104.861 32.4809 104.909C33.6533 105.223 34.8408 105.481 36.0324 105.711C37.2783 105.952 38.5299 106.162 39.7844 106.354C40.9203 106.528 42.0586 106.688 43.1991 106.832C44.0452 106.941 44.8922 107.042 45.74 107.134C46.1162 107.175 46.4928 107.216 46.8695 107.253H46.885C46.9224 107.26 46.961 107.252 46.993 107.231C47.0249 107.211 47.0478 107.179 47.057 107.142C47.0709 107.075 47.0235 106.979 46.945 106.971Z" fill="black"/>
<path d="M57.4394 99.48C52.028 97.3509 49.9492 107.131 49.9492 107.131C55.0967 107.175 62.3823 101.424 57.4394 99.48Z" fill="#9DB8FD"/>
<path d="M50.0043 107.275H49.9479H49.7727L49.809 107.103C50.0608 106.022 50.4008 104.963 50.8258 103.936C51.7633 101.684 52.901 100.185 54.2074 99.4837C55.2233 98.9376 56.3283 98.8926 57.4917 99.3502C59.1514 100.004 59.3299 101.013 59.1886 101.745C58.959 102.93 57.6935 104.319 55.8038 105.463C53.921 106.598 51.7584 107.275 50.0043 107.275ZM55.9427 99.3212C55.3834 99.322 54.8334 99.4633 54.343 99.7321C51.6526 101.178 50.3654 106.008 50.1293 106.987C51.8103 106.956 53.8601 106.301 55.6555 105.215C57.4774 104.112 58.6935 102.794 58.908 101.688C59.0844 100.777 58.5726 100.079 57.3871 99.6128C56.9283 99.4256 56.4382 99.3266 55.9427 99.3212Z" fill="black"/>
<path d="M56.7486 101.068C56.6669 101.15 56.5877 101.234 56.5068 101.316C55.8013 102.032 55.064 102.716 54.3136 103.384C53.5423 104.07 52.7576 104.742 51.9594 105.397C51.2513 105.982 50.5371 106.557 49.8168 107.123C49.2994 107.53 48.7799 107.932 48.2584 108.33C48.0582 108.482 47.858 108.634 47.6562 108.783C47.6044 108.821 47.6113 108.908 47.6513 108.951C47.6734 108.972 47.7029 108.985 47.7339 108.986C47.7649 108.987 47.7951 108.976 47.8184 108.955L47.8286 108.948C48.0774 108.764 48.3233 108.576 48.5692 108.389C49.1232 107.966 49.6734 107.538 50.22 107.106C50.9553 106.523 51.6849 105.932 52.4087 105.332C53.2057 104.668 53.9929 103.993 54.7629 103.299C55.4982 102.635 56.2225 101.955 56.9108 101.24C57.0162 101.129 56.8544 100.958 56.7486 101.068Z" fill="black"/>
<path d="M156.83 29.355H98.8879C97.3761 29.355 96.1505 30.5805 96.1505 32.0923V67.6322C96.1505 69.144 97.3761 70.3696 98.8879 70.3696H156.83C158.342 70.3696 159.567 69.144 159.567 67.6322V32.0923C159.567 30.5805 158.342 29.355 156.83 29.355Z" fill="#9DB8FD"/>
<path d="M156.83 70.5126H98.8878C98.1242 70.5117 97.3921 70.2079 96.8521 69.668C96.3121 69.128 96.0084 68.3959 96.0075 67.6322V32.0931C96.0084 31.3295 96.3121 30.5973 96.8521 30.0573C97.392 29.5172 98.1242 29.2134 98.8878 29.2124H156.83C157.594 29.2134 158.326 29.5172 158.866 30.0573C159.406 30.5973 159.709 31.3295 159.71 32.0931V67.6326C159.709 68.3962 159.405 69.1282 158.865 69.6681C158.325 70.208 157.593 70.5117 156.83 70.5126ZM98.8878 29.4979C98.1999 29.4987 97.5403 29.7724 97.0539 30.2589C96.5675 30.7455 96.294 31.4052 96.2935 32.0931V67.6326C96.2942 68.3205 96.5678 68.9799 97.0542 69.4663C97.5405 69.9527 98.2 70.2263 98.8878 70.227H156.83C157.518 70.2263 158.177 69.9527 158.664 69.4663C159.15 68.9799 159.423 68.3205 159.424 67.6326V32.0931C159.424 31.4052 159.15 30.7457 158.664 30.2592C158.177 29.7727 157.518 29.4991 156.83 29.4984L98.8878 29.4979Z" fill="black"/>
<path d="M156.83 29.356H98.8878C98.1619 29.356 97.4658 29.6443 96.9525 30.1576C96.4392 30.6709 96.1509 31.367 96.1509 32.0929V34.925H159.567V32.0929C159.567 31.7335 159.496 31.3775 159.359 31.0454C159.221 30.7133 159.02 30.4116 158.765 30.1574C158.511 29.9033 158.209 29.7017 157.877 29.5642C157.545 29.4267 157.189 29.3559 156.83 29.356Z" fill="#6178E3"/>
<path d="M159.71 35.0678H96.0075V32.0931C96.0083 31.3294 96.312 30.5972 96.852 30.0571C97.3919 29.5171 98.1241 29.2133 98.8878 29.2124H156.83C157.594 29.2133 158.326 29.5171 158.866 30.0571C159.406 30.5972 159.709 31.3294 159.71 32.0931V35.0678ZM96.2935 34.7819H159.424V32.0931C159.424 31.4052 159.15 30.7457 158.664 30.2592C158.177 29.7727 157.518 29.4991 156.83 29.4984H98.8878C98.1999 29.4991 97.5404 29.7727 97.054 30.2592C96.5676 30.7457 96.2941 31.4052 96.2935 32.0931V34.7819Z" fill="black"/>
<path d="M106.584 31.6577C106.382 31.6577 106.184 31.7176 106.016 31.8298C105.848 31.942 105.717 32.1015 105.64 32.2881C105.563 32.4748 105.543 32.6801 105.582 32.8782C105.621 33.0763 105.719 33.2583 105.861 33.4011C106.004 33.5439 106.186 33.6412 106.384 33.6806C106.582 33.72 106.788 33.6998 106.974 33.6225C107.161 33.5452 107.32 33.4143 107.433 33.2463C107.545 33.0784 107.605 32.8809 107.605 32.679C107.605 32.4081 107.497 32.1484 107.306 31.9568C107.114 31.7653 106.854 31.6577 106.584 31.6577Z" fill="white"/>
<path d="M106.584 33.8439C106.353 33.844 106.128 33.7758 105.936 33.6478C105.745 33.5199 105.595 33.3381 105.507 33.1252C105.419 32.9124 105.396 32.6783 105.441 32.4523C105.486 32.2264 105.597 32.0188 105.759 31.8559C105.922 31.693 106.13 31.582 106.356 31.5371C106.582 31.4921 106.816 31.5151 107.029 31.6033C107.242 31.6914 107.423 31.8407 107.551 32.0322C107.679 32.2237 107.748 32.4489 107.748 32.6793C107.747 32.988 107.625 33.284 107.406 33.5023C107.188 33.7206 106.892 33.8435 106.584 33.8439ZM106.584 31.8014C106.41 31.8013 106.24 31.8528 106.095 31.9493C105.951 32.0458 105.838 32.183 105.771 32.3436C105.705 32.5041 105.687 32.6808 105.721 32.8513C105.755 33.0217 105.839 33.1784 105.962 33.3013C106.085 33.4242 106.241 33.5079 106.412 33.5419C106.582 33.5758 106.759 33.5584 106.919 33.4919C107.08 33.4254 107.217 33.3128 107.314 33.1683C107.41 33.0238 107.462 32.8539 107.462 32.6801C107.462 32.4471 107.369 32.2236 107.205 32.0587C107.04 31.8939 106.817 31.801 106.584 31.8006V31.8014Z" fill="black"/>
<path d="M103.257 31.6577C103.055 31.6577 102.858 31.7176 102.69 31.8298C102.522 31.942 102.391 32.1015 102.314 32.2881C102.236 32.4748 102.216 32.6801 102.255 32.8782C102.295 33.0763 102.392 33.2583 102.535 33.4011C102.678 33.5439 102.86 33.6412 103.058 33.6806C103.256 33.72 103.461 33.6998 103.648 33.6225C103.835 33.5452 103.994 33.4143 104.106 33.2463C104.218 33.0784 104.278 32.8809 104.278 32.679C104.278 32.4081 104.171 32.1484 103.979 31.9568C103.788 31.7653 103.528 31.6577 103.257 31.6577Z" fill="white"/>
<path d="M103.257 33.8439C103.027 33.8439 102.802 33.7756 102.61 33.6476C102.419 33.5197 102.269 33.3378 102.181 33.125C102.093 32.9122 102.07 32.678 102.115 32.4521C102.16 32.2262 102.271 32.0186 102.434 31.8558C102.597 31.6929 102.804 31.582 103.03 31.537C103.256 31.4921 103.49 31.5152 103.703 31.6033C103.916 31.6914 104.098 31.8407 104.226 32.0322C104.354 32.2238 104.422 32.4489 104.422 32.6793C104.421 32.9881 104.299 33.2841 104.08 33.5024C103.862 33.7208 103.566 33.8436 103.257 33.8439ZM103.257 31.8014C103.083 31.8014 102.914 31.853 102.769 31.9495C102.625 32.0461 102.512 32.1833 102.445 32.3438C102.379 32.5044 102.361 32.6811 102.395 32.8515C102.429 33.022 102.513 33.1785 102.636 33.3014C102.759 33.4243 102.915 33.508 103.086 33.5419C103.256 33.5758 103.433 33.5584 103.593 33.4919C103.754 33.4254 103.891 33.3128 103.988 33.1683C104.084 33.0238 104.136 32.8539 104.136 32.6801C104.136 32.447 104.043 32.2235 103.878 32.0586C103.714 31.8937 103.49 31.8009 103.257 31.8006V31.8014Z" fill="black"/>
<path d="M99.8626 31.6577C99.6606 31.6577 99.4631 31.7176 99.2952 31.8298C99.1272 31.942 98.9963 32.1015 98.919 32.2881C98.8417 32.4748 98.8215 32.6801 98.8609 32.8782C98.9003 33.0763 98.9976 33.2583 99.1404 33.4011C99.2833 33.5439 99.4652 33.6412 99.6633 33.6806C99.8614 33.72 100.067 33.6998 100.253 33.6225C100.44 33.5452 100.599 33.4143 100.712 33.2463C100.824 33.0784 100.884 32.8809 100.884 32.679C100.884 32.4081 100.776 32.1484 100.585 31.9568C100.393 31.7653 100.133 31.6577 99.8626 31.6577Z" fill="white"/>
<path d="M99.8625 33.8439C99.6322 33.8439 99.407 33.7756 99.2155 33.6476C99.0239 33.5197 98.8747 33.3378 98.7865 33.125C98.6984 32.9122 98.6753 32.678 98.7203 32.4521C98.7652 32.2262 98.8761 32.0186 99.039 31.8558C99.2019 31.6929 99.4094 31.582 99.6353 31.537C99.8612 31.4921 100.095 31.5152 100.308 31.6033C100.521 31.6914 100.703 31.8407 100.831 32.0322C100.959 32.2238 101.027 32.4489 101.027 32.6793C101.027 32.9881 100.904 33.2842 100.686 33.5026C100.467 33.7209 100.171 33.8437 99.8625 33.8439ZM99.8625 31.8014C99.6887 31.8014 99.5188 31.853 99.3743 31.9495C99.2298 32.0461 99.1172 32.1833 99.0507 32.3438C98.9842 32.5044 98.9668 32.6811 99.0007 32.8515C99.0346 33.022 99.1183 33.1785 99.2412 33.3014C99.3641 33.4243 99.5206 33.508 99.6911 33.5419C99.8615 33.5758 100.038 33.5584 100.199 33.4919C100.359 33.4254 100.497 33.3128 100.593 33.1683C100.69 33.0238 100.741 32.8539 100.741 32.6801C100.741 32.447 100.649 32.2234 100.484 32.0585C100.319 31.8936 100.096 31.8008 99.8625 31.8006V31.8014Z" fill="black"/>
<path d="M128.797 42.6489H111.385V44.6984H128.797V42.6489Z" fill="white"/>
<path d="M109.367 42.6489H102.679V44.6984H109.367V42.6489Z" fill="white"/>
<path d="M128.971 46.8281H102.67V48.8776H128.971V46.8281Z" fill="#4268F5"/>
<path d="M128.754 38.3706H111.289V40.4201H128.754V38.3706Z" fill="#2727A9"/>
<path d="M107.054 38.3706H102.653V40.4201H107.054V38.3706Z" fill="#4268F5"/>
<path d="M119.388 50.4316H102.67V52.4811H119.388V50.4316Z" fill="#4268F5"/>
<path d="M119.388 54.0356H109.125V56.0851H119.388V54.0356Z" fill="#2727A9"/>
<path d="M154.402 54.0356H121.805V56.0851H154.402V54.0356Z" fill="white"/>
<path d="M116.904 57.6392H102.67V59.6886H116.904V57.6392Z" fill="#4268F5"/>
<path d="M144.543 57.6392H119.388V59.6886H144.543V57.6392Z" fill="#2727A9"/>
<path d="M154.401 57.6392H146.96V59.6886H154.401V57.6392Z" fill="white"/>
<path d="M126.505 61.2437H102.67V63.2931H126.505V61.2437Z" fill="#4268F5"/>
<path d="M137.869 61.2437H128.99V63.2931H137.869V61.2437Z" fill="#2727A9"/>
<path d="M154.402 61.2437H140.286V63.2931H154.402V61.2437Z" fill="white"/>
<path d="M144.543 64.8472H113.096V66.8966H144.543V64.8472Z" fill="#4268F5"/>
<path d="M107.054 64.8472H102.679V66.8966H107.054V64.8472Z" fill="#2727A9"/>
<path d="M154.401 64.8472H146.96V66.8966H154.401V64.8472Z" fill="white"/>
<path d="M132.491 46.0148L139.114 48.4597V46.4985L134.828 44.9801L139.114 43.4621V41.5005L132.491 43.9458V46.0148Z" fill="#2727A9"/>
<path d="M139.396 51.0263H141.667L146.1 38.3706H143.83L139.396 51.0263Z" fill="#2727A9"/>
<path d="M146.248 43.4621L150.534 44.9801L146.248 46.4985V48.4597L152.871 46.0148V43.9458L146.248 41.5005V43.4621Z" fill="#2727A9"/>
<path d="M159.234 100.131H38.6848V103.206H159.234V100.131Z" fill="#2E4EA4"/>
<path d="M155.205 103.207H42.7138V117.674H155.205V103.207Z" fill="#8CB6F4"/>
<path d="M103.851 85.2938C102.947 84.9094 98.6093 85.0487 97.4328 88.974C96.8053 91.0684 97.8674 93.3257 99.6518 93.8409C106.242 95.7432 111.111 91.8817 103.851 85.2938Z" fill="black"/>
<path d="M97.5279 66.4541C96.9234 63.6204 95.1333 61.3029 92.7391 60.2506L82.9179 55.9287L68.283 58.1256C65.4607 58.5501 63.0738 60.7028 62.0681 63.7266L53.8536 88.4657C53.3912 89.8694 53.4302 91.3899 53.9639 92.768C54.3646 93.7893 55.0113 94.6304 55.8021 95.2137C56.593 95.7971 57.535 96.1267 58.5182 96.1267H62.0313L62.7058 95.6365L61.5697 100.13H92.793L92.7734 86.1838L93.2322 88.3203C93.7546 90.7545 95.3474 92.7546 97.4675 93.4474C98.3703 93.7427 99.2518 93.7779 99.9213 93.5266L104.922 92.7811L101.807 86.2676L97.5279 66.4541Z" fill="white"/>
<path d="M96.8939 67.6257C96.2889 64.7919 94.8992 62.2956 92.505 61.2433L82.9184 55.9287L82.0838 56.0962L83.1757 56.4577C83.1757 56.4577 84.5924 62.2678 79.5691 61.2433C76.9114 60.7008 75.8987 58.336 75.5993 57.3981L69.1102 58.7008C66.2879 59.1252 63.0747 60.7024 62.0693 63.7253L54.8679 88.1295C53.9038 93.1508 57.5362 96.1267 58.5195 96.1267H62.0326L62.707 95.6365L61.571 100.13L91.2779 98.5859L92.7722 86.1838L93.2309 88.3203C93.7534 90.7545 95.3461 92.7546 97.4662 93.4478C98.3694 93.7427 99.2506 93.7779 99.9205 93.5266L104.921 92.7811L101.582 85.2324L96.8939 67.6257Z" fill="#2727A9"/>
<path d="M92.793 100.274H61.5706C61.5489 100.274 61.5274 100.269 61.5079 100.259C61.4884 100.25 61.4714 100.236 61.458 100.219C61.4447 100.202 61.4354 100.182 61.4309 100.16C61.4264 100.139 61.4268 100.117 61.4321 100.096L62.4709 95.9846L62.1163 96.2424C62.0919 96.2603 62.0624 96.2699 62.0322 96.2698H58.5191C57.5244 96.2698 56.5558 95.943 55.718 95.3302C54.8867 94.7175 54.2343 93.8502 53.8307 92.8216C53.2816 91.4131 53.2416 89.857 53.7176 88.4221L61.9333 63.6825C62.9578 60.6016 65.3831 58.4186 68.2626 57.9856L82.8967 55.7858C82.9234 55.7818 82.9508 55.7853 82.9756 55.796L92.7967 60.118C95.233 61.189 97.0537 63.5457 97.6677 66.4227L101.943 86.2219L105.048 92.7203C105.058 92.7406 105.063 92.7629 105.062 92.7854C105.062 92.8079 105.056 92.83 105.046 92.8499C105.035 92.8697 105.02 92.8869 105.002 92.8999C104.983 92.9128 104.962 92.9213 104.94 92.9246L99.9561 93.6676C99.2616 93.9225 98.3629 93.8931 97.4234 93.5859C95.2959 92.8915 93.6366 90.8853 93.0933 88.3531L92.9193 87.5422L92.9372 100.133C92.9375 100.151 92.934 100.17 92.927 100.187C92.92 100.205 92.9096 100.221 92.8964 100.234C92.8826 100.247 92.8664 100.257 92.8487 100.264C92.831 100.271 92.812 100.274 92.793 100.274ZM61.756 99.9879H92.6501L92.6304 86.1851C92.6305 86.1499 92.6436 86.1159 92.6671 86.0897C92.6907 86.0635 92.7232 86.0469 92.7582 86.0431C92.7933 86.0394 92.8285 86.0487 92.8571 86.0694C92.8857 86.09 92.9056 86.1205 92.9131 86.1549L93.3719 88.2914C93.8943 90.7244 95.4806 92.6484 97.512 93.3126C98.3993 93.6027 99.2371 93.6317 99.8711 93.3943C99.8806 93.3907 99.8905 93.3881 99.9005 93.3866L104.709 92.6697L101.678 86.3306C101.673 86.3205 101.67 86.3099 101.667 86.2991L97.3899 66.4869C96.7951 63.6997 95.0357 61.4182 92.6831 60.3843L82.9 56.0791L68.3067 58.2703C65.5342 58.687 63.1968 60.7961 62.2066 63.7744L53.9892 88.5107C53.5337 89.883 53.5719 91.3712 54.0971 92.7183C54.4806 93.6962 55.0999 94.5202 55.8875 95.1011C56.6751 95.6819 57.5857 95.9822 58.5199 95.9822H61.9864L62.6233 95.5198C62.647 95.5026 62.6755 95.4931 62.7048 95.4926C62.7341 95.4921 62.7629 95.5006 62.7872 95.5171C62.8115 95.5335 62.8302 95.5569 62.8407 95.5843C62.8512 95.6117 62.853 95.6416 62.8459 95.6701L61.756 99.9879Z" fill="black"/>
<path d="M64.4047 86.4087L64.6376 86.499L68.4885 73.6558L68.2556 73.5659L64.4047 86.4087Z" fill="black"/>
<path d="M92.5046 79.3837L92.7097 91.5284L92.9552 91.5231L92.7506 79.3784L92.5046 79.3837Z" fill="black"/>
<path d="M80.1352 65.1529C78.5621 65.1161 77.1184 64.235 76.1752 62.7346L75.975 62.898C76.9644 64.4707 78.4787 65.3947 80.1303 65.4331H80.2373C81.9175 65.4331 83.5053 64.5152 84.6119 62.9004L84.4187 62.7305C83.3374 64.3077 81.7823 65.1925 80.1352 65.1529Z" fill="black"/>
<path d="M99.4737 86.2063C98.231 87.0764 98.0725 89.0593 99.1501 90.1777C99.1501 90.1777 99.8879 90.9457 101.085 93.3187C101.52 94.1765 102.771 94.201 102.56 93.179C102.192 91.3893 102.285 89.9906 103.022 90.1303C103.759 90.2701 105.817 93.5282 106.678 93.7374C107.538 93.9466 107.292 92.5528 107.292 92.5528C107.292 92.5528 107.845 93.8089 108.583 93.9486C109.32 94.0883 110.038 93.0499 107.477 88.7137C104.68 83.9775 101.59 84.7243 99.4737 86.2063Z" fill="white"/>
<path d="M108.707 94.1034C108.656 94.1034 108.606 94.0986 108.556 94.0891C108.093 94.0013 107.708 93.5401 107.46 93.1553C107.439 93.3812 107.375 93.6149 107.22 93.7607C107.12 93.8539 106.939 93.9503 106.644 93.878C106.157 93.7595 105.421 92.8743 104.642 91.9372C104.016 91.1843 103.306 90.3309 102.997 90.2725C102.95 90.2604 102.901 90.2609 102.855 90.274C102.809 90.2871 102.767 90.3122 102.734 90.3469C102.428 90.659 102.414 91.7599 102.701 93.152C102.794 93.5981 102.642 93.9364 102.296 94.0573C101.888 94.1999 101.261 93.9833 100.959 93.3849C99.7894 91.0671 99.0553 90.286 99.048 90.2783C98.4941 89.7031 98.2228 88.8894 98.3049 88.0421C98.3834 87.2313 98.78 86.5201 99.3928 86.0907C100.799 85.1062 102.171 84.7492 103.468 85.0286C104.99 85.3583 106.381 86.5732 107.601 88.6394C109.158 91.2742 109.74 93.1169 109.241 93.8273C109.182 93.914 109.102 93.9847 109.009 94.0329C108.915 94.0811 108.812 94.1054 108.707 94.1034ZM107.292 92.4098C107.32 92.4098 107.347 92.4178 107.37 92.4329C107.393 92.448 107.412 92.4695 107.423 92.4948C107.569 92.8253 108.066 93.7052 108.608 93.8081C108.727 93.8306 108.894 93.824 109.004 93.6651C109.16 93.4421 109.505 92.4306 107.352 88.7864C106.174 86.7917 104.846 85.6218 103.405 85.3097C102.188 85.0466 100.892 85.3881 99.5541 86.3252C99.0096 86.7063 98.6554 87.3424 98.5864 88.0695C98.5129 88.8322 98.7551 89.565 99.2514 90.0801C99.2825 90.1124 100.018 90.891 101.212 93.2558C101.394 93.6157 101.835 93.9151 102.2 93.7869C102.405 93.7158 102.482 93.5107 102.419 93.2092C102.268 92.4739 101.976 90.7076 102.529 90.1455C102.595 90.0772 102.677 90.0271 102.768 90C102.859 89.9729 102.956 89.9697 103.048 89.9907C103.431 90.063 103.988 90.7047 104.86 91.7533C105.543 92.5736 106.316 93.5034 106.711 93.5994C106.919 93.65 106.997 93.5757 107.024 93.5512C107.232 93.3559 107.184 92.7672 107.151 92.5765C107.144 92.5418 107.151 92.5059 107.169 92.4757C107.188 92.4455 107.216 92.4232 107.25 92.4131C107.264 92.4096 107.278 92.408 107.292 92.4086V92.4098Z" fill="black"/>
<path d="M104.41 88.1299L104.274 88.3627C105.374 89.1867 106.279 90.8468 107.186 92.6205L107.399 92.4804C106.478 90.6769 105.554 88.9873 104.41 88.1299Z" fill="black"/>
<path d="M54.4002 67.8486C57.8688 71.5378 57.2189 78.1988 55.2875 84.794C61.0326 87.8688 66.0396 93.3676 66.0396 93.3676C66.0396 93.3676 68.339 89.6196 68.8525 84.4546C67.8472 82.4648 61.4333 72.4136 54.4002 67.8486Z" fill="#F4AD2E"/>
<path d="M66.0396 93.5107C66.0197 93.5107 66 93.5066 65.9818 93.4986C65.9636 93.4906 65.9472 93.4789 65.9338 93.4642C65.8839 93.4094 60.8765 87.9474 55.22 84.9204C55.1911 84.9049 55.1683 84.8799 55.1556 84.8497C55.1429 84.8194 55.141 84.7857 55.1502 84.7541C57.5064 76.71 57.2188 71.0555 54.296 67.9468C54.272 67.9214 54.2581 67.888 54.257 67.853C54.2559 67.8181 54.2676 67.7839 54.29 67.757C54.3124 67.7301 54.3439 67.7124 54.3785 67.7072C54.4131 67.7019 54.4485 67.7096 54.4778 67.7287C58.2438 70.1731 61.734 74.1356 63.9991 77.029C66.6891 80.4653 68.5163 83.4723 68.98 84.3902C68.9921 84.4144 68.9972 84.4416 68.9947 84.4686C68.484 89.6071 66.1846 93.4049 66.1617 93.4425C66.1501 93.4614 66.1342 93.4774 66.1154 93.4891C66.0965 93.5008 66.0752 93.5079 66.0531 93.5099C66.0486 93.5106 66.0441 93.5109 66.0396 93.5107ZM55.4562 84.7231C60.6008 87.5066 65.1838 92.2489 66.0122 93.1292C66.4481 92.3567 68.2536 88.9343 68.705 84.4821C68.2148 83.5307 66.4146 80.5797 63.7732 77.2055C61.6899 74.5425 58.5616 70.9697 55.1473 68.5318C57.5215 71.8206 57.6265 77.259 55.4562 84.7231Z" fill="black"/>
<path d="M56.5064 69.1934C58.2687 73.5643 59.1417 78.1203 57.0979 83.4341C61.6323 86.2286 68.2831 93.3945 68.4244 93.1449C68.5658 92.8953 70.998 86.7605 70.998 86.7605C70.998 86.7605 65.2083 72.648 56.5064 69.1934Z" fill="#E8E3B3"/>
<path d="M57.6437 68.6191C59.2259 72.459 60.3864 77.7589 58.0212 82.7892C61.9873 86.2271 67.4624 93.0058 67.6397 92.8272C67.817 92.6487 72.5315 87.502 72.5315 87.502C72.5315 87.502 68.5985 74.4133 57.6437 68.6191Z" fill="#FFFCD5"/>
<path d="M57.6315 83.2535C57.7389 83.4668 60.7663 83.6326 60.8026 83.8814L67.5123 87.629L81.2599 91.419C81.8318 91.3451 76.3171 79.7903 72.1912 75.2563C65.7018 73.789 57.5236 83.0403 57.6315 83.2535Z" fill="#E8E3B3"/>
<path d="M57.0979 83.4341C57.2099 84.7155 68.0384 94.4995 68.0384 94.4995C68.0384 94.4995 77.4102 90.3904 81.0646 93.0939C81.728 89.756 76.4759 82.4181 74.0878 78.867C66.8889 77.3295 59.9746 81.5354 57.0979 83.4341Z" fill="#FFFCD5"/>
<path d="M76.1508 83.1356C74.335 81.6057 71.7132 81.4133 69.3558 81.1298C68.0486 80.9726 66.7181 80.9199 65.4142 81.1102C63.9477 81.3243 62.5445 81.8398 61.1535 82.3517C59.3394 83.02 57.4521 83.9285 55.7254 84.7982C60.2851 88.0243 64.4503 91.7745 68.1356 95.9719C72.8333 93.9294 78.353 93.623 83.1222 95.4968C81.3551 91.0997 77.9686 84.6666 76.1508 83.1356Z" fill="#F4AD2E"/>
<path d="M68.1356 96.1148C68.1153 96.1148 68.0952 96.1104 68.0767 96.1021C68.0581 96.0937 68.0416 96.0815 68.0282 96.0662C64.3502 91.8772 60.1934 88.1342 55.6429 84.9142C55.6224 84.9 55.6061 84.8808 55.5954 84.8584C55.5847 84.836 55.5801 84.8111 55.5819 84.7864C55.5838 84.7616 55.5921 84.7378 55.606 84.7172C55.6199 84.6966 55.639 84.68 55.6612 84.6691C57.2985 83.8443 59.2258 82.9076 61.1041 82.2181C62.4816 81.7107 63.906 81.1862 65.3933 80.9693C66.5551 80.7998 67.857 80.8059 69.3729 80.9885L69.9322 81.0543C72.1961 81.3173 74.5368 81.5894 76.2427 83.0265C77.3824 83.9869 78.949 86.6622 79.7811 88.1736C81.0585 90.4914 82.3571 93.2092 83.2534 95.4449C83.2638 95.4708 83.2663 95.4992 83.2608 95.5266C83.2552 95.5539 83.2418 95.5791 83.2221 95.5989C83.2024 95.6187 83.1774 95.6323 83.15 95.6381C83.1227 95.6438 83.0943 95.6414 83.0683 95.6312C80.7501 94.7202 78.2394 94.3097 75.6067 94.4098C73.0521 94.5137 70.5387 95.0883 68.1928 96.1046C68.1746 96.112 68.1552 96.1154 68.1356 96.1148ZM56.0032 84.8194C60.4683 88.0008 64.5529 91.685 68.1764 95.7995C70.5284 94.7946 73.0437 94.2264 75.5993 94.1226C78.1561 94.0254 80.5993 94.4032 82.8681 95.246C80.9931 90.6671 77.7439 84.663 76.0605 83.2446C74.4204 81.8631 72.123 81.5959 69.9011 81.3378L69.3411 81.272C67.8501 81.0927 66.5731 81.0861 65.4366 81.252C63.9787 81.4644 62.5686 81.9836 61.205 82.4861C59.4186 83.1429 57.5853 84.0249 56.0019 84.8194H56.0032Z" fill="black"/>
<path d="M66.2149 91.0944C66.5118 90.4874 67.1344 89.3509 66.5417 88.7659C66.0964 88.3276 65.2055 89.373 65.2055 89.373C65.2055 89.373 65.663 88.1957 65.0572 88.058C64.1662 87.8538 61.5232 90.3174 61.5232 90.3174C63.0972 88.8672 62.7704 88.058 62.058 87.9228C61.3455 87.7876 58.9991 88.6311 58.1678 90.1826C57.9599 90.5703 57.906 91.0678 57.9423 91.596C58.1895 95.2023 61.7708 97.2803 64.5139 95.4425C65.1861 94.9913 65.7562 94.4041 66.1874 93.7188C66.6185 93.0335 66.901 92.2654 67.0167 91.4641C67.1393 90.6475 66.2149 91.0944 66.2149 91.0944Z" fill="white"/>
<path d="M62.3238 96.2707C61.6914 96.2675 61.0682 96.1191 60.5023 95.8368C58.9619 95.0811 57.9263 93.4602 57.7993 91.6064C57.7584 90.9936 57.8401 90.494 58.0411 90.1162C58.912 88.4912 61.3279 87.6403 62.0853 87.7837C62.4325 87.8494 62.6792 88.0533 62.7622 88.3429C62.8181 88.5373 62.814 88.8114 62.6343 89.1787C63.4791 88.5104 64.542 87.7951 65.0894 87.9193C65.1618 87.9345 65.2299 87.9656 65.2888 88.0103C65.3477 88.055 65.3959 88.1122 65.4301 88.1779C65.5367 88.378 65.5273 88.6554 65.4852 88.8985C65.7058 88.713 65.9885 88.5288 66.2512 88.5173C66.3232 88.513 66.3953 88.5239 66.4628 88.5494C66.5303 88.5749 66.5917 88.6143 66.6429 88.6652C67.2148 89.2293 66.8165 90.1889 66.495 90.8507C66.6609 90.8172 66.8541 90.8139 66.9954 90.9177C67.1437 91.0267 67.1997 91.2183 67.1588 91.4863C67.0379 92.3066 66.7474 93.0928 66.3058 93.7945C65.8642 94.4963 65.2811 95.0984 64.5939 95.5623C63.8904 96.0329 63.1114 96.2707 62.3238 96.2707ZM61.8847 88.0529C61.5318 88.0529 60.9043 88.2097 60.2205 88.5492C59.7033 88.8065 58.7654 89.3699 58.2932 90.251C58.1163 90.5811 58.0481 91.0304 58.0844 91.5872C58.2045 93.3393 59.1792 94.8691 60.6282 95.5799C61.8847 96.1963 63.2716 96.1032 64.4341 95.3246C65.0884 94.8829 65.6433 94.3097 66.0636 93.6415C66.4839 92.9733 66.7602 92.2248 66.8749 91.4438C66.888 91.3568 66.8986 91.2028 66.8247 91.1481C66.7193 91.07 66.4354 91.1481 66.2769 91.2228C66.2501 91.2355 66.22 91.2396 66.1908 91.2346C66.1616 91.2295 66.1347 91.2155 66.1138 91.1945C66.0928 91.1735 66.079 91.1465 66.074 91.1172C66.069 91.088 66.0733 91.058 66.0861 91.0312C66.1049 90.9928 66.1249 90.952 66.1462 90.9087C66.4366 90.3229 66.9223 89.3421 66.4411 88.8662C66.418 88.8428 66.39 88.8247 66.3592 88.8133C66.3283 88.8019 66.2954 88.7973 66.2626 88.8C65.9358 88.8143 65.4672 89.2841 65.3136 89.4642C65.2917 89.4898 65.2614 89.5067 65.2281 89.5121C65.1949 89.5175 65.1608 89.511 65.1319 89.4937C65.1029 89.4764 65.081 89.4495 65.0701 89.4176C65.0591 89.3858 65.0597 89.3511 65.0718 89.3196C65.147 89.1252 65.3124 88.5647 65.1764 88.309C65.1616 88.2797 65.1402 88.2542 65.1139 88.2345C65.0876 88.2148 65.0571 88.2014 65.0248 88.1954C64.4378 88.0618 62.6715 89.4483 61.6629 90.3805L61.6196 90.4213C61.606 90.4352 61.5898 90.4461 61.5719 90.4535C61.554 90.4609 61.5348 90.4646 61.5154 90.4643C61.496 90.4641 61.4769 90.4599 61.4592 90.452C61.4415 90.4441 61.4256 90.4327 61.4124 90.4185C61.3993 90.4043 61.3891 90.3876 61.3827 90.3693C61.3762 90.3511 61.3734 90.3317 61.3747 90.3123C61.3759 90.293 61.381 90.2741 61.3898 90.2568C61.3985 90.2396 61.4107 90.2242 61.4255 90.2118L61.4631 90.1766C62.5493 89.1636 62.5412 88.6113 62.4844 88.4201C62.4133 88.1709 62.1686 88.0896 62.0289 88.0631C61.9812 88.0553 61.933 88.0519 61.8847 88.0529Z" fill="black"/>
<path d="M61.4387 92.7856L61.5535 93.0327C63.0036 92.1622 64.3721 90.8595 65.3031 89.4588L65.107 89.29C64.1956 90.6597 62.8582 91.9339 61.4387 92.7856Z" fill="black"/>
<path d="M63.3116 94.3894L63.4648 94.6079C64.4178 93.7476 65.3492 92.6259 66.3125 91.1765L66.1168 91.0078C65.1658 92.4388 64.2483 93.5446 63.3116 94.3894Z" fill="black"/>
<path d="M87.5135 46.8564C86.6251 46.5974 86.4396 46.2641 86.5135 44.82C86.5875 43.376 86.5507 42.3764 86.105 41.7469C86.105 41.7469 88.8081 41.3384 88.1786 39.0071C87.5491 36.6758 84.5499 37.7109 83.9204 38.0071C83.2909 38.3032 83.4759 37.8122 82.4759 37.5209C81.4759 37.2297 79.4028 38.6737 78.5882 39.0434C77.7737 39.4131 76.5866 38.4883 76.8476 39.3032C77.1086 40.1182 77.5151 40.3768 77.5151 40.3768C77.5151 40.3768 76.3305 40.2289 76.5159 40.8956C76.7014 41.5622 77.2921 41.5242 77.2921 41.5242C77.2921 41.5242 76.6254 44.302 76.6254 46.3756C76.6254 48.4491 77.3292 51.0039 77.3292 51.0039L76.4199 57.2188C76.4199 57.2188 76.0629 59.7017 79.8105 60.2058C83.3513 60.6817 83.0736 58.9165 83.0736 58.9165L83.4004 54.7437C83.4004 54.7437 85.844 54.8544 86.0299 53.2625C86.2157 51.6706 86.0666 48.8192 86.3628 48.5239C86.659 48.2285 87.6953 48.2645 88.2513 48.079C88.8073 47.8936 88.402 47.1154 87.5135 46.8564Z" fill="white"/>
<path d="M80.9257 60.4299C80.5471 60.4278 80.1691 60.4005 79.7941 60.3482C78.3811 60.1583 77.3693 59.671 76.7868 58.9001C76.163 58.0749 76.2753 57.2347 76.2806 57.1991L77.1855 51.0132C77.1074 50.7215 76.4845 48.3253 76.4845 46.3763C76.4845 44.5965 76.9747 42.2819 77.1176 41.6545C76.8578 41.6051 76.5135 41.4192 76.3791 40.9347C76.3141 40.7019 76.3885 40.5515 76.4608 40.4662C76.6168 40.2852 76.9138 40.2321 77.1552 40.2211C76.9555 39.9587 76.8048 39.6624 76.7104 39.3465C76.6695 39.2161 76.6287 39.0291 76.7406 38.9061C76.8774 38.7582 77.1213 38.815 77.4301 38.8869C77.7712 38.9661 78.1953 39.0646 78.5282 38.9134C78.7214 38.8256 78.9914 38.6733 79.3043 38.4968C80.3162 37.9249 81.7014 37.1463 82.5147 37.3836C82.8289 37.4679 83.1209 37.6198 83.3701 37.8289C83.547 37.9706 83.5891 38.0045 83.8583 37.8779C84.3059 37.6797 84.776 37.537 85.2582 37.4531C86.0462 37.3146 86.708 37.3661 87.2252 37.6054C87.7725 37.8591 88.1394 38.3183 88.3154 38.9698C88.4989 39.6496 88.4298 40.2423 88.1112 40.7309C87.6353 41.4592 86.7407 41.7484 86.3342 41.8457C86.6929 42.5021 86.7247 43.4547 86.6545 44.8277C86.5801 46.2762 86.7701 46.4915 87.5532 46.7195C88.2566 46.9237 88.6435 47.4062 88.65 47.7554C88.6541 47.9715 88.5275 48.1386 88.2991 48.2142C88.0642 48.2926 87.7546 48.3326 87.4551 48.3714C87.0589 48.4229 86.61 48.4809 86.4666 48.6243C86.3346 48.7726 86.3085 49.992 86.2893 50.8825C86.2713 51.7297 86.2525 52.6055 86.1741 53.2796C86.0924 53.9932 85.576 54.4977 84.6851 54.7383C84.3094 54.8355 83.9232 54.886 83.5352 54.8887L83.2198 58.9136C83.2325 59.0838 83.2082 59.2548 83.1486 59.4147C83.0889 59.5747 82.9953 59.7198 82.8742 59.8401C82.4902 60.2326 81.8366 60.4299 80.9257 60.4299ZM77.4783 41.3689L77.433 41.5573C77.4265 41.585 76.7704 44.342 76.7704 46.3751C76.7704 48.4082 77.462 50.9401 77.469 50.9654L77.4771 50.9944L76.5637 57.2392C76.5637 57.2461 76.4657 58.0039 77.0192 58.7318C77.5547 59.4365 78.5012 59.8846 79.8325 60.0635C81.5956 60.3005 82.3464 59.9663 82.6655 59.6444C82.9845 59.3225 82.9375 58.9528 82.9351 58.9373V58.9214V58.9046L83.2729 54.5941L83.411 54.6002C83.4339 54.6002 85.7239 54.6856 85.8918 53.2457C85.9686 52.5851 85.987 51.7158 86.005 50.8764C86.0393 49.2832 86.0724 48.6157 86.266 48.4221C86.4784 48.2097 86.9359 48.1504 87.42 48.0879C87.706 48.0508 88.0017 48.0128 88.2105 47.9429C88.3518 47.896 88.3669 47.8163 88.3657 47.7607C88.3612 47.5156 88.0021 47.148 87.4748 46.994C86.5017 46.7105 86.2954 46.3028 86.3718 44.8134C86.4457 43.3706 86.4073 42.42 85.9907 41.8314L85.8571 41.6422L86.0863 41.6075C86.0985 41.6075 87.3318 41.409 87.8755 40.5756C88.148 40.1581 88.2023 39.6434 88.043 39.0462C87.8902 38.48 87.5757 38.0834 87.1083 37.8669C86.652 37.6557 86.0307 37.6103 85.3109 37.7366C84.8539 37.817 84.4082 37.9519 83.9833 38.1385C83.5748 38.3313 83.4167 38.2321 83.1945 38.054C82.9745 37.8684 82.7162 37.7339 82.4379 37.6602C81.7398 37.4559 80.3607 38.2321 79.4481 38.748C79.1295 38.9277 78.8542 39.083 78.6495 39.1757C78.2284 39.3673 77.7316 39.2517 77.3689 39.1671C77.2206 39.1328 77.0208 39.0854 76.9571 39.1034C76.9565 39.1576 76.9664 39.2114 76.9861 39.2619C77.2239 40.0074 77.5903 40.2562 77.5944 40.2586L78.1046 40.5957L77.4988 40.5205C77.2537 40.4903 76.8121 40.4997 76.6789 40.6541C76.6524 40.6847 76.6213 40.739 76.6548 40.8583C76.8072 41.4065 77.2676 41.3841 77.2855 41.3828L77.4783 41.3689Z" fill="black"/>
<path d="M83.922 38.0071C83.2925 38.3032 83.4775 37.8122 82.4775 37.5209C81.4775 37.2297 79.4044 38.6737 78.5898 39.0434C77.7753 39.4131 76.5882 38.4883 76.8492 39.3032C77.1103 40.1182 77.5151 40.3768 77.5151 40.3768C77.5151 40.3768 76.3304 40.2289 76.5159 40.8956C76.7014 41.5622 77.292 41.5242 77.292 41.5242C77.292 41.5242 76.6254 44.302 76.6254 46.3756C76.6254 48.4491 77.3292 51.0039 77.3292 51.0039C79.1597 51.1444 80.6381 50.184 81.1597 49.5958C81.6814 49.0076 82.1781 48.1697 81.114 47.8748C80.0498 47.5798 79.5756 46.5173 79.8476 45.6795C80.1197 44.8417 81.3419 44.6836 81.7496 45.1362C82.1573 45.5888 82.587 45.8155 82.9036 45.2498C83.2202 44.684 82.587 43.5063 82.4285 43.1219C82.27 42.7375 82.0662 42.1035 82.3154 41.7469C82.5645 41.3903 86.1058 41.7469 86.1058 41.7469C86.1058 41.7469 88.8089 41.3384 88.1794 39.0071C87.5499 36.6758 84.5515 37.7109 83.922 38.0071Z" fill="black"/>
<path d="M85.567 44.9229C85.3754 44.9229 85.2202 45.143 85.2202 45.4131C85.2202 45.6831 85.3754 45.9033 85.567 45.9033C85.7586 45.9033 85.9138 45.6835 85.9138 45.4131C85.9138 45.1426 85.7586 44.9229 85.567 44.9229Z" fill="black"/>
<path d="M85.5671 50.0671C85.5533 50.0669 85.5395 50.0649 85.5263 50.0609C84.1423 49.6336 84.3825 47.8657 84.3861 47.8477C84.3916 47.8101 84.4117 47.7763 84.442 47.7536C84.4724 47.7309 84.5106 47.7211 84.5481 47.7266C84.5857 47.732 84.6195 47.7521 84.6422 47.7825C84.6649 47.8128 84.6747 47.851 84.6692 47.8885C84.6385 48.1677 84.6523 48.4499 84.7101 48.7247C84.8326 49.2823 85.1353 49.6398 85.6121 49.7868C85.6445 49.797 85.6723 49.8184 85.6904 49.8472C85.7085 49.876 85.7157 49.9103 85.7108 49.944C85.7059 49.9776 85.6891 50.0084 85.6636 50.0308C85.638 50.0533 85.6052 50.0658 85.5712 50.0662L85.5671 50.0671Z" fill="black"/>
<path d="M81.9739 55.6632C81.9448 55.6635 81.9163 55.655 81.8922 55.6387C81.7578 55.548 81.0826 55.0775 81.0176 54.718C81.0093 54.6779 81.0093 54.6365 81.0176 54.5964C81.0258 54.5562 81.0423 54.5182 81.0658 54.4847C81.1581 54.3556 81.382 54.2572 82.3889 54.4087C82.9175 54.488 83.4282 54.6044 83.4331 54.6052C83.4701 54.6137 83.5022 54.6365 83.5224 54.6686C83.5426 54.7008 83.5492 54.7396 83.5407 54.7766C83.5323 54.8136 83.5095 54.8457 83.4773 54.8659C83.4452 54.8861 83.4063 54.8927 83.3693 54.8842C83.3649 54.8842 82.893 54.776 82.3922 54.6984C81.518 54.5632 81.3301 54.6355 81.2974 54.6543C81.2758 54.7486 81.603 55.0987 82.0519 55.4014C82.0776 55.4185 82.097 55.4435 82.1073 55.4726C82.1176 55.5017 82.1182 55.5334 82.109 55.5629C82.0998 55.5923 82.0813 55.618 82.0563 55.6361C82.0313 55.6542 82.0011 55.6637 81.9702 55.6632H81.9739Z" fill="black"/>
<path d="M144.889 72.1948H115.968C115.626 72.1948 115.293 72.3077 115.022 72.5159C114.751 72.7242 114.556 73.0161 114.468 73.3464L107.873 98.0545C107.873 98.0545 96.0006 98.7645 94.6187 98.8306C93.2367 98.8968 92.9565 100.108 92.9565 100.108H139.55C140.092 100.108 140.617 99.9186 141.034 99.5719C141.451 99.2252 141.733 98.7436 141.831 98.2105L142.229 96.0643L146.324 73.9501C146.367 73.7376 146.361 73.5183 146.309 73.308C146.257 73.0977 146.158 72.9015 146.021 72.7337C145.884 72.5659 145.712 72.4305 145.516 72.3374C145.32 72.2442 145.106 72.1955 144.889 72.1948Z" fill="#F66B00"/>
<path d="M144.889 72.1948H128.826C126.089 88.9993 139.803 95.7244 142.229 96.0635L146.324 73.9493C146.366 73.7368 146.361 73.5176 146.309 73.3074C146.256 73.0972 146.158 72.9012 146.021 72.7335C145.884 72.5657 145.711 72.4305 145.516 72.3373C145.32 72.2442 145.106 72.1955 144.889 72.1948Z" fill="#F68B00"/>
<path d="M114.468 73.3464L107.873 98.0545H109.62C109.62 98.0545 115.184 76.998 116.015 74.3521C116.346 73.3006 116.676 72.6258 116.955 72.1948H115.967C115.625 72.1948 115.293 72.3077 115.022 72.5159C114.751 72.7242 114.556 73.0161 114.468 73.3464Z" fill="#CA3230"/>
<path d="M109.73 98.1971H107.687L114.33 73.3105C114.426 72.9499 114.639 72.6312 114.935 72.4038C115.231 72.1765 115.594 72.053 115.967 72.0527H117.218L117.075 72.2733C116.744 72.784 116.434 73.4988 116.151 74.3975C115.331 77.0119 109.814 97.883 109.758 98.0938L109.73 98.1971ZM108.059 97.9112H109.51C109.939 96.2849 115.086 76.8326 115.879 74.3089C116.13 73.5078 116.406 72.8465 116.7 72.3375H115.967C115.657 72.3377 115.355 72.4403 115.109 72.6293C114.863 72.8182 114.686 73.0831 114.606 73.3828L108.059 97.9112Z" fill="black"/>
<path d="M128.46 91.2249C128.335 91.2248 128.21 91.215 128.087 91.1955C126.505 90.9426 125.473 89.1411 125.786 87.1795C126.099 85.2179 127.641 83.8269 129.223 84.0794C129.999 84.2019 130.664 84.6954 131.098 85.4646C131.523 86.2191 131.675 87.1534 131.525 88.0954C131.236 89.9026 129.905 91.2249 128.46 91.2249ZM128.848 84.4515C127.598 84.4515 126.44 85.6329 126.183 87.2428C125.904 88.9859 126.787 90.5807 128.15 90.7968C128.254 90.8133 128.358 90.8217 128.462 90.8217C129.712 90.8217 130.873 89.6403 131.127 88.0304C131.264 87.1779 131.127 86.3359 130.748 85.6611C130.375 85.0006 129.812 84.5794 129.16 84.4765C129.057 84.4599 128.952 84.4515 128.848 84.4515Z" fill="#C53529"/>
<path d="M139.55 100.25H92.9564C92.9349 100.25 92.9137 100.245 92.8943 100.236C92.875 100.227 92.8579 100.213 92.8445 100.196C92.8309 100.179 92.8214 100.159 92.8168 100.138C92.8121 100.117 92.8124 100.095 92.8175 100.074C92.9229 99.6175 93.4343 98.7404 94.6129 98.6849C95.9094 98.6236 106.592 97.9859 107.762 97.9161L114.33 73.3105C114.426 72.9499 114.639 72.6312 114.935 72.4038C115.231 72.1765 115.594 72.053 115.967 72.0527H144.889C145.127 72.0535 145.361 72.1069 145.576 72.2091C145.791 72.3113 145.98 72.4598 146.13 72.6438C146.281 72.8279 146.389 73.043 146.446 73.2736C146.504 73.5043 146.509 73.7449 146.463 73.978L142.369 96.0905L141.971 98.2368C141.866 98.8022 141.567 99.313 141.124 99.6808C140.682 100.049 140.125 100.25 139.55 100.25ZM93.1561 99.9643H139.55C140.059 99.9642 140.551 99.7861 140.942 99.4609C141.333 99.1356 141.598 98.6837 141.691 98.1836L142.089 96.0374L146.184 73.9233C146.222 73.7314 146.218 73.5333 146.171 73.3434C146.124 73.1535 146.035 72.9763 145.911 72.8247C145.787 72.6732 145.632 72.5509 145.455 72.4667C145.278 72.3825 145.085 72.3385 144.889 72.3379H115.968C115.657 72.3381 115.356 72.4407 115.11 72.6297C114.863 72.8187 114.686 73.0835 114.606 73.3832L108.011 98.0913C108.004 98.1204 107.987 98.1462 107.964 98.1653C107.94 98.1844 107.912 98.1956 107.882 98.1975C107.763 98.2045 95.9924 98.9083 94.6255 98.9737C93.677 99.0166 93.2905 99.6493 93.1561 99.9643Z" fill="black"/>
<path d="M162.944 60.1797C162.628 60.1797 162.325 60.3054 162.101 60.5291C161.877 60.7527 161.751 61.0561 161.751 61.3725V74.567C161.751 74.8834 161.877 75.1868 162.101 75.4105C162.325 75.6342 162.628 75.7599 162.944 75.7599H172.478C172.794 75.7599 173.098 75.6342 173.321 75.4105C173.545 75.1868 173.671 74.8834 173.671 74.567V65.0033L168.99 60.1797H162.944Z" fill="#76C3FF"/>
<path d="M172.478 75.9042H162.944C162.59 75.9038 162.251 75.7629 162 75.5125C161.75 75.2621 161.609 74.9226 161.609 74.5684V61.3739C161.609 61.0197 161.75 60.6802 162 60.4298C162.251 60.1794 162.59 60.0385 162.944 60.0381H168.99C169.009 60.0381 169.028 60.0419 169.046 60.0493C169.063 60.0568 169.079 60.0677 169.093 60.0814L173.773 64.9054C173.799 64.9319 173.814 64.9675 173.814 65.0046V74.5696C173.813 74.9236 173.672 75.2629 173.422 75.5131C173.171 75.7632 172.832 75.9039 172.478 75.9042ZM162.944 60.3228C162.666 60.3231 162.399 60.4338 162.202 60.6307C162.006 60.8275 161.895 61.0943 161.894 61.3727V74.5672C161.895 74.8455 162.006 75.1124 162.202 75.3092C162.399 75.506 162.666 75.6167 162.944 75.617H172.478C172.756 75.6167 173.023 75.506 173.22 75.3092C173.417 75.1124 173.527 74.8455 173.528 74.5672V65.0614L168.93 60.3228H162.944Z" fill="black"/>
<path d="M161.751 74.4724C161.751 74.6417 161.785 74.8093 161.849 74.9657C161.914 75.1221 162.009 75.2642 162.129 75.3839C162.249 75.5036 162.391 75.5985 162.547 75.6633C162.703 75.728 162.871 75.7613 163.04 75.7613H172.382C172.551 75.7613 172.719 75.728 172.875 75.6633C173.032 75.5985 173.174 75.5036 173.293 75.3839C173.413 75.2642 173.508 75.1221 173.573 74.9657C173.637 74.8093 173.671 74.6417 173.671 74.4724V71.0337H161.751V74.4724Z" fill="#489BFF"/>
<path d="M172.382 75.9041H163.04C162.661 75.9031 162.298 75.7521 162.03 75.4842C161.762 75.2163 161.612 74.8532 161.611 74.4743V71.0356C161.611 70.9976 161.626 70.9613 161.652 70.9345C161.679 70.9076 161.716 70.8926 161.754 70.8926H173.673C173.711 70.8926 173.747 70.9076 173.774 70.9345C173.801 70.9613 173.816 70.9976 173.816 71.0356V74.4743C173.815 74.8539 173.663 75.2176 173.394 75.4857C173.126 75.7537 172.761 75.9042 172.382 75.9041ZM161.894 71.1765V74.4723C161.895 74.7753 162.016 75.0658 162.23 75.2801C162.445 75.4944 162.735 75.6152 163.038 75.6161H172.38C172.683 75.6157 172.974 75.4952 173.189 75.2808C173.404 75.0664 173.525 74.7757 173.526 74.4723V71.1765H161.894Z" fill="black"/>
<path d="M168.991 63.8934C168.991 64.0391 169.019 64.1833 169.075 64.3179C169.131 64.4525 169.212 64.5749 169.315 64.6779C169.419 64.7809 169.541 64.8626 169.675 64.9184C169.81 64.9741 169.954 65.0028 170.1 65.0028H173.671L168.991 60.1797V63.8934Z" fill="#76C3FF"/>
<path d="M173.671 65.1463H170.1C169.768 65.1459 169.45 65.0138 169.215 64.779C168.98 64.5442 168.848 64.2259 168.848 63.8939V60.1802C168.848 60.1518 168.856 60.1241 168.872 60.1006C168.888 60.0771 168.91 60.0588 168.937 60.0481C168.963 60.0374 168.992 60.0348 169.02 60.0406C169.047 60.0463 169.073 60.0602 169.093 60.0805L173.773 64.9045C173.793 64.9247 173.806 64.9502 173.811 64.9778C173.816 65.0054 173.813 65.0338 173.802 65.0597C173.791 65.0855 173.773 65.1075 173.749 65.123C173.726 65.1385 173.698 65.1467 173.67 65.1467L173.671 65.1463ZM169.133 60.5303V63.8914C169.134 64.1476 169.236 64.3933 169.417 64.5745C169.598 64.7557 169.844 64.8576 170.1 64.8579H173.333L169.133 60.5303Z" fill="black"/>
<g opacity="0.2">
<path d="M169.039 64.2192C169.039 64.2192 168.992 65.1179 170.019 65.4161C170.058 65.4272 170.097 65.4353 170.137 65.4427C170.603 65.5244 173.672 66.0718 173.672 66.0015V65.0032H170.102C170.102 65.0032 169.208 64.9729 169.039 64.2192Z" fill="black"/>
</g>
<path d="M164.601 67.9333L166.647 68.7111V68.1739L165.216 67.6539L166.647 67.1298V66.5967L164.601 67.3745V67.9333Z" fill="#FAFAFA"/>
<path d="M166.766 69.587H167.363L168.781 65.5396H168.184L166.766 69.587Z" fill="#FAFAFA"/>
<path d="M168.858 67.1298L170.289 67.6539L168.858 68.1739V68.7111L170.904 67.9333V67.3745L168.858 66.5967V67.1298Z" fill="#FAFAFA"/>
<path d="M165.789 73.4245H165.061V72.793H164.691V74.3947H165.061V73.7378H165.789V74.3947H166.16V72.793H165.789V73.4245Z" fill="#FAFAFA"/>
<path d="M166.359 73.0949H166.871V74.3947H167.242V73.0949H167.755V72.793H166.359V73.0949Z" fill="#FAFAFA"/>
<path d="M169.45 72.793L168.86 73.7885L168.26 72.793H167.953V74.3947H168.301V73.4543L168.77 74.2256H168.937L169.409 73.4335L169.411 74.3947H169.759L169.754 72.793H169.45Z" fill="#FAFAFA"/>
<path d="M170.509 72.793H170.138V74.3947H171.312V74.0928H170.509V72.793Z" fill="#FAFAFA"/>
<path d="M81.0029 107.7C80.5154 107.7 80.0478 107.894 79.7031 108.238C79.3583 108.583 79.1646 109.051 79.1646 109.538V113.533C79.1646 114.021 79.3583 114.488 79.7031 114.833C80.0478 115.178 80.5154 115.371 81.0029 115.371H98.4458C98.9334 115.371 99.4009 115.178 99.7457 114.833C100.09 114.488 100.284 114.021 100.284 113.533V109.538C100.284 109.533 100.284 109.528 100.284 109.524V104.724L98.03 107.698L81.0029 107.7Z" fill="white"/>
<path d="M98.4474 115.517H81.0045C80.4788 115.516 79.9749 115.307 79.6031 114.936C79.2314 114.564 79.0223 114.06 79.0216 113.534V109.54C79.0223 109.014 79.2314 108.51 79.6031 108.138C79.9749 107.767 80.4788 107.558 81.0045 107.557H97.9634L100.432 104.3V113.534C100.431 114.06 100.222 114.564 99.8497 114.936C99.4777 115.308 98.9733 115.517 98.4474 115.517ZM81.0045 107.843C80.5547 107.844 80.1234 108.023 79.8053 108.341C79.4872 108.659 79.3082 109.09 79.3076 109.54V113.534C79.3082 113.984 79.4872 114.415 79.8053 114.733C80.1234 115.051 80.5547 115.23 81.0045 115.231H98.4474C98.8972 115.23 99.3284 115.051 99.6464 114.733C99.9645 114.415 100.143 113.984 100.144 113.534V109.54C100.144 109.534 100.144 109.529 100.144 109.525V109.259V105.151L98.1039 107.843H81.0045Z" fill="black"/>
<path d="M81.9335 111.822L84.083 112.616V111.979L82.6921 111.486L84.083 110.993V110.357L81.9335 111.15V111.822Z" fill="#2727A9"/>
<path d="M85.8052 111.268C86.0113 111.268 86.1683 111.374 86.2762 111.587L86.9171 111.26C86.8373 111.058 86.6912 110.89 86.5029 110.782C86.2913 110.663 86.0512 110.604 85.8085 110.61C85.5655 110.606 85.3249 110.659 85.1062 110.765C84.9076 110.863 84.7404 111.015 84.6235 111.203C84.5066 111.391 84.4446 111.609 84.4446 111.83C84.4446 112.052 84.5066 112.269 84.6235 112.457C84.7404 112.645 84.9076 112.797 85.1062 112.895C85.3245 113.002 85.5652 113.056 85.8085 113.052C86.0513 113.059 86.2914 112.999 86.5029 112.88C86.6913 112.772 86.8374 112.604 86.9171 112.402L86.2762 112.076C86.1686 112.288 86.0116 112.394 85.8052 112.394C85.7368 112.396 85.6688 112.383 85.6054 112.358C85.5421 112.332 85.4849 112.293 85.4375 112.244C85.3403 112.143 85.2916 112.005 85.2913 111.827C85.291 111.65 85.3398 111.514 85.4375 111.419C85.4851 111.37 85.5424 111.331 85.6056 111.305C85.6689 111.279 85.7368 111.267 85.8052 111.268Z" fill="#2727A9"/>
<path d="M89.0798 110.765C88.8649 110.663 88.6299 110.61 88.3921 110.61C88.1542 110.61 87.9193 110.663 87.7044 110.765C87.5585 110.841 87.4298 110.947 87.3261 111.075C87.2224 111.203 87.146 111.35 87.1015 111.509C87.057 111.668 87.0453 111.834 87.0672 111.997C87.0891 112.16 87.1441 112.317 87.2289 112.458C87.3445 112.645 87.5098 112.796 87.7064 112.895C87.9206 112.998 88.1553 113.051 88.3931 113.051C88.6309 113.051 88.8656 112.998 89.0798 112.895C89.276 112.797 89.4407 112.646 89.5549 112.458C89.6664 112.267 89.7252 112.049 89.7252 111.827C89.7252 111.605 89.6664 111.388 89.5549 111.196C89.4403 111.01 89.2756 110.861 89.0798 110.765ZM88.7485 112.243C88.7019 112.29 88.6462 112.328 88.5848 112.354C88.5234 112.38 88.4575 112.393 88.3908 112.393C88.3242 112.393 88.2583 112.38 88.1969 112.354C88.1354 112.328 88.0798 112.29 88.0332 112.243C87.9401 112.142 87.8936 112.004 87.8939 111.826C87.8942 111.649 87.9406 111.513 88.0332 111.418C88.0801 111.371 88.1359 111.334 88.1972 111.308C88.2586 111.283 88.3244 111.27 88.3908 111.27C88.4573 111.27 88.5231 111.283 88.5844 111.308C88.6458 111.334 88.7016 111.371 88.7485 111.418C88.8416 111.517 88.8881 111.653 88.8878 111.826C88.8875 112 88.8412 112.139 88.7489 112.243H88.7485Z" fill="#2727A9"/>
<path d="M91.7918 110.854C91.6379 110.691 91.42 110.609 91.1382 110.609C90.9324 110.606 90.7296 110.658 90.5495 110.757C90.372 110.856 90.2261 111.003 90.1288 111.182C90.027 111.381 89.9739 111.602 89.9739 111.826C89.9739 112.05 90.027 112.271 90.1288 112.47C90.2258 112.65 90.3716 112.799 90.5495 112.9C90.7292 113.001 90.9322 113.053 91.1382 113.05C91.4462 113.05 91.6777 112.959 91.8326 112.776V113.011H92.6219V109.776H91.7934L91.7918 110.854ZM91.6651 112.243C91.6206 112.292 91.566 112.331 91.5051 112.357C91.4442 112.383 91.3784 112.395 91.3122 112.393C91.2453 112.395 91.1787 112.383 91.117 112.357C91.0554 112.331 91 112.292 90.9548 112.243C90.8616 112.143 90.8151 112.004 90.8151 111.827C90.8151 111.649 90.8616 111.513 90.9548 111.418C91.0004 111.369 91.0559 111.331 91.1175 111.305C91.1791 111.28 91.2455 111.268 91.3122 111.27C91.3786 111.268 91.4447 111.28 91.506 111.305C91.5673 111.331 91.6224 111.369 91.6676 111.418C91.7591 111.517 91.8049 111.653 91.8049 111.827C91.8049 112 91.7583 112.139 91.6651 112.243Z" fill="#2727A9"/>
<path d="M94.9442 110.756C94.7398 110.658 94.5158 110.608 94.2893 110.61C94.0628 110.612 93.8397 110.666 93.637 110.767C93.4409 110.869 93.277 111.023 93.1635 111.212C93.0499 111.401 92.9912 111.618 92.9939 111.839C92.9966 112.06 93.0607 112.275 93.1788 112.462C93.297 112.648 93.4647 112.798 93.6631 112.895C93.8903 113.003 94.1397 113.057 94.3915 113.052C94.8329 113.052 95.1686 112.924 95.3984 112.668L94.9626 112.215C94.8885 112.281 94.8037 112.334 94.7117 112.372C94.6174 112.405 94.5177 112.422 94.4176 112.419C94.2849 112.424 94.1537 112.39 94.0402 112.321C93.9394 112.256 93.8665 112.156 93.8359 112.04H95.5516C95.5606 111.91 95.5647 111.841 95.5647 111.836C95.5705 111.606 95.5126 111.379 95.3972 111.18C95.2894 110.999 95.1323 110.852 94.9442 110.756ZM93.8237 111.604C93.8414 111.489 93.8993 111.384 93.9871 111.308C94.0789 111.237 94.1916 111.199 94.3075 111.199C94.4234 111.199 94.5361 111.237 94.628 111.308C94.7157 111.384 94.7735 111.489 94.7914 111.604H93.8237Z" fill="#2727A9"/>
<path d="M95.9385 110.993L97.3295 111.486L95.9385 111.979V112.616L98.088 111.822V111.15L95.9385 110.357V110.993Z" fill="#2727A9"/>
</g>
<defs>
<clipPath id="clip0_1_7789">
<rect width="155.159" height="104" fill="white" transform="translate(20.4206 17)"/>
</clipPath>
</defs>
</svg>
