<svg width="20" height="20" viewBox="0 0 20 20" fill="none" xmlns="http://www.w3.org/2000/svg">
<path d="M11.6666 3.69788C12.7885 3.69788 13.6979 2.78845 13.6979 1.66663H14.6354C14.6354 2.78845 15.5448 3.69788 16.6666 3.69788V4.63538C15.5448 4.63538 14.6354 5.5448 14.6354 6.66663H13.6979C13.6979 5.5448 12.7885 4.63538 11.6666 4.63538V3.69788ZM0.833313 9.16663C3.59474 9.16663 5.83331 6.92805 5.83331 4.16663H7.49998C7.49998 6.92805 9.73856 9.16663 12.5 9.16663V10.8333C9.73856 10.8333 7.49998 13.0719 7.49998 15.8333H5.83331C5.83331 13.0719 3.59474 10.8333 0.833313 10.8333V9.16663ZM4.06332 9.99996C5.15595 10.6063 6.06034 11.5106 6.66665 12.6033C7.27295 11.5106 8.17734 10.6063 9.26998 9.99996C8.17734 9.39363 7.27295 8.48929 6.66665 7.39663C6.06034 8.48929 5.15595 9.39363 4.06332 9.99996ZM14.375 11.6666C14.375 13.1624 13.1624 14.375 11.6666 14.375V15.625C13.1624 15.625 14.375 16.8375 14.375 18.3333H15.625C15.625 16.8375 16.8376 15.625 18.3333 15.625V14.375C16.8376 14.375 15.625 13.1624 15.625 11.6666H14.375Z" fill="#D97706"/>
</svg>
