<svg width="326" height="240" viewBox="0 0 326 240" fill="none" xmlns="http://www.w3.org/2000/svg">
<g clip-path="url(#clip0_225_4772)">
<path d="M145.674 19.8198C145.674 19.8198 98.1743 17.6984 69.5702 56.3552C53.4396 78.1545 41.6514 103.667 42.8766 129.95C43.8231 150.275 52.5506 171.06 73.0672 190.947C120.115 236.55 226.193 222.948 253.217 198.549C265.3 187.641 280.785 158.209 283.868 126.302C288.708 76.2307 263.005 20.0653 145.674 19.8198Z" fill="#FCFCD4"/>
<path d="M177.589 152.883C146.962 156.832 117.682 141.384 88.1389 132.396C77.9703 129.302 67.4151 126.935 56.7963 127.473C52.0715 127.72 47.3955 128.551 42.8757 129.95C43.8222 150.275 52.5497 171.06 73.0663 190.947C120.115 236.55 226.193 222.948 253.216 198.549C265.299 187.641 280.784 158.209 283.867 126.302C280.001 125.269 276.043 124.622 272.05 124.373C238.95 122.373 210.477 148.64 177.589 152.883Z" fill="#E5E6A6"/>
<path d="M171.617 4.90967H86.4793C82.9889 4.90967 80.1594 7.73841 80.1594 11.2278V188.118C80.1594 191.608 82.9889 194.437 86.4793 194.437H171.617C175.107 194.437 177.937 191.608 177.937 188.118V11.2278C177.937 7.73841 175.107 4.90967 171.617 4.90967Z" fill="#213D39"/>
<path d="M178.603 4.90967H93.4627C92.6326 4.90967 91.8107 5.07315 91.0438 5.39078C90.2769 5.7084 89.5801 6.17395 88.9933 6.76083C88.4064 7.34771 87.9409 8.04443 87.6234 8.81119C87.3059 9.57794 87.1426 10.3997 87.1428 11.2296V188.118C87.1431 189.793 87.809 191.4 88.9941 192.585C90.1793 193.77 91.7866 194.435 93.4627 194.436H178.603C180.279 194.435 181.886 193.77 183.071 192.585C184.256 191.4 184.922 189.793 184.923 188.118V11.2296C184.923 10.3997 184.76 9.57794 184.442 8.81119C184.125 8.04443 183.659 7.34771 183.072 6.76083C182.485 6.17395 181.789 5.7084 181.022 5.39078C180.255 5.07315 179.433 4.90967 178.603 4.90967Z" fill="#337477"/>
<path d="M171.859 7.34356C171.269 6.58426 170.513 5.96989 169.649 5.54744C168.785 5.12498 167.836 4.90562 166.874 4.90613H93.4627C92.6323 4.90613 91.8101 5.06973 91.043 5.38757C90.2759 5.70542 89.579 6.17128 88.992 6.75853C88.4051 7.34578 87.9397 8.0429 87.6224 8.81006C87.3051 9.57722 87.1421 10.3994 87.1428 11.2295V188.117C87.1426 188.947 87.3059 189.769 87.6234 190.536C87.9409 191.302 88.4065 191.999 88.9934 192.586C89.5803 193.172 90.2771 193.638 91.0439 193.955C91.8108 194.273 92.6327 194.436 93.4627 194.436H166.874C168.55 194.435 170.157 193.77 171.342 192.585C172.528 191.4 173.193 189.793 173.194 188.117V11.2295C173.196 9.82208 172.726 8.45448 171.86 7.3453L171.859 7.34356Z" fill="#468C94"/>
<path d="M166.874 4.90967H93.4627C92.6326 4.90967 91.8106 5.07315 91.0438 5.39078C90.2769 5.70841 89.5801 6.17396 88.9932 6.76084C88.4064 7.34772 87.9409 8.04443 87.6234 8.81119C87.3059 9.57795 87.1426 10.3997 87.1428 11.2296V188.118C87.1407 189.477 87.5794 190.801 88.3932 191.891L171.859 7.34275C171.268 6.58425 170.512 5.97071 169.648 5.54903C168.784 5.12734 167.835 4.90865 166.874 4.90967Z" fill="#509CA0"/>
<path d="M178.603 190.311H93.4627C92.8807 190.311 92.3225 190.08 91.9107 189.669C91.499 189.257 91.2674 188.699 91.2667 188.118V11.2296C91.2674 10.6479 91.4987 10.0903 91.9101 9.67887C92.3214 9.26749 92.8791 9.03596 93.461 9.03503H178.603C179.184 9.03642 179.742 9.26815 180.153 9.67949C180.563 10.0908 180.795 10.6482 180.795 11.2296V188.118C180.795 188.699 180.563 189.256 180.152 189.667C179.741 190.078 179.184 190.31 178.603 190.311ZM93.4627 10.158C93.1788 10.1585 92.9067 10.2716 92.7062 10.4725C92.5057 10.6735 92.3932 10.9458 92.3934 11.2296V188.118C92.3939 188.401 92.5067 188.673 92.7071 188.873C92.9076 189.073 93.1793 189.186 93.4627 189.186H178.603C178.886 189.186 179.158 189.073 179.358 188.873C179.559 188.673 179.672 188.401 179.672 188.118V11.2296C179.672 10.9458 179.56 10.6735 179.359 10.4725C179.159 10.2716 178.887 10.1585 178.603 10.158H93.4627Z" fill="#FFFEEB"/>
<path d="M143 14.1614H129.667C128.937 14.1616 128.232 14.4275 127.684 14.9094C127.136 15.3913 126.782 16.0562 126.689 16.7799C126.672 16.9084 126.664 17.0378 126.663 17.1673C126.665 17.9627 126.982 18.725 127.545 19.287C128.108 19.8489 128.871 20.1645 129.667 20.1645H142.999C143.795 20.1645 144.56 19.8481 145.123 19.2849C145.686 18.7216 146.003 17.9577 146.003 17.1612C146.003 16.3647 145.686 15.6008 145.123 15.0376C144.56 14.4744 143.795 14.158 142.999 14.158L143 14.1614Z" fill="#0B1917"/>
<path d="M140.345 14.1614H129.667C128.937 14.1616 128.232 14.4275 127.684 14.9094C127.136 15.3913 126.782 16.0562 126.689 16.7799C126.672 16.9084 126.664 17.0378 126.663 17.1673C126.665 17.9627 126.982 18.725 127.545 19.287C128.108 19.8489 128.871 20.1645 129.667 20.1645H140.344C141.141 20.1645 141.905 19.8481 142.468 19.2849C143.031 18.7216 143.348 17.9577 143.348 17.1612C143.348 16.3647 143.031 15.6008 142.468 15.0376C141.905 14.4744 141.141 14.158 140.344 14.158L140.345 14.1614Z" fill="#213D39"/>
<path d="M158.677 98.7543H107.941C106.761 98.7554 105.627 99.2095 104.773 100.023C104.716 100.077 104.661 100.132 104.607 100.189L103.67 101.177L103.834 101.291C103.515 101.928 103.349 102.63 103.35 103.343V137.502C103.351 138.718 103.836 139.885 104.696 140.745C105.557 141.606 106.724 142.09 107.941 142.091H158.677C159.893 142.089 161.06 141.605 161.92 140.745C162.781 139.885 163.265 138.718 163.266 137.502V103.343C163.269 102.169 162.819 101.04 162.01 100.189C161.58 99.737 161.063 99.3769 160.49 99.1303C159.917 98.8837 159.3 98.7558 158.677 98.7543Z" fill="#337477"/>
<path d="M100.995 13.8507L96.317 15.8433C96.2617 15.8666 96.2153 15.9069 96.1844 15.9583C96.1534 16.0097 96.1395 16.0696 96.1448 16.1294C96.15 16.1891 96.174 16.2457 96.2134 16.2909C96.2528 16.3362 96.3056 16.3678 96.364 16.3812L98.3154 16.8374C98.3318 16.8409 98.3469 16.8491 98.3588 16.861C98.3707 16.8729 98.3789 16.888 98.3824 16.9044L98.8387 18.8552C98.8525 18.9134 98.8842 18.9657 98.9295 19.0047C98.9747 19.0437 99.0311 19.0675 99.0906 19.0726C99.1502 19.0777 99.2098 19.0639 99.261 19.0332C99.3123 19.0024 99.3525 18.9563 99.376 18.9014L101.367 14.2232C101.39 14.1711 101.396 14.1135 101.385 14.0578C101.374 14.0022 101.347 13.951 101.307 13.9109C101.267 13.8708 101.216 13.8436 101.16 13.8329C101.104 13.8222 101.047 13.8283 100.995 13.8507ZM100.546 14.7891L99.2906 17.7366C99.2887 17.7597 99.2776 17.7811 99.2599 17.796C99.2422 17.811 99.2192 17.8182 99.1961 17.8163C99.173 17.8143 99.1517 17.8033 99.1367 17.7856C99.1218 17.7678 99.1145 17.7449 99.1165 17.7218L98.8213 16.4587C98.8178 16.4423 98.8096 16.4272 98.7977 16.4153C98.7858 16.4034 98.7707 16.3952 98.7542 16.3917L97.4908 16.0966C97.4677 16.0985 97.4448 16.0913 97.4271 16.0763C97.4093 16.0614 97.3983 16.04 97.3963 16.0169C97.3943 15.9938 97.4016 15.9709 97.4166 15.9532C97.4315 15.9355 97.4529 15.9244 97.476 15.9225L100.424 14.6681C100.441 14.656 100.462 14.6503 100.482 14.6519C100.503 14.6536 100.522 14.6624 100.537 14.6769C100.551 14.6915 100.56 14.7107 100.562 14.7312C100.564 14.7518 100.558 14.7723 100.546 14.7891Z" fill="#213D39"/>
<path d="M170.547 15.6108H167.65V18.5079H170.547V15.6108Z" fill="#213D39"/>
<path d="M175.999 14.8569H166.908V19.2626H175.999V17.9237H176.809V16.1958H175.999V14.8569ZM176.447 16.5579V17.5616H175.637V18.9005H167.27V15.2191H175.637V16.5579H176.447Z" fill="#213D39"/>
<path d="M160.889 17.9091C160.761 17.9091 160.637 17.9469 160.531 18.0178C160.425 18.0886 160.342 18.1894 160.293 18.3073C160.244 18.4251 160.231 18.5548 160.256 18.6799C160.281 18.8051 160.343 18.92 160.433 19.0102C160.523 19.1004 160.638 19.1619 160.763 19.1868C160.888 19.2116 161.018 19.1989 161.136 19.1501C161.254 19.1012 161.355 19.0186 161.426 18.9125C161.496 18.8064 161.534 18.6817 161.534 18.5541C161.534 18.383 161.466 18.219 161.345 18.098C161.224 17.977 161.06 17.9091 160.889 17.9091Z" fill="#213D39"/>
<path d="M159.29 17.0855C159.21 17.1651 159.165 17.273 159.165 17.3854C159.165 17.4979 159.21 17.6058 159.29 17.6853C159.369 17.7649 159.477 17.8096 159.589 17.8096C159.702 17.8096 159.81 17.7649 159.889 17.6853C160.159 17.4272 160.518 17.2831 160.891 17.2831C161.264 17.2831 161.623 17.4272 161.892 17.6853C161.973 17.7594 162.079 17.7995 162.189 17.7973C162.298 17.795 162.402 17.7505 162.48 17.6731C162.557 17.5958 162.602 17.4914 162.605 17.382C162.607 17.2725 162.567 17.1663 162.493 17.0855C161.635 16.2307 160.143 16.2298 159.29 17.0855Z" fill="#213D39"/>
<path d="M160.889 14.9205C160.395 14.919 159.905 15.0157 159.448 15.2048C158.991 15.394 158.576 15.672 158.227 16.0226C158.148 16.1022 158.103 16.21 158.103 16.3225C158.103 16.435 158.148 16.5429 158.227 16.6224C158.307 16.7019 158.415 16.7466 158.527 16.7466C158.64 16.7466 158.748 16.7019 158.827 16.6224C159.928 15.5229 161.85 15.5229 162.952 16.6224C163.031 16.7019 163.139 16.7466 163.252 16.7466C163.364 16.7466 163.472 16.7019 163.552 16.6224C163.631 16.5429 163.676 16.435 163.676 16.3225C163.676 16.21 163.631 16.1022 163.552 16.0226C163.203 15.6722 162.788 15.3944 162.331 15.2052C161.874 15.016 161.384 14.9193 160.889 14.9205Z" fill="#213D39"/>
<path d="M155.144 14.9832C155.036 14.9832 154.933 15.026 154.856 15.1022C154.78 15.1785 154.737 15.2819 154.737 15.3897V18.7298C154.737 18.8377 154.78 18.9411 154.856 19.0173C154.933 19.0935 155.036 19.1364 155.144 19.1364C155.252 19.1364 155.355 19.0935 155.431 19.0173C155.508 18.9411 155.551 18.8377 155.551 18.7298V15.3897C155.551 15.2819 155.508 15.1785 155.431 15.1022C155.355 15.026 155.252 14.9832 155.144 14.9832Z" fill="#213D39"/>
<path d="M153.667 15.9808C153.559 15.9808 153.456 16.0237 153.38 16.0999C153.303 16.1761 153.26 16.2795 153.26 16.3874V18.7299C153.26 18.8377 153.303 18.9411 153.38 19.0174C153.456 19.0936 153.559 19.1364 153.667 19.1364C153.775 19.1364 153.878 19.0936 153.955 19.0174C154.031 18.9411 154.074 18.8377 154.074 18.7299V16.3874C154.074 16.2795 154.031 16.1761 153.955 16.0999C153.878 16.0237 153.775 15.9808 153.667 15.9808Z" fill="#213D39"/>
<path d="M152.177 16.8087C152.124 16.8087 152.071 16.8192 152.022 16.8397C151.972 16.8601 151.927 16.89 151.89 16.9278C151.852 16.9655 151.822 17.0104 151.802 17.0597C151.781 17.109 151.771 17.1619 151.771 17.2152V18.7299C151.768 18.7848 151.777 18.8397 151.796 18.8912C151.815 18.9427 151.845 18.9897 151.883 19.0295C151.921 19.0692 151.966 19.1009 152.017 19.1225C152.067 19.1441 152.122 19.1553 152.177 19.1553C152.232 19.1553 152.286 19.1441 152.337 19.1225C152.387 19.1009 152.433 19.0692 152.471 19.0295C152.509 18.9897 152.538 18.9427 152.558 18.8912C152.577 18.8397 152.586 18.7848 152.583 18.7299V17.2152C152.583 17.1076 152.54 17.0043 152.464 16.9281C152.388 16.8519 152.285 16.8089 152.177 16.8087Z" fill="#213D39"/>
<path d="M150.687 17.2605C150.633 17.2605 150.58 17.271 150.531 17.2915C150.482 17.3119 150.437 17.3419 150.399 17.3796C150.362 17.4174 150.332 17.4622 150.311 17.5115C150.291 17.5608 150.281 17.6137 150.281 17.667V18.7299C150.278 18.7848 150.287 18.8397 150.306 18.8912C150.325 18.9427 150.355 18.9897 150.393 19.0295C150.431 19.0692 150.476 19.1009 150.527 19.1225C150.578 19.1441 150.632 19.1553 150.687 19.1553C150.742 19.1553 150.796 19.1441 150.847 19.1225C150.897 19.1009 150.943 19.0692 150.981 19.0295C151.019 18.9897 151.049 18.9427 151.068 18.8912C151.087 18.8397 151.096 18.7848 151.093 18.7299V17.6714C151.094 17.6176 151.084 17.5643 151.064 17.5145C151.043 17.4646 151.013 17.4193 150.976 17.3811C150.938 17.3429 150.893 17.3126 150.843 17.2919C150.794 17.2712 150.74 17.2605 150.687 17.2605Z" fill="#213D39"/>
<path d="M155.565 97.1491H104.829C103.923 97.1495 103.054 97.5096 102.413 98.1503C101.772 98.7909 101.412 99.6597 101.411 100.566V134.725C101.411 135.174 101.499 135.618 101.671 136.033C101.843 136.447 102.094 136.824 102.412 137.142C102.729 137.459 103.106 137.711 103.521 137.882C103.936 138.054 104.38 138.142 104.829 138.142H155.565C156.472 138.142 157.342 137.782 157.983 137.141C158.624 136.5 158.984 135.631 158.984 134.725V100.561C158.983 99.6554 158.623 98.7866 157.982 98.1459C157.341 97.5053 156.472 97.1452 155.565 97.1447V97.1491Z" fill="#FF6703"/>
<path d="M155.565 95.973H104.829C104.206 95.9745 103.589 96.1023 103.016 96.3487C102.444 96.5952 101.927 96.9551 101.497 97.4067C100.686 98.2566 100.234 99.3866 100.235 100.561V134.72C100.237 135.937 100.721 137.104 101.581 137.964C102.442 138.824 103.609 139.308 104.826 139.31H155.562C156.779 139.308 157.946 138.824 158.806 137.964C159.667 137.104 160.151 135.937 160.152 134.72V100.561C160.155 99.3875 159.705 98.2578 158.895 97.4076C158.466 96.9561 157.949 96.5962 157.377 96.3497C156.805 96.1031 156.189 95.975 155.565 95.973ZM157.812 134.72C157.811 135.316 157.574 135.887 157.153 136.308C156.732 136.729 156.161 136.966 155.565 136.966H104.829C104.234 136.966 103.663 136.729 103.241 136.308C102.82 135.887 102.583 135.316 102.583 134.72V100.561C102.583 99.9659 102.82 99.3949 103.241 98.9739C103.663 98.5529 104.234 98.3164 104.829 98.3164H155.565C156.161 98.3164 156.732 98.5529 157.154 98.9739C157.575 99.3949 157.812 99.9659 157.812 100.561V134.72Z" fill="#FFFEEB"/>
<path d="M155.565 97.149H104.829C104.365 97.1486 103.905 97.2432 103.478 97.4271C103.051 97.6109 102.666 97.8801 102.347 98.218L127.472 115.744C128.271 116.302 129.223 116.601 130.198 116.601C131.173 116.601 132.124 116.302 132.924 115.744L157.879 98.3338C157.255 97.6714 156.543 97.149 155.565 97.149Z" fill="#FF6703"/>
<path d="M155.565 95.973H104.829C104.206 95.9745 103.589 96.1024 103.016 96.349C102.443 96.5955 101.926 96.9557 101.496 97.4076L100.56 98.3956L126.8 116.701C127.797 117.392 128.982 117.763 130.196 117.763C131.41 117.763 132.595 117.392 133.592 116.701L159.662 98.514L158.726 97.526C158.098 96.8591 157.083 95.973 155.565 95.973ZM132.254 114.776C131.65 115.195 130.933 115.42 130.198 115.42C129.463 115.42 128.746 115.195 128.142 114.776L104.565 98.3294C104.651 98.3191 104.739 98.3139 104.826 98.3138H155.562C155.647 98.3138 155.732 98.3214 155.815 98.3364L132.254 114.776Z" fill="#FFFEEB"/>
<path d="M170.402 78.1512C172.044 75.4946 171.222 72.0099 168.565 70.3679C165.907 68.7259 162.422 69.5483 160.779 72.2049C159.137 74.8615 159.959 78.3462 162.617 79.9882C165.274 81.6302 168.76 80.8078 170.402 78.1512Z" fill="#337477"/>
<path d="M155.328 69.9978C155.328 69.6434 155.188 69.3035 154.937 69.0529C154.686 68.8023 154.346 68.6616 153.992 68.6616H108.26C107.906 68.6616 107.566 68.8023 107.315 69.0529C107.064 69.3035 106.924 69.6434 106.924 69.9978V79.4864C106.924 79.8408 107.064 80.1808 107.315 80.4315C107.566 80.6823 107.906 80.8232 108.26 80.8235H153.992C154.346 80.8232 154.686 80.6823 154.937 80.4315C155.188 80.1808 155.328 79.8408 155.328 79.4864V77.069L158.772 77.5477L155.328 74.198V69.9978Z" fill="#337477"/>
<path d="M164.657 79.7048C167.781 79.7048 170.313 77.1731 170.313 74.05C170.313 70.9269 167.781 68.3951 164.657 68.3951C161.533 68.3951 159 70.9269 159 74.05C159 77.1731 161.533 79.7048 164.657 79.7048Z" fill="#FFBE40"/>
<path d="M154.4 68.8792C154.4 68.5246 154.259 68.1845 154.009 67.9337C153.758 67.683 153.418 67.5421 153.063 67.5421H107.332C106.977 67.5421 106.637 67.683 106.386 67.9337C106.135 68.1845 105.994 68.5246 105.994 68.8792V78.3678C105.995 78.7223 106.136 79.0621 106.387 79.3127C106.637 79.5633 106.977 79.704 107.332 79.704H153.063C153.417 79.704 153.757 79.5633 154.008 79.3127C154.259 79.0621 154.4 78.7223 154.4 78.3678V75.9504L157.844 76.4292L154.4 73.0786V68.8792Z" fill="#FFFEEB"/>
<path d="M150.634 69.7967H109.512C109.37 69.7926 109.227 69.8172 109.094 69.869C108.961 69.9209 108.84 69.9989 108.737 70.0984C108.635 70.198 108.553 70.317 108.498 70.4486C108.442 70.5802 108.413 70.7216 108.413 70.8644C108.413 71.0072 108.442 71.1486 108.498 71.2802C108.553 71.4117 108.635 71.5308 108.737 71.6304C108.84 71.7299 108.961 71.8079 109.094 71.8597C109.227 71.9115 109.37 71.9361 109.512 71.9321H150.634C150.777 71.9361 150.919 71.9115 151.052 71.8597C151.186 71.8079 151.307 71.7299 151.409 71.6304C151.512 71.5308 151.593 71.4117 151.649 71.2802C151.705 71.1486 151.733 71.0072 151.733 70.8644C151.733 70.7216 151.705 70.5802 151.649 70.4486C151.593 70.317 151.512 70.198 151.409 70.0984C151.307 69.9989 151.186 69.9209 151.052 69.869C150.919 69.8172 150.777 69.7926 150.634 69.7967Z" fill="#1CBBBB"/>
<path d="M150.634 74.3416H140.089C139.948 74.3416 139.81 74.3692 139.68 74.4229C139.55 74.4766 139.433 74.5553 139.333 74.6545C139.234 74.7537 139.156 74.8715 139.102 75.001C139.049 75.1306 139.021 75.2695 139.021 75.4097C139.021 75.6928 139.134 75.9642 139.334 76.1644C139.534 76.3645 139.806 76.477 140.089 76.477H150.634C150.775 76.4771 150.913 76.4496 151.043 76.396C151.173 76.3424 151.29 76.2638 151.39 76.1647C151.489 76.0656 151.568 75.9479 151.621 75.8183C151.675 75.6888 151.703 75.55 151.703 75.4097C151.703 75.1265 151.59 74.8548 151.39 74.6545C151.189 74.4541 150.918 74.3416 150.634 74.3416Z" fill="#1CBBBB"/>
<path d="M103.94 39.0059C107.063 39.0059 109.596 36.4741 109.596 33.351C109.596 30.2279 107.063 27.6962 103.94 27.6962C100.816 27.6962 98.2832 30.2279 98.2832 33.351C98.2832 36.4741 100.816 39.0059 103.94 39.0059Z" fill="#337477"/>
<path d="M160.732 26.843H116.063C115.818 26.8429 115.575 26.8911 115.348 26.985C115.121 27.0788 114.915 27.2164 114.741 27.3899C114.568 27.5634 114.43 27.7694 114.336 27.9961C114.242 28.2228 114.194 28.4658 114.194 28.7111V33.1394L111.006 34.2789L114.194 36.228V48.7268C114.194 49.2223 114.391 49.6974 114.742 50.0478C115.092 50.3981 115.567 50.5949 116.063 50.5949H160.732C161.228 50.5949 161.703 50.3981 162.054 50.0478C162.404 49.6974 162.601 49.2223 162.601 48.7268V28.7111C162.601 28.2157 162.404 27.7405 162.054 27.3902C161.703 27.0398 161.228 26.843 160.732 26.843Z" fill="#337477"/>
<path d="M102.915 37.7715C106.039 37.7715 108.571 35.2397 108.571 32.1166C108.571 28.9936 106.039 26.4618 102.915 26.4618C99.7907 26.4618 97.2583 28.9936 97.2583 32.1166C97.2583 35.2397 99.7907 37.7715 102.915 37.7715Z" fill="#FFBE40"/>
<path d="M159.707 25.6086H115.038C114.543 25.6086 114.067 25.8055 113.717 26.1558C113.366 26.5061 113.169 26.9813 113.169 27.4768V31.9059L109.988 33.0454L113.171 34.9945V47.4924C113.172 47.9871 113.369 48.4614 113.719 48.8111C114.069 49.1608 114.543 49.3575 115.038 49.3579H159.707C160.203 49.3579 160.678 49.1611 161.029 48.8108C161.379 48.4604 161.576 47.9853 161.576 47.4898V27.4768C161.576 26.9813 161.379 26.5061 161.029 26.1558C160.678 25.8055 160.203 25.6086 159.707 25.6086Z" fill="#FFFEEB"/>
<path d="M157.705 30.6881H117.777C117.249 30.6881 116.82 31.116 116.82 31.6439V31.6448C116.82 32.1727 117.249 32.6006 117.777 32.6006H157.705C158.233 32.6006 158.661 32.1727 158.661 31.6448V31.6439C158.661 31.116 158.233 30.6881 157.705 30.6881Z" fill="#1CBBBB"/>
<path d="M147.526 35.9817H117.777C117.523 35.9817 117.28 36.0826 117.1 36.2622C116.921 36.4417 116.82 36.6853 116.82 36.9393C116.82 37.1932 116.921 37.4368 117.1 37.6163C117.28 37.7959 117.523 37.8968 117.777 37.8968H147.526C147.78 37.8968 148.023 37.7959 148.203 37.6163C148.383 37.4368 148.484 37.1932 148.484 36.9393C148.484 36.6853 148.383 36.4417 148.203 36.2622C148.023 36.0826 147.78 35.9817 147.526 35.9817Z" fill="#1CBBBB"/>
<path d="M155.028 41.1978H117.777C117.523 41.1978 117.28 41.2986 117.1 41.4782C116.921 41.6578 116.82 41.9014 116.82 42.1553C116.82 42.4093 116.921 42.6528 117.1 42.8324C117.28 43.012 117.523 43.1129 117.777 43.1129H155.028C155.282 43.1129 155.526 43.012 155.705 42.8324C155.885 42.6528 155.986 42.4093 155.986 42.1553C155.986 41.9014 155.885 41.6578 155.705 41.4782C155.526 41.2986 155.282 41.1978 155.028 41.1978Z" fill="#1CBBBB"/>
<path d="M186.206 28.988C185.963 28.4871 185.53 28.1034 185.004 27.9212C184.478 27.7391 183.901 27.7733 183.4 28.0165L147.342 45.5138C147.094 45.6341 146.872 45.8021 146.688 46.0082C146.505 46.2143 146.364 46.4545 146.274 46.7151C146.184 46.9757 146.146 47.2515 146.162 47.5267C146.178 47.802 146.249 48.0714 146.369 48.3194L150.52 56.8678C150.764 57.3687 151.196 57.7524 151.722 57.9346C152.248 58.1168 152.826 58.0825 153.327 57.8393L189.385 40.3421C189.634 40.2217 189.856 40.0535 190.04 39.8471C190.223 39.6407 190.364 39.4001 190.454 39.1392C190.545 38.8782 190.583 38.6021 190.566 38.3264C190.55 38.0508 190.479 37.7812 190.358 37.5329L186.206 28.988Z" fill="#FFBE40"/>
<path d="M154.512 47.3784C153.97 47.0912 153.391 47.097 152.775 47.3958C152.16 47.6947 151.797 48.1456 151.688 48.7486C151.579 49.351 151.731 50.0764 152.142 50.9249C152.553 51.7733 153.032 52.3467 153.579 52.645C154.126 52.9445 154.707 52.9445 155.321 52.645C155.935 52.3456 156.296 51.8882 156.403 51.2731C156.506 50.6579 156.351 49.9267 155.94 49.0794C155.528 48.2321 155.052 47.6651 154.512 47.3784ZM154.882 51.731C154.603 51.8662 154.329 51.8282 154.06 51.6169C153.79 51.4057 153.51 50.9995 153.218 50.3982C152.928 49.7964 152.784 49.3321 152.789 49.0054C152.786 48.8602 152.825 48.7173 152.901 48.5935C152.977 48.4697 153.086 48.3702 153.217 48.3068C153.348 48.2434 153.494 48.2186 153.638 48.2355C153.782 48.2524 153.919 48.3102 154.031 48.4021C154.294 48.6012 154.572 49.0016 154.864 49.6034C155.157 50.2053 155.302 50.6774 155.3 51.0198C155.301 51.3628 155.162 51.6013 154.882 51.7353V51.731Z" fill="black"/>
<path d="M160.596 48.8557L158.924 49.6688L159.422 48.1959C159.57 47.7939 159.655 47.3718 159.675 46.9441C159.682 46.6023 159.608 46.2637 159.459 45.956C159.232 45.4917 158.907 45.2051 158.484 45.096C158.061 44.9869 157.564 45.0727 156.993 45.3536C156.742 45.4764 156.508 45.6305 156.296 45.8124C156.082 45.9934 155.896 46.2053 155.745 46.4409C155.702 46.4983 155.671 46.5642 155.655 46.6343C155.639 46.7044 155.638 46.777 155.652 46.8474C155.68 46.9731 155.75 47.0854 155.851 47.1652C155.948 47.2455 156.073 47.2845 156.199 47.274C156.269 47.266 156.335 47.2414 156.393 47.2023C156.451 47.1632 156.499 47.1108 156.532 47.0494C156.631 46.8916 156.753 46.7488 156.892 46.6254C157.014 46.5196 157.149 46.4301 157.294 46.3591C157.828 46.0997 158.201 46.1867 158.411 46.6202C158.495 46.7982 158.533 46.994 158.523 47.1904C158.505 47.4592 158.452 47.7245 158.367 47.98L157.703 50.0692C157.662 50.1945 157.635 50.3242 157.623 50.4557C157.614 50.5712 157.636 50.6869 157.687 50.7908C157.715 50.8601 157.756 50.9233 157.808 50.9768C157.86 51.0303 157.922 51.073 157.99 51.1025C158.113 51.1478 158.266 51.1251 158.449 51.0363L161.041 49.7784C161.355 49.6261 161.436 49.3963 161.287 49.0881C161.138 48.78 160.908 48.7034 160.596 48.8557Z" fill="black"/>
<path d="M164.932 46.7526L163.257 47.5656L163.755 46.0927C163.902 45.6908 163.988 45.2686 164.008 44.8409C164.015 44.4994 163.941 44.1612 163.792 43.8538C163.565 43.3895 163.24 43.1025 162.816 42.9928C162.392 42.8831 161.897 42.9679 161.329 43.247C161.078 43.3694 160.844 43.5233 160.632 43.7049C160.418 43.8863 160.233 44.0984 160.081 44.3343C160.038 44.3917 160.007 44.4576 159.991 44.5277C159.975 44.5977 159.975 44.6704 159.989 44.7408C160.016 44.8665 160.086 44.9788 160.187 45.0585C160.285 45.139 160.41 45.1777 160.536 45.1665C160.605 45.1586 160.671 45.1341 160.729 45.0952C160.787 45.0562 160.835 45.004 160.868 44.9428C160.967 44.7847 161.089 44.6416 161.229 44.518C161.351 44.4124 161.485 44.3229 161.63 44.2516C162.165 43.9922 162.537 44.0792 162.747 44.5127C162.831 44.6907 162.87 44.8865 162.86 45.0829C162.841 45.3517 162.788 45.6169 162.703 45.8725L162.039 47.9617C161.997 48.0869 161.971 48.2167 161.959 48.3482C161.95 48.4634 161.972 48.5789 162.024 48.6825C162.079 48.8227 162.188 48.9351 162.327 48.995C162.449 49.0391 162.602 49.0171 162.786 48.9288L165.378 47.6701C165.69 47.5186 165.772 47.2888 165.623 46.9806C165.475 46.6725 165.244 46.5965 164.932 46.7526Z" fill="black"/>
<path d="M169.345 44.8766L167.873 44.1993L168.214 42.7673C168.258 42.6273 168.25 42.4758 168.189 42.3417C168.164 42.2881 168.128 42.2405 168.083 42.202C168.038 42.1635 167.985 42.1348 167.928 42.1179C167.801 42.0842 167.665 42.1007 167.549 42.1641C167.434 42.2107 167.333 42.2868 167.257 42.3848C167.181 42.4827 167.131 42.599 167.114 42.7221L166.894 43.7571L165.952 43.287C165.845 43.2281 165.725 43.1947 165.603 43.1895C165.479 43.1923 165.357 43.2239 165.247 43.2818C165.126 43.3331 165.029 43.4282 164.975 43.5482C164.951 43.6034 164.939 43.663 164.941 43.723C164.942 43.7831 164.956 43.8422 164.982 43.8964C165.049 44.0291 165.163 44.1325 165.301 44.1871L166.637 44.8052L166.266 46.3773C166.226 46.5171 166.237 46.6664 166.297 46.7987C166.323 46.8524 166.359 46.9002 166.404 46.9389C166.449 46.9776 166.502 47.0064 166.559 47.0233C166.686 47.0569 166.822 47.0404 166.938 46.9771C167.052 46.927 167.15 46.8484 167.225 46.7491C167.29 46.6488 167.337 46.5381 167.365 46.4217L167.626 45.2622L168.689 45.7845C168.798 45.8376 168.917 45.8673 169.038 45.8716C169.161 45.8715 169.283 45.8416 169.393 45.7845C169.515 45.7313 169.613 45.6345 169.667 45.5129C169.691 45.4577 169.702 45.3982 169.701 45.3383C169.7 45.2783 169.687 45.2192 169.662 45.1647C169.597 45.0318 169.483 44.9287 169.345 44.8766Z" fill="black"/>
<path d="M173.378 42.9162L171.907 42.2389L172.246 40.8069C172.291 40.667 172.283 40.5154 172.223 40.3812C172.197 40.3277 172.161 40.2801 172.116 40.2416C172.071 40.203 172.018 40.1744 171.962 40.1575C171.834 40.1234 171.698 40.1399 171.582 40.2037C171.466 40.2498 171.365 40.3257 171.289 40.4238C171.212 40.5218 171.163 40.6384 171.146 40.7617L170.926 41.7967L169.982 41.3275C169.875 41.2693 169.756 41.236 169.634 41.23C169.51 41.2331 169.388 41.265 169.278 41.3231C169.158 41.3735 169.061 41.4666 169.005 41.5843C168.982 41.6395 168.97 41.6991 168.971 41.7591C168.972 41.8192 168.986 41.8783 169.012 41.9325C169.079 42.0656 169.193 42.1691 169.332 42.2232L170.668 42.8422L170.297 44.4134C170.257 44.5535 170.268 44.703 170.328 44.8356C170.353 44.8892 170.39 44.9368 170.435 44.9753C170.48 45.0138 170.532 45.0425 170.589 45.0594C170.717 45.0934 170.853 45.0772 170.969 45.0141C171.082 44.964 171.181 44.885 171.254 44.7852C171.32 44.6856 171.368 44.575 171.395 44.4587L171.656 43.2992L172.719 43.8215C172.829 43.877 172.949 43.9084 173.072 43.9138C173.195 43.9137 173.317 43.8839 173.426 43.8267C173.549 43.774 173.646 43.677 173.7 43.5551C173.725 43.5003 173.737 43.441 173.737 43.381C173.737 43.3211 173.725 43.2618 173.7 43.2069C173.635 43.072 173.519 42.9678 173.378 42.9162Z" fill="black"/>
<path d="M175.583 37.1526C175.042 36.8653 174.463 36.8711 173.848 37.17C173.232 37.4689 172.869 37.9198 172.76 38.5228C172.651 39.1263 172.803 39.8518 173.214 40.6991C173.625 41.5464 174.104 42.1197 174.651 42.4192C175.198 42.7186 175.779 42.7186 176.393 42.4192C177.007 42.1197 177.366 41.6624 177.471 41.0473C177.574 40.4327 177.42 39.7017 177.008 38.8544C176.597 38.0071 176.122 37.4399 175.583 37.1526ZM175.954 41.5051C175.674 41.6409 175.4 41.6032 175.131 41.392C174.862 41.1807 174.582 40.7745 174.29 40.1733C174 39.5715 173.857 39.1054 173.861 38.7752C173.855 38.6297 173.892 38.4857 173.968 38.3616C174.045 38.2375 174.156 38.139 174.289 38.0788C174.568 37.943 174.839 37.9749 175.102 38.1746C175.366 38.3742 175.644 38.7746 175.936 39.3759C176.226 39.9771 176.371 40.4489 176.371 40.7913C176.371 41.1337 176.232 41.3728 175.954 41.5086V41.5051Z" fill="black"/>
<path d="M179.815 35.099C179.245 34.8257 178.636 34.8466 177.986 35.1617C177.671 35.307 177.401 35.5336 177.203 35.8181C177.019 36.0885 176.913 36.404 176.896 36.7304C176.886 37.0675 176.956 37.4022 177.099 37.7076C177.242 38.0131 177.454 38.281 177.719 38.4897C177.957 38.6689 178.238 38.7819 178.534 38.817C178.834 38.8483 179.136 38.7927 179.405 38.6568C179.664 38.5365 179.884 38.3447 180.038 38.104C180.185 37.8688 180.254 37.5931 180.235 37.3162L180.302 37.4538C180.804 38.4891 180.661 39.198 179.871 39.5804C179.736 39.6456 179.593 39.6942 179.446 39.7249C179.277 39.759 179.104 39.7707 178.932 39.7597C178.865 39.7531 178.798 39.7611 178.735 39.7834C178.672 39.8057 178.615 39.8416 178.567 39.8886C178.52 39.9356 178.483 39.9925 178.46 40.0552C178.437 40.118 178.429 40.185 178.435 40.2516C178.439 40.3791 178.486 40.5016 178.567 40.5998C178.61 40.6517 178.664 40.6937 178.725 40.7227C178.786 40.7517 178.853 40.7671 178.921 40.7678C179.16 40.7942 179.402 40.7848 179.639 40.7399C179.871 40.6975 180.096 40.624 180.309 40.5214C181.017 40.1785 181.456 39.6741 181.626 39.0085C181.796 38.3428 181.675 37.584 181.262 36.7321C180.867 35.9167 180.385 35.3724 179.815 35.099ZM179.702 37.1526C179.665 37.2584 179.609 37.356 179.534 37.4397C179.46 37.5234 179.37 37.5916 179.269 37.6402C179.168 37.6888 179.059 37.7168 178.947 37.7228C178.836 37.7288 178.724 37.7125 178.618 37.6749C178.401 37.5716 178.225 37.3973 178.12 37.1807C178.014 36.964 177.986 36.718 178.039 36.4831C178.076 36.3773 178.132 36.2797 178.207 36.196C178.281 36.1123 178.371 36.0441 178.472 35.9955C178.572 35.9469 178.682 35.9188 178.794 35.9129C178.905 35.9069 179.017 35.9232 179.123 35.9608C179.34 36.0641 179.516 36.2384 179.621 36.455C179.727 36.6717 179.755 36.9177 179.702 37.1526Z" fill="black"/>
<path d="M186.084 36.7539L184.613 36.0758L184.952 34.6438C184.997 34.5041 184.989 34.3529 184.929 34.219C184.903 34.1654 184.867 34.1178 184.822 34.0791C184.777 34.0404 184.724 34.0115 184.667 33.9944C184.54 33.9607 184.404 33.9772 184.288 34.0405C184.174 34.0915 184.074 34.1677 183.994 34.2634C183.923 34.3632 183.875 34.4781 183.854 34.5994L183.634 35.6335L182.692 35.1635C182.585 35.1045 182.466 35.0712 182.343 35.066C182.219 35.0687 182.097 35.1003 181.987 35.1582C181.867 35.2101 181.769 35.305 181.715 35.4246C181.691 35.4798 181.679 35.5394 181.681 35.5995C181.682 35.6595 181.696 35.7186 181.722 35.7728C181.789 35.9059 181.903 36.0095 182.041 36.0636L183.376 36.6825L183.006 38.2494C182.966 38.3895 182.977 38.539 183.037 38.6716C183.063 38.7252 183.099 38.7727 183.144 38.8113C183.189 38.8498 183.242 38.8785 183.299 38.8954C183.427 38.9285 183.562 38.912 183.678 38.8492C183.792 38.7994 183.89 38.7207 183.964 38.6211C184.03 38.5215 184.077 38.411 184.104 38.2947L184.365 37.1343L185.429 37.6566C185.539 37.7121 185.659 37.7435 185.782 37.7489C185.905 37.7482 186.027 37.7183 186.136 37.6618C186.259 37.6092 186.357 37.5126 186.411 37.3911C186.435 37.3362 186.447 37.2769 186.447 37.217C186.447 37.1571 186.435 37.0978 186.411 37.0429C186.344 36.9075 186.227 36.8038 186.084 36.7539Z" fill="black"/>
<path d="M151.655 57.8959C151.2 57.7368 150.819 57.4145 150.588 56.9914L147.555 50.7568C147.555 50.7568 147.456 50.6062 147.393 50.4896C147.345 50.4025 147.317 50.3364 147.363 50.3616C147.413 50.3961 147.459 50.4371 147.499 50.4835C147.5 50.4857 147.502 50.4875 147.505 50.4887C147.557 50.5436 147.625 50.6176 147.71 50.715C149.031 52.2193 150.949 52.9836 150.466 50.8195C150.387 50.4834 150.283 50.1537 150.155 49.8332C148.854 46.4983 146.275 48.0852 146.275 48.0852C144.051 49.2709 143.131 54.3198 143.131 54.3198L130.904 66.2711L129.645 67.5011L129.048 67.7501L121.556 70.8656L117.625 73.5451L117.14 77.2639L124.019 79.7109L133.833 75.0972L150.73 61.2152C153.261 60.1967 154.668 57.2256 154.668 57.2256C153.264 58.0918 152.297 58.1214 151.655 57.8959Z" fill="#F5AE97"/>
<path d="M150.464 50.8196C150.464 50.8196 150.203 52.8888 147.504 50.4888C147.556 50.5436 147.624 50.6176 147.709 50.7151C149.03 52.2193 150.948 52.9837 150.465 50.8196H150.464Z" fill="#ED856E"/>
<path d="M150.587 56.9915L147.554 50.7569C147.554 50.7569 147.455 50.6063 147.392 50.4896C147.507 51.0415 147.869 53.2291 146.577 54.3042C145.093 55.5403 149.195 60.3186 151.654 57.8959C151.199 57.7368 150.819 57.4145 150.587 56.9915Z" fill="#ED856E"/>
<path d="M129.645 67.4994L129.048 67.7484C129.048 67.7484 129.387 71.3271 130.665 71.8015C130.665 71.8015 129.935 67.9713 130.904 66.2694L129.645 67.4994Z" fill="#ED856E"/>
<path d="M96.1193 145.966L92.3934 158.144V182.02L102.464 153.698L101.91 146.401L96.1193 145.966Z" fill="#ED856E"/>
<path d="M101.91 144.459L92.3934 149.314L101.299 189.193H111.427L105.433 151.07L101.91 144.459Z" fill="#F5AE97"/>
<path d="M92.3934 109.7V158.144C92.3934 158.144 97.8687 160.662 102.727 156.525C102.727 156.525 107.855 158.863 111.453 154.906C111.453 154.906 119.638 156.975 121.26 149.87C121.26 149.87 107.443 126.073 105.985 110.9L92.3934 109.7Z" fill="#364547"/>
<path d="M103.781 115.106C105.545 142.82 117.191 150.227 117.191 150.227C110.205 143.889 103.781 115.106 103.781 115.106Z" fill="black"/>
<path d="M97.8138 116.274C92.7635 139.959 101.574 150.623 101.574 150.623C95.7946 140.895 97.8138 116.274 97.8138 116.274Z" fill="black"/>
<path d="M121.557 70.864C121.557 70.864 115.516 71.9251 112.072 69.9604L104.465 69.4764C104.465 69.4764 95.428 70.9562 92.3934 74.9824V109.699C92.3934 109.699 93.3138 110.619 94.875 111.459C97.3462 112.791 103.642 113.81 108.204 110.786C108.204 110.786 107.583 106.894 107.348 102.382C107.173 99.133 106.83 95.3767 108.839 93.3972C113.639 88.6694 115.615 85.3536 115.475 82.178L124.015 79.7075C124.015 79.7075 120.58 77.1447 121.557 70.864Z" fill="#FCFCD4"/>
<path d="M94.5128 45.4084C89.5339 50.2224 91.9354 66.1684 85.4571 70.1832C85.4571 70.1832 98.143 78.4635 102.653 59.0363L104.29 46.7055C104.29 46.7055 99.4918 40.5945 94.5128 45.4084Z" fill="#5A1F20"/>
<path d="M94.5982 47.0136C91.2379 52.0844 92.1601 59.448 90.5161 62.9179C90.5161 62.9179 92.2053 60.7172 93.1771 53.9429C94.1488 47.1686 98.2675 43.6709 102.532 46.0961C102.532 46.0961 97.9592 41.942 94.5982 47.0136Z" fill="#351314"/>
<path d="M92.8967 63.5386C92.8967 63.5386 95.2364 63.0825 96.0924 57.257C96.9483 51.4316 97.6327 50.0623 97.6327 50.0623C97.6327 50.0623 95.6517 53.3772 95.1798 58.1058C94.7079 62.8344 92.8967 63.5386 92.8967 63.5386Z" fill="#351314"/>
<path d="M100.916 56.4552C100.359 59.3654 98.9554 64.2211 95.6979 65.1743C90.7912 66.6098 92.4909 70.4783 85.4588 70.1832C85.4588 70.1832 98.1447 78.4635 102.655 59.0363L103.51 52.5945L105.112 47.704L103.913 46.2772C103.913 46.2772 97.7973 47.5299 100.916 56.4552Z" fill="#351314"/>
<path d="M90.6624 70.6951C98.776 71.1895 100.948 61.4093 100.948 61.4093L100.974 61.2117C97.0258 69.6818 90.6624 70.6951 90.6624 70.6951Z" fill="#5A1F20"/>
<path d="M114.777 47.3401L114.102 48.1314L107.201 56.2454C107.201 56.2454 103.974 53.3457 102.555 57.203C101.893 59.0171 102.862 60.4683 103.953 61.4424C103.953 61.4424 103.953 61.4476 103.961 61.4519C104.135 61.5991 104.304 61.7488 104.476 61.8689C104.888 62.1821 105.325 62.4619 105.782 62.7055C105.886 62.7575 105.973 62.8376 106.034 62.9367C106.095 63.0358 106.126 63.1499 106.125 63.2661C106.125 63.2661 106.536 68.1827 104.471 69.4728C104.471 69.4728 107.052 77.1046 110.265 76.6981C113.661 76.2628 112.121 71.3296 112.121 71.3296C111.947 70.9457 112.021 70.2232 112.144 69.559C112.155 69.5051 112.162 69.4511 112.173 69.4015C112.314 68.6963 112.5 68.0957 112.5 68.0957C112.935 68.5753 114.2 68.8069 114.2 68.8069C120.192 69.9508 121.936 58.6463 121.936 58.6463L122.353 56.107L123.224 50.8169L115.64 47.6918L114.777 47.3401Z" fill="#F5AE97"/>
<path d="M105.967 57.976L105.978 57.956C106.239 57.4659 105.726 56.8966 105.211 57.1107C104.783 57.2848 104.38 57.7497 104.534 58.897C104.834 61.1255 106.134 60.3508 106.137 59.6857C106.141 59.0206 105.587 58.655 105.967 57.976Z" fill="#ED856E"/>
<path d="M114.908 56.336C114.551 56.3156 114.195 56.3956 113.881 56.5667C113.573 56.7356 113.271 56.9819 113.178 57.3345C113.133 57.5007 113.173 57.6775 113.352 57.7514C113.497 57.8106 113.725 57.7462 113.769 57.5773C113.879 57.1743 114.437 56.9436 114.832 56.968C115.037 56.973 115.234 57.0486 115.39 57.1821C115.525 57.2952 115.613 57.4538 115.639 57.6278C115.697 58.0344 116.329 57.9447 116.27 57.5408C116.17 56.874 115.569 56.3734 114.908 56.336Z" fill="#072C35"/>
<path d="M120.225 56.7625C119.581 56.6459 118.959 57.0942 118.621 57.6104C118.571 57.6779 118.549 57.7622 118.56 57.8455C118.571 57.9288 118.614 58.0047 118.68 58.057C118.747 58.108 118.831 58.1305 118.915 58.1196C118.999 58.1086 119.074 58.0652 119.126 57.9987C119.347 57.6635 119.719 57.3319 120.108 57.3893C120.443 57.4372 120.87 57.7715 120.922 58.1136C120.927 58.1556 120.94 58.1963 120.961 58.2332C120.982 58.27 121.01 58.3023 121.043 58.3282C121.077 58.3541 121.115 58.3731 121.156 58.384C121.197 58.3949 121.24 58.3975 121.282 58.3918C121.324 58.386 121.364 58.3719 121.401 58.3503C121.437 58.3287 121.469 58.3001 121.494 58.2661C121.519 58.2321 121.538 58.1934 121.548 58.1522C121.558 58.1111 121.56 58.0684 121.553 58.0265C121.457 57.3919 120.835 56.8722 120.225 56.7625Z" fill="#072C35"/>
<path d="M119.914 59.0372C119.603 58.998 119.3 59.368 119.237 59.8633C119.174 60.3586 119.374 60.7939 119.684 60.8331C119.995 60.8722 120.299 60.5032 120.363 60.0078C120.426 59.5125 120.228 59.0773 119.914 59.0372Z" fill="#072C35"/>
<path d="M114.762 58.3286C114.434 58.2868 114.113 58.6768 114.047 59.1991C113.981 59.7214 114.192 60.1801 114.52 60.2219C114.848 60.2637 115.168 59.8737 115.235 59.3514C115.302 58.8291 115.09 58.3712 114.762 58.3286Z" fill="#072C35"/>
<path d="M104.473 61.8759C104.886 62.1871 105.322 62.4645 105.779 62.7055C105.779 62.7055 107.115 62.9937 107.495 61.7532C107.389 61.8576 106.257 62.9205 104.473 61.8759Z" fill="#ED856E"/>
<path d="M102.655 57.0124C100.386 50.2163 104.292 46.7081 104.292 46.7081C97.792 50.8631 102.655 57.0124 102.655 57.0124Z" fill="#416863"/>
<path d="M114.907 43.146C113.392 43.0056 111.874 43.3918 110.61 44.2394H110.606C110.29 44.4414 109.995 44.6747 109.726 44.9358C99.625 44.4588 102.553 57.2039 102.553 57.2039C103.17 55.3463 104.33 55.1051 105.34 55.328C106.393 55.5656 107.243 56.3456 107.668 57.338L107.982 58.0814C116.101 56.5049 115.924 51.2044 115.924 51.2044C116.608 54.6385 122.28 56.5267 122.28 56.5267C122.553 56.1936 122.791 55.833 122.989 55.4507C124.666 52.2107 122.815 48.6015 122.815 48.6015C119.809 44.686 117.081 43.3515 114.907 43.146Z" fill="#5A1F20"/>
<path d="M115.932 49.5643C115.932 49.5643 113.93 56.5859 108.022 56.3926C108.022 56.3926 104.166 51.3767 102.553 57.2065C103.17 55.3489 104.33 55.1077 105.34 55.3306C106.393 55.5682 107.243 56.3482 107.668 57.3406L107.982 58.084C116.101 56.5075 115.924 51.207 115.924 51.207C116.608 54.6412 122.28 56.5293 122.28 56.5293C122.553 56.1963 122.791 55.8357 122.989 55.4533C122.989 55.4533 116.746 53.6923 115.932 49.5643Z" fill="#351314"/>
<path d="M108.019 54.2981C113.078 54.6463 113.987 50.252 113.987 50.252C111.984 53.2752 108.019 54.2981 108.019 54.2981Z" fill="#351314"/>
<path d="M117.625 49.3658C117.625 49.3658 118.963 53.1238 122.966 54.0318C122.966 54.0318 120.228 52.6555 117.625 49.3658Z" fill="#351314"/>
<path d="M110.61 44.2393H110.606C110.29 44.4413 109.995 44.6746 109.726 44.9357C109.726 44.9357 110.926 45.1586 112.636 46.7638C112.636 46.7638 111.284 43.2539 114.907 43.139C113.391 43.0006 111.873 43.3892 110.61 44.2393Z" fill="#351314"/>
<path d="M109.802 64.8427C109.802 64.8427 109.802 68.0844 112.138 69.5591C112.149 69.5051 112.156 69.4511 112.167 69.4015C112.307 68.6964 112.493 68.0958 112.493 68.0958C112.493 68.0958 110.256 66.4252 109.802 64.8427Z" fill="#ED856E"/>
<path d="M117.041 63.8894C116.459 63.4925 115.854 63.8894 115.413 64.5319C114.971 65.1743 114.86 65.8376 115.442 66.232C116.025 66.6263 116.854 66.427 117.296 65.7802C117.737 65.1334 117.626 64.2873 117.041 63.8894Z" fill="#CB6655"/>
<path d="M117.08 63.8085C116.46 63.3845 115.815 63.8033 115.345 64.4927C114.874 65.1821 114.755 65.8803 115.376 66.3042C115.997 66.7282 116.881 66.5123 117.352 65.8228C117.823 65.1334 117.701 64.2316 117.08 63.8085Z" fill="#CB6655"/>
<path d="M94.0182 85.4093L92.3934 85.781V109.699C92.3934 109.699 93.3138 110.619 94.875 111.459C93.9721 95.2304 98.143 81.949 98.143 81.949C96.3283 83.2104 94.0182 85.4093 94.0182 85.4093Z" fill="#D3D2A9"/>
<path d="M92.3568 79.5883C91.4809 79.5883 90.6606 79.6361 89.9605 79.926C88.5926 80.491 87.6766 81.9761 87.6766 85.8168C87.6766 92.4387 89.7716 92.0461 92.3568 92.0461C92.7735 92.0551 93.187 91.9724 93.5681 91.8039C93.9492 91.6354 94.2887 91.3853 94.5624 91.0712C95.556 89.9648 95.9861 88.0244 95.9861 85.8168C95.9861 82.3774 94.9412 79.5883 92.3568 79.5883Z" fill="#ED856E"/>
<path d="M92.3568 79.5883C91.4809 79.5883 90.6606 79.6361 89.9605 79.926C89.2065 80.7965 88.7415 82.3321 88.7415 85.0533C88.7415 91.6744 90.8374 91.2818 93.4218 91.2818C93.8092 91.2855 94.1936 91.214 94.5537 91.0712C95.5473 89.9648 95.9774 88.0244 95.9774 85.8168C95.9861 82.3774 94.9412 79.5883 92.3568 79.5883Z" fill="#F5AE97"/>
<path d="M114.346 78.6942C114.409 80.1427 115.478 82.1763 115.478 82.1763L124.018 79.7057C117.536 81.0664 114.346 78.6942 114.346 78.6942Z" fill="#D3D2A9"/>
<path d="M162.776 224.558C223.649 224.558 272.997 220.156 272.997 214.726C272.997 209.295 223.649 204.893 162.776 204.893C101.903 204.893 52.5549 209.295 52.5549 214.726C52.5549 220.156 101.903 224.558 162.776 224.558Z" fill="#9AA163"/>
<path d="M87.5042 118.581C84.3407 112.87 78.8898 102.79 78.8898 102.79C79.0344 105.307 77.6551 112.924 75.6315 124.841C73.6079 136.758 77.7492 151.457 77.7492 151.457L78.3587 161.442L88.1981 165.933C88.1981 165.933 93.5532 159.383 93.5707 159.115C93.5881 158.847 92.8819 152.9 92.8819 152.9C97.0537 141.334 94.4884 131.18 87.5042 118.581Z" fill="#8C8226"/>
<path d="M85.976 168.113L90.7016 165.937C84.3843 151.064 80.3501 117.641 80.3501 117.641C80.3257 136.539 85.976 168.113 85.976 168.113Z" fill="#685E16"/>
<path d="M111.511 137.87C90.5039 143.909 81.8582 167.405 81.8582 167.405L81.8269 174.9L81.7947 183.219L84.6168 183.683C84.6168 183.683 85.7487 182.537 87.4467 181.016C90.0659 178.676 94.0235 175.451 97.2287 174.2C102.508 172.136 110.772 164.126 117.071 149.763C117.294 149.257 117.523 148.774 117.759 148.316C124.235 135.641 135.94 138.892 135.94 138.892C126.414 135.79 118.315 135.913 111.511 137.87Z" fill="#9AA163"/>
<path d="M81.8225 174.899L81.7903 183.218L84.6124 183.682C84.6124 183.682 85.7444 182.536 87.4423 181.015C106.503 143.859 118.528 139.23 118.907 139.091C100.688 143.335 86.5934 166.205 81.8225 174.899Z" fill="#848943"/>
<path d="M71.7323 137.031C65.9993 133.5 58.6127 131.318 49.0989 131.727C49.0989 131.727 60.6503 131.74 63.3426 145.003C63.4428 145.483 63.5281 145.984 63.6039 146.504C65.7024 161.269 71.2255 170.717 75.5331 173.955C78.1454 175.92 80.9492 179.885 82.7499 182.697C83.9158 184.525 84.6612 185.864 84.6612 185.864L87.3605 186.159L89.4573 178.531L91.3442 171.658C91.3442 171.658 89.4294 147.929 71.7323 137.031Z" fill="#9AA163"/>
<path d="M64.6418 136.259C64.9518 136.483 74.7843 143.795 82.7464 182.697C83.9123 184.525 84.6577 185.864 84.6577 185.864L87.357 186.159L89.4538 178.531C87.3091 169.348 80.2447 144.8 64.6418 136.259Z" fill="#848943"/>
<path d="M86.4288 180.832C86.4288 180.832 94.4588 164.554 121.92 158.031C121.917 158.031 95.6796 161.715 86.4288 180.832Z" fill="#364547"/>
<path d="M118.6 154.218C116.652 155.676 116.598 156.917 116.694 157.439C116.701 157.476 116.715 157.511 116.736 157.542C116.758 157.573 116.785 157.599 116.817 157.619C116.849 157.639 116.885 157.651 116.923 157.656C116.96 157.66 116.998 157.657 117.034 157.646C117.537 157.49 118.618 156.878 119.024 154.479C119.033 154.426 119.027 154.372 119.005 154.322C118.984 154.273 118.947 154.232 118.902 154.203C118.856 154.175 118.802 154.161 118.749 154.164C118.695 154.167 118.643 154.185 118.6 154.218Z" fill="#364547"/>
<path d="M115.554 155.01C113.725 156.616 113.773 157.857 113.905 158.368C113.914 158.404 113.931 158.439 113.954 158.468C113.978 158.498 114.007 158.522 114.041 158.539C114.075 158.556 114.112 158.566 114.15 158.567C114.187 158.568 114.225 158.562 114.26 158.547C114.75 158.352 115.779 157.657 115.995 155.234C116 155.181 115.989 155.128 115.963 155.081C115.937 155.034 115.898 154.997 115.85 154.973C115.803 154.948 115.749 154.939 115.696 154.946C115.643 154.953 115.594 154.975 115.554 155.01Z" fill="#364547"/>
<path d="M112.132 156.366C110.76 158.051 110.987 159.136 111.175 159.566C111.188 159.597 111.208 159.624 111.233 159.647C111.258 159.669 111.288 159.686 111.32 159.696C111.352 159.706 111.386 159.709 111.419 159.705C111.453 159.7 111.485 159.689 111.513 159.672C111.916 159.428 112.719 158.664 112.55 156.497C112.546 156.45 112.528 156.406 112.499 156.37C112.469 156.333 112.43 156.307 112.385 156.293C112.34 156.279 112.293 156.278 112.248 156.291C112.203 156.304 112.163 156.33 112.132 156.366Z" fill="#364547"/>
<path d="M108.954 157.463C107.942 159.387 108.379 160.406 108.652 160.79C108.672 160.818 108.697 160.841 108.726 160.858C108.755 160.874 108.787 160.885 108.821 160.888C108.854 160.892 108.888 160.888 108.92 160.878C108.952 160.867 108.981 160.85 109.006 160.827C109.354 160.507 109.989 159.599 109.394 157.509C109.381 157.463 109.355 157.422 109.318 157.392C109.282 157.361 109.237 157.342 109.19 157.337C109.142 157.332 109.094 157.341 109.052 157.364C109.01 157.386 108.976 157.421 108.954 157.463Z" fill="#364547"/>
<path d="M105.932 158.794C105.27 160.729 105.823 161.613 106.133 161.928C106.155 161.951 106.182 161.968 106.211 161.979C106.241 161.991 106.272 161.996 106.304 161.994C106.335 161.992 106.366 161.984 106.394 161.97C106.422 161.955 106.447 161.935 106.466 161.911C106.742 161.563 107.203 160.628 106.348 158.77C106.329 158.729 106.298 158.696 106.26 158.673C106.221 158.65 106.176 158.639 106.132 158.641C106.087 158.644 106.044 158.66 106.008 158.687C105.973 158.715 105.946 158.752 105.932 158.794Z" fill="#364547"/>
<path d="M102.635 159.652C102.598 159.626 102.554 159.611 102.509 159.61C102.464 159.61 102.419 159.623 102.382 159.647C102.344 159.672 102.315 159.708 102.298 159.75C102.281 159.792 102.277 159.838 102.287 159.882C102.707 161.885 103.636 162.361 104.064 162.475C104.095 162.483 104.126 162.484 104.158 162.479C104.189 162.474 104.218 162.462 104.245 162.445C104.271 162.427 104.293 162.404 104.31 162.378C104.327 162.351 104.338 162.321 104.342 162.289C104.404 161.852 104.32 160.811 102.635 159.652Z" fill="#364547"/>
<path d="M118.561 160.029C118.525 160.041 118.493 160.061 118.466 160.088C118.438 160.114 118.417 160.146 118.404 160.182C118.39 160.217 118.384 160.255 118.387 160.293C118.389 160.33 118.4 160.367 118.418 160.4C118.663 160.868 119.463 161.822 121.896 161.788C121.949 161.787 122.001 161.77 122.044 161.739C122.087 161.708 122.12 161.665 122.139 161.616C122.158 161.566 122.161 161.512 122.149 161.46C122.137 161.409 122.109 161.362 122.07 161.326C120.287 159.67 119.056 159.844 118.561 160.029Z" fill="#364547"/>
<path d="M115.808 161.005C115.771 161.015 115.738 161.032 115.709 161.057C115.68 161.081 115.656 161.111 115.64 161.145C115.623 161.179 115.614 161.216 115.613 161.254C115.612 161.292 115.619 161.329 115.634 161.364C115.841 161.85 116.561 162.863 118.993 163.018C119.046 163.021 119.099 163.009 119.145 162.982C119.191 162.955 119.228 162.914 119.251 162.866C119.274 162.818 119.282 162.764 119.274 162.712C119.266 162.659 119.242 162.61 119.206 162.571C117.557 160.783 116.315 160.86 115.808 161.005Z" fill="#364547"/>
<path d="M112.948 161.786C112.915 161.79 112.883 161.801 112.854 161.818C112.825 161.836 112.8 161.859 112.781 161.886C112.761 161.914 112.748 161.945 112.742 161.978C112.735 162.011 112.736 162.045 112.744 162.078C112.854 162.536 113.338 163.535 115.456 164.035C115.502 164.046 115.551 164.043 115.596 164.026C115.641 164.009 115.679 163.979 115.707 163.94C115.734 163.901 115.749 163.855 115.75 163.807C115.75 163.759 115.737 163.712 115.71 163.673C114.516 161.851 113.414 161.735 112.948 161.786Z" fill="#364547"/>
<path d="M110.249 162.404C110.215 162.401 110.181 162.405 110.149 162.416C110.117 162.427 110.087 162.444 110.063 162.468C110.038 162.491 110.018 162.519 110.005 162.551C109.992 162.582 109.986 162.616 109.988 162.65C110.005 163.121 110.282 164.196 112.26 165.104C112.303 165.124 112.351 165.13 112.398 165.122C112.445 165.114 112.489 165.093 112.523 165.06C112.558 165.027 112.582 164.985 112.592 164.938C112.602 164.892 112.598 164.843 112.581 164.799C111.777 162.778 110.717 162.446 110.249 162.404Z" fill="#364547"/>
<path d="M108.002 163.602C107.971 163.589 107.937 163.583 107.903 163.584C107.87 163.585 107.837 163.593 107.807 163.608C107.776 163.623 107.75 163.644 107.728 163.67C107.707 163.695 107.691 163.726 107.682 163.758C107.556 164.212 107.495 165.321 109.105 166.784C109.14 166.816 109.184 166.837 109.231 166.844C109.278 166.851 109.327 166.844 109.37 166.823C109.413 166.802 109.448 166.769 109.472 166.727C109.496 166.686 109.506 166.638 109.503 166.591C109.347 164.42 108.437 163.784 108.002 163.602Z" fill="#364547"/>
<path d="M105.261 164.696C105.232 164.68 105.199 164.67 105.166 164.668C105.132 164.666 105.098 164.671 105.067 164.683C105.035 164.695 105.007 164.713 104.983 164.737C104.959 164.76 104.941 164.789 104.929 164.82C104.76 165.261 104.593 166.358 106.061 167.968C106.093 168.003 106.135 168.028 106.181 168.039C106.227 168.051 106.276 168.048 106.321 168.031C106.366 168.014 106.404 167.985 106.432 167.946C106.46 167.907 106.475 167.861 106.476 167.813C106.523 165.637 105.678 164.918 105.261 164.696Z" fill="#364547"/>
<path d="M51.5109 138.727C81.4377 158.755 83.7861 181.795 83.7861 181.795C81.2426 154.818 51.5109 138.727 51.5109 138.727Z" fill="#364547"/>
<path d="M56.5569 135.767C55.9726 138.813 56.9923 140.032 57.5252 140.439C57.5632 140.468 57.607 140.489 57.6537 140.5C57.7004 140.511 57.7489 140.512 57.7961 140.503C57.8432 140.494 57.8878 140.475 57.927 140.447C57.9662 140.419 57.999 140.384 58.0232 140.342C58.3646 139.762 58.8574 138.253 57.1777 135.647C57.1409 135.589 57.0878 135.544 57.0252 135.518C56.9626 135.491 56.8935 135.483 56.8266 135.496C56.7598 135.509 56.6984 135.542 56.6503 135.59C56.6022 135.638 56.5697 135.7 56.5569 135.767Z" fill="#364547"/>
<path d="M59.8396 138.022C59.0185 141.016 59.9397 142.304 60.4387 142.756C60.4744 142.788 60.5165 142.812 60.5621 142.827C60.6078 142.841 60.656 142.846 60.7037 142.84C60.7513 142.835 60.7972 142.82 60.8385 142.795C60.8797 142.771 60.9153 142.738 60.9429 142.699C61.3286 142.148 61.9381 140.685 60.4683 137.951C60.4361 137.891 60.3867 137.842 60.3263 137.81C60.2659 137.778 60.1975 137.766 60.1297 137.773C60.062 137.781 59.9981 137.809 59.9464 137.853C59.8947 137.898 59.8575 137.956 59.8396 138.022Z" fill="#364547"/>
<path d="M63.3914 141.064C62.2237 143.579 62.8437 144.85 63.2173 145.322C63.2439 145.356 63.2774 145.383 63.3155 145.403C63.3536 145.423 63.3954 145.434 63.4382 145.436C63.481 145.439 63.5238 145.432 63.5637 145.416C63.6037 145.401 63.6399 145.377 63.67 145.347C64.0915 144.918 64.8447 143.72 63.9556 141.094C63.9363 141.036 63.9 140.986 63.8516 140.949C63.8031 140.912 63.7447 140.891 63.6839 140.887C63.6231 140.884 63.5627 140.899 63.5105 140.931C63.4584 140.962 63.4169 141.008 63.3914 141.064Z" fill="#364547"/>
<path d="M66.7185 143.681C65.0772 145.916 65.4333 147.285 65.705 147.822C65.7245 147.859 65.7517 147.892 65.7848 147.919C65.818 147.945 65.8563 147.965 65.8974 147.975C65.9385 147.986 65.9813 147.988 66.0232 147.981C66.0651 147.974 66.105 147.958 66.1403 147.935C66.6384 147.598 67.6145 146.573 67.2619 143.823C67.2537 143.764 67.228 143.708 67.1881 143.663C67.1482 143.618 67.0958 143.586 67.0376 143.571C66.9795 143.556 66.9181 143.558 66.8613 143.578C66.8045 143.597 66.7548 143.633 66.7185 143.681Z" fill="#364547"/>
<path d="M69.7984 146.549C67.9489 148.389 68.0821 149.714 68.2571 150.251C68.2697 150.289 68.2903 150.325 68.3175 150.354C68.3447 150.384 68.3779 150.408 68.415 150.424C68.452 150.44 68.4921 150.448 68.5324 150.447C68.5727 150.446 68.6125 150.437 68.649 150.42C69.1601 150.179 70.2163 149.368 70.286 146.764C70.2887 146.706 70.2739 146.649 70.2436 146.6C70.2132 146.551 70.1687 146.512 70.116 146.489C70.0632 146.466 70.0046 146.459 69.9479 146.47C69.8912 146.48 69.8391 146.508 69.7984 146.549Z" fill="#364547"/>
<path d="M73.8456 149.254C71.3144 149.889 70.751 151.096 70.6239 151.647C70.6145 151.687 70.6137 151.728 70.6215 151.768C70.6294 151.808 70.6457 151.845 70.6694 151.878C70.6931 151.912 70.7236 151.939 70.7588 151.959C70.7941 151.979 70.8333 151.992 70.8738 151.996C71.4363 152.05 72.7589 151.893 74.1539 149.688C74.1849 149.64 74.2008 149.583 74.1995 149.526C74.1982 149.469 74.1798 149.413 74.1466 149.367C74.1134 149.32 74.067 149.284 74.0133 149.264C73.9597 149.244 73.9013 149.241 73.8456 149.254Z" fill="#364547"/>
<path d="M49.8574 142.598C49.7945 142.624 49.7409 142.668 49.7034 142.725C49.6659 142.781 49.6462 142.848 49.6468 142.916C49.6475 142.984 49.6684 143.05 49.707 143.106C49.7456 143.162 49.8001 143.206 49.8635 143.23C52.7622 144.355 54.1406 143.57 54.6413 143.119C54.6769 143.087 54.7053 143.047 54.7246 143.004C54.7439 142.96 54.7536 142.912 54.7531 142.864C54.7526 142.816 54.7419 142.769 54.7217 142.725C54.7015 142.682 54.6723 142.643 54.636 142.611C54.1266 142.171 52.7317 141.414 49.8574 142.598Z" fill="#364547"/>
<path d="M57.493 145.005C56.9496 144.605 55.5007 143.96 52.7274 145.365C52.6665 145.396 52.6162 145.444 52.5831 145.504C52.5499 145.563 52.5355 145.631 52.5416 145.699C52.5477 145.767 52.574 145.832 52.6173 145.884C52.6605 145.937 52.7186 145.976 52.784 145.995C55.761 146.889 57.0741 145.995 57.5374 145.51C57.5705 145.475 57.5958 145.434 57.6116 145.389C57.6274 145.343 57.6335 145.295 57.6293 145.247C57.6251 145.2 57.6107 145.153 57.5872 145.111C57.5637 145.069 57.5316 145.033 57.493 145.005Z" fill="#364547"/>
<path d="M60.5667 147.214C60.0294 146.943 58.6571 146.59 56.4237 148.239C56.3745 148.275 56.3373 148.324 56.3169 148.382C56.2965 148.439 56.2938 148.501 56.3092 148.56C56.3246 148.619 56.3574 148.672 56.4032 148.712C56.4491 148.752 56.506 148.778 56.5665 148.785C59.3215 149.133 60.3455 148.152 60.6816 147.654C60.7055 147.618 60.7215 147.577 60.7286 147.535C60.7358 147.493 60.7338 147.449 60.723 147.408C60.7121 147.366 60.6926 147.328 60.6656 147.294C60.6387 147.261 60.605 147.233 60.5667 147.214Z" fill="#364547"/>
<path d="M63.5177 149.154C62.9378 148.995 61.5228 148.92 59.6585 150.978C59.6175 151.023 59.591 151.079 59.5823 151.14C59.5737 151.2 59.5834 151.261 59.6101 151.316C59.6369 151.371 59.6795 151.416 59.7323 151.446C59.7852 151.477 59.846 151.49 59.9067 151.486C62.6765 151.28 63.4863 150.118 63.7171 149.563C63.7334 149.523 63.7412 149.48 63.7398 149.437C63.7384 149.394 63.728 149.352 63.7091 149.314C63.6903 149.275 63.6635 149.241 63.6305 149.213C63.5975 149.186 63.559 149.166 63.5177 149.154Z" fill="#364547"/>
<path d="M65.6667 151.586C65.065 151.61 63.6936 151.966 62.5398 154.491C62.5147 154.547 62.5066 154.608 62.5168 154.668C62.5269 154.728 62.5547 154.784 62.5967 154.828C62.6386 154.872 62.6928 154.902 62.7521 154.915C62.8115 154.928 62.8734 154.923 62.9299 154.901C65.5073 153.867 65.9279 152.514 65.9775 151.915C65.9811 151.872 65.9757 151.829 65.9615 151.789C65.9474 151.749 65.9249 151.712 65.8956 151.681C65.8662 151.65 65.8307 151.626 65.7912 151.609C65.7518 151.593 65.7093 151.585 65.6667 151.586Z" fill="#364547"/>
<path d="M68.4583 154.114C67.8618 154.195 66.5304 154.679 65.6205 157.301C65.6005 157.359 65.5982 157.421 65.6139 157.48C65.6296 157.539 65.6626 157.592 65.7087 157.632C65.7547 157.672 65.8116 157.697 65.8721 157.704C65.9326 157.711 65.9939 157.7 66.0481 157.672C68.5158 156.4 68.8066 155.013 68.8014 154.411C68.8009 154.368 68.7913 154.326 68.7732 154.287C68.7552 154.248 68.7291 154.214 68.6967 154.186C68.6642 154.158 68.6262 154.137 68.5851 154.124C68.544 154.112 68.5008 154.109 68.4583 154.114Z" fill="#364547"/>
<path d="M109.767 169.314C100.989 165.733 93.8319 170.429 89.5165 174.745C87.9254 176.334 86.4991 178.08 85.2594 179.956C85.1537 180.113 85.092 180.295 85.0809 180.484C85.0697 180.673 85.1094 180.861 85.1958 181.03C85.4283 181.454 85.8706 181.511 86.2111 181.483C86.4356 181.46 86.6542 181.397 86.8563 181.296C87.431 181.016 88.0057 180.766 88.5804 180.548C103.967 174.628 118.91 189.241 123.364 194.152C123.462 194.259 123.591 194.332 123.733 194.362C123.874 194.391 124.022 194.376 124.154 194.317C124.287 194.258 124.397 194.159 124.47 194.033C124.542 193.908 124.574 193.763 124.56 193.619C124.028 188.272 121.522 174.11 109.767 169.314Z" fill="#C7C365"/>
<path d="M85.2585 179.957C85.1528 180.114 85.0912 180.296 85.08 180.485C85.0688 180.674 85.1085 180.863 85.195 181.031C85.4274 181.455 85.8698 181.512 86.2103 181.484C86.4348 181.461 86.6533 181.398 86.8555 181.297C87.4302 181.017 88.0049 180.767 88.5796 180.549C104.753 165.204 117.112 180.352 118.223 181.86C102.848 160.496 85.2585 179.957 85.2585 179.957Z" fill="#ADA43A"/>
<path d="M118.286 181.943C118.276 181.93 118.268 181.917 118.257 181.904C118.269 181.919 118.278 181.937 118.286 181.943Z" fill="#3C7219"/>
<path d="M118.286 181.943C118.291 181.952 118.297 181.959 118.303 181.968C118.299 181.963 118.294 181.954 118.286 181.943Z" fill="#3C7219"/>
<path d="M69.713 161.012C56.3854 157.704 45.1632 168.477 41.2866 172.81C41.1819 172.926 41.1168 173.073 41.1003 173.229C41.0839 173.385 41.1171 173.542 41.1951 173.678C41.2731 173.814 41.392 173.922 41.5349 173.986C41.6778 174.051 41.8374 174.068 41.991 174.037C49.0136 172.588 71.3875 169.351 81.0528 184.332C81.415 184.889 81.7581 185.473 82.082 186.084C82.1937 186.301 82.3438 186.496 82.5252 186.659C82.8047 186.901 83.2279 187.133 83.7016 186.911C83.8844 186.819 84.0393 186.679 84.15 186.507C84.2607 186.335 84.3232 186.136 84.3312 185.932C84.4453 183.502 84.3131 181.068 83.9367 178.665C82.9205 172.144 79.6639 163.482 69.713 161.012Z" fill="#C7C365"/>
<path d="M54.2651 166.594C55.8194 166.128 76.6668 160.357 81.0528 184.332C81.415 184.889 81.7581 185.473 82.082 186.084C82.1937 186.301 82.3439 186.496 82.5252 186.659C82.8047 186.901 83.2279 187.133 83.7016 186.911C83.8844 186.819 84.0393 186.679 84.15 186.507C84.2607 186.335 84.3232 186.136 84.3312 185.932C84.4453 183.503 84.3131 181.068 83.9367 178.666C81.0789 170.686 73.5966 160.151 54.2651 166.594Z" fill="#ADA43A"/>
<path d="M86.9713 197.25C86.9713 197.25 76.9803 162.43 108.79 115.944C108.79 115.946 74.9732 156.597 86.9713 197.25Z" fill="#364547"/>
<path d="M98.7682 114.766C97.8478 119.535 99.4395 121.435 100.272 122.079C100.331 122.125 100.4 122.158 100.473 122.175C100.546 122.192 100.622 122.194 100.695 122.18C100.769 122.166 100.839 122.136 100.9 122.093C100.962 122.05 101.013 121.994 101.051 121.929C101.587 121.024 102.362 118.669 99.7399 114.581C99.6825 114.491 99.5996 114.421 99.5018 114.379C99.404 114.337 99.2959 114.325 99.1913 114.345C99.0868 114.365 98.9906 114.416 98.9152 114.491C98.8397 114.566 98.7886 114.662 98.7682 114.766Z" fill="#364547"/>
<path d="M95.3313 120.026C94.7862 124.851 96.5225 126.62 97.4028 127.196C97.4656 127.238 97.5364 127.265 97.6106 127.277C97.6847 127.288 97.7605 127.284 97.8328 127.264C97.9052 127.244 97.9725 127.209 98.0304 127.161C98.0882 127.114 98.1352 127.054 98.1682 126.987C98.6306 126.041 99.2183 123.633 96.2848 119.761C96.2204 119.676 96.132 119.613 96.0309 119.578C95.9299 119.544 95.8209 119.541 95.7181 119.57C95.6152 119.598 95.5234 119.657 95.4544 119.738C95.3855 119.82 95.3426 119.92 95.3313 120.026Z" fill="#364547"/>
<path d="M92.8967 126.246C92.8276 126.181 92.7404 126.138 92.6466 126.122C92.5527 126.107 92.4564 126.12 92.3702 126.16C92.2839 126.2 92.2116 126.265 92.1627 126.347C92.1138 126.428 92.0904 126.523 92.0956 126.618C92.3325 130.948 94.1236 132.25 94.9847 132.624C95.0461 132.651 95.1126 132.664 95.1796 132.664C95.2466 132.663 95.3126 132.648 95.3734 132.62C95.4341 132.591 95.4882 132.551 95.532 132.5C95.5758 132.449 95.6083 132.39 95.6274 132.326C95.8947 131.427 96.0558 129.22 92.8967 126.246Z" fill="#364547"/>
<path d="M89.587 131.982C89.5063 131.932 89.4125 131.907 89.3176 131.91C89.2227 131.914 89.1311 131.946 89.0545 132.002C88.978 132.058 88.92 132.136 88.8881 132.226C88.8562 132.315 88.8519 132.412 88.8756 132.504C89.964 136.703 91.9772 137.623 92.8958 137.824C92.9614 137.838 93.0292 137.838 93.0947 137.824C93.1603 137.81 93.2221 137.782 93.2761 137.742C93.3301 137.702 93.3751 137.652 93.408 137.593C93.4409 137.535 93.461 137.47 93.467 137.403C93.5506 136.468 93.2694 134.272 89.587 131.982Z" fill="#364547"/>
<path d="M86.7823 137.936C86.7 137.901 86.609 137.891 86.5212 137.909C86.4334 137.926 86.3528 137.969 86.2897 138.032C86.2266 138.096 86.184 138.177 86.1674 138.264C86.1507 138.352 86.1608 138.443 86.1963 138.525C87.8159 142.269 89.8212 142.837 90.7042 142.889C90.7671 142.893 90.8301 142.883 90.889 142.861C90.9479 142.838 91.0014 142.803 91.0458 142.759C91.0903 142.714 91.1248 142.66 91.1469 142.601C91.1691 142.542 91.1784 142.479 91.1744 142.417C91.1169 141.534 90.5396 139.533 86.7823 137.936Z" fill="#364547"/>
<path d="M82.4782 144.218C82.3895 144.23 82.3065 144.268 82.2398 144.328C82.1731 144.387 82.1259 144.465 82.1041 144.552C82.0824 144.639 82.0871 144.73 82.1178 144.814C82.1485 144.898 82.2036 144.971 82.2762 145.024C85.585 147.414 87.5973 146.874 88.3827 146.468C88.4387 146.439 88.4879 146.398 88.527 146.349C88.5661 146.299 88.5943 146.242 88.6096 146.181C88.6249 146.12 88.627 146.056 88.6158 145.994C88.6047 145.932 88.5804 145.873 88.5447 145.821C88.0449 145.092 86.5237 143.668 82.4782 144.218Z" fill="#364547"/>
<path d="M113.442 120.606C108.58 120.558 106.998 122.468 106.511 123.404C106.476 123.471 106.457 123.544 106.453 123.619C106.449 123.694 106.461 123.769 106.488 123.839C106.515 123.909 106.557 123.972 106.611 124.025C106.664 124.078 106.729 124.118 106.799 124.144C107.788 124.507 110.246 124.846 113.801 121.533C113.88 121.461 113.936 121.366 113.961 121.261C113.986 121.156 113.978 121.047 113.939 120.946C113.901 120.846 113.832 120.76 113.744 120.699C113.655 120.638 113.55 120.606 113.442 120.606Z" fill="#364547"/>
<path d="M110.884 126.293C106.04 125.865 104.31 127.645 103.755 128.54C103.715 128.604 103.69 128.675 103.68 128.75C103.67 128.824 103.676 128.9 103.698 128.972C103.72 129.044 103.756 129.11 103.806 129.167C103.855 129.224 103.916 129.269 103.984 129.3C104.942 129.74 107.365 130.27 111.169 127.241C111.252 127.174 111.314 127.084 111.345 126.983C111.377 126.881 111.378 126.772 111.347 126.67C111.316 126.568 111.256 126.478 111.173 126.411C111.091 126.344 110.99 126.302 110.884 126.293Z" fill="#364547"/>
<path d="M107.188 132.615C102.985 131.519 101.198 132.83 100.576 133.536C100.531 133.586 100.498 133.645 100.478 133.709C100.458 133.773 100.452 133.841 100.461 133.907C100.469 133.974 100.491 134.038 100.526 134.095C100.561 134.153 100.608 134.202 100.663 134.24C101.44 134.769 103.497 135.596 107.297 133.492C107.38 133.446 107.448 133.376 107.491 133.291C107.535 133.207 107.552 133.111 107.54 133.016C107.528 132.922 107.488 132.833 107.426 132.762C107.363 132.69 107.28 132.639 107.188 132.615Z" fill="#364547"/>
<path d="M104.083 138.473C100.18 136.568 98.1691 137.5 97.4194 138.069C97.366 138.11 97.3218 138.161 97.2898 138.22C97.2578 138.279 97.2386 138.344 97.2337 138.411C97.2288 138.478 97.2381 138.545 97.2611 138.608C97.2841 138.671 97.3203 138.729 97.3671 138.777C98.0246 139.45 99.8775 140.666 104.018 139.355C104.109 139.326 104.189 139.271 104.248 139.196C104.307 139.122 104.342 139.031 104.349 138.936C104.356 138.841 104.335 138.746 104.287 138.664C104.24 138.581 104.169 138.515 104.083 138.473Z" fill="#364547"/>
<path d="M95.7075 142.851C95.6446 142.874 95.5873 142.91 95.5393 142.956C95.4913 143.003 95.4537 143.059 95.429 143.121C95.4043 143.183 95.3931 143.25 95.3961 143.317C95.3991 143.384 95.4162 143.449 95.4463 143.509C95.8703 144.35 97.2679 146.069 101.611 146.072C101.706 146.072 101.799 146.043 101.878 145.99C101.957 145.937 102.018 145.861 102.054 145.773C102.089 145.684 102.097 145.587 102.077 145.494C102.057 145.401 102.009 145.317 101.94 145.251C98.7951 142.255 96.5965 142.536 95.7075 142.851Z" fill="#364547"/>
<path d="M93.1292 148.144C93.0641 148.16 93.0033 148.191 92.9508 148.232C92.8983 148.274 92.8552 148.327 92.8245 148.386C92.7938 148.446 92.7761 148.511 92.7727 148.578C92.7692 148.645 92.78 148.712 92.8044 148.775C93.1466 149.651 94.3718 151.495 98.6985 151.909C98.7929 151.917 98.8876 151.898 98.9708 151.852C99.0539 151.807 99.1215 151.738 99.1651 151.654C99.2087 151.569 99.2262 151.474 99.2153 151.38C99.2045 151.286 99.1658 151.197 99.1043 151.125C96.2569 147.843 94.0418 147.913 93.1292 148.144Z" fill="#364547"/>
<path d="M96.1951 178.716H75.797C75.297 178.716 74.8175 178.914 74.4639 179.268C74.1104 179.621 73.9118 180.101 73.9118 180.601V212.329C73.9117 212.577 73.9603 212.822 74.055 213.05C74.1497 213.279 74.2886 213.487 74.4636 213.662C74.6387 213.837 74.8466 213.976 75.0753 214.071C75.3041 214.166 75.5493 214.215 75.797 214.215H96.1951C96.6953 214.215 97.175 214.016 97.5287 213.662C97.8824 213.309 98.0811 212.829 98.0811 212.329V180.599C98.0807 180.099 97.8817 179.62 97.5281 179.267C97.1744 178.914 96.6949 178.716 96.1951 178.716Z" fill="#FF6703"/>
<path d="M78.0121 178.716H75.797C75.297 178.716 74.8175 178.914 74.4639 179.268C74.1104 179.621 73.9118 180.101 73.9118 180.601V212.329C73.9117 212.577 73.9603 212.822 74.055 213.05C74.1497 213.279 74.2886 213.487 74.4636 213.662C74.6387 213.837 74.8466 213.976 75.0753 214.071C75.3041 214.166 75.5493 214.215 75.797 214.215H96.1951C96.6953 214.215 97.175 214.016 97.5287 213.662C97.8824 213.309 98.0811 212.829 98.0811 212.329V211.163C80.3484 206.205 78.2054 185.965 78.0121 178.716Z" fill="#DD4F00"/>
<path d="M216.596 168.578H146.396C145.871 168.577 145.35 168.68 144.864 168.881C144.378 169.081 143.937 169.376 143.565 169.747C143.193 170.118 142.898 170.559 142.696 171.045C142.495 171.53 142.391 172.051 142.391 172.576V210.725C142.391 211.787 142.813 212.805 143.564 213.556C144.315 214.307 145.334 214.729 146.396 214.729H216.596C217.657 214.728 218.674 214.306 219.423 213.556C220.173 212.806 220.595 211.789 220.596 210.729V172.577C220.596 171.516 220.175 170.499 219.425 169.749C218.674 168.999 217.657 168.578 216.596 168.578Z" fill="#FFBE40"/>
<path d="M142.395 172.576V210.725C142.393 211.714 142.76 212.669 143.425 213.402L143.979 213.912L201.9 168.764V168.578H146.396C145.871 168.578 145.351 168.681 144.865 168.882C144.38 169.083 143.939 169.377 143.568 169.749C143.196 170.12 142.901 170.561 142.7 171.046C142.499 171.531 142.395 172.051 142.395 172.576Z" fill="#FFCB57"/>
<path d="M216.596 168.577H201.483C202.544 168.579 203.561 169 204.311 169.75C205.061 170.5 205.482 171.517 205.484 172.577V210.726C205.482 211.786 205.061 212.803 204.311 213.552C203.561 214.302 202.544 214.724 201.483 214.726H216.596C217.121 214.726 217.642 214.622 218.127 214.421C218.612 214.22 219.054 213.925 219.425 213.554C219.796 213.182 220.091 212.742 220.292 212.256C220.493 211.771 220.596 211.251 220.596 210.726V172.577C220.596 172.052 220.493 171.532 220.292 171.046C220.091 170.561 219.796 170.12 219.425 169.749C219.054 169.377 218.612 169.083 218.127 168.882C217.642 168.681 217.121 168.577 216.596 168.577Z" fill="#DB891D"/>
<path d="M160.291 185.435L164.352 180.224L168.414 185.504V168.577H160.291V185.435Z" fill="#FFFEEB"/>
<path d="M217.888 120.104H217.011V106.207C217.011 93.4407 206.657 83.0894 193.887 83.0894C190.85 83.0895 187.844 83.6876 185.038 84.8494C182.233 86.0112 179.684 87.7141 177.537 89.8607C175.39 92.0074 173.687 94.5558 172.525 97.3604C171.364 100.165 170.766 103.171 170.766 106.207V120.104H170.745C168.759 120.104 166.854 120.892 165.45 122.296C164.046 123.7 163.257 125.604 163.257 127.59V161.095C163.257 163.081 164.046 164.985 165.45 166.389C166.854 167.793 168.759 168.581 170.745 168.581H217.891C219.877 168.581 221.782 167.793 223.186 166.389C224.59 164.985 225.379 163.081 225.379 161.095V127.588C225.379 126.605 225.185 125.631 224.809 124.723C224.432 123.815 223.88 122.99 223.184 122.295C222.489 121.6 221.663 121.048 220.754 120.673C219.846 120.297 218.872 120.103 217.888 120.104ZM208.008 120.104H179.767V106.207C179.767 98.4235 186.102 92.0905 193.887 92.0905C201.672 92.0905 208.008 98.4235 208.008 106.207V120.104Z" fill="#213D39"/>
<path d="M212.468 120.104H211.589V106.207C211.59 105.1 211.511 103.994 211.353 102.899C209.749 91.6996 200.112 83.0911 188.467 83.0911C187.541 83.0909 186.616 83.1458 185.698 83.2557C183.373 83.5317 181.105 84.1614 178.971 85.1229C178.455 85.355 177.949 85.6057 177.454 85.875C173.792 87.8609 170.733 90.7981 168.602 94.3769C166.47 97.9556 165.344 102.043 165.342 106.208V120.104H165.321C164.338 120.103 163.363 120.296 162.454 120.672C161.545 121.048 160.719 121.599 160.024 122.295C159.328 122.99 158.777 123.816 158.401 124.725C158.025 125.633 157.832 126.607 157.833 127.591V161.096C157.833 163.081 158.622 164.986 160.026 166.39C161.43 167.794 163.335 168.582 165.321 168.582H212.468C213.075 168.583 213.68 168.509 214.269 168.363C215.016 168.18 215.73 167.881 216.384 167.477C217.476 166.808 218.377 165.87 219.002 164.753C219.627 163.637 219.955 162.378 219.955 161.099V127.588C219.954 125.603 219.165 123.7 217.761 122.297C216.357 120.893 214.453 120.105 212.468 120.104ZM202.587 120.104H174.345V106.207C174.347 103.494 175.13 100.84 176.601 98.5607C178.071 96.2812 180.166 94.4727 182.636 93.351C183.672 92.8788 184.762 92.535 185.882 92.3273C186.608 92.1929 187.343 92.1155 188.081 92.0957C188.209 92.0957 188.342 92.0905 188.467 92.0905C195.114 92.0905 200.703 96.7042 202.195 102.901C202.368 103.618 202.484 104.347 202.543 105.082C202.573 105.453 202.587 105.828 202.587 106.207L202.587 120.104Z" fill="#1CBBBB"/>
<path d="M185.698 83.2539C183.373 83.53 181.105 84.1597 178.971 85.1211L188.081 92.1C188.209 92.1 188.342 92.0948 188.467 92.0948C195.114 92.0948 200.703 96.7085 202.195 102.906L211.589 110.099V106.211C211.59 105.104 211.511 103.999 211.353 102.903L185.698 83.2539Z" fill="#7FEFEC"/>
<path d="M165.342 120.104H165.321C164.065 120.104 162.83 120.419 161.728 121.021C160.626 121.624 159.694 122.493 159.017 123.551L216.384 167.472C217.476 166.803 218.377 165.865 219.002 164.748C219.627 163.631 219.955 162.373 219.955 161.093V159.478L165.343 117.667L165.342 120.104Z" fill="#7FEFEC"/>
<path d="M202.587 106.207V108.624L211.589 115.517V112.009L202.542 105.082C202.572 105.454 202.587 105.829 202.587 106.207Z" fill="#7FEFEC"/>
<path d="M174.938 87.4568L182.636 93.351C183.672 92.8788 184.762 92.535 185.882 92.3273L177.454 85.8733C176.582 86.3465 175.742 86.8754 174.938 87.4568Z" fill="#7FEFEC"/>
<path d="M157.835 127.588V128.662L209.974 168.58H212.468C213.075 168.58 213.68 168.507 214.269 168.36L158.16 125.403C157.944 126.111 157.834 126.848 157.835 127.588Z" fill="#7FEFEC"/>
<path d="M157.835 155.151L175.37 168.577H179.953L157.835 151.643V155.151Z" fill="#7FEFEC"/>
<path d="M188.466 130.632C186.774 130.632 185.137 131.234 183.849 132.33C182.561 133.427 181.705 134.946 181.435 136.616C181.165 138.286 181.499 139.997 182.376 141.444C183.254 142.89 184.618 143.977 186.224 144.509V156.942C186.218 157.24 186.271 157.536 186.381 157.813C186.491 158.091 186.656 158.343 186.865 158.556C187.073 158.769 187.323 158.938 187.598 159.054C187.873 159.169 188.168 159.228 188.466 159.228C188.764 159.228 189.06 159.169 189.335 159.054C189.61 158.938 189.859 158.769 190.068 158.556C190.277 158.343 190.441 158.091 190.551 157.813C190.661 157.536 190.715 157.24 190.709 156.942V144.509C192.315 143.977 193.679 142.89 194.556 141.443C195.433 139.997 195.767 138.286 195.497 136.616C195.227 134.946 194.371 133.427 193.083 132.33C191.795 131.233 190.158 130.631 188.466 130.632Z" fill="white"/>
<path d="M189.437 130.698C187.678 130.455 185.891 130.879 184.428 131.885C182.965 132.892 181.931 134.409 181.529 136.138C181.126 137.868 181.385 139.685 182.254 141.234C183.122 142.782 184.539 143.951 186.224 144.509V156.942C186.224 157.321 186.321 157.694 186.504 158.026C186.687 158.357 186.951 158.637 187.272 158.839C187.593 159.041 187.96 159.159 188.338 159.18C188.717 159.202 189.095 159.128 189.437 158.964C189.056 158.781 188.734 158.494 188.509 158.136C188.284 157.778 188.165 157.364 188.165 156.942V144.509C186.639 144.003 185.328 142.995 184.448 141.649C183.567 140.304 183.168 138.7 183.315 137.098C183.463 135.497 184.148 133.993 185.26 132.831C186.371 131.668 187.844 130.917 189.437 130.698Z" fill="#213D39"/>
<path d="M233.859 213.603L232.788 200.788L230.31 199.616L219.528 200.259L218.744 205.688L218.62 206.553L218.508 207.33L218.412 207.351L215.895 208.061L215.063 208.295C211.832 209.208 209.128 211.139 206.908 213.605C206.807 213.717 206.71 213.828 206.611 213.941C205.952 214.704 205.338 215.504 204.773 216.339C204.763 216.353 204.752 216.36 204.742 216.36H234.198L233.9 213.941L233.859 213.603Z" fill="#FFBE40"/>
<path d="M215.894 208.061L215.063 208.296C211.687 209.249 208.886 211.314 206.611 213.939C205.952 214.702 205.338 215.502 204.772 216.336C204.769 216.342 204.765 216.347 204.759 216.351C204.754 216.355 204.747 216.357 204.741 216.358H220.168C220.194 216.088 220.207 215.815 220.207 215.539C220.208 214.023 219.81 212.535 219.053 211.222C218.296 209.91 217.206 208.819 215.894 208.061Z" fill="#FEFE6E"/>
<path d="M233.859 213.603H206.908C206.807 213.714 206.71 213.825 206.611 213.939C205.952 214.702 205.338 215.502 204.772 216.336C204.769 216.342 204.765 216.347 204.759 216.351C204.754 216.355 204.747 216.357 204.741 216.358H234.198L233.9 213.939L233.859 213.603Z" fill="#FF6703"/>
<path d="M236.116 105.899L221.196 109.486L215.014 155.229L213.795 204.462C213.795 204.462 219.9 208.256 226.991 207.39C229.985 207.025 233.152 205.829 236.112 203.165L232.542 153.568L234.566 126.563L236.116 105.899Z" fill="#416863"/>
<path d="M234.567 126.563C231.36 127.252 227.131 123.042 227.131 123.042L224.171 160.076L226.993 207.39C229.986 207.025 233.154 205.829 236.114 203.165L232.544 153.568L234.567 126.563Z" fill="#213D39"/>
<path d="M253.77 211.339L251.702 198.651L249.14 197.677L238.439 199.156L238.084 204.63L238.027 205.501L237.976 206.284L237.882 206.313L235.429 207.217L234.617 207.516C231.468 208.678 228.922 210.814 226.902 213.443C226.81 213.563 226.721 213.681 226.632 213.801C226.034 214.613 225.485 215.459 224.987 216.335C224.977 216.349 224.967 216.359 224.957 216.359L254.324 214.061L253.838 211.672L253.77 211.339Z" fill="#FFBE40"/>
<path d="M235.428 207.216L234.617 207.514C231.326 208.729 228.696 211.006 226.631 213.799C226.034 214.611 225.485 215.457 224.986 216.333C224.977 216.348 224.967 216.357 224.956 216.358L240.339 215.154C240.344 214.883 240.336 214.61 240.314 214.334C240.196 212.823 239.682 211.37 238.825 210.12C237.967 208.871 236.795 207.869 235.428 207.216Z" fill="#FEFE6E"/>
<path d="M253.77 211.339L226.901 213.442C226.814 213.56 226.721 213.679 226.631 213.799C226.034 214.611 225.485 215.457 224.986 216.333C224.977 216.348 224.967 216.357 224.956 216.358L254.324 214.059L253.838 211.67L253.77 211.339Z" fill="#FF6703"/>
<path d="M245.283 136.757C245.283 136.731 245.288 136.705 245.29 136.68C245.31 136.416 245.332 136.157 245.356 135.903L245.361 135.853C245.432 135.093 245.519 134.374 245.622 133.705C246.916 125.275 246.218 112.996 243.891 110.058L227.133 112.429V163.209L233.451 205.123C233.451 205.123 241.516 209.626 252.393 202.872C253.026 202.478 253.67 202.047 254.321 201.574L245.622 159.186C245.622 159.186 244.595 145.672 245.283 136.757Z" fill="#416863"/>
<path d="M245.283 136.757C244.966 140.541 243.824 155.109 244.69 159.183L242.593 160.985H244.889L252.391 202.873C253.025 202.478 253.668 202.047 254.32 201.574L245.621 159.186C245.621 159.186 244.595 145.672 245.283 136.757Z" fill="#213D39"/>
<path d="M234.013 104.836L225.21 104.548L221.197 106.665V109.485C221.197 109.485 232.009 115.71 243.89 110.058L243.554 106.663L234.013 104.836Z" fill="#FFBE40"/>
<path d="M211.175 71.4341L209.735 72.4509L205.566 55.5229C205.566 55.5229 207.2 50.7073 204.946 47.6648C202.693 44.6224 200.494 39.4968 201.171 37.6949C201.335 37.2544 201.185 36.9889 200.88 36.9114C199.936 36.6607 197.515 38.1884 198.41 41.8324L199.312 45.2091L197.354 46.393L192.719 49.1961C192.719 49.1961 190.972 54.5401 195.762 58.7081C195.762 58.7081 201.004 87.3619 208.949 84.8235L214.412 82.1937L216.047 74.7595L214.807 71.1547L211.175 71.4341Z" fill="#F5AE97"/>
<path d="M199.171 41.3876C198.282 38.2538 200.825 36.941 200.825 36.941L200.879 36.9088C199.935 36.6581 197.514 38.1859 198.409 41.8298L199.311 45.2066L197.353 46.3904L198.721 47.0381L201.493 45.9221C201.493 45.9221 200.06 44.5232 199.171 41.3876Z" fill="#ED856E"/>
<path d="M201.494 45.9221C199.772 44.6973 197.171 45.452 195.53 46.1484C194.106 46.7397 192.919 47.7853 192.152 49.1221C191.431 50.4035 191.305 51.6291 191.5 52.7321C191.654 53.6191 192.035 54.4513 192.606 55.1477C193.301 55.9936 194.234 56.6116 195.285 56.922C196.335 57.2323 197.454 57.2208 198.498 56.8888C204.441 54.9954 204.375 50.6585 202.554 47.1712C202.306 46.6757 201.942 46.2471 201.494 45.9221Z" fill="#ED856E"/>
<path d="M201.494 45.9221C199.772 44.6973 197.171 45.452 195.53 46.1484C194.106 46.7397 192.919 47.7853 192.152 49.1221C191.431 50.4035 191.305 51.6291 191.5 52.7321C191.654 53.6191 192.035 54.4513 192.606 55.1477C193.312 55.7248 194.152 56.1164 195.048 56.2872C195.944 56.4579 196.868 56.4022 197.737 56.1253C203.68 54.232 203.616 49.8951 201.793 46.4078C201.705 46.239 201.605 46.0766 201.494 45.9221Z" fill="#F5AE97"/>
<path d="M243.604 70.3617C244.374 65.2744 245.459 61.6287 245.459 61.6287L238.787 58.3704C238.787 58.3704 226.225 56.8252 223.347 60.175C220.469 63.5247 211.175 71.4341 211.175 71.4341C212.526 72.6955 213.345 75.5134 213.82 77.9482C214.093 79.3521 214.291 80.7695 214.412 82.1945L222.221 76.7547C222.184 77.082 219.319 101.811 220.363 105.46C221.413 109.133 232.263 108.696 238.623 108.959C242.873 109.133 245.363 105.564 245.546 99.6692C245.637 96.746 245.16 93.2526 244.047 89.3632C242.293 83.2374 242.759 75.9347 243.604 70.3617Z" fill="#FF6703"/>
<path d="M214.412 82.1945L222.221 76.7547L222.786 71.6578L213.818 77.9482C214.091 79.352 214.29 80.7695 214.412 82.1945Z" fill="#DD4F00"/>
<path d="M243.604 70.3617L240.501 71.6579C240.501 71.6579 240.345 87.603 235.354 87.7519L224.371 89.909L225.441 99.1748C225.441 99.1748 242.534 100.853 245.545 99.6727C245.636 96.7495 245.159 93.2561 244.046 89.3667C242.293 83.2374 242.759 75.9347 243.604 70.3617Z" fill="#DD4F00"/>
<path d="M229.459 64.1419C229.404 64.4471 229.35 64.753 229.299 65.0594C229.153 65.9026 229.011 66.7467 228.873 67.5917C228.664 68.8632 228.461 70.1353 228.263 71.408C228.021 72.9958 227.788 74.5854 227.567 76.1767C227.316 77.9676 227.079 79.7603 226.857 81.5547C226.625 83.4449 226.412 85.3371 226.22 87.2313C226.032 89.1072 225.871 90.9867 225.741 92.8679C225.622 94.6211 225.535 96.376 225.506 98.1327C225.479 99.6535 225.493 101.18 225.598 102.696C225.685 103.883 225.81 105.08 226.103 106.237C226.16 106.463 226.224 106.687 226.298 106.908C226.355 107.082 226.626 107.006 226.569 106.833C226.22 105.798 226.065 104.702 225.959 103.619C225.826 102.172 225.766 100.719 225.778 99.2661C225.778 97.5617 225.846 95.8581 225.944 94.1571C226.051 92.3029 226.198 90.4513 226.37 88.6023C226.544 86.7093 226.746 84.8182 226.975 82.9292C227.191 81.0959 227.425 79.2647 227.676 77.4354C227.901 75.7937 228.137 74.1539 228.383 72.5162C228.587 71.164 228.798 69.8132 229.016 68.4639C229.17 67.5116 229.328 66.5596 229.49 65.6078C229.566 65.1621 229.646 64.7181 229.722 64.2724L229.732 64.215C229.762 64.0391 229.491 63.9634 229.459 64.1419Z" fill="#DD4F00"/>
<path d="M238.162 43.7867L232.585 34.3347L232.041 33.4128L231.109 33.6139L222.863 35.4464L222.816 40.9706L222.792 43.6213C222.792 43.6213 222.564 55.4002 228.85 55.2966L229.035 58.5175C229.035 58.5767 229.045 58.635 229.054 58.6916L229.066 58.7421C229.077 58.8057 229.092 58.8683 229.11 58.9301L229.866 64.1767L235.121 59.6501C235.793 59.1913 236.501 58.548 237.235 57.6653C237.256 55.4307 237.809 52.2229 238.019 51.1016C238.039 50.9834 238.092 50.873 238.171 50.7827C238.25 50.6923 238.352 50.6256 238.467 50.5898C238.973 50.4244 239.465 50.2186 239.938 49.9743C240.132 49.8812 240.331 49.7602 240.535 49.6383C240.54 49.6383 240.54 49.6331 240.545 49.6331C241.825 48.8374 243.062 47.536 242.71 45.5756C241.945 41.4111 238.162 43.7867 238.162 43.7867Z" fill="#F5AE97"/>
<path d="M228.845 55.2993L228.939 56.9437C233.893 55.711 233.715 52.417 233.715 52.417C231.922 55.0912 229.548 55.2949 228.845 55.2993Z" fill="#ED856E"/>
<path d="M240.024 45.0054C239.539 44.6973 238.913 45.1839 239.097 45.7279L239.105 45.7506C239.366 46.5088 238.743 46.7795 238.63 47.455C238.516 48.1306 239.699 49.1464 240.396 46.9371C240.755 45.8028 240.426 45.2666 240.024 45.0054Z" fill="#ED856E"/>
<path d="M230.871 42.8117C230.223 42.6037 229.458 42.8631 229.122 43.4663C228.915 43.8363 229.489 44.1549 229.695 43.7867C229.784 43.6286 229.928 43.5087 230.1 43.4498C230.299 43.3788 230.517 43.3788 230.716 43.4498C231.103 43.5743 231.555 44.0026 231.51 44.43C231.492 44.6041 231.684 44.753 231.848 44.7486C232.044 44.7434 232.149 44.5876 232.167 44.4108C232.205 44.0374 232.007 43.6892 231.774 43.4141C231.535 43.1332 231.222 42.9245 230.871 42.8117Z" fill="#072C35"/>
<path d="M224.714 42.1893C224.088 42.3042 223.447 42.8405 223.351 43.4951C223.342 43.58 223.366 43.6649 223.419 43.732C223.472 43.799 223.549 43.8429 223.633 43.8542C223.718 43.8655 223.804 43.8434 223.872 43.7926C223.941 43.7418 223.987 43.6663 224.001 43.5821C224.053 43.2339 224.493 42.8857 224.838 42.8335C225.237 42.7743 225.621 43.1147 225.85 43.4603C225.904 43.5285 225.983 43.5728 226.069 43.5838C226.155 43.5947 226.242 43.5713 226.311 43.5186C226.378 43.4642 226.422 43.3859 226.433 43.3001C226.444 43.2142 226.421 43.1275 226.369 43.0581C226.019 42.5279 225.378 42.0674 224.714 42.1893Z" fill="#072C35"/>
<path d="M224.76 44.3734C224.437 44.3586 224.157 44.7643 224.133 45.2788C224.11 45.7932 224.354 46.2215 224.676 46.2363C224.998 46.2511 225.279 45.8455 225.302 45.331C225.324 44.8165 225.082 44.3882 224.76 44.3734Z" fill="#072C35"/>
<path d="M230.116 44.5632C229.776 44.5484 229.481 44.9759 229.456 45.5208C229.432 46.0657 229.688 46.5158 230.027 46.5306C230.367 46.5454 230.664 46.1188 230.688 45.573C230.713 45.0272 230.457 44.5789 230.116 44.5632Z" fill="#072C35"/>
<path d="M236.886 49.3197C237.053 50.6455 238.458 50.588 238.458 50.588C238.965 50.4254 239.458 50.2216 239.931 49.9787C237.937 50.7221 236.975 49.4451 236.886 49.3197Z" fill="#ED856E"/>
<path d="M246.266 34.3243C245.764 33.9212 244.531 34.5141 244.054 34.77C244.037 34.7794 244.023 34.7936 244.014 34.8108C244.005 34.828 244.001 34.8475 244.003 34.8669C244.004 34.8863 244.011 34.9048 244.023 34.9202C244.035 34.9356 244.052 34.9472 244.07 34.9537C245.811 35.5491 246.869 34.81 246.266 34.3243Z" fill="#0E4959"/>
<path d="M244.549 31.4124C243.717 31.6988 243.504 33.5539 243.454 34.2903C243.453 34.3168 243.459 34.3432 243.473 34.3662C243.486 34.3892 243.505 34.408 243.529 34.4202C243.553 34.4324 243.579 34.4375 243.606 34.435C243.632 34.4325 243.657 34.4225 243.678 34.4061C245.633 32.8279 245.55 31.0668 244.549 31.4124Z" fill="#0E4959"/>
<path d="M231.109 33.6139L222.863 35.4463L222.816 40.9706C223.668 41.3092 225.12 41.4102 227.457 40.3412C231.912 38.3025 238.162 43.7867 238.162 43.7867L239.536 37.6931L232.581 34.3277L231.109 33.6139Z" fill="#ED856E"/>
<path d="M242.216 35.3819C242.763 30.3173 239.131 31.2148 236.22 28.5388C233.889 26.3956 233.25 28.9506 229.83 28.7765C228.976 28.7277 227.483 27.8528 226.284 27.4594C220.679 25.6182 220.74 32.45 220.74 32.45C220.74 32.4543 220.738 32.4582 220.735 32.4613C220.567 32.6685 218.361 35.6187 220.86 38.7229C222.818 41.1604 225.742 40.1445 226.838 39.5856C227.553 39.2182 228.326 38.958 229.128 38.9275C233.609 38.7612 238.162 43.7867 238.162 43.7867C241.882 41.8716 242.654 45.3414 242.654 45.3414C243.158 44.6631 243.623 43.9569 244.047 43.2261H244.053C248.064 36.2759 242.216 35.3819 242.216 35.3819Z" fill="#0E4959"/>
<path d="M241.055 37.3692C240.045 39.7562 236.502 40.3725 232.16 38.0378C227.817 35.7031 227.245 39.845 223.412 38.7342C219.678 37.6469 220.683 32.7146 220.735 32.4622C220.567 32.6693 218.361 35.6195 220.86 38.7238C222.818 41.1612 225.742 40.1453 226.838 39.5864C227.553 39.2191 228.326 38.9588 229.128 38.9283C233.609 38.7612 238.162 43.7866 238.162 43.7866C241.882 41.8715 242.654 45.3414 242.654 45.3414C243.158 44.6631 243.623 43.9568 244.047 43.226C240.185 43.5864 241.055 37.3692 241.055 37.3692Z" fill="#06252C"/>
<path d="M239.329 31.2444C242.095 34.259 239.529 37.4694 239.529 37.4694C243.524 33.9151 239.329 31.2444 239.329 31.2444Z" fill="#06252C"/>
<path d="M222.189 34.3931C222.189 34.3931 222.147 38.2076 227.473 37.1787C227.473 37.1822 223.969 37.4921 222.189 34.3931Z" fill="#06252C"/>
<path d="M222.488 30.8483C223.333 28.0627 226.842 28.4692 226.842 28.4692C222.809 27.0041 222.488 30.8483 222.488 30.8483Z" fill="#06252C"/>
<path d="M230.397 33.3545C230.397 33.3545 228.433 33.3388 227.827 31.1938C227.827 31.1938 227.195 33.0315 229.775 33.8054C229.775 33.8054 232.01 38.924 237.587 36.4491C237.587 36.4491 232.415 37.909 230.397 33.3545Z" fill="#06252C"/>
<path d="M229.684 49.5399L226.222 50.2363C226.175 50.2457 226.13 50.2652 226.091 50.2934C226.052 50.3216 226.019 50.3579 225.995 50.3998C225.971 50.4417 225.956 50.4883 225.952 50.5364C225.948 50.5845 225.954 50.633 225.97 50.6786C226.214 51.3558 226.894 52.7164 228.363 52.5197C229.832 52.323 230.064 50.669 230.088 49.8803C230.09 49.8295 230.08 49.7789 230.06 49.7324C230.039 49.686 230.008 49.6448 229.969 49.612C229.93 49.5793 229.884 49.5557 229.835 49.5432C229.786 49.5308 229.734 49.5296 229.684 49.5399Z" fill="#CB6655"/>
<path d="M229.858 64.1784L229.915 59.7571L229.274 60.2942L229.858 64.1784Z" fill="#DB891D"/>
<path d="M231.866 60.0783L229.858 64.1784L232.775 61.8219L232.647 60.9175L231.866 60.0783Z" fill="#DB891D"/>
<path d="M237.91 55.8911C237.889 55.8386 237.855 55.792 237.812 55.7554C237.769 55.7188 237.717 55.6934 237.662 55.6812C237.607 55.669 237.549 55.6705 237.495 55.6855C237.44 55.7006 237.39 55.7287 237.349 55.7675C236.565 56.5223 234.562 59.112 231.863 60.0783L232.298 64.9932C232.304 65.0648 232.329 65.1336 232.371 65.192C232.412 65.2505 232.469 65.2963 232.535 65.3247C232.601 65.353 232.674 65.3628 232.745 65.3528C232.816 65.3429 232.883 65.3136 232.939 65.2683C234.351 64.1131 237.895 61.0489 238.78 58.709C238.854 58.5168 238.854 58.304 238.78 58.1118L237.91 55.8911Z" fill="#FFBE40"/>
<path d="M228.396 56.5832C227.865 58.7882 228.114 63.6535 228.114 63.6535L229.915 59.7579C229.131 59.0615 228.883 55.8633 228.883 55.8633L228.396 56.5832Z" fill="#FFBE40"/>
<path d="M213.535 71.805C212.96 70.9092 212.523 70.3521 212.421 70.3634C211.97 70.4121 209.513 70.9989 209.735 72.4526C209.735 72.4526 212.609 79.7762 210.772 84.0304C210.772 84.0304 213.413 86.0465 216.6 83.6561C219.065 81.8089 215.495 74.8509 213.536 71.8067L213.535 71.805Z" fill="#FFBE40"/>
<path d="M213.535 71.805C212.96 70.9092 212.523 70.3521 212.421 70.3634C211.97 70.4121 209.513 70.9989 209.735 72.4526C209.735 72.4526 212.32 75.3819 213.044 78.2781C213.769 81.1743 214.676 79.3993 213.581 76.1993C212.485 72.9993 212.208 70.4992 213.535 71.805Z" fill="#DB891D"/>
<path d="M210.651 78.057L209.985 78.5663L210.905 79.3837L212.417 87.2609L215.708 93.7018L220.405 93.351V88.6546L218.759 79.6257L210.651 78.057Z" fill="#213D39"/>
<path d="M209.985 78.5662L212.147 89.8254L215.043 94.2111L219.739 93.8594V89.1638L218.095 80.1349L209.985 78.5662Z" fill="#468C94"/>
<path d="M211.416 79.4556C211.105 79.5427 210.972 80.052 211.119 80.603C211.266 81.154 211.641 81.5336 211.948 81.4509C212.254 81.3682 212.392 80.8546 212.245 80.3035C212.098 79.7525 211.727 79.373 211.416 79.4556Z" fill="black"/>
<path d="M211.238 79.4556C210.927 79.5427 210.794 80.052 210.941 80.603C211.089 81.154 211.464 81.5336 211.77 81.4509C212.077 81.3682 212.214 80.8546 212.066 80.3035C211.919 79.7525 211.548 79.373 211.238 79.4556Z" fill="#213D39"/>
<path d="M243.618 61.573C240.112 63.6413 240.455 69.9473 240.55 73.8037C240.659 78.2363 239.931 85.9543 239.931 85.9543L249.766 90.158C253.809 82.7151 248.025 67.1834 246.067 62.3886C245.974 62.1622 245.833 61.9586 245.654 61.7915C245.475 61.6244 245.262 61.4979 245.029 61.4205C244.797 61.3431 244.551 61.3167 244.307 61.343C244.064 61.3693 243.829 61.4477 243.618 61.573Z" fill="#FF6703"/>
<path d="M241.645 87.4507L238.845 88.3055L225.863 89.7436L224.374 89.909C224.374 89.909 221.105 84.7251 219.711 85.1055L220.407 88.6546L211.632 87.1225C211.632 87.1225 210.011 94.1049 214.512 97.9708C219.013 101.837 225.445 99.1747 225.445 99.1747L245.554 98.44L244.878 92.3308L241.645 87.4507Z" fill="#F5AE97"/>
<path d="M219.707 85.1055L220.404 88.6546L211.628 87.1225C211.628 87.1225 218.427 89.6409 220.777 88.9898C220.777 88.9898 220.672 85.5007 219.707 85.1055Z" fill="#ED856E"/>
<path d="M224.371 89.909C224.371 89.909 225.081 91.563 225.162 92.5771C225.162 92.5771 226.126 91.0972 225.858 89.7436L224.371 89.909Z" fill="#ED856E"/>
<path d="M247.64 86.877C245.689 85.0072 243.567 83.6039 242.173 83.8407C238.956 84.3882 238.843 88.3107 238.843 88.3107C242.469 92.141 243.849 97.7941 245.046 99.2644C246.243 100.735 252.332 96.4605 252.4 93.963C252.442 92.5441 250.186 89.3145 247.64 86.877Z" fill="#FFBE40"/>
<path d="M243.89 87.6456C240.713 85.2953 244.89 85.0071 247.639 86.8718C245.688 85.0019 243.567 83.5986 242.172 83.8354C238.955 84.383 238.842 88.3055 238.842 88.3055C238.842 88.3055 242.857 89.4694 246.33 94.1022C246.357 94.1388 246.384 94.1745 246.411 94.211C249.9 98.9353 247.066 89.9943 243.89 87.6456Z" fill="#DB891D"/>
</g>
<defs>
<clipPath id="clip0_225_4772">
<rect width="325" height="240" fill="white" transform="translate(0.5)"/>
</clipPath>
</defs>
</svg>
